<?xml version="1.0" encoding="UTF-8"?>
<svg id="Capa_1" data-name="Capa 1" xmlns="http://www.w3.org/2000/svg" viewBox="0 0 157.12 156.88">
  <defs>
    <style>
      .cls-1 {
        fill: #a3abb1;
      }

      .cls-2 {
        fill: #353d45;
      }

      .cls-3 {
        fill: #61686e;
      }

      .cls-4 {
        fill: #8a9199;
      }

      .cls-5 {
        fill: #a3aab0;
      }

      .cls-6 {
        fill: #a4abb2;
      }
    </style>
  </defs>
  <path class="cls-2" d="M88.81,156.87h-20.28c-6.78-.33-11.95-5.85-11.96-12.65l-.02-43.53-44.09-.05c-6.78,0-12.19-5.6-12.46-12.26v-19.11c.09-7.35,5.97-12.78,13.24-12.77l43.29.04.06-44.28c0-6.69,5.48-11.97,11.99-12.26h20.24c6.6.48,11.74,5.96,11.74,12.63v43.9s44.26.06,44.26.06c6.88,0,12.21,5.91,12.28,12.63v19.34c-.35,6.77-5.83,12.08-12.67,12.09l-43.86.03-.03,43.92c0,6.55-5.24,11.87-11.73,12.27Z"/>
  <g>
    <path class="cls-4" d="M89.55,67.77l.81-.38h52.95c.75,0,1.51.14,2.09.64l.02-5.83.38-.22h.23s.38.23.38.23l-.16,25.03c-.26,1.81-.98,2.35-2.74,2.56-17.93-.03-35.86,0-53.79.07v53.22c-.18,1.81-.75,2.65-2.62,2.94l-24.85.14-.23-.38c-.04-.2-.12-.37-.12-.6,2.04.04,4.1.02,6.17-.07-.44-.45-.66-1.05-.65-1.68l-.02-53.19.38-.81-.81.38c-20.56-.05-40.99-.02-61.28.07l-.23-.38-.02-.21.22-.38,5.81-.03-.43-.72c-.17-6.04-.23-12.09-.16-18.17.23-1.84.96-2.41,2.76-2.61h53.63s.14-.06.14-.06V13.4c.17-1.34.82-2.07,2.12-2.45h18.12c.75.38,1.13.56,1.13.56l.06-2.93c.04-.27.27-.29.53-.16l.38.17v58.84s-.16.33-.16.33Z"/>
    <path class="cls-3" d="M62.01,145.79l7.4-.08,17.66-.06c1.45-.1,2.26-1.14,2.26-2.57v-53.65s54.16-.01,54.16-.01c1.38,0,2.28-.82,2.37-2.2l.07-18,.09-7.24c3.12.73,5.76,3.46,5.77,6.9l.06,19.49c-.26,4.1-3.5,7.05-7.61,7.05h-48.96s-.02,49.19-.02,49.19c0,3.7-2.99,6.62-6.51,6.98h-19.86c-3.45,0-6.28-2.57-6.89-5.8Z"/>
    <path class="cls-6" d="M89.38,5.41l.38.22c.04.27.02,2.42-.04,2.53-.07.14-.23.21-.38.26-.05.02-.16.1-.16.22l-.06,3.82c-.43-.39-.83-1.12-1.52-1.12l-18.1-.02c-.91.32-1.73,1.01-1.73,2.09v54.36s-54.15,0-54.15,0c-1.4,0-2.34.85-2.38,2.25l.03,17.39c0,.97.69,1.62,1.45,1.88l-7.3.02-.12-1.32v-19.14c.24-3.62,3.13-6.98,6.98-6.99l49.52-.07.04-49.34c0-3.77,3.01-6.71,6.55-7.15h19.62s1.37.11,1.37.11Z"/>
    <path class="cls-3" d="M67.76,89.44l-.32.85-5.19,5.29v49.19s-.37.23-.37.23c-.13-.05-.19-.13-.19-.43v-49.19s-49.61-.06-49.61-.06c-3.38,0-5.95-2.91-6.64-5.83l7.25-.08h55.07Z"/>
    <path class="cls-3" d="M144.85,61.85l-.13.38h-49.19s-5.12,5.2-5.12,5.2l-.86.34c-.12,0-.23-.22-.23-.45V14.17s.01-5.74.01-5.74l.04-3.01c3.19.67,5.88,3.48,5.88,7.03l.03,49.22h49.14c.29,0,.36.07.42.19Z"/>
    <path class="cls-1" d="M144.85,61.85c.31,0,.67.02.94.12l-.02,7.21c-.49-1.07-1.29-1.41-2.47-1.41h-53.75s5.74-5.91,5.74-5.91h49.56Z"/>
    <path class="cls-5" d="M61.88,145.19v-.17s0-49.66,0-49.66l5.88-5.92.02,53.99c0,1.11.67,1.69,1.57,2.1l-6.54.06c-.44,0-.76-.07-.93-.41Z"/>
  </g>
</svg>