<?xml version="1.0" encoding="UTF-8"?>
<svg id="Capa_1" data-name="Capa 1" xmlns="http://www.w3.org/2000/svg" viewBox="0 0 157.12 156.88">
  <defs>
    <style>
      .cls-1 {
        fill: #5cb131;
      }

      .cls-2 {
        fill: #f18516;
      }

      .cls-3 {
        fill: #5db131;
      }

      .cls-4 {
        fill: #121a13;
      }
    </style>
  </defs>
  <path class="cls-4" d="M28.12,116.21l.05,29.28,10.39-.02v-61.49c0-3,2.35-5.79,5.41-5.79l17.53.02c3.12,0,5.21,2.97,5.21,5.95l.02,61.33h10.38s-.01-40.07-.01-40.07c0-3.04,2.15-6.07,5.35-6.07h17.67c3.17.01,5.17,3.09,5.17,6.07v40.09s10.38,0,10.38,0V60.32c0-2.84,2.38-5.6,5.22-5.6h17.74c2.79-.02,5.19,2.64,5.19,5.48l.03,85.28,11.11.04c1.43,0,2.31,1.52,2.14,2.78s-1.39,2.31-2.79,2.1l-1.52.03H2.41c-1.32,0-2.4-1.18-2.4-2.53V8.94C0,7.48,1.12,6.48,2.35,6.45c1.32-.03,2.53.97,2.53,2.48l.02,69.5c5.08-4.28,12.39-4.34,17.59-.2l18.25-16.09c-2.86-4.89-2.4-10.91,1.01-15.36,3.31-4.32,9-6.42,14.38-4.97,7.75,2.1,12.12,10.19,9.59,17.82l14.74,8.4c4.33-5.47,11.95-6.81,17.91-3.24l20.61-24.51c-3.27-4.08-3.91-9.59-1.8-14.35s6.86-7.95,12.02-8.14c5.3-.19,10.25,2.62,12.7,7.34,3.23,6.23,1.49,13.68-4.19,17.77-4.44,3.2-10.37,3.43-15.06.55l-20.65,24.58c2.73,3.53,3.71,8,2.4,12.62-1.05,3.68-3.92,7.05-7.86,8.76-4.77,2.07-10.28,1.18-14.26-2.24-4.25-3.65-5.98-9.42-4.16-14.85l-14.76-8.44c-4.79,6.01-13.53,6.92-19.5,1.95l-18.22,16.1c3.53,5.95,2.17,13.45-3.17,17.82-5.11,4.18-12.58,4.08-17.57-.23v11.08s17.97.06,17.97.06c2.88,0,5.24,2.55,5.25,5.54Z"/>
  <g>
    <rect class="cls-3" x="4.87" y="115.54" width="18.39" height="30.01"/>
    <g>
      <g>
        <circle class="cls-3" cx="129.74" cy="31.64" r="8.9"/>
        <circle class="cls-2" cx="91.2" cy="76.66" r="8.9"/>
      </g>
      <g>
        <circle class="cls-2" cx="13.79" cy="89.01" r="8.9"/>
        <circle class="cls-1" cx="52.66" cy="55.21" r="8.89"/>
      </g>
    </g>
    <g>
      <rect class="cls-3" x="86.75" y="93.36" width="86" height="18.38" transform="translate(27.2 232.3) rotate(-90)"/>
      <rect class="cls-3" x="43.46" y="83.05" width="18.39" height="62.51"/>
      <rect class="cls-2" x="82.02" y="104.18" width="18.36" height="41.37"/>
    </g>
  </g>
</svg>