<?xml version="1.0" encoding="UTF-8"?>
<svg id="Capa_1" data-name="Capa 1" xmlns="http://www.w3.org/2000/svg" viewBox="0 0 157.12 156.88">
  <defs>
    <style>
      .cls-1 {
        fill: #9198a0;
      }

      .cls-2 {
        fill: #121a13;
      }

      .cls-3 {
        fill: #7c8086;
      }

      .cls-4 {
        fill: #959ea5;
      }
    </style>
  </defs>
  <g>
    <path class="cls-2" d="M157.16,141.66c0,5.25-3.93,8.98-9.11,8.97l-13.31-.03c-4.83-.01-8.65-3.79-8.65-8.65V14.93c0-4.63,3.63-8.68,8.27-8.67l14.7.02c4.4,0,8.07,3.99,8.07,8.47l.04,126.91Z"/>
    <path class="cls-4" d="M151.27,14.4l-.1,120.58c-.13,1.67-.66,2.24-2.38,2.47l-13.82.04c-1.53-.16-2.81-.44-2.93-2.23V15.13c0-1.47.81-2.96,2.38-2.96l14.53-.04c1.27.23,1.91,1.04,2.34,2.27Z"/>
    <path class="cls-3" d="M132.03,135.27c.55,1.37,1.68,1.86,3.09,1.86l13.35-.03c1.14,0,2.61-.74,2.61-2.11l.19-120.58v120.76s-.09,7.17-.09,7.17c-.01,1.21-1.11,2.34-2.34,2.34h-14.31c-1.23.01-2.47-1.06-2.47-2.29l-.03-7.12Z"/>
  </g>
  <g>
    <path class="cls-2" d="M57.21,94.21l21.83,22.02c3.43,3.46,3.14,9.39-.18,12.7l-9.64,9.58c-3.35,3.33-9.15,3.33-12.56-.07l-37.69-37.65L2.82,84.65c-4.22-4.22-3.34-10.68.7-14.7L55.67,17.85c3.91-3.91,9.83-4.42,13.9-.33l9.34,9.36c3.27,3.79,3.52,9.54-.11,13.14l-22.4,22.26,52.91-.06c4.97,0,9.01,3.42,9.09,8.55v14.99c-.15,4.49-3.47,8.08-7.96,8.44h-53.24Z"/>
    <path class="cls-1" d="M72.68,28.99c.8.94.29,1.86-.32,2.75l-27.85,27.66-.4.75c-.27,1.89-.34,3.82-.2,5.79l-.35.7-1.34,1.45,67.83.02c1.25,0,2.36,1.09,2.37,2.22l-.05,9.78c-.31,1.43-1.13,1.69-2.47,1.8-22.04-.05-44.07-.02-66.07.11l.05,6.11-.37.22c-.12-.01-.3.02-.32.19l29.92,29.9c.28.5.12,1.03-.49,1.58l-5.47,5.43c-2.86,2.2-5.28,2.15-8.07-.11L10.2,76.59c-.99-1.27-1.85-2.74-.74-4.22L60.34,21.59c1.52-1.51,3.7-1.25,5.12.17l7.23,7.23Z"/>
    <path class="cls-3" d="M73.11,118.46l1.64,1.73c1,1.5,1,3.58-.35,4.91l-8.94,8.87c-1.63,1.62-3.86,1.18-5.36-.32L7.77,81.37c-2.11-2.11-2.3-5-.05-7.26l1.74-1.74c-.39,1.57-.02,2.93,1.15,4.1l48.79,48.67c2.17,2.17,5.58,1.97,7.64-.07l5.2-5.17c.41-.41.71-.9.88-1.44Z"/>
    <path class="cls-3" d="M43.51,88.37l-.05-6.81h66.5c1.07,0,2.33-.76,2.34-1.81l.12-9.4.07,9.58-.09,6.02c-.02,1.37-1.11,2.4-2.52,2.4H43.51Z"/>
    <path class="cls-3" d="M43.57,66.65l-.08-5.02c0-.96.29-2.06.99-2.75l9.15-9.1,18.48-18.3c.54-.84.82-1.62.57-2.48l1.76,1.8c1.62,1.66,1.24,4.05-.36,5.64l-22.44,22.25-8.08,7.96Z"/>
  </g>
</svg>