<?xml version="1.0" encoding="UTF-8" standalone="no"?>
<!-- Created with Inkscape (http://www.inkscape.org/) -->

<svg
   width="26.141088mm"
   height="26.227493mm"
   viewBox="0 0 26.141088 26.227493"
   version="1.1"
   id="svg1"
   xml:space="preserve"
   xmlns="http://www.w3.org/2000/svg"
   xmlns:svg="http://www.w3.org/2000/svg"><defs
     id="defs1" /><g
     id="layer1"
     transform="translate(-137.91632,-129.90362)"><g
       id="g165"
       transform="translate(39.422917,-1.0583333)"><path
         style="fill:#cdd1d5"
         d="m 100.33444,155.54769 c -1.782319,-1.78233 -2.154122,-2.7065 -1.551281,-3.85599 0.215445,-0.4108 1.953871,-2.28871 3.863171,-4.17312 l 3.47145,-3.42622 -3.55328,-3.58524 c -1.9543,-1.97189 -3.693101,-3.86012 -3.864,-4.19608 -0.527072,-1.03613 -0.07895,-2.01808 1.70095,-3.72723 2.64726,-2.54203 2.67623,-2.53089 8.34067,3.20645 l 2.80109,2.83714 3.68966,-3.69674 c 4.77114,-4.78029 5.30822,-4.90435 8.13744,-1.87969 1.07417,1.14837 1.24844,1.48831 1.24844,2.43517 0,1.06106 -0.13266,1.23393 -3.70416,4.82683 -2.03729,2.04949 -3.70417,3.79457 -3.70417,3.87795 0,0.0834 1.66688,1.80869 3.70417,3.83403 3.576,3.55502 3.70416,3.72043 3.70416,4.78055 0,1.00425 -0.14506,1.23742 -1.69689,2.72756 -1.46448,1.40627 -1.8331,1.62944 -2.69147,1.62944 -0.92514,0 -1.25926,-0.26242 -4.7854,-3.75851 l -3.79082,-3.7585 -3.79082,3.7585 c -3.61143,3.58066 -3.84105,3.75851 -4.85245,3.75851 -0.94678,0 -1.23636,-0.17471 -2.67646,-1.61481 z"
         id="path180" /><path
         style="fill:#b7bbc1"
         d="m 100.36528,155.4868 c -1.475905,-1.4759 -1.675693,-1.7968 -1.675693,-2.69147 0,-0.95171 0.233642,-1.25144 3.704163,-4.7518 2.0373,-2.0548 3.70417,-3.84486 3.70417,-3.97791 0,-0.13304 -1.66687,-1.92311 -3.70417,-3.97791 -3.427462,-3.45693 -3.704163,-3.80944 -3.704163,-4.71903 0,-0.80184 0.2221,-1.22046 1.205023,-2.27129 1.3935,-1.48976 2.77332,-2.24222 3.63046,-1.97979 0.32366,0.0991 2.28421,1.8561 4.35677,3.90446 l 3.7683,3.72428 3.63506,-3.65402 c 1.99928,-2.00971 3.91345,-3.75986 4.25371,-3.88923 1.02426,-0.38942 1.78744,-0.005 3.47338,1.75105 2.44633,2.54761 2.44428,2.55431 -2.22628,7.26242 l -3.83274,3.86357 3.70923,3.69691 c 2.04008,2.0333 3.77773,3.96481 3.86143,4.29223 0.26154,1.02305 -0.14742,1.92628 -1.53782,3.39643 -1.52763,1.61524 -2.59518,1.99055 -3.82532,1.34482 -0.41786,-0.21935 -2.3001,-1.95878 -4.18276,-3.8654 l -3.42302,-3.46658 -3.87288,3.84198 c -4.75091,4.71301 -4.76573,4.7174 -7.31685,2.16628 z"
         id="path179" /><path
         style="fill:#97a1a9"
         d="m 101.99688,156.92288 c -0.29104,-0.12435 -1.15425,-0.88809 -1.91823,-1.69719 -1.165156,-1.23397 -1.389063,-1.63039 -1.389063,-2.45927 0,-0.91783 0.272467,-1.26283 3.827423,-4.84638 l 3.82742,-3.8582 -3.82742,-3.85258 c -4.664619,-4.69529 -4.668109,-4.70666 -2.22483,-7.25108 1.65699,-1.72559 2.35748,-2.06455 3.44855,-1.66872 0.35057,0.12719 2.27454,1.86166 4.27548,3.85439 l 3.63808,3.62314 3.77357,-3.76683 c 3.60162,-3.5952 3.82201,-3.76683 4.83686,-3.76683 0.94883,0 1.23268,0.17116 2.63651,1.58979 1.3942,1.40891 1.57321,1.71025 1.57321,2.64843 0,1.0089 -0.17716,1.23611 -3.77061,4.83598 l -3.7706,3.77734 3.56588,3.54391 c 1.96123,1.94914 3.70396,3.87727 3.87273,4.28471 0.45244,1.09228 0.15238,1.82598 -1.41306,3.45523 -1.45666,1.51602 -2.67776,2.05778 -3.54465,1.57265 -0.25428,-0.14231 -2.10248,-1.90694 -4.10711,-3.92141 l -3.64477,-3.66267 -3.77435,3.76483 c -3.86245,3.85271 -4.62222,4.34289 -5.89102,3.80076 z"
         id="path178" /><path
         style="fill:#929ca5"
         d="m 101.99688,156.79112 c -0.43656,-0.19946 -1.30897,-0.896 -1.93867,-1.54784 -0.861749,-0.89205 -1.18153,-1.4581 -1.292931,-2.28866 l -0.148007,-1.10348 3.863578,-3.89465 3.86358,-3.89465 -3.82742,-3.85258 c -4.672011,-4.70273 -4.671981,-4.70263 -2.19798,-7.27904 1.47396,-1.53498 1.73101,-1.69689 2.69398,-1.69689 1.01231,0 1.23078,0.16704 4.45188,3.40378 1.86303,1.87208 3.57319,3.55804 3.80035,3.74656 0.35604,0.29549 0.93439,-0.17414 4.19179,-3.40378 3.49854,-3.46871 3.85167,-3.74656 4.76179,-3.74656 0.80684,0 1.22223,0.22375 2.31771,1.24844 1.6199,1.51523 2.18781,2.52754 1.95028,3.47641 -0.10084,0.40282 -1.75664,2.29471 -3.90696,4.46401 l -3.73195,3.7649 3.65176,3.67784 c 2.00847,2.02282 3.75509,3.84096 3.88138,4.04031 0.54896,0.86657 0.21648,1.63296 -1.45539,3.3548 -1.47468,1.51876 -1.81727,1.74371 -2.65565,1.74371 -0.88587,0 -1.26744,-0.30434 -4.78919,-3.81981 l -3.82664,-3.81981 -3.77031,3.75162 c -2.17502,2.16424 -4.05019,3.81222 -4.43177,3.89483 -0.3638,0.0788 -1.01865,-0.02 -1.45521,-0.21946 z m 19.31458,-3.06821 c 0.0899,-0.14552 -0.0221,-0.26458 -0.24897,-0.26458 -0.22686,0 -0.41249,0.11906 -0.41249,0.26458 0,0.14552 0.11204,0.26459 0.24897,0.26459 0.13694,0 0.32256,-0.11907 0.41249,-0.26459 z m -1.4499,-1.18423 c -0.18407,-0.2218 -0.45762,-0.40327 -0.60788,-0.40327 -0.15025,0 -0.057,0.23886 0.20717,0.53079 0.54717,0.60463 0.91199,0.48853 0.40071,-0.12752 z m -0.71988,-0.77876 c 0.6113,-0.0974 1.32428,-0.20159 1.5844,-0.23153 0.26012,-0.0299 0.59877,-0.23303 0.75256,-0.45131 0.23559,-0.33438 0.25641,-0.3246 0.13222,0.0621 -0.0912,0.28411 0.0372,0.55778 0.33713,0.7183 1.09287,0.58488 0.73542,-0.18872 -0.80564,-1.7436 -1.29679,-1.30842 -1.73321,-1.60357 -2.08931,-1.41299 -0.24757,0.13249 -0.5263,0.18655 -0.61941,0.12012 -0.0931,-0.0664 -0.0543,0.0161 0.0863,0.1833 0.18101,0.21537 0.35534,0.22247 0.59752,0.0243 0.24656,-0.20172 0.44174,-0.17148 0.69974,0.10841 0.30444,0.33026 0.2888,0.37563 -0.10484,0.30419 -0.25446,-0.0462 -0.51471,0.065 -0.57835,0.24695 -0.0764,0.21855 0.049,0.27745 0.36943,0.17348 0.40334,-0.13089 0.41822,-0.10931 0.0882,0.12806 -0.21828,0.15702 -0.72803,0.28731 -1.13278,0.28954 -0.40705,0.002 -0.80397,0.1814 -0.88821,0.40093 -0.0838,0.21828 -0.25488,0.39687 -0.38026,0.39687 -0.12539,0 -0.15321,-0.19484 -0.0618,-0.43298 0.11426,-0.29773 0.0497,-0.39415 -0.20674,-0.30868 -0.53366,0.17789 -0.46434,0.53478 0.28857,1.48586 0.41549,0.52485 0.6909,0.70172 0.74063,0.47565 0.0436,-0.19796 0.57933,-0.43961 1.19063,-0.53701 z m -1.66668,-0.0403 c 0,-0.0831 0.17694,-0.32812 0.39319,-0.54438 0.28985,-0.28984 0.51585,-0.32176 0.8599,-0.12144 0.41917,0.24407 0.40607,0.27257 -0.12861,0.2798 -0.32742,0.004 -0.59531,0.12711 -0.59531,0.27263 0,0.14552 -0.11906,0.26458 -0.26458,0.26458 -0.14552,0 -0.26459,-0.068 -0.26459,-0.15119 z m 4.49792,-0.11339 c -0.23847,-0.15411 -0.2711,-0.2581 -0.0818,-0.26053 0.17331,-0.002 0.3887,0.11501 0.47864,0.26053 0.20301,0.32848 0.11142,0.32848 -0.39688,0 z m -1.62125,-1.78594 c -0.32911,-0.41964 -0.31975,-0.429 0.0999,-0.0999 0.25466,0.19972 0.46302,0.40808 0.46302,0.46303 0,0.21776 -0.21727,0.0776 -0.56292,-0.36313 z m -13.99319,1.71979 c 0.90372,-0.99341 1.06774,-1.5799 0.23344,-0.83476 -0.55943,0.49966 -0.56272,0.49886 -0.37904,-0.0913 0.11244,-0.36127 0.0743,-0.59531 -0.0971,-0.59531 -0.15533,0 -0.28241,0.17267 -0.28241,0.38372 0,0.21106 -0.17458,0.48143 -0.38796,0.60084 -0.33632,0.18822 -0.31411,1.39669 0.0257,1.39669 0.0578,0 0.45718,-0.38696 0.88743,-0.8599 z m -5.18669,-0.0799 c 0.0904,-0.23546 0.046,-0.34166 -0.10398,-0.24896 -0.14386,0.0889 -0.26156,0.27368 -0.26156,0.41061 0,0.38059 0.18965,0.29672 0.36554,-0.16165 z m 1.96462,-0.25784 c -0.0815,-0.0815 -0.22941,0.0654 -0.32877,0.32632 -0.14359,0.37708 -0.11319,0.40748 0.14811,0.14811 0.18082,-0.17947 0.26212,-0.39297 0.18066,-0.47443 z m -0.28081,-0.7206 c -0.0613,-0.1819 0.0776,-0.48928 0.30868,-0.68306 0.37243,-0.31235 0.36005,-0.33309 -0.10907,-0.18276 -0.3816,0.12228 -0.44927,0.089 -0.24268,-0.11937 0.39503,-0.3984 1.02668,-0.10533 1.44082,0.66849 0.19057,0.35609 0.44124,0.64743 0.55705,0.64743 0.2996,0 0.77299,-0.9555 0.57266,-1.15584 -0.27003,-0.27002 -0.65424,-0.19128 -0.47576,0.0975 0.28144,0.45539 -0.18827,0.28827 -0.55773,-0.19843 -0.4596,-0.60544 -0.4589,-0.87805 0.002,-0.70127 0.20356,0.0781 0.46121,-0.005 0.57257,-0.18556 0.14279,-0.23105 0.0676,-0.27584 -0.25513,-0.15199 -0.37344,0.1433 -0.42438,0.071 -0.27702,-0.39328 0.13329,-0.41996 -0.13556,-0.26637 -1.02705,0.58672 -0.81687,0.78169 -1.12726,1.25239 -0.95929,1.45478 0.13656,0.16455 0.16995,0.37752 0.0742,0.47327 -0.0958,0.0958 -0.0253,0.1741 0.15664,0.1741 0.1819,0 0.28059,-0.14883 0.21931,-0.33073 z m 0.86107,-0.49425 c 0,-0.14552 -0.11906,-0.191 -0.26458,-0.10106 -0.14552,0.0899 -0.26459,0.28258 -0.26459,0.4281 0,0.14552 0.11907,0.191 0.26459,0.10106 0.14552,-0.0899 0.26458,-0.28258 0.26458,-0.4281 z M 115.8875,149.225 c 0,-0.14552 -0.0525,-0.26459 -0.11667,-0.26459 -0.0642,0 -0.19026,0.11907 -0.2802,0.26459 -0.0899,0.14552 -0.0374,0.26458 0.11668,0.26458 0.15411,0 0.28019,-0.11906 0.28019,-0.26458 z m -1.17035,-0.59532 c -0.0812,-0.32742 -0.0793,-0.44648 0.004,-0.26458 0.22197,0.4833 0.72217,0.40523 0.53465,-0.0834 -0.12475,-0.32509 -0.0313,-0.37827 0.43471,-0.24725 0.46509,0.13078 0.5077,0.10675 0.19677,-0.11094 -0.21828,-0.15282 -0.78382,-0.27968 -1.25677,-0.28191 -0.47294,-0.002 -0.85989,-0.12312 -0.85989,-0.26864 0,-0.14552 -0.1786,-0.26458 -0.39688,-0.26458 -0.21828,0 -0.39687,-0.12709 -0.39687,-0.28241 0,-0.16471 0.24811,-0.21458 0.59531,-0.11966 0.57121,0.15617 0.57389,0.14946 0.0661,-0.16562 -0.48169,-0.2989 -0.41047,-0.35511 0.79375,-0.62639 1.07014,-0.24107 1.40636,-0.228 1.75967,0.0684 0.79821,0.66965 0.74861,-0.10326 -0.0561,-0.87422 -0.43513,-0.41689 -0.74141,-0.88759 -0.68062,-1.04601 0.0608,-0.15842 -0.0466,-0.57969 -0.23864,-0.93616 -0.30806,-0.57182 -0.37039,-0.59347 -0.52938,-0.18386 -0.1886,0.48588 -1.32697,1.09084 -2.57806,1.37005 -0.55363,0.12355 -0.77561,0.36403 -0.89719,0.97197 -0.12934,0.64669 -0.26726,0.78016 -0.69155,0.6692 -0.39781,-0.10403 -0.4545,-0.0631 -0.22729,0.16411 0.40459,0.40458 0.3814,0.63921 -0.0807,0.81654 -0.27409,0.10517 -0.3354,0.019 -0.21505,-0.30243 0.14691,-0.39229 0.1115,-0.40329 -0.27806,-0.0864 -0.24552,0.19972 -0.44641,0.63918 -0.44641,0.97658 0,0.33739 -0.11906,0.68703 -0.26458,0.77697 -0.14552,0.0899 -0.26459,0.28968 -0.26459,0.44388 0,0.1542 0.37979,-0.0909 0.84398,-0.54478 0.46419,-0.45383 0.93242,-0.82515 1.04051,-0.82515 0.10809,0 0.2718,-0.23718 0.36381,-0.52708 0.15639,-0.49275 0.21737,-0.50119 0.93603,-0.12955 0.42281,0.21864 0.8973,0.63775 1.05444,0.93137 0.15714,0.29361 0.41719,0.45257 0.57789,0.35325 0.16972,-0.10489 0.21775,-0.0601 0.11459,0.10678 -0.0977,0.15805 0.089,0.4741 0.41487,0.70234 0.76746,0.53755 0.80284,0.52737 0.62728,-0.18034 z m -2.40152,-2.3151 c -0.0899,-0.14552 -0.0374,-0.26458 0.11668,-0.26458 0.15411,0 0.28019,0.11906 0.28019,0.26458 0,0.14552 -0.0525,0.26458 -0.11667,0.26458 -0.0642,0 -0.19026,-0.11906 -0.2802,-0.26458 z m 1.97649,-1.0436 c 0.15142,-0.28293 0.36965,-0.57273 0.48496,-0.644 0.30899,-0.19096 0.99778,0.30094 0.75765,0.54107 -0.11284,0.11284 -0.30474,0.044 -0.42644,-0.15286 -0.16975,-0.27467 -0.26296,-0.22668 -0.40032,0.2061 -0.0985,0.31027 -0.29427,0.56412 -0.4351,0.56412 -0.15843,0 -0.15109,-0.19615 0.0192,-0.51443 z m -1.56285,-0.004 c -0.22354,-0.13816 -0.20475,-0.27372 0.0695,-0.5013 0.37825,-0.31392 1.23668,-0.15857 1.23668,0.2238 0,0.29835 -0.94691,0.49952 -1.30615,0.2775 z m 5.2749,2.53558 c 0,-0.0549 -0.20836,-0.26331 -0.46302,-0.46303 -0.41964,-0.3291 -0.429,-0.31974 -0.0999,0.0999 0.34564,0.44073 0.56291,0.58089 0.56291,0.36313 z m -10.505,-2.53954 c -0.0876,-0.33483 0.11237,-0.39192 1.09793,-0.31354 0.75847,0.0603 1.20499,-0.0121 1.20499,-0.19539 0,-0.16017 -0.11906,-0.29122 -0.26459,-0.29122 -0.48015,0 -0.27513,-0.49016 0.27852,-0.66588 0.40977,-0.13006 0.47307,-0.25675 0.25783,-0.5161 -0.21064,-0.2538 -0.17968,-0.38425 0.11836,-0.49861 0.5336,-0.20476 0.51834,-0.70066 -0.0216,-0.70066 -0.2626,0 -0.36893,-0.14661 -0.27806,-0.3834 0.1005,-0.26191 0.02,-0.33462 -0.25406,-0.22946 -0.28431,0.1091 -0.31892,0.23622 -0.11882,0.43632 0.53145,0.53145 0.28182,0.63217 -0.8978,0.36223 -0.73145,-0.16738 -1.11454,-0.37977 -1.00755,-0.55861 0.1078,-0.18018 0.0294,-0.17279 -0.20889,0.0197 -0.37881,0.30604 -0.52023,0.35323 -1.05859,0.35323 -0.15411,0 -0.20541,0.121 -0.11401,0.2689 0.0914,0.14789 0.29542,0.18903 0.45337,0.0914 0.16025,-0.099 0.21193,-0.0557 0.11692,0.098 -0.0936,0.15152 0.0299,0.43781 0.27449,0.6362 0.37788,0.30646 0.41108,0.30483 0.22079,-0.0109 -0.15202,-0.25225 -0.12584,-0.31098 0.0815,-0.18283 0.45917,0.28379 0.3681,1.17853 -0.20135,1.97825 -0.47377,0.66534 -0.47635,0.71175 -0.0396,0.71175 0.29138,0 0.42693,-0.15407 0.36016,-0.40937 z m 0.91386,-1.76913 c 0.1819,-0.0734 0.47955,-0.0734 0.66145,0 0.1819,0.0734 0.0331,0.13345 -0.33073,0.13345 -0.3638,0 -0.51263,-0.06 -0.33072,-0.13345 z m -2.11318,-2.69576 c -0.0463,-0.2789 0.19596,-0.47214 0.72411,-0.57751 0.70069,-0.13979 0.62315,-0.18473 -0.66146,-0.38332 -2.31567,-0.35797 -2.41194,-0.3536 -2.31043,0.10491 0.0511,0.23079 0.23466,0.38985 0.40792,0.35347 0.17326,-0.0364 0.28525,0.041 0.24887,0.17203 -0.0364,0.131 0.17198,0.47317 0.46302,0.76037 0.58346,0.57578 1.25269,0.32068 1.12797,-0.42995 z m 4.94836,2.2e-4 c -0.14908,-0.15694 -0.65237,0.24081 -0.65237,0.51556 0,0.14267 0.16658,0.10588 0.37019,-0.0818 0.2036,-0.18764 0.33058,-0.38285 0.28218,-0.4338 z m 2.25804,0.37284 c 0,-0.0642 -0.11906,-0.19026 -0.26458,-0.2802 -0.14552,-0.0899 -0.26458,-0.0374 -0.26458,0.11668 0,0.15411 0.11906,0.2802 0.26458,0.2802 0.14552,0 0.26458,-0.0525 0.26458,-0.11668 z m -3.24949,-0.47864 c -0.0652,-0.1819 -0.0114,-0.53908 0.11956,-0.79375 0.16264,-0.31623 0.13732,-0.46302 -0.0799,-0.46302 -0.1749,0 -0.24266,-0.0753 -0.15058,-0.16741 0.16759,-0.16759 -1.02952,-1.24828 -1.21985,-1.10122 -0.0555,0.0429 -0.31734,-0.10059 -0.58181,-0.31887 -0.44918,-0.37073 -0.46018,-0.35805 -0.1669,0.19238 0.36491,0.68485 1.1968,1.1966 1.5001,0.92279 0.11522,-0.10402 0.11883,-0.0322 0.008,0.15964 -0.11081,0.19182 -0.38486,0.27839 -0.60901,0.19238 -0.34272,-0.13151 -0.35276,-0.0904 -0.0631,0.25859 0.18942,0.22823 0.5101,0.35139 0.71263,0.27367 0.20252,-0.0777 0.30212,-0.0344 0.22133,0.0964 -0.0808,0.13073 -0.0742,0.42702 0.0146,0.65843 0.18906,0.49268 0.47007,0.57845 0.29493,0.09 z m 3.68134,-0.55017 c -0.15263,-0.60811 -0.13458,-0.61359 1.35555,-0.41138 0.83062,0.11272 1.55209,0.33053 1.60326,0.48403 0.11943,0.35829 0.57809,0.3646 0.57809,0.008 0,-0.32955 -1.30157,-0.89704 -1.85208,-0.80752 -0.3186,0.0518 -0.33164,-0.002 -0.0661,-0.27506 0.1819,-0.18679 0.3289,-0.46463 0.32667,-0.61743 -0.002,-0.1528 -0.10798,-0.11373 -0.235,0.0868 -0.14029,0.2215 -0.368,0.27993 -0.58007,0.14886 -0.77093,-0.47646 -1.55316,-0.33594 -2.16275,0.38851 -0.33875,0.40258 -0.8482,0.86672 -1.13212,1.03142 -0.28392,0.1647 -0.38344,0.30308 -0.22117,0.3075 0.16228,0.004 0.5906,-0.22443 0.95182,-0.50857 0.6788,-0.53394 1.26668,-0.33101 1.26668,0.43724 0,0.18918 0.0724,0.34396 0.16097,0.34396 0.0885,0 0.0914,-0.27734 0.006,-0.61632 z m 0.16347,-0.88183 c -0.1819,-0.0734 -0.33073,-0.23144 -0.33073,-0.35121 0,-0.27039 1.01376,-0.0243 1.21036,0.2938 0.15296,0.24749 -0.33038,0.27904 -0.87963,0.0574 z m -0.59532,0.96898 c 0,-0.14552 -0.11906,-0.26458 -0.26458,-0.26458 -0.14552,0 -0.26458,0.11906 -0.26458,0.26458 0,0.14552 0.11906,0.26459 0.26458,0.26459 0.14552,0 0.26458,-0.11907 0.26458,-0.26459 z m -9.05157,-1.41172 -0.71721,-0.32606 0.58491,-0.38788 c 0.32171,-0.21333 0.79129,-0.47261 1.04353,-0.57616 0.25224,-0.10355 0.398,-0.34623 0.32392,-0.53928 -0.0952,-0.2481 0.13771,-0.35826 0.79445,-0.37576 0.53767,-0.0143 0.86238,0.0832 0.77069,0.2316 -0.0871,0.141 -0.38329,0.19756 -0.65811,0.1257 -0.27482,-0.0719 -0.43295,-0.0227 -0.3514,0.10924 0.20678,0.33457 1.17538,0.30136 1.17538,-0.0403 0,-0.15411 0.12785,-0.20118 0.28411,-0.10461 0.15627,0.0966 0.12675,-0.0764 -0.0656,-0.38439 -0.19234,-0.30799 -0.50497,-0.50041 -0.69473,-0.42759 -0.18976,0.0728 -0.28353,0.0329 -0.20839,-0.0887 0.0751,-0.12159 -0.21633,-0.55922 -0.64772,-0.97252 -0.43139,-0.41329 -0.79319,-0.6994 -0.804,-0.6358 -0.28398,1.67036 -0.638,2.19733 -1.35092,2.0109 -0.26483,-0.0692 -0.4815,-0.0329 -0.4815,0.0808 0,0.31584 -1.66099,1.05054 -1.97367,0.87301 -0.15141,-0.086 0.008,0.15527 0.35514,0.5361 0.34674,0.38083 0.76346,0.66792 0.92605,0.63798 0.16258,-0.0299 0.27345,0.0716 0.24637,0.22556 -0.0274,0.15557 0.44295,0.29647 1.05833,0.31706 1.08004,0.0361 1.08974,0.029 0.39037,-0.28899 z m -1.66521,-0.9714 c -0.18378,-0.29736 0.59106,-0.68704 0.85042,-0.42769 0.0907,0.0907 -0.0405,0.16498 -0.29161,0.16498 -0.25113,0 -0.383,0.11906 -0.29307,0.26458 0.0899,0.14552 0.10399,0.26459 0.0312,0.26459 -0.0728,0 -0.20639,-0.11991 -0.29697,-0.26646 z m 2.89733,-1.87326 c -0.0978,-0.1582 -0.0708,-0.39463 0.06,-0.52539 0.14061,-0.14061 0.23775,-0.0231 0.23775,0.28764 0,0.60119 -0.049,0.64028 -0.29773,0.23775 z m 13.95654,2.22251 c 0.88835,-0.8511 1.02684,-1.57673 0.21834,-1.14403 -0.28805,0.15416 -0.8536,0.19813 -1.25677,0.0977 -0.65362,-0.1628 -0.69473,-0.13609 -0.37952,0.24659 0.19443,0.23605 0.2767,0.55345 0.18282,0.70535 -0.17746,0.28714 0.0315,0.80534 0.3247,0.80534 0.0926,0 0.50228,-0.31994 0.91043,-0.71096 z m -4.81417,-0.33907 c 0,-0.14096 -0.17859,-0.18775 -0.39687,-0.10399 -0.21829,0.0838 -0.39688,0.19909 -0.39688,0.25628 0,0.0572 0.17859,0.10399 0.39688,0.10399 0.21828,0 0.39687,-0.11533 0.39687,-0.25628 z m 1.65365,-0.93435 c 0.12474,-0.16632 0.30313,-0.11719 0.48035,0.13229 0.22564,0.31766 0.25048,0.28431 0.12441,-0.1671 -0.0995,-0.35639 -0.0214,-0.61621 0.21225,-0.70587 0.45645,-0.17516 0.73295,-1.45936 0.36339,-1.68776 -0.1546,-0.0956 -0.1893,-0.0363 -0.0812,0.1386 0.10558,0.17083 0.0361,0.30871 -0.15756,0.31282 -0.42631,0.009 -1.88569,1.46348 -1.95717,1.95054 -0.0595,0.40546 0.71612,0.42568 1.01552,0.0265 z m 1.52638,-0.27064 c 0.27961,-0.33691 0.26324,-0.37562 -0.0999,-0.23627 -0.23886,0.0917 -0.4343,0.27298 -0.4343,0.40293 0,0.34024 0.15316,0.29246 0.5342,-0.16666 z m -17.12392,-0.56651 c -0.1136,-0.29604 -0.0675,-0.37761 0.14059,-0.24897 0.17025,0.10522 0.30955,0.0652 0.30955,-0.0889 0,-0.27232 -0.3877,-0.39483 -0.92604,-0.29263 -0.14552,0.0276 -0.11576,-0.10115 0.0661,-0.28617 0.18191,-0.18502 0.33073,-0.50576 0.33073,-0.71275 0,-0.30454 -0.0757,-0.31351 -0.39687,-0.047 -0.560537,0.4652 -0.515497,1.78228 0.0661,1.93428 0.25467,0.0666 0.48905,0.13481 0.52087,0.15169 0.0318,0.0169 -0.0182,-0.16743 -0.11111,-0.40958 z m 21.88139,-1.26585 c 0,0.11375 0.0715,0.13532 0.1589,0.0479 0.0874,-0.0874 -0.0899,-0.42599 -0.39408,-0.75244 -0.30414,-0.32645 -0.63361,-0.51292 -0.73216,-0.41437 -0.0986,0.0985 -0.0403,0.17918 0.12949,0.17918 0.16978,0 0.30868,0.13364 0.30868,0.29698 0,0.21064 -0.11082,0.20501 -0.38114,-0.0193 -0.20963,-0.17398 -0.3245,-0.46396 -0.25526,-0.6444 0.0692,-0.18045 -0.12003,-0.55065 -0.42061,-0.82267 -0.68422,-0.61921 -1.73779,-0.31872 -2.31506,0.66027 -0.34083,0.57802 -0.34098,0.60305 -0.001,0.19843 0.41305,-0.49182 0.87076,-0.64444 0.59511,-0.19843 -0.0899,0.14552 -0.0289,0.26458 0.13558,0.26458 0.1645,0 0.47263,0.17353 0.68473,0.38563 0.21209,0.2121 0.5417,0.32574 0.73246,0.25254 0.19075,-0.0732 0.51379,0.0681 0.71787,0.314 0.33514,0.40382 0.30992,0.42768 -0.2607,0.24657 -0.54985,-0.17452 -0.58429,-0.14972 -0.26574,0.1913 0.32322,0.34601 0.43596,0.34596 0.96455,-3.8e-4 0.3292,-0.2157 0.59854,-0.29912 0.59854,-0.18537 z m -2.20486,-0.85151 c -0.097,-0.097 -0.17639,-0.29942 -0.17639,-0.44979 0,-0.16579 0.12324,-0.15017 0.31309,0.0397 0.1722,0.1722 0.25158,0.37461 0.17639,0.44979 -0.0752,0.0752 -0.21608,0.0573 -0.31309,-0.0397 z m -19.16126,0.66146 c -0.0698,-0.26679 -0.15861,-0.48507 -0.19742,-0.48507 -0.0388,0 -0.12766,0.21828 -0.19742,0.48507 -0.072,0.27551 0.0132,0.48507 0.19742,0.48507 0.18418,0 0.26947,-0.20956 0.19742,-0.48507 z m 1.70311,-0.006 c -0.0845,-0.21106 -0.14716,-0.14837 -0.15985,0.15986 -0.0115,0.27891 0.051,0.43518 0.13896,0.34726 0.0879,-0.0879 0.0973,-0.31612 0.0209,-0.50712 z m -0.25079,-0.76503 c 0.24529,-0.48075 0.32781,-0.52505 0.33073,-0.17754 0.002,0.25466 0.14281,0.46302 0.31258,0.46302 0.16978,0 0.23116,-0.0775 0.13641,-0.17228 -0.0947,-0.0948 0.0177,-0.31117 0.24983,-0.48093 0.385,-0.28152 0.38297,-0.34777 -0.023,-0.75376 -0.65949,-0.65949 -1.2895,-0.54465 -2.11893,0.38624 l -0.74074,0.83135 0.76315,-0.18862 c 0.6155,-0.15212 0.69917,-0.12356 0.43243,0.14761 -0.1819,0.18492 -0.33073,0.44139 -0.33073,0.56993 0,0.43608 0.65979,0.0188 0.98828,-0.62502 z m 2.02762,-0.0225 c -0.0673,-0.10895 -0.29721,-0.13103 -0.51083,-0.0491 -0.53866,0.20671 -0.4852,0.33142 0.12243,0.28565 0.28096,-0.0212 0.45574,-0.12763 0.3884,-0.23659 z"
         id="path177" /><path
         style="fill:#889199"
         d="m 101.99688,156.78755 c -1.00606,-0.43273 -2.970977,-2.55442 -3.196007,-3.45101 -0.29193,-1.16314 0.320743,-2.03758 4.000547,-5.70981 l 3.56145,-3.55412 -3.71204,-3.71867 c -4.733011,-4.74148 -4.776606,-4.87771 -2.3646,-7.38957 1.49191,-1.55367 1.76834,-1.73104 2.69777,-1.73104 0.98045,0 1.23055,0.19705 4.70142,3.70417 2.01624,2.03729 3.75869,3.70416 3.87212,3.70416 0.11343,0 1.88745,-1.66687 3.94225,-3.70416 3.45693,-3.42747 3.80944,-3.70417 4.71903,-3.70417 0.80684,0 1.22223,0.22375 2.31771,1.24844 1.6199,1.51523 2.18781,2.52754 1.95028,3.47641 -0.10086,0.4029 -1.75856,2.29664 -3.91251,4.46961 l -3.73751,3.7705 3.89098,3.92227 c 4.68728,4.72497 4.65238,4.61161 2.19788,7.13948 -1.47468,1.51876 -1.81727,1.74371 -2.65565,1.74371 -0.88587,0 -1.26744,-0.30434 -4.78919,-3.81981 l -3.82664,-3.81981 -3.77031,3.7362 c -2.14733,2.12789 -4.05505,3.79913 -4.43177,3.8824 -0.3638,0.0804 -1.01865,-0.007 -1.45521,-0.19518 z m 4.12966,-4.95456 c 1.51223,-1.47602 3.38106,-3.28535 4.15295,-4.02073 l 1.40344,-1.33706 1.26982,1.30875 c 3.09806,3.19304 7.00415,6.73271 7.42967,6.73271 0.25563,0 0.96671,-0.54454 1.5802,-1.21009 1.10109,-1.19455 1.10917,-1.21747 0.62901,-1.78526 -1.1918,-1.40927 -3.64426,-3.5793 -3.8803,-3.43342 -0.14286,0.0883 -0.1906,0.0487 -0.10608,-0.0881 0.0845,-0.13675 -0.5817,-1.02876 -1.48048,-1.98223 -2.52577,-2.67949 -2.50533,-2.7498 2.13969,-7.35997 2.07174,-2.0562 3.76679,-3.81917 3.76679,-3.91773 0,-0.44362 -2.28338,-2.44819 -2.78871,-2.44819 -0.36306,0 -1.50396,0.95961 -3.22435,2.71198 -1.46437,1.49159 -3.2638,3.29639 -3.99875,4.01067 l -1.33628,1.29869 -1.62115,-1.5009 c -0.89164,-0.8255 -1.74999,-1.42128 -1.90746,-1.32396 -0.17145,0.10597 -0.2099,0.0533 -0.0958,-0.13124 0.27429,-0.44382 -4.31383,-5.06524 -5.02875,-5.06524 -0.80497,0 -3.291326,2.6855 -3.114035,3.36347 0.07463,0.28539 1.853295,2.23343 3.952595,4.32898 2.09929,2.09555 3.81689,3.93616 3.81689,4.09026 0,0.1541 -1.66687,1.95791 -3.70417,4.00847 -2.03729,2.05056 -3.70288,3.83102 -3.70131,3.95658 0.006,0.44399 2.16036,2.47724 2.62535,2.47724 0.25947,0 1.70903,-1.20765 3.22125,-2.68367 z"
         id="path176" /><path
         style="fill:#79838b"
         d="m 102.2825,156.86907 c -0.93227,-0.25831 -2.912761,-2.14288 -3.342663,-3.18076 -0.552719,-1.33438 -0.09347,-2.06286 3.735933,-5.92608 l 3.67923,-3.71173 -3.4541,-3.43202 c -1.89976,-1.88761 -3.632034,-3.76814 -3.849494,-4.17894 -0.610319,-1.15296 -0.24146,-2.07768 1.486024,-3.72542 2.456,-2.34262 2.56398,-2.30728 7.17855,2.34985 l 3.79564,3.83063 3.86144,-3.83063 c 3.58037,-3.55181 3.93304,-3.83064 4.84511,-3.83064 0.80762,0 1.22255,0.22344 2.31836,1.24844 2.80672,2.62537 2.69239,3.32851 -1.16061,7.13788 -1.49066,1.47378 -3.123,3.10928 -3.62742,3.63443 l -0.91713,0.95483 3.81432,3.82114 c 3.48635,3.49258 3.81431,3.90251 3.81431,4.76758 0,0.80504 -0.23956,1.18602 -1.60337,2.54983 -1.39548,1.39547 -1.73296,1.60337 -2.60279,1.60337 -0.93298,0 -1.25199,-0.25213 -4.79948,-3.79329 l -3.80007,-3.79328 -3.63808,3.62147 c -2.00094,1.9918 -3.93574,3.72856 -4.29954,3.85946 -0.3638,0.1309 -1.00918,0.14164 -1.43417,0.0239 z m 5.26118,-6.19295 c 2.17453,-2.1123 4.04598,-3.80894 4.15879,-3.77031 0.1128,0.0386 1.36848,1.21225 2.79038,2.60806 3.92577,3.85371 5.3069,5.00279 6.01308,5.00279 0.62662,0 2.52649,-1.87779 2.52434,-2.49502 -5.4e-4,-0.1557 -1.66558,-1.94522 -3.70008,-3.97669 -4.90906,-4.90175 -4.91954,-4.37178 0.18637,-9.42356 l 3.80861,-3.76823 -1.26149,-1.28075 c -0.69415,-0.70474 -1.50549,-1.28075 -1.80403,-1.28075 -0.34597,0 -1.93001,1.38996 -4.37215,3.83646 -2.10628,2.11005 -4.01128,3.83646 -4.23333,3.83646 -0.22204,0 -2.12704,-1.72641 -4.23333,-3.83646 -2.79944,-2.80444 -4.00003,-3.83646 -4.46313,-3.83646 -0.70373,0 -3.20979,2.4795 -3.20979,3.17576 0,0.22151 1.78594,2.18569 3.96875,4.36487 2.18281,2.17917 3.96875,4.08124 3.96875,4.22682 0,0.14558 -1.75292,2.02054 -3.89539,4.16658 l -3.895386,3.9019 1.172356,1.19453 c 1.8021,1.83621 1.90622,1.79367 6.47668,-2.646 z"
         id="path175" /><path
         style="fill:#707b84"
         d="m 100.39921,155.37656 c -1.623009,-1.68562 -1.914968,-2.37122 -1.46864,-3.44875 0.16551,-0.39958 1.91734,-2.31854 3.89295,-4.26435 l 3.59202,-3.53785 -3.56987,-3.60187 c -1.96342,-1.98103 -3.709687,-3.87674 -3.880586,-4.2127 -0.517715,-1.01774 -0.07866,-2.02213 1.572346,-3.59692 2.44283,-2.33007 2.5343,-2.29997 7.15609,2.35466 l 3.80838,3.83546 3.8663,-3.83546 c 3.52616,-3.49802 3.94933,-3.83545 4.81002,-3.83545 0.75248,0 1.22531,0.25318 2.33329,1.24934 1.60513,1.44315 2.22439,2.64143 1.86015,3.59944 -0.13399,0.35242 -1.85961,2.25863 -3.83472,4.23603 -1.97511,1.97739 -3.5911,3.69076 -3.5911,3.80748 0,0.11672 1.55603,1.75831 3.45786,3.64799 1.90182,1.88967 3.63436,3.76913 3.85009,4.17659 0.54591,1.03109 0.27946,1.66493 -1.44035,3.42636 -1.32133,1.3533 -1.60287,1.52135 -2.54872,1.52135 -1.0148,0 -1.23525,-0.17164 -4.83271,-3.76268 l -3.76941,-3.76268 -3.79503,3.76268 c -3.66451,3.63327 -3.83301,3.76268 -4.89927,3.76268 -0.99808,0 -1.24509,-0.14627 -2.56909,-1.52135 z m 2.10428,0.006 c -0.43324,-0.43325 -0.41195,-0.46649 0.40587,-0.63375 0.4888,-0.1 1.34563,-0.65009 1.97577,-1.26853 0.61197,-0.6006 1.19473,-1.00995 1.29502,-0.90965 0.1003,0.10029 0.18235,-0.0288 0.18235,-0.28693 0,-0.30844 0.13603,-0.41709 0.39688,-0.31699 0.24604,0.0944 0.39687,-0.001 0.39687,-0.25189 0,-0.23814 0.12549,-0.32663 0.30547,-0.2154 0.1974,0.122 0.23328,0.072 0.10142,-0.14136 -0.12963,-0.20975 0.21325,-0.75532 0.94025,-1.49608 1.06656,-1.08675 1.83705,-1.55839 1.40572,-0.86049 -0.11431,0.18497 -0.0729,0.23382 0.10513,0.12382 0.16164,-0.0999 0.22632,-0.35777 0.14371,-0.57305 -0.11059,-0.28818 -0.0263,-0.34386 0.31954,-0.21114 0.3148,0.1208 0.4086,0.0813 0.28439,-0.11964 -0.10194,-0.16495 0.055,-0.54025 0.34878,-0.83402 l 0.53412,-0.53412 0.61707,0.59062 c 0.3394,0.32483 0.56475,0.69262 0.5008,0.8173 -0.064,0.12467 -0.21865,0.0651 -0.34375,-0.13229 -0.1251,-0.19744 -0.22928,-0.23243 -0.23151,-0.0778 -0.002,0.15467 0.37835,0.63092 0.84574,1.05833 0.46738,0.42741 0.69093,0.56875 0.49677,0.31408 -0.66126,-0.8673 0.14576,-0.46636 1.33139,0.66146 1.29348,1.2304 2.16436,2.27953 1.62153,1.95341 -0.59759,-0.35902 -0.34546,0.25604 0.37339,0.91089 0.38727,0.35279 0.61837,0.4926 0.51355,0.3107 -0.36495,-0.63336 0.47802,-0.32967 1.30215,0.46911 0.45388,0.43991 1.10565,0.85385 1.44838,0.91985 0.70646,0.13605 1.32408,0.62205 0.75637,0.59519 -1.25484,-0.0594 -1.87569,0.43124 -0.67179,0.53088 0.42454,0.0351 0.97401,-0.32969 1.78594,-1.18577 0.645,-0.68008 0.96438,-1.07909 0.70972,-0.88668 -0.62483,0.47207 -0.58328,0.13872 0.10282,-0.82481 l 0.56584,-0.79466 -3.88577,-3.89225 -3.88576,-3.89226 0.23949,-1.06591 c 0.17508,-0.77923 0.65223,-1.47211 1.77407,-2.57616 0.86136,-0.84771 1.6904,-1.45045 1.8898,-1.37393 0.19538,0.075 0.35523,0.029 0.35523,-0.10213 0,-0.13115 0.22006,-0.3083 0.48902,-0.39366 0.26896,-0.0854 0.62705,-0.45816 0.79576,-0.82844 0.24268,-0.53263 0.23725,-0.6342 -0.026,-0.48637 -0.183,0.10277 0.2581,-0.42543 0.98024,-1.17377 l 1.31297,-1.36062 -1.30303,-1.32292 c -0.75712,-0.76868 -1.54001,-1.32292 -1.8687,-1.32292 -0.37616,0 -1.7955,1.24133 -4.23654,3.7052 -2.01898,2.03785 -3.89505,3.77634 -4.16904,3.8633 -0.38461,0.12207 -1.4206,-0.7574 -4.54447,-3.85789 l -4.04629,-4.01602 -0.75394,0.39063 c -1.06197,0.55023 -2.781038,2.54114 -2.685756,3.11048 0.04386,0.26205 1.835906,2.26849 3.982346,4.45877 2.14643,2.19028 3.9026,4.07426 3.9026,4.18663 0,0.11236 -1.72641,1.92762 -3.83646,4.0339 -2.11005,2.10629 -3.83646,3.898 -3.83646,3.98159 0,0.0836 0.20836,0.38432 0.46302,0.66831 0.25467,0.28399 0.62869,0.72589 0.83118,0.98199 0.32806,0.41494 0.31366,0.44625 -0.13229,0.28753 -0.33746,-0.1201 -0.20349,0.13644 0.41135,0.7877 0.50149,0.53119 1.01601,0.9658 1.14338,0.9658 0.12737,0 0.0258,-0.20575 -0.22565,-0.45722 z m 10.34131,-6.68653 c -0.0899,-0.14552 -0.0374,-0.26458 0.11667,-0.26458 0.15411,0 0.2802,0.11906 0.2802,0.26458 0,0.14552 -0.0525,0.26458 -0.11668,0.26458 -0.0642,0 -0.19026,-0.11906 -0.28019,-0.26458 z m 7.27604,-10.29044 c 0,-0.12995 0.19543,-0.31127 0.4343,-0.40293 0.36313,-0.13935 0.3795,-0.10064 0.0999,0.23627 -0.38103,0.45912 -0.53419,0.5069 -0.53419,0.16666 z m -8.46164,9.35834 c 0.27961,-0.3369 0.26324,-0.37562 -0.0999,-0.23627 -0.23886,0.0917 -0.4343,0.27298 -0.4343,0.40293 0,0.34024 0.15316,0.29246 0.5342,-0.16666 z m 7.13872,-7.29829 c 0,-0.38037 -0.45908,-0.27138 -0.61968,0.14712 -0.0983,0.25626 -0.02,0.33461 0.23628,0.23628 0.21087,-0.0809 0.3834,-0.25345 0.3834,-0.3834 z"
         id="path174" /><path
         style="fill:#687178"
         d="m 100.48119,155.41083 c -1.600664,-1.58797 -2.026296,-2.60657 -1.500384,-3.59063 0.179545,-0.33595 1.934424,-2.19605 3.899724,-4.13354 l 3.57329,-3.5227 -3.58901,-3.62105 c -1.97395,-1.99157 -3.728827,-3.89591 -3.899726,-4.23187 -0.517715,-1.01774 -0.07866,-2.02213 1.572346,-3.59692 2.41013,-2.29887 2.46562,-2.28056 7.13868,2.35522 l 3.86685,3.836 3.83601,-3.836 c 3.48917,-3.48918 3.92044,-3.83601 4.76986,-3.83601 0.76127,0 1.20875,0.25671 2.42138,1.38906 1.64269,1.53396 2.15917,2.51885 1.80685,3.44553 -0.12573,0.33069 -1.8486,2.20593 -3.82861,4.16719 -1.98,1.96126 -3.60059,3.68671 -3.60131,3.83433 -7.2e-4,0.14762 1.55473,1.81449 3.45656,3.70417 1.90182,1.88967 3.63436,3.76913 3.85009,4.17659 0.54591,1.03109 0.27946,1.66493 -1.44035,3.42636 -1.31332,1.3451 -1.60661,1.52135 -2.53152,1.52135 -0.99143,0 -1.24428,-0.19647 -4.83693,-3.7585 l -3.79082,-3.75851 -3.79082,3.75851 c -3.59274,3.56212 -3.84547,3.7585 -4.837,3.7585 -0.91663,0 -1.2318,-0.18415 -2.54516,-1.48708 z m 3.41687,0.11805 c 0.3368,-0.31641 0.61418,-0.82243 0.61641,-1.12448 0.003,-0.45154 0.0497,-0.47862 0.26053,-0.15232 0.20852,0.32265 0.25724,0.28846 0.26054,-0.18282 0.002,-0.31884 0.14151,-0.66465 0.30951,-0.76849 0.18926,-0.11696 0.23364,-0.0726 0.11668,0.11668 -0.10383,0.16801 -0.0627,0.30546 0.0914,0.30546 0.15411,0 0.2802,-0.18562 0.2802,-0.41249 0,-0.22687 0.099,-0.35128 0.22009,-0.27646 0.12105,0.0748 0.80565,-0.47746 1.52135,-1.22726 0.7157,-0.7498 1.06314,-1.19299 0.7721,-0.98486 -0.51381,0.36743 -0.51571,0.36257 -0.0656,-0.16767 0.25498,-0.30034 0.37404,-0.6448 0.26458,-0.76546 -0.10945,-0.12066 -0.0451,-0.13059 0.14303,-0.0221 0.21042,0.12139 0.78753,-0.16773 1.49974,-0.75133 0.63673,-0.52176 1.32122,-0.94865 1.5211,-0.94865 0.19987,0 0.88416,0.53062 1.52065,1.17916 0.63649,0.64853 1.25954,1.11593 1.38456,1.03866 0.12502,-0.0773 0.1946,0.0118 0.15461,0.19789 -0.04,0.1861 0.10589,0.34378 0.32417,0.35039 0.21829,0.007 0.39688,0.15708 0.39688,0.33436 0,0.37951 1.669,2.20814 1.93458,2.11961 0.10015,-0.0334 0.21906,0.0584 0.26425,0.20389 0.17025,0.5482 1.19699,1.43229 1.47765,1.27234 0.16075,-0.0916 0.20271,-0.0678 0.0933,0.0528 -0.23582,0.25997 0.53971,1.18837 0.99269,1.18837 0.17313,0 0.89851,-0.59446 1.61195,-1.32103 2.06719,-2.10523 2.05545,-2.13703 -2.4627,-6.6686 -3.71169,-3.72272 -3.86395,-3.91741 -3.56932,-4.56407 0.16927,-0.3715 0.42564,-0.67546 0.56971,-0.67546 0.14408,0 0.18549,-0.19927 0.092,-0.44281 -0.13202,-0.34403 -0.064,-0.40218 0.30477,-0.26065 0.3764,0.14443 0.4469,0.0759 0.34046,-0.33115 -0.0943,-0.36047 -0.0253,-0.47149 0.2317,-0.37288 0.56107,0.2153 5.1601,-4.5373 4.9677,-5.13358 -0.1279,-0.39641 -0.10623,-0.40797 0.13777,-0.0735 0.25737,0.35278 0.31849,0.35278 0.55007,0 0.48072,-0.73228 0.26885,-1.44788 -0.75501,-2.55005 -1.29501,-1.39406 -2.00395,-1.78488 -2.61437,-1.44124 -0.25466,0.14336 -2.12023,1.93349 -4.14571,3.97806 -2.02547,2.04457 -3.8129,3.7174 -3.97206,3.7174 -0.15915,0 -2.07161,-1.78522 -4.2499,-3.96714 -3.16972,-3.17501 -4.06717,-3.93544 -4.49461,-3.80835 -0.93307,0.27744 -3.04762,2.53242 -3.04762,3.25002 0,0.48809 0.9891,1.6502 3.9026,4.58527 2.14644,2.16231 3.86631,4.07523 3.82194,4.25094 -0.0444,0.17571 -1.74101,1.96875 -3.77032,3.98453 -2.69827,2.6803 -3.68964,3.83553 -3.68964,4.29948 0,0.34893 0.0893,0.62032 0.19844,0.60308 0.51937,-0.082 0.68837,0.0643 0.3335,0.28861 -0.32026,0.20248 -0.15226,0.47438 0.89663,1.45116 0.7099,0.66109 1.41536,1.20198 1.56768,1.20198 0.15232,0 0.5525,-0.25888 0.88931,-0.57528 z"
         id="path173" /><path
         style="fill:#5b636b"
         d="m 100.4949,155.37656 c -1.629288,-1.66872 -1.943115,-2.32079 -1.574912,-3.27235 0.134133,-0.34664 1.860692,-2.2376 3.836802,-4.20213 1.97611,-1.96453 3.5958,-3.64052 3.59932,-3.72441 0.004,-0.0839 -1.64133,-1.81031 -3.65522,-3.83646 -2.2264,-2.23996 -3.732354,-3.97001 -3.842076,-4.41381 -0.242182,-0.97955 0.277757,-1.91605 1.913006,-3.44563 2.16414,-2.0243 2.3112,-1.96888 6.92789,2.61098 l 3.89046,3.85942 3.81094,-3.85942 c 3.4678,-3.51192 3.89354,-3.85863 4.72835,-3.85062 0.97026,0.009 1.28173,0.22527 3.14091,2.17778 1.90249,1.99798 1.80736,2.24132 -2.60399,6.66056 -2.0463,2.04995 -3.72054,3.84648 -3.72054,3.99228 0,0.1458 1.55995,1.81118 3.46657,3.70086 1.90661,1.88967 3.61936,3.78459 3.80611,4.21095 0.48437,1.10585 0.0971,1.977 -1.58696,3.5697 -1.1857,1.12138 -1.58407,1.34365 -2.40823,1.34365 -0.91606,0 -1.26186,-0.27199 -4.77834,-3.7585 l -3.79082,-3.75851 -3.79082,3.75851 c -3.59265,3.56203 -3.8455,3.7585 -4.83692,3.7585 -0.92492,0 -1.2182,-0.17625 -2.53153,-1.52135 z m 6.79365,-3.24115 c 2.17917,-2.18281 4.10075,-3.96875 4.27017,-3.96875 0.16943,0 2.07363,1.78594 4.23157,3.96875 2.15794,2.18282 4.1357,3.96875 4.39503,3.96875 0.83631,0 3.3751,-2.70644 3.3751,-3.59799 0,-0.10158 -1.78594,-1.99482 -3.96875,-4.20721 -2.18281,-2.2124 -3.96875,-4.12469 -3.96875,-4.24955 0,-0.12486 1.78594,-2.02642 3.96875,-4.22569 2.18281,-2.19927 3.96875,-4.19829 3.96875,-4.44226 0,-0.60264 -2.72347,-3.35438 -3.31991,-3.35438 -0.26293,0 -2.27746,1.78594 -4.47673,3.96875 -2.19927,2.18281 -4.07903,3.96875 -4.17724,3.96875 -0.0982,0 -1.98849,-1.78594 -4.20064,-3.96875 -2.21214,-2.18281 -4.18793,-3.96875 -4.39065,-3.96875 -0.20273,0 -1.01631,0.61258 -1.80796,1.3613 -1.00543,0.95089 -1.43937,1.56328 -1.43937,2.03127 0,0.50949 0.95276,1.62992 3.97729,4.67725 l 3.97728,4.00728 -3.84499,3.87209 c -2.11475,2.12966 -3.845,3.98648 -3.845,4.12627 0,0.1398 -0.07054,0.438 -0.156748,0.66267 -0.18981,0.49463 2.402148,3.33895 3.042708,3.33895 0.23537,0 2.21091,-1.78593 4.39009,-3.96875 z"
         id="path172" /><path
         style="fill:#484f57"
         d="m 100.44965,155.33006 c -1.285427,-1.34764 -1.49548,-1.71048 -1.49548,-2.58324 0,-0.95304 0.227397,-1.24233 3.70417,-4.71245 2.03729,-2.03339 3.70416,-3.81933 3.70416,-3.96875 0,-0.14942 -1.66687,-1.93536 -3.70416,-3.96875 -3.517864,-3.51113 -3.70417,-3.74983 -3.70417,-4.74597 0,-0.93335 0.173817,-1.21793 1.57777,-2.58323 2.42777,-2.36094 2.4521,-2.35297 7.20003,2.35708 l 3.92271,3.89142 3.88414,-3.89142 c 4.74514,-4.75403 4.732,-4.75002 7.18591,-2.19453 2.46333,2.5653 2.45714,2.58667 -2.07473,7.15749 -2.03729,2.0548 -3.70416,3.84487 -3.70416,3.97791 0,0.13305 1.66687,1.92311 3.70416,3.97791 3.46828,3.4981 3.70417,3.80059 3.70417,4.75003 0,0.88349 -0.1989,1.21292 -1.54517,2.55919 -1.34937,1.34937 -1.6744,1.54516 -2.56507,1.54516 -0.95858,0 -1.24259,-0.22274 -4.72312,-3.70416 -2.03676,-2.03729 -3.82927,-3.70367 -3.98336,-3.70305 -0.15408,6.2e-4 -1.94005,1.66749 -3.96881,3.70417 -3.40002,3.41328 -3.76436,3.70304 -4.65608,3.70304 -0.83642,0 -1.16993,-0.2123 -2.46291,-1.56785 z m 7.01794,-3.1285 c 2.17031,-2.14643 4.03103,-3.93274 4.13493,-3.96958 0.1039,-0.0368 1.97224,1.71934 4.15187,3.90261 2.61449,2.61886 4.15359,3.96957 4.5232,3.96957 0.71308,0 3.28283,-2.68103 3.28283,-3.42499 0,-0.35021 -1.42337,-1.97809 -3.96615,-4.536 -3.19247,-3.21146 -3.91857,-4.07573 -3.7222,-4.43052 0.13417,-0.24243 1.91894,-2.09257 3.96615,-4.11143 2.35731,-2.32466 3.7222,-3.86748 3.7222,-4.20745 0,-0.66878 -2.65562,-3.36669 -3.31393,-3.36669 -0.27006,0 -2.27625,1.7788 -4.53818,4.0238 l -4.05414,4.02381 -4.05414,-4.02381 c -2.36577,-2.34807 -4.26303,-4.0238 -4.55574,-4.0238 -0.77577,0 -3.29637,2.62573 -3.29637,3.43385 0,0.51595 0.92893,1.60118 3.96508,4.63227 l 3.96507,3.95847 -3.96507,3.99497 c -3.01652,3.03926 -3.96508,4.15539 -3.96508,4.66553 0,0.82071 2.46178,3.39199 3.24753,3.39199 0.32296,0 2.04984,-1.50696 4.47214,-3.9026 z"
         id="path171" /><path
         style="fill:#3a434b"
         d="m 100.49934,155.35275 c -1.346271,-1.34627 -1.54517,-1.6757 -1.54517,-2.55919 0,-0.94944 0.23589,-1.25193 3.70417,-4.75003 2.03729,-2.0548 3.70416,-3.84486 3.70416,-3.97791 0,-0.13304 -1.66687,-1.92311 -3.70416,-3.97791 -4.548887,-4.58799 -4.577509,-4.68547 -2.12008,-7.22036 2.4081,-2.48401 2.41698,-2.48122 7.19345,2.25715 l 3.92246,3.89116 3.92246,-3.89116 c 4.73264,-4.69489 4.64864,-4.66868 7.10185,-2.21548 2.5501,2.55011 2.54489,2.56779 -2.15173,7.30218 l -3.82743,3.8582 3.82743,3.85259 c 3.55001,3.57334 3.82742,3.9239 3.82742,4.83648 0,0.84099 -0.22287,1.21308 -1.53433,2.56167 -1.32584,1.36337 -1.66662,1.57777 -2.50775,1.57777 -0.90176,0 -1.25757,-0.28563 -4.83423,-3.88076 l -3.86082,-3.88076 -3.88724,3.88076 c -4.73494,4.72705 -4.8136,4.75246 -7.23046,2.3356 z m 6.9215,-3.08504 c 2.10629,-2.11006 4.00975,-3.83637 4.22991,-3.83625 0.22016,1.2e-4 2.11064,1.72652 4.20106,3.83646 2.37443,2.39659 3.99964,3.83624 4.3307,3.83624 0.58909,0 2.13768,-1.25648 3.03663,-2.46383 0.47008,-0.63134 0.52936,-0.89486 0.30225,-1.34358 -0.15539,-0.30702 -1.95108,-2.24111 -3.99043,-4.29798 -2.03936,-2.05687 -3.66354,-3.87291 -3.60929,-4.03564 0.0542,-0.16274 1.79516,-2.00006 3.86869,-4.08294 2.7533,-2.76571 3.77006,-3.95848 3.77006,-4.4227 0,-0.79542 -2.53109,-3.43041 -3.29515,-3.43041 -0.337,0 -2.02999,1.49255 -4.5731,4.03169 l -4.038,4.0317 -4.038,-4.0317 c -2.53934,-2.53537 -4.23631,-4.03169 -4.57234,-4.03169 -0.61368,0 -3.560493,2.85575 -3.560493,3.45046 0,0.21582 1.845493,2.23501 4.101093,4.48709 l 4.10109,4.09469 -3.94267,3.9719 c -2.16847,2.18455 -4.021663,4.23878 -4.118206,4.56496 -0.140193,0.47365 0.101988,0.88649 1.202876,2.05052 2.04829,2.16576 2.06139,2.16103 6.59332,-2.37899 z"
         id="path170" /><path
         style="fill:#313a43"
         d="m 100.49934,155.35275 c -1.346615,-1.34662 -1.54517,-1.67555 -1.54517,-2.55984 0,-0.95193 0.236644,-1.25321 3.82742,-4.87287 l 3.82743,-3.8582 -3.82743,-3.85258 c -4.697725,-4.72861 -4.703557,-4.7484 -2.15173,-7.30024 2.46005,-2.46004 2.39442,-2.4802 7.03538,2.16077 2.11005,2.11005 3.89558,3.83646 3.96784,3.83646 0.0723,0 1.87168,-1.72641 3.9987,-3.83646 4.62911,-4.59219 4.57264,-4.57377 6.95678,-2.26944 1.46529,1.41623 1.62129,1.67107 1.62129,2.64843 0,1.03835 -0.15058,1.23226 -3.78226,4.87043 l -3.78227,3.78903 3.70576,3.70383 c 2.10898,2.10789 3.7801,4.00008 3.87831,4.39136 0.25944,1.03371 -0.0137,1.57457 -1.61927,3.20594 -2.27668,2.31333 -2.33975,2.29178 -7.04606,-2.40667 l -3.90172,-3.89522 -3.92654,3.89522 c -4.77281,4.73472 -4.83242,4.75409 -7.23646,2.35005 z m 22.06889,-0.87914 c 0.69123,-0.71868 1.25677,-1.50035 1.25677,-1.73705 0,-0.2367 -1.78593,-2.22977 -3.96875,-4.42904 -2.18281,-2.19927 -3.96875,-4.10812 -3.96875,-4.2419 0,-0.13377 1.78594,-2.04263 3.96875,-4.2419 2.18282,-2.19927 3.96818,-4.1686 3.96749,-4.3763 -0.002,-0.62239 -2.91075,-3.42034 -3.55567,-3.42034 -0.39064,0 -1.89213,1.29589 -4.62293,3.98991 l -4.04437,3.98991 -3.94787,-3.92376 c -2.74079,-2.72407 -4.16102,-3.95059 -4.64503,-4.0115 -0.55722,-0.0701 -0.98098,0.21 -2.11086,1.39529 -0.77752,0.81566 -1.41294,1.68857 -1.412044,1.93981 8.97e-4,0.25124 1.786834,2.27297 3.968754,4.49273 2.18191,2.21976 3.96712,4.12538 3.96712,4.23472 0,0.10933 -1.73039,1.91972 -3.84532,4.02308 -2.11492,2.10337 -3.916357,4.10737 -4.00319,4.45334 -0.127703,0.50881 0.112469,0.90278 1.25659,2.0613 0.97459,0.98684 1.62298,1.43178 2.08496,1.43074 0.50912,-0.001 1.59385,-0.9234 4.50696,-3.8319 2.11005,-2.10672 3.96645,-3.83244 4.12532,-3.83495 0.15888,-0.002 2.00782,1.70317 4.10877,3.79038 2.10094,2.08722 3.99501,3.85707 4.20905,3.933 0.58961,0.20918 1.31937,-0.24568 2.70425,-1.68557 z"
         id="path169" /><path
         style="fill:#252e36"
         d="m 101.50339,156.34954 c -0.38342,-0.3016 -0.69714,-0.72535 -0.69714,-0.94165 0,-0.21631 -0.10175,-0.3304 -0.22612,-0.25354 -0.42986,0.26567 -1.405275,-1.11873 -1.550357,-2.20039 l -0.145604,-1.08556 3.870031,-3.89183 3.87003,-3.89183 -3.83503,-3.86587 c -4.705184,-4.74302 -4.709967,-4.75921 -2.15934,-7.30985 2.40005,-2.40004 2.38763,-2.40332 6.5425,1.73013 1.88291,1.8732 3.42348,3.48054 3.42348,3.57187 0,0.53893 -0.87111,-0.16768 -3.59088,-2.9128 -3.88173,-3.9179 -4.13372,-3.99704 -6.11452,-1.92037 -0.78364,0.82156 -1.46734,1.71693 -1.519339,1.98972 -0.06663,0.34954 1.105489,1.70608 3.970089,4.59475 4.03339,4.06728 4.06074,4.10286 3.5583,4.63021 -2.36039,2.47734 -6.1524,6.22029 -6.3032,6.22164 -0.29447,0.003 -1.112953,1.57445 -1.112953,2.13731 0,0.27973 0.592553,1.12337 1.316783,1.87474 2.03076,2.10688 2.09937,2.08135 6.75798,-2.51442 2.16348,-2.1343 4.02969,-3.88055 4.14713,-3.88055 0.11744,0 0.21352,0.18562 0.21352,0.41249 0,0.22687 0.0972,0.35239 0.21608,0.27895 0.11884,-0.0735 1.81548,1.48552 3.77031,3.46439 4.20589,4.25759 4.32675,4.30141 6.35571,2.30441 1.39529,-1.37331 1.81368,-2.26891 1.33141,-2.85 -0.16051,-0.1934 -0.20357,-0.44907 -0.0957,-0.56815 0.10788,-0.11908 0.0639,-0.14114 -0.0977,-0.049 -0.31267,0.17825 -2.25845,-1.80786 -2.0123,-2.05401 0.0799,-0.0799 -0.0317,-0.14532 -0.24815,-0.14532 -0.40167,0 -5.25114,-4.8072 -5.25075,-5.20499 1.1e-4,-0.12043 1.73961,-1.94229 3.86554,-4.04856 2.12593,-2.10627 3.97464,-4.11708 4.10823,-4.46847 0.37214,-0.97878 0.58659,-0.46111 0.24179,0.58365 -0.16699,0.506 -0.86347,1.44172 -1.54772,2.07938 -0.68425,0.63766 -2.30735,2.24985 -3.60689,3.58264 l -2.3628,2.42327 3.55342,3.52666 c 1.95438,1.93967 3.71478,3.83633 3.91199,4.2148 0.51483,0.98805 0.19547,1.7242 -1.50243,3.46318 -2.25174,2.30623 -2.26214,2.30269 -6.97222,-2.36981 l -3.92246,-3.89117 -3.92246,3.89117 c -4.27618,4.24207 -4.757,4.50013 -6.22832,3.34279 z m 9.62161,-17.04642 c 0,-0.21828 -0.10715,-0.36711 -0.23812,-0.33073 -0.34223,0.0951 -0.38696,-0.43104 -0.0463,-0.5446 0.15643,-0.0521 0.28442,0.0342 0.28442,0.19182 0,0.75784 0.98194,-0.0137 4.5181,-3.54982 4.60133,-4.60133 4.55033,-4.58473 6.95148,-2.26292 1.09521,1.05903 1.54006,1.66102 1.36048,1.84109 -0.17966,0.18016 -0.5458,-0.053 -1.1209,-0.71364 -1.96704,-2.25978 -2.23771,-2.5528 -2.06733,-2.23797 0.11734,0.21682 -0.014,0.33073 -0.38141,0.33073 -0.30822,0 -0.48765,-0.1177 -0.39875,-0.26155 0.0926,-0.14978 -0.0132,-0.19446 -0.24745,-0.10457 -0.225,0.0863 -0.33116,0.29334 -0.2359,0.45999 0.0952,0.16665 0.0909,0.22988 -0.01,0.14052 -0.10057,-0.0894 -1.39958,1.09327 -2.88669,2.6281 -4.53315,4.67862 -5.48196,5.44251 -5.48196,4.41355 z"
         id="path168" /><path
         style="fill:#1b242c"
         d="m 101.48946,156.33858 c -0.75329,-0.59253 -0.78278,-0.88672 -0.0611,-0.60979 0.23828,0.0914 0.35947,0.28558 0.26932,0.43144 -0.10252,0.16589 0.0715,0.19856 0.46454,0.0872 0.43239,-0.12245 0.51593,-0.10001 0.26778,0.0719 -0.3045,0.21097 -0.3045,0.27222 0,0.39332 0.19837,0.0789 0.2279,0.15283 0.0656,0.16432 -0.16228,0.0115 -0.61503,-0.23081 -1.00612,-0.53845 z m 2.03042,0.25126 c 0.40109,-0.14646 0.67128,-0.36009 0.60043,-0.47473 -0.15606,-0.25251 2.61727,-2.92136 3.03572,-2.92136 0.16282,0 0.21039,-0.14883 0.10571,-0.33073 -0.10468,-0.1819 -0.0929,-0.24247 0.0262,-0.13459 0.27848,0.25228 0.96878,-0.31081 0.77179,-0.62955 -0.082,-0.13264 0.009,-0.20844 0.20135,-0.16846 0.19271,0.04 0.32305,-0.0689 0.28962,-0.2419 -0.0334,-0.17304 0.17667,-0.38997 0.46686,-0.48207 0.2902,-0.0921 0.47005,-0.26065 0.39966,-0.37454 -0.0704,-0.11389 0.16601,-0.48326 0.52532,-0.82082 0.35932,-0.33756 0.65513,-0.5037 0.65736,-0.36919 0.002,0.1345 0.11947,0.066 0.26053,-0.15232 0.14107,-0.21828 0.2583,-0.27232 0.26053,-0.12009 0.008,0.52081 -7.29469,7.52923 -7.82235,7.50754 -0.37458,-0.0154 -0.31648,-0.0908 0.22128,-0.28719 z m 13.85379,-1.85803 c -1.18119,-1.19136 -1.79082,-1.87597 -1.35473,-1.52136 0.43609,0.35462 0.83321,0.73479 0.88249,0.84484 0.0493,0.11005 0.18501,0.14113 0.30161,0.0691 0.1166,-0.0721 0.35914,0.0463 0.53897,0.26294 0.17982,0.21667 0.24815,0.39396 0.15183,0.39396 -0.0963,0 -0.0216,0.16609 0.16605,0.3691 0.18763,0.20301 0.42188,0.32034 0.52054,0.26074 0.0987,-0.0596 0.25359,0.1254 0.34427,0.41111 0.17356,0.54684 1.01807,0.95241 1.44007,0.6916 0.13677,-0.0845 0.32346,-0.0327 0.41486,0.11521 0.0969,0.15671 -0.13098,0.2689 -0.54607,0.2689 -0.5404,0 -1.23044,-0.52263 -2.85989,-2.1661 z m 3.8055,1.67313 c 0,-0.18622 0.1786,-0.51717 0.39688,-0.73545 0.21828,-0.21828 0.39687,-0.31038 0.39687,-0.20468 0,0.10571 0.23532,-0.0208 0.52293,-0.28104 0.28761,-0.26028 0.45735,-0.57934 0.37721,-0.70902 -0.0801,-0.12968 0.012,-0.20306 0.20467,-0.16308 0.19272,0.04 0.32063,-0.0761 0.28425,-0.25803 -0.0364,-0.1819 0.04,-0.33073 0.16976,-0.33073 0.12974,0 0.32302,-0.32742 0.42949,-0.7276 0.10648,-0.40018 0.24568,-0.58685 0.30934,-0.41481 0.0637,0.17203 -0.0605,0.64828 -0.27598,1.05833 -0.49396,0.94012 -2.81542,3.22092 -2.81542,2.76611 z m -21.932883,-2.61555 c -0.186438,-0.45011 -0.282714,-1.03615 -0.213948,-1.30232 0.08969,-0.34716 0.133706,-0.29325 0.155723,0.19074 0.01688,0.37108 0.163149,0.80714 0.325041,0.96904 0.161892,0.16189 0.244357,0.44432 0.183256,0.62762 -0.0611,0.18331 -0.263633,-0.035 -0.450072,-0.48508 z m 14.250933,-2.86633 c -1.38083,-1.41021 -1.40134,-1.45087 -0.45399,-0.89991 0.54571,0.31737 0.99219,0.74387 0.99219,0.94777 0,0.20391 0.11487,0.37074 0.25528,0.37074 0.1404,0 0.38271,0.23813 0.53847,0.52917 0.15576,0.29104 0.24518,0.52917 0.19871,0.52917 -0.0465,0 -0.73527,-0.66463 -1.53066,-1.47694 z m 9.90981,0.71733 c 0.15817,-0.25593 -3.16422,-3.50751 -3.3718,-3.29992 -0.0719,0.0719 -0.20963,-0.11817 -0.30616,-0.42229 -0.0965,-0.30412 -0.28894,-0.48284 -0.42759,-0.39715 -0.13865,0.0857 -0.21937,0.004 -0.17938,-0.18257 0.04,-0.1861 -0.1059,-0.34378 -0.32418,-0.35039 -0.21828,-0.007 -0.40229,-0.19063 -0.4089,-0.40891 -0.007,-0.21828 -0.18521,-0.35718 -0.39688,-0.30868 -0.21166,0.0485 -0.29446,-0.002 -0.18399,-0.11266 0.11048,-0.11047 -0.0643,-0.50735 -0.38841,-0.88194 -0.32409,-0.3746 0.97813,0.85864 2.89383,2.74054 2.99134,2.93855 3.72398,3.85441 3.08333,3.85441 -0.0728,0 -0.0682,-0.1037 0.0101,-0.23044 z m -22.42559,-1.88623 c 1.68342,-1.78051 2.16943,-2.10481 0.89219,-0.59531 -1.46602,1.7326 -1.910476,2.18281 -2.154892,2.18281 -0.131023,0 0.437192,-0.71437 1.262702,-1.5875 z m 2.47065,-2.33741 c 0,-0.28981 2.6383,-2.78539 2.78724,-2.63646 0.0631,0.0631 -0.43169,0.73175 -1.09947,1.48594 -1.14076,1.28838 -1.68777,1.66127 -1.68777,1.15052 z m 12.8493,-3.67045 c -0.14358,-0.37708 -0.11319,-0.40747 0.14811,-0.14811 0.18082,0.17948 0.26212,0.39297 0.18066,0.47443 -0.0815,0.0815 -0.22941,-0.0654 -0.32877,-0.32632 z m 0.52881,-0.67287 c 0.13411,-0.33515 2.2323,-1.92693 2.2323,-1.69352 0,0.0697 -0.41461,0.55368 -0.92136,1.0755 -0.91673,0.94397 -1.56334,1.24881 -1.31094,0.61802 z m -12.29489,-1.09911 c -0.74915,-0.76334 -1.02872,-1.21845 -0.82558,-1.34399 0.18591,-0.1149 0.36451,0.0295 0.45248,0.36596 0.0799,0.30569 0.30731,0.55579 0.50526,0.55579 0.37181,0 1.32941,1.24757 1.11906,1.45792 -0.0652,0.0652 -0.62822,-0.40089 -1.25122,-1.03568 z m -3.41798,-3.41814 c -1.892698,-1.90542 -2.252831,-2.4151 -1.503221,-2.12745 0.217446,0.0834 0.329481,0.2583 0.248969,0.38857 -0.08051,0.13028 0.02078,0.23686 0.225092,0.23686 0.20432,0 0.58699,0.23813 0.85038,0.52917 0.26338,0.29104 0.38632,0.52917 0.27319,0.52917 -0.11313,0 -0.0586,0.17728 0.12126,0.39396 0.17983,0.21668 0.40277,0.35062 0.49542,0.29764 0.27732,-0.15856 1.70573,1.34311 1.4361,1.50976 -0.13674,0.0845 -1.10297,-0.70645 -2.14719,-1.75768 z m 2.07017,1.57309 c 0,-0.0549 -0.20836,-0.2633 -0.46302,-0.46302 -0.41964,-0.32911 -0.429,-0.31975 -0.0999,0.0999 0.34564,0.44073 0.56291,0.58089 0.56291,0.36313 z m 16.66875,0.15505 c 0,-0.27564 0.57176,-0.84891 0.84667,-0.84891 0.38984,0 0.21707,0.39851 -0.3175,0.73235 -0.29104,0.18176 -0.52917,0.23421 -0.52917,0.11656 z m 2.03505,-2.11733 c 0.40869,-0.57991 0.78534,-1.01535 0.83699,-0.96764 0.0517,0.0477 0.37908,-0.22096 0.72761,-0.59703 0.34853,-0.37607 0.63369,-0.60202 0.63369,-0.50212 0,0.36518 -1.20331,1.79548 -2.06071,2.44946 l -0.88066,0.67171 z m -13.54442,-1.81566 c -1.01865,-1.07035 -2.05803,-2.01219 -2.30973,-2.09296 -0.25171,-0.0808 -0.4303,-0.23121 -0.39688,-0.3343 0.0334,-0.10308 -0.20711,-0.47546 -0.53454,-0.82751 -0.32742,-0.35205 -0.59531,-0.72226 -0.59531,-0.82269 0,-0.10042 -0.36316,-0.33302 -0.80703,-0.51688 -0.6534,-0.27064 -0.92871,-0.26916 -1.44618,0.008 -0.35153,0.18814 -0.57665,0.44318 -0.50027,0.56677 0.0764,0.12359 -0.0666,0.22471 -0.31771,0.22471 -0.25112,0 -0.37612,0.0805 -0.27778,0.17881 0.22737,0.22737 -0.86725,1.40869 -1.30531,1.40869 -0.180788,0 -0.388759,0.14882 -0.462158,0.33073 -0.07763,0.19237 -0.14219,0.20922 -0.15434,0.0403 -0.04046,-0.5626 3.084308,-3.28142 3.771378,-3.28142 0.48782,0 1.51562,0.85845 3.99939,3.34043 1.83857,1.83723 3.30813,3.42665 3.2657,3.53204 -0.0424,0.10539 -0.91058,-0.68412 -1.92923,-1.75447 z m 4.37399,1.88351 c -0.005,-0.15099 0.59854,-0.86536 1.34032,-1.5875 1.19611,-1.16443 1.28942,-1.21355 0.82482,-0.43417 -0.28812,0.48333 -0.60065,0.86746 -0.69451,0.85362 -0.0939,-0.0138 -0.46128,0.30507 -0.81647,0.7087 -0.35519,0.40364 -0.64957,0.61034 -0.65416,0.45935 z m -13.724923,-2.76818 c 0,-0.3638 0.06005,-0.51263 0.133452,-0.33073 0.0734,0.1819 0.0734,0.47956 0,0.66146 -0.0734,0.1819 -0.133452,0.0331 -0.133452,-0.33073 z m 18.346763,-2.11322 c 1.94577,-1.97047 2.70105,-2.36513 3.65488,-1.90978 0.49204,0.2349 0.44012,0.25665 -0.34759,0.14561 -0.73642,-0.10381 -1.10211,0.0168 -1.78593,0.58888 -0.47295,0.39569 -0.8599,0.83038 -0.8599,0.96599 0,0.35868 -1.36607,1.65862 -1.98437,1.88831 -0.29105,0.10812 0.30427,-0.64743 1.32291,-1.67901 z m 5.71471,0.55893 c -0.5877,-0.4874 -0.79423,-0.8116 -0.59532,-0.93454 0.28603,-0.17677 0.40791,-0.0177 0.3359,0.43831 -0.0172,0.10914 0.14308,0.19844 0.35624,0.19844 0.21316,0 0.515,0.23812 0.67076,0.52917 0.3638,0.67975 0.31234,0.66424 -0.76758,-0.23138 z"
         id="path167" /><path
         style="fill:#151c23"
         d="m 104.7313,155.75381 c 0.31774,-0.33822 0.51709,-0.69541 0.443,-0.79375 -0.0741,-0.0984 -0.0529,-0.11686 0.0471,-0.0411 0.1,0.0757 0.66552,-0.31039 1.25677,-0.85801 0.59125,-0.54763 0.36435,-0.2524 -0.50422,0.65607 -0.86857,0.90847 -1.63346,1.65177 -1.69977,1.65177 -0.0663,0 0.13942,-0.27673 0.45716,-0.61494 z m 13.11544,-0.50954 -0.50403,-0.59531 0.59532,0.50402 c 0.55944,0.47367 0.71576,0.6866 0.50402,0.6866 -0.0502,0 -0.31809,-0.26789 -0.59531,-0.59531 z m -1.32292,-1.32292 -0.50402,-0.59531 0.59531,0.50403 c 0.55945,0.47366 0.71576,0.68659 0.50403,0.68659 -0.0502,0 -0.3181,-0.26789 -0.59532,-0.59531 z m -17.518069,-1.12448 c 0.0054,-0.43656 0.06469,-0.58312 0.131773,-0.32569 0.06708,0.25743 0.06267,0.61462 -0.0098,0.79375 -0.07247,0.17913 -0.127362,-0.0315 -0.121969,-0.46806 z M 108.0823,152.4 c 0.26338,-0.29104 0.53842,-0.52917 0.61118,-0.52917 0.0728,0 -0.0832,0.23813 -0.3466,0.52917 -0.26339,0.29104 -0.53842,0.52916 -0.61118,0.52916 -0.0728,0 0.0832,-0.23812 0.3466,-0.52916 z m 5.28172,-1.63707 c -0.93378,-0.97611 -1.04066,-1.14804 -0.37008,-0.59532 0.85256,0.70272 1.99144,1.9678 1.77149,1.9678 -0.0486,0 -0.67928,-0.61762 -1.40141,-1.37248 z m -3.42964,-0.21502 c 0.56839,-0.58208 1.09297,-1.05833 1.16573,-1.05833 0.0728,0 -0.33276,0.47625 -0.90115,1.05833 -0.56839,0.58209 -1.09296,1.05834 -1.16572,1.05834 -0.0728,0 0.33275,-0.47625 0.90114,-1.05834 z m 9.25812,-3.1286 c 0.0715,-0.0715 -0.0157,-0.31955 -0.19388,-0.55122 -0.19844,-0.25809 -0.0951,-0.22602 0.26688,0.0828 0.70081,0.59793 0.70096,0.5984 0.19388,0.5984 -0.21828,0 -0.33838,-0.0585 -0.26688,-0.12999 z m -15.53709,-0.35555 c 0.15375,-0.15375 0.43572,-0.22749 0.6266,-0.16386 0.19816,0.066 0.0782,0.18599 -0.27955,0.27955 -0.44009,0.11508 -0.54339,0.0806 -0.34705,-0.11569 z m 0.85501,-0.82679 c 0.21828,-0.18892 0.56028,-0.51663 0.75999,-0.72825 0.31077,-0.3293 0.32137,-0.30343 0.0735,0.17942 -0.15929,0.3103 -0.50129,0.63802 -0.75999,0.72825 -0.40961,0.14288 -0.4191,0.1197 -0.0735,-0.17942 z m 13.33632,-0.5177 -0.50403,-0.59531 0.59532,0.50402 c 0.55944,0.47367 0.71576,0.6866 0.50402,0.6866 -0.0502,0 -0.31809,-0.26789 -0.59531,-0.59531 z m -0.75337,-2.81961 c -0.0779,-0.126 0.11977,-0.29743 0.4392,-0.38096 0.75986,-0.19871 0.83234,-0.0956 0.20725,0.29475 -0.27768,0.17341 -0.56858,0.21221 -0.64645,0.0862 z m -12.4758,-0.88 c -0.30882,-0.36196 -0.34089,-0.46532 -0.0828,-0.26688 0.23168,0.17813 0.47972,0.26538 0.55122,0.19388 0.0715,-0.0715 0.13,0.0486 0.13,0.26688 0,0.50708 -4.8e-4,0.50693 -0.59841,-0.19388 z m -2.38125,-2.38581 -0.50402,-0.59531 0.59531,0.50403 c 0.55944,0.47366 0.71576,0.68659 0.50403,0.68659 -0.0502,0 -0.3181,-0.26789 -0.59532,-0.59531 z m 7.02236,-2.51354 -0.9118,-0.99219 0.99219,0.9118 c 0.9235,0.84868 1.11384,1.07258 0.9118,1.07258 -0.0442,0 -0.4907,-0.44649 -0.99219,-0.99219 z m 4.22949,0.1357 c 0.49938,-0.54322 0.9657,-0.92992 1.03628,-0.85934 0.0706,0.0706 0.0781,0.15809 0.0168,0.19447 -0.0614,0.0364 -0.52769,0.42309 -1.03629,0.85934 l -0.92472,0.7932 z m -14.148004,-0.48403 c -0.09592,-0.15521 -0.117656,-0.33893 -0.0483,-0.40829 0.06936,-0.0693 0.196603,0.0576 0.282774,0.28219 0.178907,0.46622 0.02642,0.54823 -0.234473,0.1261 z m -0.344219,-1.30532 c 0,-0.3638 0.06005,-0.51263 0.133452,-0.33073 0.0734,0.1819 0.0734,0.47956 0,0.66146 -0.0734,0.1819 -0.133452,0.0331 -0.133452,-0.33073 z m 7.101973,-1.45521 c -0.34177,-0.3638 -0.51136,-0.65771 -0.37685,-0.65314 0.22623,0.008 1.3166,1.3146 1.09678,1.3146 -0.0542,0 -0.37815,-0.29765 -0.71993,-0.66146 z m 11.23485,-0.62194 c 0.72213,-0.74934 1.35894,-1.36243 1.41512,-1.36243 0.20653,0 -1.42587,1.76869 -2.06664,2.23918 -0.3638,0.26713 -0.0706,-0.12741 0.65152,-0.87675 z m -16.619,-0.52105 c 1.11766,-1.12304 1.82199,-1.62801 2.24896,-1.61239 0.55704,0.0204 0.54203,0.0466 -0.1445,0.25201 -0.94951,0.28414 -2.31576,1.55644 -2.09244,1.94855 0.0909,0.15963 0.0657,0.19986 -0.0559,0.0894 -0.12167,-0.11047 -0.52771,0.0598 -0.902311,0.37836 -0.374598,0.31857 0.0512,-0.15659 0.946221,-1.05591 z m 18.68413,-1.41991 c 0.41709,-0.26494 1.44841,-0.27571 1.60698,-0.0168 0.0668,0.10914 -0.34075,0.20416 -0.90575,0.21116 -0.59179,0.007 -0.88906,-0.0751 -0.70123,-0.19438 z"
         id="path166" /></g></g></svg>
