<?xml version="1.0" encoding="UTF-8"?>
<svg id="Capa_1" data-name="Capa 1" xmlns="http://www.w3.org/2000/svg" viewBox="0 0 157.12 156.88">
  <defs>
    <style>
      .cls-1 {
        fill: #7da57d;
      }

      .cls-2 {
        fill: #6d946f;
      }

      .cls-3 {
        fill: #a2c4a2;
      }

      .cls-4 {
        fill: #315932;
      }

      .cls-5 {
        fill: #436c45;
      }

      .cls-6 {
        fill: #aac8a8;
      }

      .cls-7 {
        fill: #172217;
      }

      .cls-8 {
        fill: #8cbb8d;
      }

      .cls-9 {
        fill: #76a077;
      }

      .cls-10 {
        fill: #b0cbac;
      }

      .cls-11 {
        fill: #9cc199;
      }

      .cls-12 {
        fill: #3b623d;
      }

      .cls-13 {
        fill: #60a064;
      }

      .cls-14 {
        fill: #385e3a;
      }

      .cls-15 {
        fill: #477d48;
      }

      .cls-16 {
        fill: #3d633e;
      }

      .cls-17 {
        fill: #406842;
      }

      .cls-18 {
        fill: #121a13;
      }

      .cls-19 {
        fill: #8dbc8d;
      }

      .cls-20 {
        fill: #6c976f;
      }

      .cls-21 {
        fill: #739f75;
      }
    </style>
  </defs>
  <g>
    <path class="cls-18" d="M141.24,17.46l.71.06c3.76,3.63,7.45,7.3,11.09,11.02,3.84,4.34,4.51,9.15,1.81,14.31.01.37,0,.73-.06,1.07l-1.88,2.1-14.95,15.45-24.42,25.18-17.09,17.69c-.47.29-1.03.68-1.19,1.23l-3.96,4.12c-.2-.16-.45-.21-.53-.36-.01-.03,1.07-2.06,2.13-2.81.8-1.06,1.84-1.82,2.92-2.57.7-1.27,1.58-2.33,2.74-3.13l2.26-2.57,1.39-1.44,2.29-2.27c.44-.44.41-.95.02-1.58l1.35-.29c.27-.06.29-.71.21-1.12,1.03.32,1.47-.24,2.1-.72s.97-.81,1.44-1.46l1.6-2.22,2.05-1.7,1.5-1.57,1.13-1.29c.43-.49.53-1.03,1.22-1.48-.55-.33-.68.21-.91.43-.43.42-.84-.12-1-.4-.39-.68.67-1.62.88-1.58l.81.18,2.23-2.24c.39-.39,1.02-.29,1.2-1.01.04-.17.36-.36.51-.33.12.02.35.06.52.19.26.18.74-.35.6-.48-.43-.41-1.03-1.06-.73-1.66.26-.53,1.22-.72,1.81-.61.26-.47-.3-.72-.38-.92.36-.51,1.36-.43,1.51-.98.06-.22-.02-.5-.16-.85.53-.25,1.22-.15,1.56.38-.53.49-.9,1.21-.69,1.88.7-.77,1.31-1.55,1.69-2.33.16-.02.48.08.63-.01s.24-.48.13-.56l-1.36-.46c.2-.98.85-1.93,1.76-2.35.69-.32,1.27.39,1.79.58.59.22,1.27-.56,1.34-1.01-.51-.24-.85.04-1.22.26-.27.16-.55-.26-.57-.46,0,.01.41-1.61,1.14-1.67.03-.47-.05-.84.24-1.32.36.18,1.12.21,1.07-.14l-.09-.62.47-.27c.15-.47.76-1.44,1.4-1.34.95.15,1.72.21,2.45-.68-.14-.56-.43-1.14-.42-1.8,1.31-1.15,1.4-3.05,2.27-2.85.55.13.97.74,1.59.75l1.13-1.56c.52-.71.8-1.49.06-2.34,1.51-.41,1.04-2.17,2.38-2.41.51-.09.86.14,1.23.66.56-.42.99-.75,1.31-1.34-.25-.12-.46-.64-.28-.68l1.31-.26c-.31-.53-.38-.96-.35-1.41.03-.42.41-.59.71-.88l.89-.86c.23-.22.77-.6.93-.88.3-.53.7-.82,1.16-1.17,1.27-.98,1.79-2.48,2.34-3.94.84-2.2.78-4.71-.39-6.83l-2.17-2.67c-.28-.73-.38-.8-1.03-1.17-1.14-.67-2.09-1.86-3.03-2.8l-2.78-2.76c-1.18-1.17-2.2-2.48-3.62-3.39l-1.5-.46c-.62-.19-1.34-.97-2.08-.85-3.4.54-5.83,2.83-7.92,5.36l-4.45,4.49c-.46.46-.94.38-1.14,1.23-.14.63-2.45,2.72-2.91,2.87-.91.3-1.19.9-1.61,1.66s-1.15,1.42-1.75,2.04l-2.56,2.61-3.19,3.19-7.09,7.42-1.89,1.89-1.2,1.28-1.54,1.54-1.46,1.54c-1.21,1.27-2.32,2.47-3.62,3.62l-1.31,1.55-2.75,2.76c-.96.97-1.76,2-2.9,2.79-.5.34-.76.92-1.13,1.33l-1.72,1.91-2.1,1.9c-.96.87-2.52,3.24-4.22,4.17-.84,1.55-2.21,2.54-3.46,3.77l-1.81,1.77c-.84.82-1.33,2.14-2.46,2.68-.6.29-1.12.35-1.39,1.13-.77,2.22-2.95,2.88-3.51,3.96-.73,1.41-2.47,2.52-2.6,2.66l-4.43,4.85c-.34.37-1.08.08-1.57.08.03.46.13.92-.06,1.2-.11.17-.45.31-.72.36-1.03.17-1.52-.68-2.14-1.22-.74-.64-2.52-1.65-2.9-2.68l-.94-1.23c-.35-.8-.77-.77-1.36-1.19-1.18-.82-2.42-2.06-3.12-3.28-.43-.74-.64-1.07-1.31-1.64l-3.99-3.38-1.51-2.08c-.69-.56-1.26-1.12-1.9-1.7l-2.71-2.46-1.46-1.92c-.96-.64-1.71-1.27-2.47-2.15-.47-.54-1.04-.94-.99-1.8-.2-.64-.57-1.11-1.29-.95-1.2-.81-2.45-1.51-3.77-1.99-1.95-.71-3.21.12-4.82.75-1.12.44-1.99.8-2.64,1.81l-.81,1.27c-.64,1-1.72,1.74-2.64,2.54l-.95.2s-.77,1.95-2.35,3.48l-2.12,2.04c-.45.44-.84.52-1.11,1.19-.67,1.65-1.15,2.07-1.16,4.06,0,1.51.14,2.87.9,4.22.3.53.14,2.71-.12,2.9-.42.31-.96-.73-1.95-.59.08.56-.13.95-.54,1.26-.69-.86-1.25-1.68-1.71-2.72.04-.26.12-.52.25-.78-1.62-4.72-.42-8.42,2.66-12.13l9.9-10.15,2.47-1.93c.23-.11.52-.12.88-.05-.04-.61,1.64-1.02,2.22-1.14,3.01-.59,5.67-.17,8.18,1.67l.14.59c.34.08.65.17.93.26,8.67,8.85,17.35,17.62,26.03,26.32,2.69-2.78,5.41-5.54,8.15-8.3,21.77-22.52,43.53-44.97,65.3-67.34.33-.07.65-.2.98-.37,0-.21,0-.45.15-.63.98-1.21,4.11-1.99,5.66-2.04s4.98.59,6.1,1.72c.16.16.19.39.22.61Z"/>
    <g>
      <path class="cls-18" d="M129.12,17.8l-.72.65-5,5.08-5.52,5.7-1.95,2-5.26,5.42-6.83,7.04-4.21,4.37-5.41,5.6-5.79,6-6.46,6.66-4.68,4.83-1.97,2.04-2.03,2.17c-.75.8-1.49,1.49-2.26,2.28l-5.45,5.59c-.96.98-1.83,1.92-2.8,2.89l-3.33,3.34c-.48.48-.95.76-1.35,1.33-.88,1.25-3.17,3.39-3.3,3.41-.16.03-.43-.02-.58-.17l-5.66-5.74-8.57-8.73-11.6-11.76-.67-.54c.14-.27.43-.46.87-.57.5.42.92.72,1.42,1.22l18.45,18.75,6.25,6.34L126.75,18.57l1.1-1.02c.53-.11.96-.02,1.28.26Z"/>
      <path class="cls-18" d="M154.79,43.93c-.45-.44-.47-.95-.15-1.54,1.93-3.59,2-7.97-.21-11.47-1.08-1.71-2.55-2.99-3.95-4.4l-3.22-3.26-1.25-1.22c-1.62-1.58-2.99-3.3-4.77-4.57,0-.43.46-.74.86-.59l.77.53,11.43,11.74c3.69,4.15,3.65,10.41.48,14.78Z"/>
      <path class="cls-18" d="M16.37,65.44c.43-.14.71.32.82.68-2.03,1.03-3.5,2.65-5.09,4.29l-5.62,5.79-1.68,1.76c-3.4,3.11-4.74,7.7-3.19,12.12.18.52-.04.96-.57,1.09-1.92-4.33-1.18-9.58,2.2-13.07l9.82-10.12c1.02-1.05,2.06-1.86,3.31-2.53Z"/>
      <path class="cls-18" d="M142.1,16.87c-.23.34-.47.61-.86.59-3.67-2.62-8.77-2.67-12.12.34-.46.15-.99.28-1.28-.26,3.92-3.64,10.04-4,14.26-.68Z"/>
      <path class="cls-18" d="M28.61,66.67c0,.21-.02.53-.2.57-.26.05-.47.02-.68,0-2.47-1.99-5.81-2.76-8.92-1.68l-1.63.56c-.44.01-.68-.28-.82-.68,3.97-2.1,8.8-1.66,12.24,1.23Z"/>
      <path class="cls-18" d="M96.44,104.34l-1.19,1.23c-.14-.13-.19-.26-.19-.58.96-.1,1.06-.91,1.38-.65Z"/>
      <path class="cls-18" d="M145.84,51.97c-.15.17-.33.13-.46.11-.1-.02-.25-.07-.26-.27.01.24.53-1.21.98-1.3.27-.05.82-.31,1.07,0l-1.33,1.46Z"/>
    </g>
  </g>
  <g>
    <path class="cls-18" d="M149.78,30.08c-.54-.89-1.34-1.66-2.41-2.29l-7.04-7.11c-.8-.71-1.75-1.18-2.83-1.4-2.75-2.1-6.35.68-8.46,2.64-2.23,2.54-4.6,4.91-7.1,7.11-.74,1.58-2.07,2.9-3.63,3.65-.62.53-1.12,1.18-1.49,1.96-9.83,10.14-19.67,20.31-29.52,30.52-1.55,1.37-2.98,2.87-4.29,4.48-1.73,1.5-3.33,3.14-4.81,4.9l-1.51,1.18c-1.6,2.02-3.39,3.9-5.37,5.63-1.01,1.45-1.86,2.47-3.49,3.23-.74,1.64-1.9,2.98-3.46,4.02l-1.12,1.54c-2.22,2-4.3,4.14-6.24,6.43-1.3-.21-1.84.18-1.61,1.17-.7.63-1.52.32-2.48-.93-1.77-1.06-2.87-2.52-3.96-4.24-1.93-1.21-3.54-2.67-4.63-4.7-1.54-1.52-3.17-2.96-4.87-4.31l-1.52-2.09c-2.3-1.81-4.33-3.85-6.09-6.1-1.22-.79-2.25-1.82-3.16-2.95-.16-1.4-.74-2.07-1.75-2.03-2.4-1.59-4.27-2.8-7.08-1.95-2.94.89-4.43,2.05-5.98,4.68-.84.97-1.82,1.64-2.94,1.99-1.3,2.42-3.09,4.51-5.37,6.26-1.84,2.92-1.99,6.33-.46,9.47,0,0-.03.64-.09,1.92-1.45-.76-2.21-.79-2.27,1.13.94,1.17,2.02,2.17,3.08,3.27,1.01.21,1.93,1.16,2.06,2.12l32.99,33.75,6.36,6.4c2.63,2.32,6.14,3.33,9.56,2.7,2.75-.5,4.99-1.96,6.91-3.95l22.7-23.44,4.87-5.03c-.06-.81.69-1.71,1.23-2.31,1.13-1.26,2.38-2.43,3.73-3.43.64-1.12,1.49-2.12,2.56-2.85,0,0,2.04-2.16,6.12-6.47.27-.41.34-.88.23-1.41.61-.02,1.03-.24,1.27-.66-.03-.45.21-.65.72-.6,1.81-1.08,3.25-2.59,4.34-4.53,1-.48,6.02-5.67,5.88-6.34-.17-.84-1.17-.31-1.51.24-.91-.84.23-1.59,1.18-1.27,1.01-1.11,2.11-2.06,3.3-2.85.19-.67.61-.83,1.27-.47.92-.33.92-.96,0-1.92-.17-.64.37-.96,1.62-.97.39-.33.27-.77.01-1.15.46-.12.85-.33,1.17-.63.09-.95.3-1.22.61-.8-.78.82-.85,2.6.44,1.77,0,0,.45-.62,1.34-1.86,1.65-.2.99-1.49-.36-1.68.56-1.4,1.5-2.43,2.89-1.19,1.41.41,2.8-1.7.96-1.79-1.47.87-.54-.81.2-1.22l.15-.97c.78,0,1.41-.13,1.21-1.06.37-.46.74-.92,1.11-1.38,1.68.22,2.72-.2,3.12-1.28l-.43-1.52c.7-.78,1.3-1.66,1.8-2.62.63.44,1.26.67,1.89.7,1.36-1.22,1.94-2.59,1.75-4.12l.54-.56c.55-1.65,1.32-1.97,2.31-.97.77-.22,1.98-1.2,1.48-2.02.71-.02,1.1-.27,1.19-.76-.24-.45-.31-.89-.21-1.33,1.03-.87,1.98-1.82,2.84-2.85,4.51-3.69,5.04-10.47.53-14.45Z"/>
    <g>
      <path class="cls-7" d="M7.89,99.27l-2.06-2.12c.38-.09.73-.23.97-.1.36.18.49.57.77.87l.51.55c.19.2.08.55-.19.81Z"/>
      <path class="cls-7" d="M9.56,96.77c.09.11-.02.46-.08.58-.11.21-.39.08-.63.09-1.14.03-1.97-.82-1.89-1.93l1.33-.62c.38-.18,1.48.21,1.41.69-.06.39-.53.71-.14,1.2Z"/>
      <g>
        <path class="cls-15" d="M135.27,56.13c-.12-.07-.2.05-.22.12-3.34,3.06-6.51,6.29-9.52,9.69l-6.18,6.28c-.64.5-1.27,1.01-1.89,1.51.3.31-.48,1.15-.89,1.07-.38.67-.86,1.25-1.46,1.75-.07.22-.29.63-.46.81-2.14,1.61-4.09,3.76-5.7,5.9l-.34.36c-2.22,1.8-4.17,3.9-6.07,6.09-7.57,7.67-15.12,15.42-22.61,23.12-6.57,6.75-13.14,13.56-19.7,20.4-1.46,1.37-2.2,1.97-3.21-.12l-.23.12c-.3-.27-.58-.64-.84-1.1-1.02-.13-2.03-.14-3.04-.03-1.07,2.06-1.95,3.25-3.8.87-1.55-1.9-3.27-3.64-5.16-5.24-.99-1.54-1.98-2.86-3.61-3.82-4.65-4.81-9.35-9.57-14.1-14.27l-1.25-1.54c-6.06-5.99-12.06-12.09-18.01-18.29-.29-.25-.35-.48-.18-.68l.5-.09c.53.52,1.18.46,1.8.13,1.23-2.01,4.06.68,4.29,2.07.11.67-.06.89-.74.98.46,0,.63.3.71.72,2.25-.93,3.98,1.39,4.97,3.1,3.51,3.21,6.94,6.52,10.05,10.14.56.96.94,1.5,2,1.88,6.57,6.54,13.12,13.09,19.66,19.65,2.02,2.97,5.42,5.26,7.99,1.57,7.35-7.54,14.7-15.03,22.06-22.46,4.24-4.53,8.59-8.98,13.04-13.34,1.01-.75,1.89-1.63,2.65-2.64.44-.4.95-.67,1.51-.8.18-1.44,1.64-2.82,2.32-.8.03.1,1.91-.58,1.97-.67.31-.48-.22-1.73-.74-2.03-.15-.47-.2-.82.28-.51-.05-.12-.11-.24-.15-.36-.05-.14,1.86-1.94,2.22-2.05.37-.93,1.21-1.22,1.43-.05,1.11.8,1.91.91,2.59-.4.58-.24.96-.69,1.17-1.36.91-1.16,1.85-2.3,2.81-3.4,1.76-.87,3.09-2.29,4.19-3.92l1.14-.77c.33-.84.96-1.5,1.89-1.98,2-2.06,4.02-4.11,6.06-6.13,1.6-2.07,3.15-3.94,5.31-5.44,1.13-1.6,2.28-3.15,4.02-4.16,1.2-1.28,2.37-2.58,3.51-3.91.38-.47.71-.55,1-.25l.19.44c-1.21,1.2-2.29,2.48-3.25,3.83Z"/>
        <path class="cls-12" d="M6.68,88.75l.13.38c.12.36.42.58.72.87l1.82,1.74c1.02,1.41,2.21,2.45,3.43,3.65l2.29,2.27c.52.52,1.05,1.15,1.48,1.74.56.75,1.42,1.1,2.04,1.78l2.45,2.68.96,1.13c1.28,1.15,3.81,3.05,4.03,3.95.2.81,1.54,1.43,2.4,2.34.57.6.92,1.13,1.68,1.61s.96,2.07,3.2,3.45c.49.3,1.04.89,1.44,1.32l2.12,2.31,4.35,4.37,1.03.83c.74.59,1.04,1.09,1.45,1.87.63,1.19,2.05,1.79,2.98,2.69l.98.95c.96.94,1.35,2.38,3.2,3.5,1.45-1.05,1.49-2.43,2.02-2.43h3.35s.8,1.38.8,1.38c.45,1.13,1.04,1.53,1.76,1.19.3.02.29.24-.02.65l-1.03.41c-1.57.65-2.24-1.38-2.61-2.62-.03-.09-1.21-.37-1.45.28-.24,2.19-1.53,2.44-3.3,1.56l-2.72-2.79-4.72-4.83c-.6-1.11-1.73-2.08-2.78-2.78l-.78-.85-8.36-8.53-5.55-5.71-10.8-11.02-5.21-5.25-2.15-2.24c-.6-.62-.97-1.3-1.24-2.03.12-.32.32-.25.61.2Z"/>
        <path class="cls-16" d="M108.61,83.63l-2.61,2.75-5.62,5.8-11.85,12.26-6.01,6.18-5.89,6.09-5.99,6.17-6.37,6.56-5.51,5.52c.03-.1.03-.24-.01-.3-.08-.13-.42-.05-.56-.06-.87-.03-.88-1-1.16-1.48l1.12,1.29c1.53-.63,2.6-1.77,3.44-3.09,1.12-1.77,3.07-2.52,4.63-4.92l1.67-1.47c.33-.7.9-.78,1.31-1.2.98-1.02,1.73-2.18,2.85-3.06l1.17-1.3,1.39-1.25c.51-.46.71-.88,1.18-1.35l2.55-2.54c.62-.62.96-1.23,1.61-1.83.57-.53,1.03-1.1,1.61-1.65l1.27-1.21c1.4-.94,2.16-2.5,3.38-3.62l1.6-1.47c1.23-1.13,2.39-2.25,3.45-3.57.74-.93,1.66-1.65,2.44-2.47l1.39-1.46c.36-.64.93-.87,1.36-1.35.99-1.09,2.02-2.01,3.05-3.08l1.75-1.82c1.24-.96,2.18-2.12,3.03-3.43l1.46-1.37c.41-.38.58-.76,1.15-.99.63-.25,1-1.26,1.74-1.29Z"/>
        <path class="cls-1" d="M133.3,20.67c-.12.47-.7.57-.99.93l-1.67,2.13-1.45,1.18c-.48.39-.72.76-1.13,1.21l-2,2.18-3.03,3.03c-.32.32-.71.27-.98.8-.25.49-.88.88-.93,1.48-1.31.51-1.92,2.06-3.5,3.31-.67.53-1.06,1.07-1.61,1.64l-3.83,3.9c-1.13,1.41-2.33,2.72-3.59,3.93-.52.24-.81.78-1.23,1.22l-2.05,2.11c-.41.71-1.03,1.31-1.71,1.76l-.93.91c-.32.58-.85,1.01-1.4,1.36l-.9,1.14c-.27.47-1.07,1.52-1.49,1.19.38-.84,2-1.63,2.1-2.81l20.37-21.12,7.93-8.23,2.02-1.99c.59-.59,1.35-.89,1.99-1.25Z"/>
        <path class="cls-4" d="M58.76,134.97c-2.35,2.42-6.1,1.97-8.4-.38.62-.34,1.97.61,2.54-.33.32-.52.22-1.41.68-1.8s1.26-.17,1.82-.04c.25,1.05.67,1.98,1.45,2.79.69-.22,1.29-.36,1.9-.24Z"/>
        <path class="cls-5" d="M135.04,56.25c-.29.81-1.15,1.24-1.75,1.87l-3.92,4.08-6.14,6.38-3.16,3.13-1.19,1.23-1.14.9-.28-.11c.17-.31.4-.59.77-.81,1.06-.66,2.9-2.85,4.21-4.17l1.5-1.51.98-.94c1.3-1.25,2.19-2.62,2.55-2.95,1.66-1.53,3.28-2.95,4.59-4.85l1.86-1.65c.35-.31.74-.62,1.12-.61Z"/>
        <path class="cls-17" d="M114.65,77.37l-3.71,3.85-2,2.05c-.06-.58.85-1.71,1.63-2.05.64-1.35,1.75-2.26,2.92-3.15.38-.29.57-.86,1.15-.7Z"/>
        <path class="cls-17" d="M118.88,72.95l-2.48,2.68c-.31-.09-.26-.36.17-.82.32-.25.69-.7.89-1.07.5-.24.85-.7,1.42-.79Z"/>
        <path class="cls-14" d="M42.93,126.97l-1.1-1.14-1.68-1.64c.81.14,1.32.82,1.94,1.4.43.41.94.75.85,1.38Z"/>
        <path class="cls-15" d="M6.66,88.6s0,.12.02.16l-.61-.2c-.16-.42-.36-.82-.36-1.32-.08-.17-.08-.3,0-.4.46-.09.31.67.95,1.77Z"/>
        <path class="cls-5" d="M116.58,74.81c-.07.3-.15.56-.17.82-.35.38-.72.78-1.29.94.26-.81.88-1.31,1.46-1.75Z"/>
        <path class="cls-7" d="M5.72,86.83v.4c-.38-.58-.19-1.32-.05-1.93l.05,1.53Z"/>
        <path class="cls-13" d="M150.28,38.23c-.17.24-.49.29-.74.32-.19.02-.41-.35-.68-.42-.54-.14-1.61.05-1.95-.6-.09-2.12-1.31-1.81-1.77-2.81-.32-.69-.91-.97-1.4-1.47l-3.6-3.6c-.36-.36-.61-.6-.95-.97l-1.82-1.95c-.59-.63-1.25-.93-2.07-.93-.72,0-1.49.43-2.07,1.12-1.57,1.85-3.17,3.6-5,5.23l-1.2,1.07-1.37,1.49c-.95,1.03-1.82,1.96-2.87,2.83-.61.51-.98,1.32-1.81,1.64l-.38.76-7.25,7.39-5.08,5.19-1.88,2.02c-.51.09-.84.5-1,.98-1.42,1.39-3.03,2.49-3.64,3.4-.93,1.37-1.58,1.81-2.26,2.52l-1.67,1.74c-1.1,1.14-2.36,2.12-2.93,2.94-.54.78-1.2,1.2-1.8,1.84-1.12,1.19-2.18,2.36-3.46,3.42l-1,1.09c-.75.81-1.59,1.32-2.81,2.83l-1.04,1.29-3.37,3.26c-.52.51-.95.9-1.43,1.45l-1.22,1.42c-.34.4-.69.66-1.06,1.04l-4.47,4.64-3.72,3.9-1.69,1.53-2.7,2.82-2.37,2.43-2.07,2.07-1.92,1.89c-.67.66-1.17,1.2-2.15,1.52-.67.21-1.19.54-2.06.4-.6-.1-1.45.15-2.05-.23l-1.25-.79-2.27-2.34-2.2-1.94-1.38-1.51-3.52-3.48-4.41-4.55c-.53-.55-.97-1.01-1.52-1.54l-4.25-4.11-4.11-4.26c-.75-.78-1.55-1.42-2.32-2.26-.89-.97-1.7-2.16-2.91-2.73-1.55-.73-2.86.52-4.07,1.78l-2.6,2.7c-.34.35-.63.62-.94.96l-3.01,3.29c-.5.55-1.36.87-1.52,1.7-.1.52-.02,1.13-.51,1.42.16-.02.41.22.6.07.03.14-.03.37.2.49,1.25.11,2.25,1.31,2.94,2.39.41.64,1.08,1.21,1.61,1.74l3.04,3.09,3.1,3.17,2.25,2.13c.73.7,1.35,1.41,2.03,2.12l2.81,2.92,1.92,2.1,3.6,3.61,1.01,1.06c.6.63,1.16,1.1,1.76,1.71l2.81,2.88,5.23,5.2c1.04,1.03,2.05,1.82,2.87,3.08l1.03,1.01c.95.94,1.83,1.8,2.77,2.77l1.49,1.53c1.3,1.34,3.34,1.04,4.48-.36l1.62-1.98c1.21-1.11,2.29-2.23,3.46-3.41l2.92-2.93,1.25-1.26,4.75-4.95c.99-1.04,2.25-1.78,2.99-3.12,1-.56,1.65-1.44,2.27-2.44,1.55-1.44,3.11-2.81,4.52-4.4l1.18-1.33,1.02-1.02,1.03-1.06c.78-1.12,1.92-1.77,2.78-2.74,1.05-1.19,2.15-2.11,3.23-3.27l2.47-2.64c1.16-1.24,2.52-2.3,3.13-3.12.58-.78,1.22-1.28,1.85-1.94l4.24-4.36,1.03-1.05c.54-.55,1-.96,1.55-1.53l.94-.95,1.84-2.12,1.02-.89c.79-.69,2-2.02,2.93-3.01l2.86-3.02c1.18-1.24,2.66-2.94,3.82-3.79l1.22-1.41,1.65-1.56c.42-.4.75-.8,1.15-1.11.53-.42.74-.86,1.2-1.32l3.94-4.03c.57-.58,1.07-.97,1.63-1.67.28-.35.76-.99,1.1-1.25.9-.7,1.41-1.47,2.21-2.24l1.25-1.21,1.68-1.74,1.34-1.49c.64-.71,1.37-1.13,1.91-1.93.32-.48.77-.89,1.18-1.29l4.48-4.44,1.04-1.26c.36-.44.8-1.18,1.47-.91l2.57,1.04c.33.14.74.14,1.05-.02.21-.11.26-.55.43-.71.43-.4.29-.91.38-1.37l-.54.69Z"/>
        <g>
          <path class="cls-15" d="M151,39.18c-1.96,2.23-3.95,4.44-5.96,6.63-.82.59-1.59,1.24-2.3,1.95-1.16,1.62-2.5,3.06-4.03,4.32l-.4-.22c-.67.3-1.08.94-1.65,1.46-.85.79-1.29,2.19-3.23,3.41-1.53.96-2.32,2.33-3.38,3.7l-2.37,1.95c-1.2.98-2.18,3.13-4.54,4.98-.67.52-.98.93-1.41,1.69l-1.94,1.81c-.49.46-.8.92-1.36,1.35-.36.27-1.28.74-1.36,1.17-.16.94-1.13,1.01-1.45,1.4-.58.93-1.24,1.61-1.92,2.32s-1.3,1.03-2.19,1.55c-1.08.64-1.61,2.33-2.61,3.16-.42.35-.43.72-.67,1.15-.13.24-.81.36-.92.69-.2.58-.62.74-1.01.85-.63.18-.97,0-1.47-.43-.15-.13-.49-.14-.56-.29-.09-.18-.11-.46-.1-.73-.37.17-.51.43-.7.81l-.97.68c.23-.16-1.47,1.68-1.37,1.47-.05.11.03.42.16.48.77.38.85,1.93.61,2.32-.25.41-1.73.23-2.44,1.24l-.3.42c-.1.14-.42.01-.53-.21-.32-.64.64-.48.63-1.03,0-.19-.14-.47-.34-.57-.6-.28-1.02.55-1.37,1.63-1.08.37-1.94,1.05-2.51,2.02-.32.55-.75.73-1.19,1.08-.87.68-1.63,1.44-2.39,2.22l-4.11,4.24c-1,1.03-1.87,1.8-2.69,2.64l-2.26,2.3-1.42,1.61c-.52.59-.85.98-1.51,1.42l-1.81,1.94c-.6.65-1.35,1.17-1.83,1.95s-1.1,1.14-1.71,1.74l-7.23,7.2c-.35.35-.45.92-1.02,1.1-.45.14-.66.85-1,1.06-1.04.68-1.63,1.65-2.5,2.46-.97.91-1.89,1.72-2.75,2.79-.44.55-1.18.81-1.4,1.64-.14.55-.74.81-1.18,1.05-2.22,1.22-4.67.59-6.1-1.52-.75-1.11-1.61-2.03-2.77-2.75l-2.34-2.58c-.44-.49-.85-.88-1.34-1.33l-1.7-1.53c-.45-.41-.81-.79-1.24-1.25l-.91-.97c-.98-1.03-1.96-1.95-2.88-3.02-.31-.37-.73-.64-1.1-1.02l-.93-.93-1.7-1.57c-1.45-1.34-2.63-3.66-5.01-4.45-.68-1.07-1.32-2.04-2.2-2.94l-2.35-2.4c-.51-.52-.94-.88-1.46-1.43l-2.03-2.12c-.56-.58-1.17-.99-1.72-1.51l-1.28-1.2c-.47-.7-.53-1.59-1.47-1.99l-1.07-.96c-.85-.39-1.79-.02-2.57.19.06-.37.09-.65.03-.79-.08-.23-.58.03-1.01-.07-.15-.04-.22-.35-.12-.49.25-.38,1.08-.12,1.36-.52-.69-1.81-2.53-3.56-3.41-2.49-.42.51-.89.6-1.5.69-.52.08-.97-.32-1.42-.68-.3.17-.44-.24-.13-.38l-.02-.16c.28-.25.7-.37,1.26-.35l2.16-.73.41.11.32-.34c1.47.62,2.67,1.73,3.6,3.31,5.43,5.37,10.77,10.85,16.04,16.42,7.58,7.57,15.12,15.22,22.64,22.95,1.16.96,2.48.86,3.58-.15l1.89-2.27c4.82-4.84,9.63-9.64,14.41-14.42.66-.84,1.41-1.61,2.23-2.3l.99-1.38c2.93-2.74,5.71-5.58,8.34-8.52,6.96-6.95,13.84-13.91,20.64-20.89,1.26-1.5,2.63-2.9,4.09-4.21,4.48-4.75,9.02-9.43,13.61-14.03,7.62-7.87,15.25-15.73,22.88-23.57.44-.12.86.01,1.26.38l2.37.77c.37-.02.71-.17,1.04-.46-.05-.43.07-.89.38-1.37-.3-.24-.39-.62-.27-1.13-.23-.97-.43-1.93-.58-2.89l.47-.12c1.29,1.67,1.35,3.84.57,5.79Z"/>
          <path class="cls-5" d="M135.27,56.13c-.12-.93.8-.98,1.13-2.07.81-.69,1.53-1.27,1.92-2.19.55-.25,1.2-.61,1.67-1.11l.9-.96c.51-1.35,2.55-3.51,3.5-3.76.6-.16.82-.72,1.16-1.12l2.28-2.67c.58-.68,1.16-1.15,1.83-1.82l1.35-1.24c-.53,1.33-1.59,2.32-2.64,3.42l-6.99,7.25-6.11,6.27Z"/>
          <path class="cls-15" d="M100.58,87.15c.07.4-.19.71-.64.86-.14.05-.4-.07-.44-.3-.02-.14.17-.38.32-.49l.31-.22c.17-.12.41-.07.45.16Z"/>
        </g>
        <g>
          <path class="cls-19" d="M150.44,33.39c-.58.9.89,1.62.39,4.14l-.43.99c-.25.5-3.16-.35-3.33-.49-.32-.27-.6-.99-.7-1.44-2.17-2.39-4.45-4.73-6.82-7.01l-2.64-2.79c-1.02-.87-2.18-.83-3.14.1l-3.51,3.84c-3.04,2.94-6.06,5.87-9.05,8.81l-.46.77-13.9,14.27-.46-.06c-.53.15-.8.47-1,.98l-.04.56c-1.63,1.38-3.17,2.7-4.39,4.44-4.84,4.92-9.7,9.83-14.6,14.73l-.53.04c-.2-.03-.45-.08-.53-.21-.18-.31.37-2,.95-2.13.86-.19,1.22-.59,1.73-1.18.54-.62.69-.94.54-1.85-.09-.52.89-1.04,1.2-1.25.1.35.24.43.33.47s.41-.24.33-.41c-.25-.57-1.2-.5-1.69-.08l-1.19,1.02c.45.26.42.98-.02,1.04-.23.03-.66-.49-.84-.38l-1.08.59c-.03-.39.14-.56.2-.83-.39-.4.1-.79.55-.47.86-.95,1.75-1.9,2.68-2.86-.2-.29-.1-.41.22-.25.59-.35,1.04-.86,1.37-1.51-.19-.55.76-1.51,1.29-1.09,1.3-1.39,2.63-2.77,3.99-4.13l.37-.74c-.09-.14-.05-.19.13-.14,1.53-1.11,2.83-2.57,4.04-4-.06-.26.57-1.11.9-1.14.55-.35,1.08-.78,1.4-1.36-.37-.29.54-1.17.93-.91.69-.45,1.3-1.04,1.71-1.76-.06-.08-.1-.15-.12-.24-.05-.22,2.87-3.17,3.09-3.2.1-.02.2.04.31.12,1.3-1.23,2.49-2.54,3.59-3.93-.14-.11-.19-.21-.08-.32,2.83-2.94,5.7-5.91,8.63-8.77l.4.24c1.04-.02.27,1.31-.07,1.87-1.56,1.16-2.83,2.53-3.81,4.1-.22.07-2.65,2.49-2.48,2.47.15-.02,2.24-.96,2.32-1.06.01-.36.12-.66.32-.9.57-.09,1-.47,1.27-1.15,1.13-.39,2.04-1.14,2.73-2.26,1.86-1.6,3.55-3.33,5.06-5.2l3.72-2.9c1.65-2.58,3.21-4.04,6.5-3.72.67-.94,1.05-1.88,1.13-2.83-.68-.68-.81-1.14-.37-1.37.67.23,1.32.63,1.88,1.2l7.15,7.26,2.93,2.98,1,1.29Z"/>
          <g>
            <path class="cls-8" d="M102.93,55.6c-.33.39-.5.67-.8.75-.43.12-.91.21-1.18-.36l1.06-.94c.36-.32.34-.79.8-.88.32-.07.92.08.92.46l-.81.96Z"/>
            <path class="cls-8" d="M91.84,63.89c-.02-.43.31-.67.6-.96l1.83-1.8,1.94-2.11c.19.51-.09.79-.43,1.12l-2.04,1.99c-.53.52-1.26,1.51-1.9,1.75Z"/>
            <path class="cls-8" d="M100.49,57.77c.19.28-.75,1.49-1.16,1.51-.5.02-.97.18-1.31-.42l1.73-1.35c.23-.18.63.1.74.26Z"/>
            <path class="cls-8" d="M96.34,58.88c.66-1.11,2.01-1.61,2.55-2.81.26-.04.47-.22.71-.45l.78-.74c.03.52-.44.77-.77,1.12l-1.54,1.7c-.49.54-1.02,1.09-1.73,1.18Z"/>
            <path class="cls-8" d="M108.6,46.39c.23-.61.81-.98,1.24-1.46.79-.87,1.56-1.66,2.35-2.47.01.28-.1.48-.32.71l-1.75,1.87c-.49.53-.92,1.07-1.53,1.34Z"/>
            <path class="cls-8" d="M86.28,69.6c-.07-.6.45-.81.82-1.19.62-.64,1.1-1.28,1.86-1.67-.02.13-.08.32-.22.46-.72.66-1.23,1.41-1.8,2.2-.15.2-.55.12-.66.21Z"/>
            <path class="cls-8" d="M95.42,62.73l-.33.52c-.15.24-.52.07-.56-.09-.06-.21-.05-.52.1-.71.17-.21.35-.3.55-.26s.45.22.25.53Z"/>
            <path class="cls-8" d="M89.18,66.49c.39-.53.82-1.13,1.37-1.51-.15.76-.48,1.52-1.37,1.51Z"/>
            <path class="cls-8" d="M103.6,51.47l1.71-1.76c-.08.63-1.07,1.61-1.71,1.76Z"/>
            <path class="cls-8" d="M101.27,53.74c.42-.53.91-.88,1.4-1.36,0,.5-.88,1.34-1.4,1.36Z"/>
            <rect class="cls-8" x="91.6" y="65.55" width=".86" height=".56" transform="translate(-19.59 84.36) rotate(-45)"/>
            <path class="cls-8" d="M106.37,54.51l-1,.98c-.02-.3.09-.62.24-.78.23-.24.5-.24.75-.19Z"/>
          </g>
        </g>
        <g>
          <path class="cls-11" d="M133.67,20.45h3.18s.63.21.63.21c-.05.84,1.42.92.51,2.62l-1.09,2.05c-1.77-.22-3.9.03-4.95,1.55-.57.82-.93,1.55-1.69,2.19-1.05.89-2,1.79-3.22,2.48-.55.32-.93,1.18-1.39,1.63l-2.11,2.07c-1.02,1-2.11,1.79-2.91,3-.36.54-1.07.75-1.68.98l-.63,1.12c-.2.02-.51-.07-.64.03-.16.13-.15.65-.16.87l-2.44,1.1c-.35.16-.34.76-.48,1.04-.19.37-.5.27-.67.18-.95-.53.56-1.67,1.44-2.61.25-.27.36-.8.75-.94,1.03-.38,1.67-2.07,1.91-2.29l1.58-1.45c.52-.47,1.03-.62,1.36-1.34.18-.41.52-.92.18-1.31-.09-.03-.18-.08-.24-.14-.29-.32,1.48-2.08,1.93-2.38,0,0,3.02-3.11,9.07-9.34l1.41-1.08.37-.21Z"/>
          <path class="cls-1" d="M136.85,20.45c-1.02.31-2.12.14-3.18,0,.98-.3,2.19-.34,3.18,0Z"/>
          <path class="cls-10" d="M136.02,24.95c-.62.05-1.43.26-2.04-.02-.53-.24-.51-1.08-.74-1.5l-.59-1.06c.45-.17.58-.89.83-1.09,1.5-.66,3.31-.66,3.91.53.23.45-.15.73-.3,1.11-.3.75-.49,1.41-1.07,2.03Z"/>
        </g>
        <g>
          <path class="cls-8" d="M85.82,75.27l.17.39c-1.63,1.85-3.37,3.61-5.2,5.28-6.49,6.92-13.1,13.74-19.84,20.44-2.68,3.29-6.72,5.54-10.45,2.29-7.1-6.96-14.11-14-21.03-21.12-2.17-2.05-4.26-4.2-6.27-6.42-1.14-1.05-1.99-1.27-3.25-.29-3.01,3.12-6.05,6.24-9.09,9.33l-.5.83c-.11.7-.33,1.05-.67,1.04,0,.15-.01.37-.11.4-.5.13-2.75.47-3.08.22-1.16-.86-.32-3.41.32-4.45.73-.81,1.31-1.7,1.75-2.65l5.92-6.06,2.84-2.86c2.07-2.08,5.24-2.54,7.49-.79.2.35.46.65.78.91l-.13.24c.62.56,1.28,1.09,1.96,1.58,1.74,2.01,3.59,3.92,5.55,5.76,6.39,6.57,12.77,13.1,19.14,19.58,1.46,1.19,3.03.9,4.67.31.17-.06.32.03.44.17.59-.53,1.08-1.18,1.48-1.94,8.87-9.22,17.77-18.42,26.68-27.61l.35.21c.16.2.49.16,1-.13l.69.35c-.61-1.03,1.24-2.4,2.19-2.37,1.66.05,1.31,2.1-.04,1.3l-.63.49c.17,1.63-.65,2.47-1.9,3.35-1.06.13-1.62,1.31-1.22,2.21Z"/>
          <g>
            <path class="cls-9" d="M100.99,53.27l.24.15c-.59,1.02-1.37,1.91-2.34,2.66l.15.23c-.76.99-1.67,1.87-2.7,2.58-.03.05-.09.1-.13.14l-.39.76-3.98,4.11c-.52.2-.84.76-1.29,1.09-.31.67-.77,1.18-1.37,1.51-.06.08-.14.21-.22.25-.91.96-1.8,1.91-2.68,2.86l-.55.47c-.18.15-.65.23-.77.57-.21.6-.77.79-1.12,1.17l-2.2,2.37c-.72.78-1.4,1.48-2.12,2.23l-3.49,3.57-3.18,3.27c-.38.39-.7.65-1.08,1.04l-2.7,2.85-2.37,2.35c-.34.33-.67.93-1.02,1.24-.96.85-1.6,1.76-2.5,2.68l-2.61,2.65c-.88.89-1.86,1.55-2.47,2.68-.19.35-.58.57-.88.67-.26-.23-.11-.57.47-1.02l.36-.64,10.31-10.79,1.64-1.66,25.18-26.09,5.43-5.6c.12-.13.34-.19.37-.34Z"/>
            <path class="cls-21" d="M26.77,72.78c.63.34,1.02,1,1.57,1.53l1.53,1.48c.47.77,1.05,1.4,1.76,1.89l8.21,8.32,6.96,7.11,2.66,2.67,2.85,2.86c1.34,1.34,3.35,1.24,4.78,0,.34-.3.61-.65.98-.88.21.75-.58,1.13-.83,1.66-.45.15-.96.52-1.55.5l-2.38-.08c-1.54-.05-3.1-2.62-3.78-3.19l-1.43-1.19c-.53-.72-1.24-1.18-1.74-1.87l-.65-.9-4.77-4.77c-1.02-1.02-1.88-2.1-2.97-3.09-.9-.82-1.61-1.78-2.61-2.54l-2.53-2.78c-1.4-1.22-2.66-2.5-3.88-3.91l-1.34-1.54c-.76-.87-1.98-1.24-2.14-2.04l.12-.25c.39.34.79.68,1.19,1.01Z"/>
            <path class="cls-20" d="M9.69,87.05c.34-.34.54-.32.6.07.41.03.48.19.2.49-.25.38-.85.43-1.31.6-.9.32-1.64.68-2.52.38-.46-.31-.77-.9-.95-1.77-.15-.45-.17-.96-.05-1.53.27-1.19.81-2.29,1.68-3.3l1.23-1.44c.17,2.18-2.65,2.52-2.3,5.74.02.21-.11.56.04.78.11.17.39.38.75.33l2.63-.36Z"/>
            <path class="cls-2" d="M26.77,72.78c-.25-.13-.6-.08-.8-.53-.08-.17-.35-.26-.51-.24-.08-.41-.76-.6-.65-1.16.71.55,1.43,1.16,1.95,1.92Z"/>
            <path class="cls-2" d="M31.62,77.68c-.52.07-.69-.35-.98-.77-.27-.39-.82-.61-.78-1.13.63.61,1.15,1.28,1.76,1.89Z"/>
            <path class="cls-3" d="M56.38,103.37c-.49,1.35-2.68,1.61-4.03.56-.53-.41-.52-1.07-.14-1.56.32-.4.36-.95.49-1.39.2-.68.71-.84,1.33-.73.52.1,1.2-.02,1.63.34.47.4.38,1.06.51,1.59.12.47.35.79.2,1.2Z"/>
            <path class="cls-6" d="M23.41,70.71c.92.54-.05,3.5-.69,3.69s-1.84.23-2.27-.36-.99-2.58-.37-3.33c.54-.65,2.79-.31,3.33,0Z"/>
          </g>
        </g>
      </g>
    </g>
  </g>
</svg>