<?xml version="1.0" encoding="UTF-8"?>
<svg id="Capa_1" data-name="Capa 1" xmlns="http://www.w3.org/2000/svg" viewBox="0 0 157.12 156.88">
  <defs>
    <style>
      .cls-1 {
        fill: #9198a0;
      }

      .cls-2 {
        fill: #aaaeb3;
      }

      .cls-3 {
        fill: #aaadb2;
      }

      .cls-4 {
        fill: #72797f;
      }

      .cls-5 {
        fill: #fff;
      }

      .cls-6 {
        fill: #abafb3;
      }

      .cls-7 {
        fill: #636970;
      }

      .cls-8 {
        fill: #7c8185;
      }

      .cls-9 {
        fill: #646a71;
      }

      .cls-10 {
        fill: #646b71;
      }

      .cls-11 {
        fill: #1e2736;
      }

      .cls-12 {
        fill: #656a70;
      }

      .cls-13 {
        fill: #6f767b;
      }

      .cls-14 {
        fill: #7b8084;
      }

      .cls-15 {
        fill: #727a7e;
      }

      .cls-16 {
        fill: #7c8186;
      }

      .cls-17 {
        fill: #121a13;
      }

      .cls-18 {
        fill: #7c8086;
      }

      .cls-19 {
        fill: #7a8184;
      }

      .cls-20 {
        fill: #70767c;
      }

      .cls-21 {
        fill: #a9adb2;
      }

      .cls-22 {
        fill: #7e8387;
      }

      .cls-23 {
        fill: #778183;
      }

      .cls-24 {
        fill: #788083;
      }

      .cls-25 {
        fill: #abafb4;
      }
    </style>
  </defs>
  <path class="cls-17" d="M88.25,156.85l-18.51.03c-3.5,0-6.48-1.95-7.52-5.29l-2.91-14.22c-3.09-1.03-5.86-2.35-8.8-3.8l-11.06,7.63c-3.3,2.44-7.4,1.81-10.22-1.03l-12.53-12.65c-2.76-2.79-2.86-7.03-.53-10.14l7.26-10.72c-1.58-2.98-2.68-5.92-3.71-9.08l-13.39-2.83c-3.62-.65-6.01-3.64-6-7.34l.03-17.87c0-3.83,2.81-6.77,6.53-7.31l12.63-2.69c1-2.95,2.07-5.71,3.39-8.51l-7.49-11.61c-2.18-3.52-1.33-7.51,1.51-10.33l12.09-12.01c2.36-2.34,5.91-3.24,8.83-1.36l9.07,5.82,2.94,1.98c2.87-1.49,5.76-2.68,8.82-3.86l3.52-14.39C62.92,2.33,65.66,0,68.78,0h19.8c3.17,0,5.69,2.43,6.55,5.29l3.43,14.34c3.08,1.16,5.98,2.41,8.92,3.86l12.1-7.88c3.11-1.54,6.45-.84,8.84,1.56l12.49,12.51c2.7,2.7,2.94,6.77.86,9.93l-7.51,11.43c1.27,2.85,2.4,5.55,3.34,8.5l13.64,2.79c3.33.84,5.72,3.69,5.72,7.22l.02,18.01c0,3.35-2.08,6.06-5.23,7.02l-14.34,3c-.96,3.1-2.07,6-3.6,8.95l7.64,11.28c2.19,3.32,1.59,7.31-1.18,10.08l-12.59,12.59c-2.54,2.55-6.32,2.99-9.36,1.04l-11.56-7.97c-2.83,1.46-5.69,2.68-8.77,3.8l-2.77,13.8c-.8,3.29-3.49,5.5-6.98,5.7Z"/>
  <g>
    <path class="cls-25" d="M90.04,4.75c.1.1.24.27.19.35-.48.78-1.42,1.92-2.03,2.63-.34.65-.73.96-1.18.93l-.92.21c-5.1-.03-10.21,0-15.32.1l-3.85,16.93-.21.39c-5.92,1.59-11.53,4.06-16.82,7.14l-.36-.07-14.58-9.41.1-.14c-3.58,3.61-7.16,7.22-10.75,10.82l-.83.54c-.06.13-.16.33-.27.32-.55-.06-4.46-.75-4.62-.93l-.09-.54c.16-.46.31-.94.73-1.35l12.78-12.75c1-1,2.31-1.33,3.62-.76l14.01,9.03c4.06-2.19,8.19-3.97,12.59-5.5l3.9-16.37c.42-1.38,1.6-2.2,3.05-2.31l18.97.02c.81,0,1.4.3,1.88.71Z"/>
    <path class="cls-6" d="M138.84,34.04l-.1.55c-1.51.34-3.03.63-4.56.87l-.32-.31c-.39.27-.78.03-1.17-.72-3.39-3.51-6.84-6.98-10.37-10.39-4.44,2.73-8.85,5.54-13.25,8.43-.7.56-1.39.81-2.08.77-4.79-2.89-10.15-5.08-15.57-6.8l-.52-.4c-.02-.58.32-1.08,1.02-1.5l2.75-2.01.41.15c4.34,1.42,8.47,3.34,12.58,5.5l13.33-8.63c1.41-.91,3-.93,4.24.28l12.4,12.39c.59.59.97,1.11,1.21,1.81Z"/>
    <path class="cls-12" d="M66.66,129.24c.12.17.14.37.12.57-.03.3-2.94,4.07-3.4,4.59h-.45c-4.29-1.51-8.46-3.29-12.54-5.5l-1.97,1.2-11.69,8c-.64.44-1.35.5-2,.46-.14-.04-.34-.12-.33-.22.06-1.07.57-4.26.89-5.25l.41-.2c-.08-.12-.17-.32-.1-.37,4.97-3.52,10.29-7.03,15.4-10.31,4.77,2.84,9.9,4.91,15.15,6.64l.52.4Z"/>
    <path class="cls-9" d="M121.7,132.84l.39.1.81,4.6c-.03.35.1.66.39.94-1.22.42-2.34-.12-3.43-.87l-12.78-8.77c-3.57,1.94-7.1,3.31-10.74,4.77l-1.93.77c-.12.07-.33.17-.39.09-.51-.6-3.23-4.05-3.39-4.49-.13-.37-.12-.8.31-.82l1.06-.67c5.07-1.41,9.8-3.7,14.36-6.29l.39.11,14.97,10.11-.02.42Z"/>
    <path class="cls-10" d="M147.36,86.34c.37-.16.58-.21.94-.19.24.02,3.54,2.46,3.97,2.82v.45c-.41.67-1.24,1.17-2.13,1.36l-12.76,2.74-3.18.82c-1.33,4.37-2.95,8.5-5.13,12.44-.04.14-.12.33-.23.33-.73-.02-3.73-.6-4.45-.84l-.19-.41c-.33-.12-.6-.07-.8.14l-.35-.47c2.78-4.97,5.1-10.15,6.52-15.68l.31-.2,17.18-3.62.29.31Z"/>
    <path class="cls-3" d="M31.88,50.47c.29-.07,1.6-.17,1.61.04,0,.23-.08.46-.19.69-2.73,4.73-4.57,9.89-5.94,15.16l-.34.21-17.45,3.84-.29-.31c-.11.1-.27.26-.37.21-.44-.21-3.53-1.99-3.66-2.16-.19-.25-.2-.33-.03-.66.59-.76,1.39-1.09,2.39-1.3l14.27-3.02c.67-.14.99-.44,1.19-1.08,1.21-3.96,2.75-7.71,4.49-11.38.03-.14.08-.36.19-.38.69-.12,2.07-.16,2.8-.16.67-.17,1.11-.07,1.34.29Z"/>
    <path class="cls-7" d="M70.61,147.22l.13-.37,15.73.03.22.37c.2-.39.25-.41.57-.2.27.18,2.6,3.75,2.92,4.29v.47c-.49.52-1.17.93-2.02.93h-18.79c-.91,0-1.74-.32-2.2-.95-.12-.08-.27-.23-.21-.32.38-.57,3.01-4.41,3.27-4.52.14-.06.3.11.38.27Z"/>
    <path class="cls-23" d="M35.69,132.89l-.96,5.68c-.51-.04-1.14-.04-1.59-.48l-6.52-6.44-6.93-6.95c-.83-.83-1.29-2.05-.99-3.11.22-.05.39.05.51.3l4.18-1.13.35.28.4-.11c3.77,3.91,7.61,7.74,11.53,11.49v.46Z"/>
    <path class="cls-24" d="M133.73,120.99l.26-.31,4.31,1.24.36-.17c.31,1.44-.59,2.57-1.63,3.6l-10.67,10.67-1.4,1.36c-.53.52-1.05.88-1.68,1.09-.19-.03-.48,0-.64-.07-.25-.11-.06-.54-.08-.7l-.86-4.87v-.42s11.62-11.52,11.62-11.52l.42.1Z"/>
    <path class="cls-16" d="M152.28,89.42l-4.15-2.95c-.27-.15-.53-.18-.77-.13-.13-.2-.06-.4.21-.62v-15.25s.36-.22.36-.22c-.04-.14-.1-.35-.01-.42.56-.44,3.27-2.14,3.86-2.37l.41.18c.34.5.7,1.09.7,1.9v17.87c0,.8-.26,1.45-.61,2.02Z"/>
    <path class="cls-18" d="M9.27,70.1c.25-.08.42-.03.49.16-.2,5.31-.15,10.56.15,15.73l-.35.28.03.42-3,2.07c-.45.51-.9.8-1.36.86-.39-.57-.78-1.19-.78-2.03l-.03-17.89c0-.89.35-1.65.79-2.22,0,.27.21.34.45.48l3.61,2.14Z"/>
    <path class="cls-10" d="M9.57,86.26l.2-.33,17.25,3.65.14.4c.21.17.28.44.22.81-1.29,1.09-2.55,2.23-3.8,3.42l-.63.03-3.7-.92-12.36-2.61c-.71-.15-1.31-.61-1.65-1.1.41-.67,1.06-1.1,1.73-1.56l2.61-1.79Z"/>
    <path class="cls-15" d="M23.49,35.17l.4-.06c3.28,4.97,6.48,9.97,9.62,14.99l-.04.29-1.59.07-4.33.24c-.05-.3-.23-.48-.41-.77l-8.28-12.87c-.61-.95-.67-2.11-.34-3.04.12.13.28.26.51.31l4.47.84Z"/>
    <path class="cls-13" d="M129.74,50.44l-.07.38c-.31.13-4.94.13-5.17.01-.29-.15-.47-.42-.34-.73l-.22-.34s3.17-4.88,9.5-14.64l.42.02,4.35-.77c.28-.05.5-.13.63-.34.35,1.07.2,2.21-.48,3.25l-8.62,13.15Z"/>
    <path class="cls-14" d="M90.94,129.15c-.06,0-.3.22-.25.29l3.72,4.94-3.19,15.85c-.14.71-.45,1.38-1.02,1.59-.18-.11-.35-.26-.49-.48l-2.46-3.74c-.2-.3-.26-.35-.56-.35-.18-.34-.16-.77.08-1.31l3.31-16.51c.25-.55.57-1.02.85-.29Z"/>
    <path class="cls-19" d="M70.61,147.22c-.33,0-.37.21-.56.5l-2.13,3.17-.75.9c-.59-.31-.93-.95-1.09-1.71l-3.16-15.69,3.34-4.36c.19-.24.34-.46.39-.79.42-.46.63.14.74.6l3.18,16.23c.23.48.24.86.04,1.15Z"/>
    <path class="cls-8" d="M95.09,22.69l-1.14.85c-1.11.77-2.19,1.49-3.04,2.5-.23.48-.54.22-.66-.22-1.27-5.68-2.49-11.36-3.65-17.04l.43-.11,3.02-3.92c.41.35.89.67,1.05,1.35l3.99,16.59Z"/>
    <path class="cls-20" d="M33.16,105.87c0,.15-.02.37-.13.4-.97.3-2.71.67-3.73.81-.56.24-.95.2-1.18-.12-2.04-4.1-3.94-8.3-5.17-12.72,1.23-.91,2.19-2.06,3.38-3.07.38-.32,1.1-.58.83-1.19.06-.53.42-.38.65.02,1.27,5.29,3.47,10.35,6.3,15,.5.66.19.94-.95.86Z"/>
    <path class="cls-2" d="M33.16,105.87c.81-.2,1.13-.06.94.43l-9.9,14.73-.45.02-4.96,1.33-.09-.79c.12-.43.25-.88.55-1.33l8.88-13.29,5.04-1.09Z"/>
    <path class="cls-2" d="M124.2,105.87l4.87.92,8.08,12.06c.65.98,1.27,1.86,1.5,2.93-.04.16,0,.34-.09.62l-4.83-1.4c-.44.11-.81-.13-1.11-.72l-9.27-13.92c-.3-.55-.02-.72.84-.49Z"/>
    <path class="cls-6" d="M152.19,67.63l-4.26,2.61c-.31.14-.69.08-1.15-.17l-16.46-3.52-.14-.4.08-.52,3.73-2.82.43.13,1.91.44,13.74,2.87c.97.2,1.65.68,2.13,1.39Z"/>
    <path class="cls-22" d="M129.74,50.44c-.11.31-.02.57.15.91,1.88,3.76,3.26,7.64,4.52,11.57l-4.24,3.21-.37-.48c-1.56-5.13-3.3-10.27-6.06-14.88-.13-.47-.13-.74.42-.68,0,.08,0,.21.05.26.05.05.18.1.32.11l3.99.11,1.21-.14Z"/>
    <g>
      <path class="cls-1" d="M87.02,8.67c-.18.24-.03.55.05.89l3.5,16.05c.04.16.03.3.11.33l.23.1c4.47,1.22,8.82,2.83,12.99,5.04l3.42,1.92c1.29-.56,2.25-1.31,3.39-2.03l10.68-6.84c.33-.21.87-.7,1.27-.3l6.89,6.82,3.42,3.54c.31.32.45.81.9.96l-4.62,7.08-5.09,7.88c-.22.34-.14.46.1.87,2.78,4.78,4.63,9.9,5.92,15.17l9.7,2.07,6.62,1.45c.57.03,1.03.24,1.43.58v15.69c-.13.21-.44.31-.57.4l-17.52,3.69c-1.34,5.51-3.52,10.62-6.49,15.5.28.25.61.21.86.33-.15.01-.37-.07-.68.08l2.14,3.21,3.19,4.84,2.6,3.79c.8,1.16,1.4,2.4,2.28,3.21l-11.42,11.36c-.25.25-.41.4-.62.49l-6.35-4.24-8.94-6.09c-4.87,2.94-10.05,5.23-15.47,6.64-.06-.02-.23-.04-.3,0-.11.07-.17.23-.22.45l-3.19,15.92c-.13.66-.21,1.23-.54,1.74l-16.08-.03c-.3-.44-.37-.94-.49-1.53l-3.06-15.56c-.01-.24-.17-.83-.41-.89-5.48-1.5-10.78-3.68-15.71-6.72l-15.26,10.36c-.18-.13-.34-.26-.54-.45l-6.35-6.24-2.92-2.93-2.12-2.23,3.63-5.41,6.51-9.68c-.28-.09-.51-.06-.73-.08.26-.06.53-.19.93-.19-2.98-4.8-5.22-9.85-6.58-15.34-.04-.15-.01-.26-.11-.32-.06-.04-.17-.05-.23-.03l-17.59-3.72-.19-2.51c-.11-4.3-.09-8.48.03-12.79,0-.3.08-.74-.14-.87l12.99-2.9,4.84-1.02c1.3-5.57,3.31-10.72,6.17-15.65l-1.38-.06c.35-.26.79-.15,1.37-.16l-3.3-5.19-6.46-9.95c3.68-3.99,7.44-7.84,11.49-11.64l7.74,4.99,7.13,4.61c5.23-3.16,10.67-5.57,16.67-7.08l3.95-17.37c5.64-.27,11.09-.23,16.54-.01Z"/>
      <path class="cls-4" d="M111.75,73.72c.59,3.9-1,8.55-3.15,11.84-.29.44-.73,1.09-1.15.58l-.15-.9c4.45-18.47-9.46-36.44-28.63-36.44s-33.08,17.98-28.63,36.45l-.15.9c-.09.57-.6.36-.89-.02-1.93-2.49-3.35-6.85-3.66-9.97-.03-.28.03-.53.21-.76l-.02-2.41c-.01-1.32.18-2.49.51-3.8,1.81-7.24,5.9-13.69,11.76-18.37,8.2-6.54,19.13-8.81,29.27-6.19,10.91,2.82,19.46,10.84,23.19,21.41.91,2.57,1.55,5.01,1.48,7.68Z"/>
      <path class="cls-21" d="M45.56,75.4c.46,3.67,1.57,7.27,3.67,10.4.18.27.33.38.68.35l.57.66c8.62,27.8,47.79,27.8,56.41,0l.57-.66c.42-.16.65-.48.89-.86,2.21-3.49,3.29-7.52,3.4-11.56.13-.07.33,0,.34.11v.44c1.04,10.43-2.6,20.77-10.1,28.07-3.11,3.02-6.61,5.26-10.58,6.99-7.31,3.19-15.99,3.37-23.51.76-7.93-2.76-14.44-8.18-18.5-15.51-1.1-1.99-1.96-3.81-2.64-5.98-1.56-4.99-2.22-10.16-1.42-15.28.22.76-.08,1.46.21,2.08Z"/>
      <g>
        <path class="cls-11" d="M107.45,86.14c-3.54,12.98-15.33,21.99-28.77,21.99-13.45,0-25.23-9.01-28.78-21.99-3.31-12.14,1.34-25.05,11.63-32.28,10.29-7.23,24-7.23,34.29,0,10.29,7.23,14.94,20.14,11.63,32.28Z"/>
        <ellipse class="cls-5" cx="78.67" cy="78.25" rx="25.7" ry="25.72"/>
      </g>
    </g>
  </g>
</svg>