<?xml version="1.0" encoding="UTF-8" standalone="no"?>
<!-- Created with Inkscape (http://www.inkscape.org/) -->

<svg
   width="26.435076mm"
   height="26.432701mm"
   viewBox="0 0 26.435076 26.432701"
   version="1.1"
   id="svg1"
   xml:space="preserve"
   xmlns="http://www.w3.org/2000/svg"
   xmlns:svg="http://www.w3.org/2000/svg"><defs
     id="defs1" /><g
     id="layer1"
     transform="translate(-147.4976,-15.445958)"><g
       id="g31"
       transform="translate(59.689031,-73.804337)"><path
         style="fill:#9a9da6"
         d="m 99.245858,115.4422 c -0.681453,-0.27457 -1.008951,-0.83824 -1.243639,-2.1405 -0.261245,-1.44963 -1.18088,-1.76273 -2.649514,-0.90205 -0.622364,0.36473 -1.336598,0.66314 -1.587185,0.66314 -0.250588,0 -1.10333,-0.61258 -1.894984,-1.36129 -1.645616,-1.55636 -1.797202,-2.23246 -0.820211,-3.65828 0.523545,-0.76407 0.575494,-1.01929 0.336399,-1.65273 -0.222678,-0.58994 -0.49809,-0.78355 -1.296131,-0.91116 -0.557353,-0.0891 -1.252014,-0.35529 -1.543691,-0.59147 -0.949151,-0.76858 -0.994732,-3.98952 -0.06955,-4.914704 0.223657,-0.223657 0.926627,-0.537581 1.562156,-0.697609 1.456182,-0.366671 1.776578,-1.274573 0.936226,-2.652971 -0.836863,-1.372675 -0.702165,-1.998614 0.740551,-3.44133 1.495059,-1.495059 2.31741,-1.638327 3.749431,-0.653215 0.826317,0.568437 0.988433,0.595994 1.614117,0.274369 0.731682,-0.376112 1.02425,-0.871325 1.02425,-1.733689 0,-0.285755 0.292244,-0.811798 0.649432,-1.168985 0.553249,-0.55325 0.898429,-0.649432 2.330685,-0.649432 2.01899,0 2.48508,0.293826 2.94312,1.855374 0.22756,0.775784 0.58535,1.322118 1.03225,1.576189 0.62418,0.354869 0.77529,0.337525 1.72891,-0.198437 1.56055,-0.87708 2.14331,-0.766409 3.5253,0.669478 1.60096,1.663389 1.69184,2.00753 0.90295,3.419011 -0.87254,1.561146 -0.5577,2.357202 1.09707,2.773878 1.55485,0.391515 1.92987,1.008173 1.92987,3.173343 0,1.60135 -0.0678,1.82738 -0.69714,2.32238 -0.38343,0.3016 -0.94898,0.55019 -1.25677,0.55242 -0.71088,0.005 -1.06318,0.24336 -1.45196,0.98174 -0.25955,0.49296 -0.20005,0.79934 0.36515,1.88028 0.8294,1.58618 0.68289,2.11342 -1.02461,3.68734 -1.40918,1.29894 -2.03991,1.38215 -3.41159,0.45007 -0.93599,-0.63603 -1.0249,-0.6489 -1.78121,-0.25779 -0.44386,0.22953 -0.79604,0.62529 -0.79604,0.89454 0,0.96723 -0.57105,2.08349 -1.21624,2.37747 -0.7705,0.35106 -2.89309,0.37077 -3.727402,0.0346 z m 4.303702,-10.06894 c 1.50142,-1.40271 1.86301,-3.37704 0.90595,-4.94674 -1.91875,-3.147004 -6.609506,-2.227919 -7.301063,1.43054 -0.222997,1.17969 0.686691,3.11173 1.791532,3.80493 1.238871,0.7773 3.622541,0.6278 4.603581,-0.28873 z"
         id="path38" /><path
         style="fill:#856ca7"
         d="m 98.961595,115.22447 c -0.183212,-0.11631 -0.5404,-0.84972 -0.79375,-1.62979 -0.587438,-1.80873 -1.451456,-2.22151 -2.735783,-1.30699 -1.255255,0.89382 -2.235629,0.73791 -3.565212,-0.56697 -1.477927,-1.45048 -1.630953,-2.11469 -0.809954,-3.51562 0.583482,-0.99564 0.61379,-1.18654 0.304981,-1.92098 -0.271361,-0.64538 -0.549015,-0.84894 -1.331072,-0.97585 -1.641213,-0.26633 -1.980889,-0.77409 -1.980889,-2.9611 0,-2.18203 0.340432,-2.694896 1.963684,-2.958313 0.706293,-0.114616 1.074387,-0.357531 1.350311,-0.891108 0.348783,-0.674473 0.324926,-0.830876 -0.296274,-1.942322 -0.821119,-1.469143 -0.707603,-1.960538 0.778253,-3.368942 1.470982,-1.394304 2.060559,-1.512145 3.337534,-0.667083 0.892321,0.59051 1.144166,0.645764 1.839135,0.403497 0.605086,-0.210935 0.872087,-0.521397 1.074195,-1.249052 0.147929,-0.53259 0.269625,-1.123248 0.270437,-1.312575 0.004,-0.926863 3.942129,-1.373675 4.924139,-0.558679 0.209,0.173452 0.51195,0.839406 0.67323,1.479897 0.21667,0.860477 0.49394,1.268321 1.06196,1.562057 0.70943,0.366857 0.82756,0.355645 1.53109,-0.145315 0.4193,-0.298564 1.13134,-0.61664 1.58231,-0.706835 0.72619,-0.145237 0.97079,-0.01316 2.13893,1.154989 1.49071,1.490709 1.59864,2.015563 0.73169,3.558098 -0.53602,0.953723 -0.55335,1.104758 -0.19844,1.730084 0.26235,0.462239 0.80124,0.804735 1.65642,1.052751 1.47062,0.426505 1.77515,0.955181 1.77515,3.081791 0,1.38708 -0.51998,2.55376 -1.13949,2.55666 -0.17364,8.1e-4 -0.75344,0.12305 -1.28844,0.27164 -1.28058,0.35568 -1.58002,1.42185 -0.76824,2.73534 0.76998,1.24586 0.69167,1.88937 -0.39064,3.21019 -1.33688,1.63149 -2.15833,1.85788 -3.72287,1.026 -1.05719,-0.56211 -1.34801,-0.61514 -1.96715,-0.35868 -0.54105,0.22411 -0.7718,0.54876 -0.90381,1.27155 -0.34459,1.88682 -0.70858,2.16173 -2.85619,2.15718 -1.05167,-0.002 -2.062033,-0.0992 -2.245245,-0.21552 z m 4.460675,-9.58889 c 1.05005,-0.74771 1.56098,-1.82803 1.56098,-3.30059 0,-4.272782 -5.897321,-5.454367 -7.574725,-1.51767 -0.889329,2.08716 0.11377,4.43661 2.283194,5.34766 0.930661,0.39084 2.813421,0.12365 3.730551,-0.5294 z"
         id="path37" /><path
         style="fill:#786b96"
         d="m 98.961595,115.22447 c -0.183212,-0.11631 -0.5404,-0.84972 -0.79375,-1.62979 -0.587438,-1.80873 -1.451456,-2.22151 -2.735783,-1.30699 -1.255255,0.89382 -2.235629,0.73791 -3.565212,-0.56697 -1.477927,-1.45048 -1.630953,-2.11469 -0.809954,-3.51562 0.583482,-0.99564 0.61379,-1.18654 0.304981,-1.92098 -0.271361,-0.64538 -0.549015,-0.84894 -1.331072,-0.97585 -1.641213,-0.26633 -1.980889,-0.77409 -1.980889,-2.9611 0,-2.18203 0.340432,-2.694896 1.963684,-2.958313 0.706293,-0.114616 1.074387,-0.357531 1.350311,-0.891108 0.348783,-0.674473 0.324926,-0.830876 -0.296274,-1.942322 -0.821119,-1.469143 -0.707603,-1.960538 0.778253,-3.368942 1.470982,-1.394304 2.060559,-1.512145 3.337534,-0.667083 0.892321,0.59051 1.144166,0.645764 1.839135,0.403497 0.605086,-0.210935 0.872087,-0.521397 1.074195,-1.249052 0.147929,-0.53259 0.269625,-1.123248 0.270437,-1.312575 0.004,-0.926863 3.942129,-1.373675 4.924139,-0.558679 0.209,0.173452 0.51195,0.839406 0.67323,1.479897 0.21667,0.860477 0.49394,1.268321 1.06196,1.562057 0.70943,0.366857 0.82756,0.355645 1.53109,-0.145315 0.4193,-0.298564 1.13134,-0.61664 1.58231,-0.706835 0.72619,-0.145237 0.97079,-0.01316 2.13893,1.154989 1.49071,1.490709 1.59864,2.015563 0.73169,3.558098 -0.53602,0.953723 -0.55335,1.104758 -0.19844,1.730084 0.26235,0.462239 0.80124,0.804735 1.65642,1.052751 1.47062,0.426505 1.77515,0.955181 1.77515,3.081791 0,1.38708 -0.51998,2.55376 -1.13949,2.55666 -0.17364,8.1e-4 -0.75344,0.12305 -1.28844,0.27164 -1.28058,0.35568 -1.58002,1.42185 -0.76824,2.73534 0.76998,1.24586 0.69167,1.88937 -0.39064,3.21019 -1.33688,1.63149 -2.15833,1.85788 -3.72287,1.026 -1.05719,-0.56211 -1.34801,-0.61514 -1.96715,-0.35868 -0.54105,0.22411 -0.7718,0.54876 -0.90381,1.27155 -0.34459,1.88682 -0.70858,2.16173 -2.85619,2.15718 -1.05167,-0.002 -2.062033,-0.0992 -2.245245,-0.21552 z m 4.123015,-3.44146 c 0.35061,-1.26391 0.51384,-1.4714 1.55561,-1.97753 l 1.16389,-0.56547 1.34506,0.7561 1.34507,0.7561 0.88274,-0.93565 0.88273,-0.93566 -0.62771,-0.92499 c -0.34524,-0.50874 -0.52979,-1.02633 -0.4101,-1.1502 0.11969,-0.12386 0.37582,-0.87767 0.56917,-1.67513 0.30431,-1.25505 0.45824,-1.48167 1.14531,-1.6862 1.52771,-0.45479 2.08815,-0.7373 1.81898,-0.91695 -0.14855,-0.0991 -0.35099,-0.41839 -0.44987,-0.70943 -0.16825,-0.4952 -0.15635,-0.49905 0.18527,-0.06 0.34587,0.44454 0.3724,0.44106 0.50504,-0.0662 0.077,-0.29443 0.025,-0.53533 -0.11543,-0.53533 -0.14049,0 -0.17398,-0.13179 -0.0744,-0.29287 0.12515,-0.20249 -0.0641,-0.23905 -0.61311,-0.11846 -0.55136,0.1211 -0.91967,0.0489 -1.20482,-0.23629 -0.22589,-0.22589 -0.52417,-0.41071 -0.66283,-0.41071 -0.13867,0 -0.43946,-0.565546 -0.66842,-1.25677 -0.40811,-1.232022 -0.40319,-1.276687 0.24968,-2.26816 0.5634,-0.855602 0.6125,-1.077386 0.31879,-1.439852 -0.29439,-0.363304 -0.28683,-0.393671 0.0497,-0.199686 0.21828,0.125827 0.0751,-0.09999 -0.31808,-0.501809 -0.39323,-0.401822 -0.83079,-0.658998 -0.97237,-0.571501 -0.14157,0.0875 -0.56838,0.01739 -0.94846,-0.155783 -0.58373,-0.265964 -0.76145,-0.241139 -1.1443,0.159838 -0.43249,0.452959 -0.42295,0.4605 0.20821,0.164618 0.60698,-0.284549 0.6212,-0.277696 0.17272,0.08321 -0.26881,0.216314 -0.65576,0.329207 -0.8599,0.250872 -0.20414,-0.07834 -0.37116,-0.0096 -0.37116,0.152706 0,0.315041 -0.84594,-0.07284 -1.53002,-0.701539 -0.19792,-0.181901 -0.5183,-0.330729 -0.71195,-0.330729 -0.19365,0 -0.47785,-0.360735 -0.63155,-0.801633 -0.3221,-0.923977 -0.90303,-1.577828 -1.40706,-1.583668 -0.25925,-0.003 -0.24703,-0.0726 0.0473,-0.269231 0.28666,-0.191539 0.038,-0.24552 -0.89526,-0.194386 -1.362038,0.07462 -1.522656,0.233825 -1.868387,1.851918 -0.09458,0.442662 -0.460582,0.881106 -0.944353,1.131274 -0.434455,0.224665 -0.789917,0.522582 -0.789917,0.662037 0,0.356584 -2.039329,0.18061 -2.429588,-0.209648 -0.787895,-0.787896 -3.129539,0.146529 -3.124919,1.246989 0.0023,0.548792 0.916563,1.922348 1.134488,1.704422 0.0937,-0.0937 0.05842,0.219952 -0.0784,0.696996 -0.136814,0.477044 -0.174276,0.98786 -0.08325,1.135147 0.09103,0.147287 0.04075,0.19069 -0.111734,0.09645 -0.15411,-0.09525 -0.350768,0.121615 -0.442796,0.488286 -0.09106,0.362796 -0.302741,0.659632 -0.470412,0.659632 -0.16767,0 -0.543055,0.20836 -0.834189,0.46302 -0.291134,0.25466 -0.449173,0.3253 -0.351198,0.15697 0.118668,-0.20388 0.0023,-0.26009 -0.348419,-0.16836 -0.289605,0.0757 -0.448832,0.26346 -0.353836,0.41716 0.102721,0.16621 0.01622,0.21942 -0.213445,0.13129 -0.248958,-0.0955 -0.399548,0.0295 -0.423835,0.35191 -0.02072,0.27505 0.08857,0.50009 0.242866,0.50009 0.191089,0 0.186886,0.11285 -0.01318,0.35391 -0.315605,0.38029 0.09451,0.65758 1.683519,1.13827 1.378679,0.41706 2.285775,3.52997 1.334825,4.58076 -0.587926,0.64965 -0.347035,1.41908 0.671302,2.1442 l 0.78359,0.55796 1.210751,-0.70954 c 1.195795,-0.70079 1.224879,-0.70415 2.354703,-0.27267 1.129026,0.43118 1.715236,1.28984 1.715236,2.51243 0,0.80524 0.601554,1.09736 2.094028,1.01691 l 1.43646,-0.0774 z m -0.21803,-3.98584 c 0,-0.27475 0.5033,-0.67249 0.65238,-0.51556 0.0484,0.051 -0.0786,0.24617 -0.28219,0.4338 -0.2036,0.18764 -0.37019,0.22443 -0.37019,0.0818 z m -3.42102,-0.25271 c 0.155728,-0.0519 0.03646,-0.26717 -0.265048,-0.47835 -0.301505,-0.21119 -0.685441,-0.29915 -0.85319,-0.19547 -0.20277,0.12532 -0.232408,0.071 -0.08842,-0.16193 0.158569,-0.25657 0.09497,-0.30376 -0.237445,-0.1762 -0.249711,0.0958 -0.389616,0.07 -0.3109,-0.0573 0.188839,-0.30555 -0.504327,-0.87298 -0.757342,-0.61997 -0.107878,0.10788 -0.172121,0.0771 -0.142761,-0.0684 0.116424,-0.57706 -0.03216,-0.77306 -0.30087,-0.39687 -0.227515,0.31852 -0.25758,0.27879 -0.152279,-0.20124 0.172637,-0.78698 -0.379495,-2.22526 -0.793286,-2.06648 -0.196203,0.0753 -0.265534,-0.0267 -0.176275,-0.2593 0.08092,-0.21087 0.283214,-0.39177 0.449546,-0.402 0.166332,-0.0102 0.0643,-0.12092 -0.226745,-0.24598 -0.430545,-0.18501 -0.445894,-0.23086 -0.08236,-0.24599 0.327221,-0.0136 0.494901,-0.35497 0.626488,-1.27537 0.221631,-1.5502 0.932717,-2.764397 2.172635,-3.709828 0.837186,-0.638349 1.172172,-0.720672 2.893142,-0.71099 l 1.94633,0.01095 1.26283,1.359273 c 1.08145,1.164057 1.31322,1.61281 1.61371,3.124615 0.23393,1.1769 0.4264,1.64619 0.5774,1.4079 0.17812,-0.28108 0.22738,-0.26315 0.23056,0.0839 0.006,0.68469 -0.29063,1.29104 -0.55284,1.12899 -0.13027,-0.0805 -0.23686,0.0723 -0.23686,0.33952 0,0.26725 -0.18424,0.74896 -0.40944,1.07047 -0.37645,0.53746 -0.37295,0.57055 0.0434,0.41078 0.307,-0.11781 0.39123,-0.0741 0.26153,0.13577 -0.10522,0.17026 -0.36288,0.30955 -0.57257,0.30955 -0.20969,0 -0.38126,0.0976 -0.38126,0.2169 0,0.1193 -0.59038,0.5211 -1.31196,0.89291 -0.72157,0.3718 -1.26727,0.72068 -1.21267,0.77528 0.0546,0.0546 -0.6647,0.0993 -1.59846,0.0993 -0.933757,0 -1.570327,-0.0425 -1.414598,-0.0944 z m 3.97671,-1.90888 c 1.05005,-0.74771 1.56098,-1.82803 1.56098,-3.30059 0,-4.272782 -5.897321,-5.454367 -7.574725,-1.51767 -0.889329,2.08716 0.11377,4.43661 2.283194,5.34766 0.930661,0.39084 2.813421,0.12365 3.730551,-0.5294 z M 95.458249,94.012794 c 0,-0.145521 -0.126089,-0.264583 -0.280198,-0.264583 -0.154109,0 -0.206613,0.119062 -0.116677,0.264583 0.08994,0.145521 0.216026,0.264583 0.280199,0.264583 0.06417,0 0.116676,-0.119062 0.116676,-0.264583 z"
         id="path36" /><path
         style="fill:#68548a"
         d="m 98.828936,114.98102 c -0.228522,-0.25466 -0.497555,-0.90526 -0.597851,-1.44578 -0.297944,-1.60568 -1.50432,-2.16946 -2.747715,-1.28408 -1.11884,0.79668 -2.210172,0.70315 -3.336722,-0.28597 -0.52182,-0.45817 -1.129017,-1.1816 -1.349327,-1.60763 -0.375416,-0.72598 -0.357664,-0.85665 0.282781,-2.08148 0.635598,-1.21556 0.65594,-1.35987 0.291126,-2.06534 -0.28741,-0.55579 -0.659847,-0.80814 -1.393745,-0.94434 -1.620836,-0.30082 -1.927567,-0.75083 -1.927567,-2.82795 0,-2.0932 0.413963,-2.724543 1.978956,-3.018138 0.664679,-0.124694 1.062115,-0.394787 1.322851,-0.898996 0.337474,-0.652602 0.31385,-0.837022 -0.249856,-1.950483 -0.342413,-0.676353 -0.563908,-1.454056 -0.492211,-1.728228 0.0717,-0.274173 0.651141,-1.009604 1.287652,-1.634292 1.337143,-1.312307 2.240595,-1.458605 3.494352,-0.565852 0.681264,0.485103 0.922607,0.527349 1.621267,0.283795 0.677835,-0.236295 0.890658,-0.52121 1.2215,-1.635276 0.220356,-0.74202 0.549065,-1.443373 0.730464,-1.558563 0.181399,-0.11519 1.190279,-0.21126 2.241949,-0.213488 2.14108,-0.0045 2.51213,0.272471 2.85077,2.128295 0.13407,0.734706 0.35021,1.009048 0.98325,1.247992 0.68451,0.258376 0.9193,0.23032 1.50137,-0.179405 1.5772,-1.110195 2.66366,-0.879706 4.22258,0.895799 0.97564,1.111192 1.0351,1.731542 0.28269,2.948977 -0.57837,0.935824 -0.51398,2.426808 0.11226,2.599243 0.16818,0.04631 0.79219,0.215761 1.38668,0.376561 1.29149,0.349324 1.69723,1.060029 1.69723,2.972909 0,1.8404 -0.30943,2.27275 -1.97267,2.75626 -1.23234,0.35826 -1.4546,0.52427 -1.60233,1.19684 -0.12219,0.55637 -0.0133,1.03691 0.37883,1.67135 0.84653,1.36972 0.71219,2.01139 -0.71553,3.41764 -1.44382,1.42211 -2.28013,1.58388 -3.54222,0.6852 -0.63619,-0.45301 -0.94803,-0.51594 -1.61242,-0.3254 -0.6993,0.20056 -0.87222,0.42651 -1.14514,1.49634 -0.48301,1.8934 -0.68517,2.03651 -2.87679,2.03651 -1.485298,0 -2.003522,-0.10313 -2.326464,-0.46302 z m 3.933334,-1.85613 c 0.24944,-0.16573 0.60062,-1.42171 0.6462,-2.31105 0.0191,-0.37286 1.5848,-1.16626 2.32769,-1.17954 0.34133,-0.006 0.9714,0.23869 1.40013,0.54398 0.97842,0.6967 1.76933,0.52468 2.57059,-0.55908 0.60045,-0.81215 0.60092,-0.81988 0.0985,-1.6134 -0.4804,-0.75874 -0.48427,-0.87249 -0.0798,-2.35002 0.23376,-0.85398 0.51373,-1.6414 0.62215,-1.74982 0.10842,-0.10842 0.76147,-0.38444 1.45123,-0.61338 1.20431,-0.39972 1.25728,-0.46001 1.33437,-1.51859 l 0.0803,-1.10234 -1.44762,-0.32396 c -1.37921,-0.30865 -1.4693,-0.380731 -1.90644,-1.52536 -0.44773,-1.172379 -0.44504,-1.227399 0.11131,-2.277863 0.31357,-0.592056 0.56979,-1.236992 0.56939,-1.433191 -8.2e-4,-0.395958 -1.83004,-2.141003 -2.25443,-2.150676 -0.14812,-0.0034 -0.72345,0.302459 -1.27851,0.679636 l -1.00921,0.685775 -1.23503,-0.531784 c -1.12991,-0.486525 -1.26654,-0.646638 -1.60533,-1.881295 -0.40771,-1.485775 -0.76605,-1.705506 -2.53853,-1.556571 -1.094164,0.09194 -1.30927,0.335554 -1.710005,1.936641 -0.226457,0.904783 -0.429243,1.125512 -1.397677,1.521354 -1.43334,0.585871 -1.394142,0.589076 -2.426626,-0.198437 -0.476969,-0.363802 -1.040174,-0.661458 -1.251566,-0.661458 -0.211393,0 -0.854295,0.481266 -1.428671,1.069481 -1.142162,1.16968 -1.148383,1.004592 0.114253,3.03156 0.274244,0.440257 0.23711,0.736923 -0.221012,1.765665 -0.450515,1.011661 -0.706377,1.267833 -1.407123,1.408813 -1.777581,0.35764 -1.782524,0.36206 -1.782524,1.59523 0,1.26118 -0.192572,1.12063 2.533358,1.84901 0.15642,0.0418 0.495994,0.85769 0.754609,1.81309 0.463481,1.71224 0.462345,1.74982 -0.0794,2.62637 l -0.549607,0.88929 0.865927,0.83929 c 1.029435,0.99776 1.315521,1.01879 2.655677,0.19519 0.963606,-0.59219 1.075509,-0.60548 1.984375,-0.23561 1.074582,0.43732 1.624641,1.01519 1.624641,1.7068 0,0.25376 0.116116,0.76678 0.258035,1.14006 0.236155,0.62113 0.387588,0.67833 1.785946,0.67463 0.84034,-0.002 1.65955,-0.0915 1.82046,-0.19844 z m -2.868534,-5.88179 c -1.215904,-0.36612 -2.52972,-1.30624 -3.070692,-2.19729 -0.773666,-1.27432 -0.92153,-2.42413 -0.562514,-4.37417 0.288808,-1.568699 0.463577,-1.899572 1.578161,-2.987772 0.930754,-0.908723 1.517837,-1.258682 2.280739,-1.359546 3.41706,-0.451774 5.89907,2.105925 5.91705,6.097488 0.007,1.52144 -0.51392,2.67204 -1.66805,3.68537 -1.37081,1.2036 -2.93294,1.60014 -4.474694,1.13592 z m 3.472204,-1.56741 c 2.36051,-1.68084 2.21354,-5.2863 -0.27522,-6.751603 -1.15485,-0.679938 -3.207473,-0.658287 -4.155568,0.04383 -1.376586,1.019445 -1.947747,2.181253 -1.824887,3.712013 0.249042,3.10295 3.750375,4.77969 6.255675,2.99576 z"
         id="path35" /><path
         style="fill:#56516e"
         d="m 98.828936,114.98102 c -0.228522,-0.25466 -0.498898,-0.91241 -0.600834,-1.46168 -0.185615,-1.00014 -0.93951,-1.78471 -1.704245,-1.77358 -0.222282,0.003 -0.701805,0.23871 -1.065608,0.52328 -1.003231,0.78474 -2.196453,0.67526 -3.311601,-0.30385 -0.52182,-0.45817 -1.129017,-1.1816 -1.349327,-1.60763 -0.375416,-0.72598 -0.357664,-0.85665 0.282781,-2.08148 0.635598,-1.21556 0.65594,-1.35987 0.291126,-2.06534 -0.28741,-0.55579 -0.659847,-0.80814 -1.393745,-0.94434 -1.620836,-0.30082 -1.927567,-0.75083 -1.927567,-2.82795 0,-2.0932 0.413963,-2.724543 1.978956,-3.018138 0.664679,-0.124694 1.062115,-0.394787 1.322851,-0.898996 0.337474,-0.652602 0.31385,-0.837022 -0.249856,-1.950483 -0.342413,-0.676353 -0.563908,-1.454056 -0.492211,-1.728228 0.0717,-0.274173 0.651141,-1.009604 1.287652,-1.634292 1.337143,-1.312307 2.240595,-1.458605 3.494352,-0.565852 0.681264,0.485103 0.922607,0.527349 1.621267,0.283795 0.677835,-0.236295 0.890658,-0.52121 1.2215,-1.635276 0.220356,-0.74202 0.549065,-1.443373 0.730464,-1.558563 0.181399,-0.11519 1.190279,-0.21126 2.241949,-0.213488 2.14108,-0.0045 2.51213,0.272471 2.85077,2.128295 0.13563,0.743229 0.34867,1.008465 1.01075,1.258373 0.72027,0.27187 0.93332,0.24685 1.50649,-0.176918 1.52497,-1.127457 2.6291,-0.894789 4.18996,0.882931 0.97564,1.111192 1.0351,1.731542 0.28269,2.948977 -0.57837,0.935824 -0.51398,2.426808 0.11226,2.599243 0.16818,0.04631 0.79219,0.215761 1.38668,0.376561 1.3019,0.352141 1.69723,1.059589 1.69723,3.037239 0,1.76161 -0.37441,2.26241 -2.00004,2.67517 -1.11106,0.28211 -1.33849,0.45134 -1.53705,1.14368 -0.18464,0.64381 -0.11629,1.00149 0.3291,1.72216 0.85884,1.38962 0.72852,2.02605 -0.70371,3.43675 -1.44382,1.42211 -2.28013,1.58388 -3.54222,0.6852 -0.63619,-0.45301 -0.94803,-0.51594 -1.61242,-0.3254 -0.70569,0.20239 -0.87164,0.42424 -1.1585,1.5487 -0.18414,0.72186 -0.54149,1.4636 -0.7941,1.64832 -0.72678,0.53143 -3.886827,0.44 -4.395794,-0.12719 z m 3.781264,-0.73267 c 0.11862,-0.0733 0.29325,-0.51888 0.38807,-0.99015 0.32134,-1.59709 0.4163,-1.73298 1.51954,-2.17441 1.21571,-0.48643 2.58984,-0.36907 3.11708,0.26621 0.43536,0.52457 0.78705,0.49209 0.79199,-0.0731 0.003,-0.37591 0.0487,-0.39246 0.24143,-0.088 0.19241,0.30399 0.3921,0.22898 1.05428,-0.39601 0.96638,-0.91211 1.00777,-1.34506 0.25121,-2.62734 -0.51659,-0.87554 -0.53556,-1.05488 -0.21858,-2.06564 0.43702,-1.39349 0.52786,-1.49545 1.46865,-1.64846 1.94866,-0.31692 1.87325,-0.23568 1.93304,-2.08261 l 0.0553,-1.70911 -1.00564,-0.27926 c -0.5531,-0.15359 -1.15602,-0.27992 -1.33981,-0.28073 -0.18379,-8.2e-4 -0.59743,-0.54336 -0.9192,-1.205658 l -0.58504,-1.20418 0.72692,-1.293151 0.72691,-1.293152 -0.82938,-0.94461 c -1.1211,-1.276872 -1.8174,-1.41106 -3.0336,-0.584628 l -0.98141,0.666888 -1.22198,-0.477455 c -1.10917,-0.43338 -1.25031,-0.589252 -1.52894,-1.688521 -0.43538,-1.717705 -0.49279,-1.766596 -2.07428,-1.766596 -1.565881,0 -1.714138,0.120094 -2.122429,1.719253 -0.230145,0.901413 -0.456954,1.148425 -1.525225,1.661093 l -1.254878,0.602221 -0.98359,-0.668367 c -0.540974,-0.367602 -1.169913,-0.668366 -1.397641,-0.668366 -0.227728,0 -0.884699,0.483033 -1.459935,1.073408 l -1.045884,1.073409 0.719269,1.293051 0.719269,1.29305 -0.523095,1.182542 c -0.459468,1.038704 -0.64858,1.203739 -1.554761,1.356839 -1.731399,0.29252 -1.974609,0.61434 -1.760341,2.32928 0.1452,1.16215 0.30167,1.52318 0.717311,1.6551 0.29238,0.0928 0.60097,0.0994 0.685755,0.0146 0.08479,-0.0848 0.312421,-0.0228 0.505858,0.13773 0.193437,0.16054 0.530386,0.22332 0.748774,0.13952 0.218389,-0.0838 0.369828,-0.0674 0.336531,0.0365 -0.0333,0.10391 0.155964,0.75288 0.420582,1.44216 0.468631,1.22069 0.467968,1.27222 -0.02552,1.98437 -0.96867,1.39789 -0.942779,1.62358 0.334931,2.9196 l 1.194973,1.21209 0.831675,-0.77423 c 0.457421,-0.42583 0.74981,-0.63044 0.649752,-0.45468 -0.124803,0.21922 0.04546,0.20159 0.542279,-0.0562 0.656161,-0.34042 0.821497,-0.32073 1.759762,0.20961 0.736774,0.41644 1.133003,0.87436 1.373292,1.5871 0.391449,1.1611 0.393499,1.16888 0.393499,1.49337 0,0.441 2.518827,0.55623 3.183197,0.14562 z m -3.580075,-7.3804 c -1.880558,-0.83703 -2.889878,-2.47154 -2.873313,-4.65307 0.0068,-0.89363 0.201436,-1.81258 0.504393,-2.381253 0.271339,-0.509322 0.468863,-1.015338 0.438944,-1.124479 -0.02992,-0.10914 0.0349,-0.174369 0.144038,-0.144953 0.109141,0.02942 0.69971,-0.208709 1.312376,-0.529167 1.289879,-0.674677 3.340137,-0.773893 4.653377,-0.225187 1.313,0.548607 2.50161,2.068127 2.71124,3.466069 0.35892,2.3934 -0.38178,4.11839 -2.28402,5.31922 -1.175,0.74174 -3.27422,0.86606 -4.607035,0.27282 z m 3.832075,-0.9096 c 2.45408,-1.31614 2.96473,-4.44659 1.0394,-6.371914 -1.66404,-1.664041 -4.124422,-1.611296 -5.806806,0.124483 -0.850826,0.877831 -0.916753,1.066931 -0.916753,2.629631 0,1.42818 0.100409,1.79277 0.661459,2.40175 1.582967,1.71822 3.30772,2.1358 5.0227,1.21605 z"
         id="path34" /><path
         style="fill:#2f2d47"
         d="m 98.904792,115.05555 c -0.17733,-0.21366 -0.471907,-0.89827 -0.654614,-1.52135 -0.21728,-0.74098 -0.575974,-1.27015 -1.036906,-1.52974 -0.649391,-0.36572 -0.786397,-0.35014 -1.745306,0.19844 -1.548337,0.88578 -2.195628,0.77673 -3.574629,-0.60228 -1.37375,-1.37375 -1.547175,-2.33081 -0.650534,-3.59003 0.87253,-1.22535 0.32233,-2.44836 -1.232697,-2.74008 -1.525059,-0.28611 -1.96019,-0.93504 -1.96019,-2.92334 0,-2.03311 0.459106,-2.676052 2.098018,-2.938125 0.860248,-0.137559 1.096831,-0.310018 1.325621,-0.966326 0.22966,-0.658803 0.185884,-0.948727 -0.249657,-1.653447 -0.831772,-1.345835 -0.689505,-2.195163 0.585273,-3.494067 1.289688,-1.314097 2.436471,-1.502375 3.595894,-0.590372 0.482079,0.379203 0.895245,0.493045 1.363169,0.375604 0.989377,-0.248318 1.302227,-0.598691 1.494652,-1.673917 0.280588,-1.567868 0.738909,-1.891643 2.677724,-1.891643 0.9329,0 1.91497,0.117093 2.18238,0.260206 0.27567,0.147537 0.63247,0.830913 0.824,1.578226 0.27842,1.086362 0.47536,1.365974 1.12046,1.590859 0.63945,0.22291 0.93906,0.176189 1.63724,-0.255309 1.33108,-0.82265 2.25737,-0.688341 3.51705,0.509964 1.4196,1.350437 1.5882,2.060389 0.81027,3.412057 -0.87121,1.513768 -0.52954,2.381737 1.12716,2.863421 0.67254,0.19554 1.34996,0.508749 1.50538,0.696019 0.33303,0.40127 0.4769,3.24173 0.20701,4.08684 -0.17071,0.53454 -1.45978,1.12664 -2.46285,1.13124 -0.40009,0.002 -0.86921,0.84659 -0.86921,1.56519 0,0.29709 0.23768,0.93 0.52818,1.40646 0.76364,1.25248 0.67211,1.66323 -0.69668,3.12658 -1.39373,1.49001 -1.99359,1.61732 -3.536,0.75044 -1.52401,-0.85654 -2.38189,-0.46664 -2.90376,1.31975 -0.22176,0.75911 -0.58179,1.49245 -0.80007,1.62966 -0.65989,0.41478 -3.85564,0.31579 -4.226378,-0.13093 z m 3.928998,-0.87315 c 0.13772,-0.25734 0.33382,-0.9125 0.43576,-1.45591 0.15981,-0.85183 0.35075,-1.06118 1.38532,-1.51882 l 1.19996,-0.5308 1.18164,0.69249 c 1.37596,0.80637 1.85983,0.67307 3.07221,-0.84635 l 0.73395,-0.91983 -0.7069,-1.20622 c -0.69926,-1.1932 -0.70214,-1.21867 -0.2667,-2.35885 0.45038,-1.17929 0.60478,-1.2849 2.32412,-1.58961 0.5457,-0.0967 1.00736,-0.31142 1.02592,-0.47713 0.26478,-2.3648 0.0451,-3.60691 -0.63836,-3.61005 -0.17678,-8.1e-4 -0.75011,-0.12056 -1.27407,-0.2661 -0.77435,-0.215103 -1.03316,-0.469593 -1.38281,-1.359717 -0.4224,-1.07532 -0.41721,-1.118118 0.28714,-2.371132 l 0.7173,-1.276046 -1.04183,-1.066932 c -1.1916,-1.220313 -1.62871,-1.292264 -3.01245,-0.495879 -0.97242,0.559652 -1.01653,0.561775 -2.20909,0.106332 -1.13205,-0.432334 -1.2288,-0.54438 -1.38826,-1.607752 -0.22686,-1.512803 -0.58778,-1.759122 -2.43699,-1.663191 l -1.542415,0.08002 -0.360847,1.353818 c -0.299668,1.124287 -0.51448,1.427081 -1.267011,1.785937 -1.159362,0.552862 -1.571323,0.543726 -2.434867,-0.05399 -1.255979,-0.869351 -1.572111,-0.870011 -2.556918,-0.0053 -1.22026,1.071403 -1.364162,1.750288 -0.633501,2.988667 0.533037,0.903431 0.556837,1.091481 0.248437,1.962946 -0.46049,1.30123 -0.756439,1.625259 -1.484435,1.625259 -0.339136,0 -0.91987,0.13817 -1.290519,0.30705 -0.618339,0.28174 -0.673908,0.44449 -0.673908,1.97376 v 1.6667 l 1.124479,0.29977 c 1.688281,0.45007 1.884936,0.60258 2.303424,1.78639 0.361006,1.02121 0.348545,1.15485 -0.198437,2.12807 -0.320998,0.57114 -0.583633,1.1958 -0.583633,1.38813 0,0.49442 1.87551,2.35638 2.373528,2.35638 0.227728,0 0.870607,-0.31024 1.42862,-0.68942 l 1.014569,-0.68941 1.097371,0.48367 c 1.31738,0.58065 1.391236,0.67392 1.608224,2.03089 0.09347,0.58452 0.232149,1.16341 0.30818,1.28643 0.07603,0.12302 0.841399,0.22367 1.700819,0.22367 1.22357,0 1.6169,-0.1015 1.81298,-0.46789 z m -3.83438,-7.4318 c -2.213679,-1.03539 -3.307473,-3.75681 -2.496977,-6.21264 0.555235,-1.682379 2.729359,-3.084955 4.776647,-3.081522 0.36381,6.1e-4 1.29172,0.294523 2.06203,0.653141 1.23143,0.573293 1.48284,0.83174 2.08186,2.140171 0.7592,1.65832 0.74564,2.77968 -0.054,4.46479 -1.01018,2.12878 -4.07603,3.10879 -6.36957,2.03606 z m 4.34289,-1.08784 c 1.25745,-0.91089 1.52254,-1.33697 1.73362,-2.78642 0.21139,-1.45168 -0.30017,-2.70769 -1.49462,-3.66961 -0.83298,-0.670823 -1.2407,-0.809218 -2.38125,-0.808278 -2.525691,0.0021 -4.154301,1.564192 -4.154301,3.984678 0,3.32988 3.622501,5.2167 6.296551,3.27963 z"
         id="path33" /><path
         style="fill:#171828"
         d="m 98.797612,114.84873 c -0.207351,-0.32742 -0.446998,-1.01203 -0.532549,-1.52135 -0.124941,-0.74383 -0.06067,-0.66573 0.326632,0.39687 l 0.48218,1.32292 1.787875,0.0788 c 1.00026,0.0441 1.9377,-0.0456 2.12796,-0.20347 0.18705,-0.15523 0.49042,-0.81917 0.67416,-1.47543 0.18373,-0.65625 0.38499,-1.14225 0.44724,-1.08001 0.20924,0.20924 -0.46061,2.25529 -0.87354,2.66822 -0.28973,0.28973 -0.94092,0.40878 -2.23587,0.40878 -1.606661,0 -1.872567,-0.0718 -2.204088,-0.59531 z m -6.855038,-3.31638 c -0.685754,-0.69622 -1.246825,-1.34596 -1.246825,-1.44387 0,-0.0979 0.552074,0.4122 1.226831,1.13357 1.387162,1.48298 2.037116,1.62681 3.438294,0.76083 0.490119,-0.30291 0.891125,-0.49121 0.891125,-0.41845 0,0.30153 -1.830401,1.23378 -2.422426,1.23378 -0.414236,0 -1.080218,-0.44676 -1.886999,-1.26586 z m 15.274056,0.85439 c -0.49612,-0.39748 -0.49394,-0.40198 0.0643,-0.13229 0.78809,0.38071 1.68558,0.35188 1.60489,-0.0516 -0.0377,-0.18834 0.13968,-0.29577 0.41194,-0.24953 0.33416,0.0568 0.45363,-0.0608 0.39687,-0.3906 -0.0548,-0.31821 0.0875,-0.47384 0.43694,-0.47807 0.2884,-0.004 0.699,-0.33273 0.92604,-0.74254 0.384,-0.69312 0.36668,-0.81076 -0.29568,-2.00763 -0.473,-0.85472 -0.62607,-1.39381 -0.46707,-1.64499 0.18028,-0.28479 0.23747,-0.2336 0.24056,0.2153 0.002,0.3239 0.24173,0.97875 0.53223,1.45521 0.76364,1.25248 0.67211,1.66323 -0.69668,3.12658 -1.3229,1.41429 -2.20013,1.66461 -3.15437,0.90011 z m -10.435464,-0.64686 c -0.218281,-0.14107 -0.277812,-0.25648 -0.132292,-0.25648 0.145521,0 0.443178,0.11541 0.661459,0.25648 0.218281,0.14106 0.277812,0.25648 0.132292,0.25648 -0.145521,0 -0.443178,-0.11542 -0.661459,-0.25648 z m 7.672914,0.16315 c 0,-0.0558 0.23829,-0.16375 0.52953,-0.23991 0.29125,-0.0762 0.46281,-0.0305 0.38127,0.10143 -0.14242,0.23043 -0.9108,0.34725 -0.9108,0.13848 z m 1.55375,-0.36159 c -0.3291,-0.41964 -0.31974,-0.429 0.0999,-0.0999 0.25466,0.19971 0.46302,0.40807 0.46302,0.46302 0,0.21776 -0.21727,0.0776 -0.56292,-0.36313 z m -15.303666,-2.52425 c -0.0046,-0.11504 0.237078,-0.5412 0.537126,-0.94704 0.385841,-0.52188 0.494421,-0.94155 0.370915,-1.43364 -0.222834,-0.88784 -0.526209,-1.12593 -1.904144,-1.49433 -1.378588,-0.36858 -1.658145,-0.85918 -1.658145,-2.90991 0,-1.25211 0.116318,-1.72121 0.529166,-2.13406 0.291042,-0.291041 0.618464,-0.532006 0.727605,-0.535478 0.10914,-0.0035 0.644082,-0.109806 1.188759,-0.236299 0.544677,-0.126493 0.934269,-0.139291 0.86576,-0.02844 -0.06851,0.11085 -0.595003,0.276772 -1.169985,0.368716 -1.480625,0.236761 -1.877407,0.738511 -1.873109,2.368631 0.0059,2.2473 0.148098,2.49043 1.724265,2.94863 1.227913,0.35696 1.445439,0.52515 1.70795,1.32057 0.209047,0.63342 0.217989,1.06629 0.02931,1.41884 -0.149335,0.27904 -0.216176,0.58252 -0.148535,0.67442 0.06764,0.0919 0.04546,0.1094 -0.04929,0.0389 -0.09475,-0.0705 -0.32909,0.0783 -0.520752,0.33073 -0.191661,0.2524 -0.352262,0.36479 -0.35689,0.24976 z m 10.497826,-2.5464 c 2.42982,-0.29532 3.89465,-1.84627 3.89465,-4.12362 0,-2.464105 -1.54563,-3.959931 -4.09177,-3.959931 -1.146724,0 -1.410645,-0.06043 -0.97869,-0.224078 0.82163,-0.311288 2.45666,-0.05764 3.3135,0.514043 0.39464,0.263299 0.85738,0.449456 1.02831,0.413683 0.17092,-0.03577 0.38547,0.05581 0.47676,0.203526 0.10209,0.165191 -0.0175,0.199745 -0.31078,0.08977 -0.41779,-0.156682 -0.43214,-0.123939 -0.11605,0.2647 0.19839,0.243925 0.46491,0.379097 0.59228,0.30038 0.12736,-0.07872 0.15317,0.06119 0.0573,0.310897 -0.0963,0.25094 -0.0653,0.38736 0.0692,0.30499 0.3435,-0.21032 0.44197,2.23471 0.12372,3.07177 -0.17955,0.47227 -0.17649,0.69462 0.01,0.69462 0.1505,0 0.19886,0.12101 0.10746,0.2689 -0.0914,0.1479 -0.29726,0.1879 -0.45746,0.0889 -0.18919,-0.11693 -0.23021,-0.0209 -0.11704,0.27401 0.1101,0.28692 0.0708,0.39007 -0.10691,0.28027 -0.15463,-0.0956 -0.54022,0.062 -0.85687,0.35007 -0.93117,0.84722 -1.65955,1.12146 -2.87343,1.08186 l -1.141875,-0.0373 z m -3.086766,-1.03995 c -0.588211,-0.55955 -1.06869,-1.18462 -1.067731,-1.38906 9.59e-4,-0.20443 0.235464,-0.0145 0.521123,0.42206 0.285659,0.43656 0.906593,1.06164 1.379853,1.38906 0.47326,0.32742 0.720018,0.59531 0.548351,0.59531 -0.171667,0 -0.793386,-0.45781 -1.381596,-1.01737 z m 12.428326,0.58675 c -0.007,-0.48298 0.69798,-0.927 1.63574,-1.03088 0.86596,-0.0959 0.86476,-0.0939 -0.13409,0.22904 -0.55431,0.17921 -1.11803,0.50006 -1.25272,0.71301 -0.13468,0.21294 -0.2467,0.25291 -0.24893,0.0888 z m 2.84022,-1.42099 c 0.20095,-0.22536 0.33073,-1.13408 0.33073,-2.31585 v -1.94496 l -0.96624,-0.403718 c -0.53143,-0.222047 -1.18221,-0.347245 -1.44616,-0.278218 -0.26396,0.06903 -0.46322,0.04842 -0.4428,-0.0458 0.0204,-0.09422 -0.12565,-0.507116 -0.32459,-0.917556 -0.28556,-0.589126 -0.29704,-0.917619 -0.0545,-1.560126 0.16896,-0.44763 0.25666,-0.895644 0.19489,-0.995587 -0.0618,-0.09994 0.0644,-0.181713 0.28028,-0.181713 0.21593,0 0.3557,0.06945 0.3106,0.15434 -1.08679,2.045931 -0.89539,2.842249 0.80328,3.342029 1.77121,0.521124 1.90984,0.731469 1.90984,2.897729 0,1.51831 -0.0968,1.99282 -0.46302,2.26995 -0.3939,0.29806 -0.41365,0.295 -0.13229,-0.0205 z m -16.563704,-1.40515 c -0.02139,-0.26325 -0.157962,-0.40505 -0.303483,-0.31511 -0.145521,0.0899 -0.264584,-0.0221 -0.264584,-0.24897 0,-0.22687 0.119063,-0.41249 0.264584,-0.41249 0.145521,0 0.264583,-0.27117 0.264583,-0.60259 0,-0.33142 0.180771,-0.86067 0.401713,-1.17611 0.220942,-0.31544 0.36977,-0.723474 0.330729,-0.906742 -0.03904,-0.183269 0.04808,-0.342847 0.1936,-0.354618 0.145521,-0.01177 0.562239,-0.172305 0.926042,-0.356742 l 0.661458,-0.33534 -0.669964,0.609299 c -1.176998,1.070423 -1.443151,1.583643 -1.606241,3.097333 -0.08775,0.81439 -0.177043,1.26533 -0.198437,1.00208 z m -5.213229,-4.956051 c 0.07752,-0.402321 -0.07938,-1.015673 -0.390789,-1.527749 -0.286164,-0.470559 -0.514755,-1.001513 -0.507979,-1.179897 0.0068,-0.178384 0.303172,0.234245 0.65866,0.916953 0.512133,0.983543 0.590719,1.368114 0.37847,1.852083 -0.263673,0.601224 -0.265841,0.600262 -0.138362,-0.06139 z M 111.35414,95.18137 c 0.0127,-0.308224 0.0754,-0.370919 0.15985,-0.159852 0.0764,0.190996 0.067,0.419199 -0.0209,0.507118 -0.0879,0.08792 -0.15045,-0.06835 -0.13896,-0.347266 z M 90.71252,94.795486 c -0.02105,-0.51209 2.117394,-2.638467 2.639078,-2.624182 0.212773,0.0058 0.05944,0.188222 -0.340745,0.405325 -0.400182,0.217102 -0.727604,0.517018 -0.727604,0.66648 0,0.149461 0.137459,0.186794 0.305464,0.08296 0.190775,-0.117905 0.233581,-0.07248 0.114009,0.120993 -0.105299,0.170378 -0.307505,0.238056 -0.449345,0.150394 -0.326898,-0.202034 -1.021371,0.365729 -1.30587,1.067609 -0.147503,0.3639 -0.223651,0.406163 -0.234987,0.130421 z m 19.24707,-1.450283 c -0.68275,-0.651471 -1.15403,-1.184493 -1.04728,-1.184493 0.10675,0 0.71993,0.535782 1.36261,1.190626 1.50638,1.534895 1.29539,1.530791 -0.31533,-0.0061 z M 95.896749,93.28519 c -0.06704,-0.109141 0.233545,-0.21162 0.667975,-0.227731 0.524314,-0.01944 0.671239,0.04591 0.437011,0.194386 -0.440258,0.27908 -0.944684,0.294302 -1.104986,0.03334 z m 9.376671,-0.04473 c -0.274,-0.173475 -0.20468,-0.230043 0.26458,-0.215892 0.34973,0.01055 0.79959,-0.03068 0.99968,-0.09161 0.20009,-0.06093 0.41751,0.06781 0.48316,0.286089 0.0833,0.276943 0.0512,0.301152 -0.1062,0.08011 -0.14845,-0.208472 -0.35886,-0.23247 -0.61546,-0.0702 -0.48119,0.304306 -0.56184,0.30521 -1.02576,0.0115 z M 94.664499,92.557585 c -0.455138,-0.26018 -0.527139,-0.381048 -0.230834,-0.387499 0.236843,-0.0052 0.578844,0.169218 0.760001,0.387499 0.402834,0.485386 0.319926,0.485386 -0.529167,0 z m 3.237618,-0.195709 c 0.183842,-0.392169 0.377843,-0.58617 0.431114,-0.431114 0.05327,0.155056 -0.09714,0.475921 -0.334257,0.713034 -0.39843,0.398429 -0.405773,0.377056 -0.09686,-0.28192 z m 6.114103,0.184299 c -0.0862,-0.224558 -0.0824,-0.482527 0.008,-0.573264 0.0907,-0.09074 0.16498,0.02354 0.16498,0.253945 0,0.230408 0.14883,0.478977 0.33073,0.552376 0.25904,0.104526 0.25724,0.13798 -0.008,0.15434 -0.18647,0.01149 -0.40954,-0.16284 -0.49571,-0.387397 z m 3.27772,-0.153713 c 0.17948,-0.180821 0.39297,-0.262115 0.47444,-0.180653 0.0815,0.08146 -0.0654,0.229406 -0.32632,0.328766 -0.37709,0.143585 -0.40748,0.113194 -0.14812,-0.148113 z m -8.830377,-1.159836 c -0.08419,-0.219405 0.04135,-0.695655 0.278986,-1.058333 0.391471,-0.597459 0.603733,-0.659416 2.259151,-0.659416 1.27449,0 1.94759,0.120507 2.22553,0.398441 0.47014,0.47014 0.81216,1.42736 0.58955,1.64997 -0.086,0.08605 -0.15645,0.01052 -0.15645,-0.167845 0,-0.178363 -0.10796,-0.257573 -0.23991,-0.176024 -0.13195,0.08155 -0.17272,-0.108636 -0.0906,-0.422634 0.10389,-0.39728 0.0542,-0.512108 -0.16352,-0.377573 -0.18774,0.116029 -0.28375,0.05323 -0.24012,-0.157064 0.0552,-0.266122 -0.40456,-0.350396 -1.91167,-0.350396 -1.958131,0 -1.98349,0.0087 -1.917429,0.661458 0.0543,0.536533 0.01249,0.586503 -0.221389,0.264584 -0.233272,-0.321084 -0.263419,-0.283188 -0.157863,0.198437 0.147398,0.672533 -0.02149,0.802984 -0.254256,0.196395 z"
         id="path32" /></g></g></svg>
