<?xml version="1.0" encoding="UTF-8" standalone="no"?>
<!-- Created with Inkscape (http://www.inkscape.org/) -->

<svg
   width="24.209383mm"
   height="26.918215mm"
   viewBox="0 0 24.209383 26.918215"
   version="1.1"
   id="svg1"
   xml:space="preserve"
   xmlns="http://www.w3.org/2000/svg"
   xmlns:svg="http://www.w3.org/2000/svg"><defs
     id="defs1" /><g
     id="layer1"
     transform="translate(-129.11884,-91.023148)"><g
       id="g135"
       transform="translate(28.905199,-0.09354433)"><path
         style="fill:#cdd2d6"
         d="m 105.54302,117.84611 c -0.94005,-0.29215 -1.74531,-1.00084 -2.05372,-1.80743 -0.12952,-0.33873 -0.41232,-3.07716 -0.62845,-6.08542 -0.21614,-3.00825 -0.50975,-7.01736 -0.65248,-8.90913 -0.14273,-1.891771 -0.26298,-3.682853 -0.26722,-3.980182 -0.005,-0.378565 -0.26545,-0.616474 -0.86761,-0.79375 -0.47545,-0.139972 -0.8599,-0.430588 -0.8599,-0.650027 0,-0.329095 0.59873,-0.409483 3.50573,-0.4707 l 3.50573,-0.07383 v -0.991782 c 0,-1.16501 0.52788,-2.016786 1.59042,-2.566245 0.91565,-0.4735 5.56245,-0.549126 6.81931,-0.110984 1.06561,0.371474 1.64444,1.292542 1.64444,2.616728 V 95.091 h 3.57187 c 3.3282,0 3.57188,0.03417 3.57188,0.50086 0,0.553963 -0.58676,0.884881 -1.17129,0.660577 -0.46962,-0.180213 -0.52611,0.249571 -1.08188,8.231273 -0.83805,12.03564 -0.75472,11.46567 -1.83424,12.54573 l -0.94754,0.94802 -6.54451,0.0518 c -3.59947,0.0285 -6.88472,-0.0539 -7.30054,-0.18316 z"
         id="path150" /><path
         style="fill:#a4adb5"
         d="m 104.7792,117.3877 c -1.28685,-0.80997 -1.43514,-1.5563 -2.03817,-10.25815 -0.78674,-11.352636 -0.72722,-10.934385 -1.56996,-11.032138 -0.40376,-0.04683 -0.69285,-0.245962 -0.69285,-0.477241 0,-0.329095 0.59873,-0.409483 3.50573,-0.4707 l 3.50573,-0.07383 v -1.194972 c 0,-0.915958 0.15164,-1.346608 0.64943,-1.844404 0.62286,-0.622859 0.79006,-0.649432 4.08629,-0.649432 3.19741,0 3.48578,0.04208 4.1391,0.604043 0.51331,0.441532 0.73986,0.937812 0.84207,1.844638 l 0.13984,1.240595 3.47216,0.07359 c 2.86688,0.06076 3.47215,0.142323 3.47215,0.467869 0,0.231195 -0.32831,0.451048 -0.79375,0.531531 l -0.79375,0.137254 -0.59247,8.199717 c -0.86573,11.98149 -0.79025,11.41747 -1.65782,12.38894 l -0.74824,0.83786 -7.09969,0.0659 c -6.34103,0.0589 -7.17728,0.0171 -7.8258,-0.3911 z"
         id="path149" /><path
         style="fill:#98a2a8"
         d="m 104.7792,117.38088 c -0.39936,-0.24761 -0.88794,-0.80999 -1.08574,-1.24973 -0.22892,-0.50892 -0.56963,-3.87688 -0.93741,-9.26619 -0.74937,-10.981186 -0.70311,-10.665561 -1.57803,-10.766877 -0.40964,-0.04744 -0.6998,-0.245596 -0.6998,-0.477912 0,-0.329095 0.59873,-0.409483 3.50573,-0.4707 l 3.50573,-0.07383 v -1.195579 c 0,-0.953018 0.14204,-1.327214 0.7001,-1.844404 0.66731,-0.618445 0.85864,-0.648825 4.08628,-0.648825 3.14466,0 3.43629,0.04309 4.08844,0.604043 0.51331,0.441532 0.73986,0.937812 0.84207,1.844638 l 0.13984,1.240595 3.47216,0.07359 c 2.87726,0.06098 3.47215,0.141589 3.47215,0.470467 0,0.249082 -0.30154,0.426357 -0.80976,0.476045 l -0.80976,0.07917 -0.32837,4.551029 c -0.92225,12.78182 -1.15277,15.10915 -1.55777,15.72726 -0.855,1.30489 -1.3953,1.39201 -8.58588,1.38445 -5.83367,-0.006 -6.78718,-0.0649 -7.41998,-0.45725 z m 6.59539,-3.0249 c -0.0845,-0.21107 -0.14716,-0.14837 -0.15985,0.15985 -0.0115,0.27892 0.051,0.43519 0.13896,0.34727 0.0879,-0.0879 0.0973,-0.31612 0.0209,-0.50712 z m 9.00649,-3.98529 c -0.0587,-0.47294 -0.10671,-0.086 -0.10671,0.8599 0,0.94588 0.048,1.33284 0.10671,0.85989 0.0587,-0.47294 0.0587,-1.24684 0,-1.71979 z m -15.88566,1.33946 c -0.0845,-0.21107 -0.14715,-0.14838 -0.15985,0.15985 -0.0115,0.27891 0.051,0.43518 0.13896,0.34726 0.0879,-0.0879 0.0973,-0.31612 0.0209,-0.50711 z m -0.26197,-2.26046 c -0.0671,-0.25743 -0.12638,-0.11087 -0.13177,0.32569 -0.005,0.43656 0.0495,0.64719 0.12197,0.46806 0.0725,-0.17914 0.0769,-0.53632 0.01,-0.79375 z m 16.41032,-2.65087 c -0.0606,-0.40019 -0.11022,-0.0728 -0.11022,0.7276 0,0.80037 0.0496,1.12779 0.11022,0.72761 0.0606,-0.40019 0.0606,-1.05503 0,-1.45521 z m 0.14892,-4.33147 c -0.13309,-0.1331 -0.17352,0.19105 -0.0948,0.75983 0.12643,0.91313 0.14488,0.93157 0.23211,0.23211 0.0521,-0.41791 -0.01,-0.86428 -0.13734,-0.99194 z m -17.08503,-0.56332 c -0.0631,-0.32743 -0.11467,-0.0595 -0.11467,0.59531 0,0.65484 0.0516,0.92273 0.11467,0.59531 0.0631,-0.32742 0.0631,-0.8632 0,-1.19062 z m 17.45913,-1.18559 c -0.0671,-0.25744 -0.12639,-0.11087 -0.13178,0.32569 -0.005,0.43656 0.0495,0.64719 0.12197,0.46806 0.0725,-0.17914 0.0769,-0.53632 0.01,-0.79375 z m 0.26197,-4.354128 c -0.0845,-0.211067 -0.14716,-0.148372 -0.15986,0.159852 -0.0115,0.278915 0.0511,0.435185 0.13897,0.347266 0.0879,-0.08792 0.0973,-0.316122 0.0209,-0.507118 z m -11.2271,0.122794 c -0.47294,-0.05869 -1.24685,-0.05869 -1.71979,0 -0.47294,0.05869 -0.086,0.106712 0.8599,0.106712 0.94588,0 1.33283,-0.04802 0.85989,-0.106712 z m 2.11667,0.01617 c -0.1819,-0.0734 -0.47956,-0.0734 -0.66146,0 -0.1819,0.0734 -0.0331,0.133452 0.33073,0.133452 0.3638,0 0.51263,-0.06005 0.33073,-0.133452 z m 2.11666,0 c -0.1819,-0.0734 -0.47955,-0.0734 -0.66145,0 -0.1819,0.0734 -0.0331,0.133452 0.33073,0.133452 0.3638,0 0.51263,-0.06005 0.33072,-0.133452 z m 1.78568,-1.610709 c -1.5e-4,-0.109141 -1.5182,-0.183934 -3.37344,-0.166207 -3.69849,0.03534 -3.95016,-0.0044 -4.12117,-0.650071 -0.0647,-0.244275 -0.13033,-0.116381 -0.14735,0.287111 l -0.0307,0.727604 h 3.83645 c 2.11006,0 3.83634,-0.0893 3.8362,-0.198437 z m -1.05839,-2.248959 c 1.8e-4,-0.10914 -1.30234,-0.198437 -2.89448,-0.198437 -1.59214,0 -2.95011,0.0893 -3.0177,0.198437 -0.0676,0.109141 1.23492,0.198438 2.89448,0.198438 1.65956,0 3.01753,-0.0893 3.0177,-0.198438 z"
         id="path148" /><path
         style="fill:#939da4"
         d="m 104.7792,117.38088 c -1.2723,-0.78886 -1.41481,-1.53904 -2.02278,-10.64821 -0.72428,-10.851766 -0.67681,-10.530497 -1.57122,-10.633894 -0.41571,-0.04806 -0.70698,-0.245237 -0.70698,-0.478605 0,-0.329095 0.59873,-0.409483 3.50573,-0.4707 l 3.50573,-0.07383 v -1.195579 c 0,-0.953018 0.14204,-1.327214 0.7001,-1.844404 0.66731,-0.618445 0.85864,-0.648825 4.08628,-0.648825 3.13148,0 3.43792,0.04478 4.07382,0.595313 0.52674,0.456027 0.70042,0.873883 0.74236,1.785938 l 0.0547,1.190625 3.57188,0.132291 c 2.93981,0.108882 3.57187,0.202521 3.57187,0.529167 0,0.248621 -0.30095,0.426335 -0.80566,0.475739 l -0.80566,0.07886 -0.31517,4.154464 c -1.12816,14.87092 -1.19357,15.53595 -1.58723,16.13675 -0.84603,1.29121 -1.39919,1.37969 -8.57782,1.37214 -5.83367,-0.006 -6.78718,-0.0649 -7.41998,-0.45725 z m 9.19277,-1.90678 c 0.87313,-0.10833 1.34938,-0.22284 1.05834,-0.25446 -0.44854,-0.0487 -0.46281,-0.0849 -0.0937,-0.23734 0.37089,-0.15316 0.38071,-0.23045 0.0661,-0.521 -0.21315,-0.19688 -0.36936,-0.22485 -0.36936,-0.0661 0,0.15126 -0.30184,0.27501 -0.67077,0.27501 -0.58117,0 -0.63418,-0.0683 -0.39687,-0.51177 0.15064,-0.28148 0.28341,-1.91859 0.29503,-3.63802 l 0.0211,-3.12625 0.50368,1.98437 c 0.27702,1.09141 0.50563,2.39118 0.50802,2.88837 0.002,0.4972 0.0601,0.84823 0.12827,0.78008 0.0682,-0.0682 0.18536,-1.56169 0.26045,-3.31897 0.0751,-1.75728 0.19047,-3.35847 0.2564,-3.5582 0.22107,-0.66975 0.30274,-4.15987 0.0943,-4.03106 -0.11325,0.07 -0.21961,0.80485 -0.23634,1.633 -0.0283,1.40004 -0.044,1.43589 -0.22341,0.51063 -0.30399,-1.56753 -0.46538,-1.43075 -0.76377,0.64731 -0.24343,1.69535 -0.2656,1.74712 -0.17879,0.41752 0.0545,-0.83478 -0.0112,-1.58595 -0.14601,-1.66926 -0.37693,-0.23295 -0.30964,-3.29525 0.0724,-3.29525 0.24695,0 0.24695,-0.0706 0,-0.3175 -0.17462,-0.174624 -0.3175,-0.498772 -0.3175,-0.720329 0,-0.261683 0.15687,-0.173612 0.44769,0.251355 0.24622,0.359801 0.52603,0.713714 0.62178,0.786474 0.0958,0.0728 0.24209,0.31089 0.32518,0.52917 0.0975,0.25612 0.16784,0.16229 0.19834,-0.26459 l 0.0473,-0.661454 0.23036,0.661454 c 0.19743,0.56691 0.22017,0.51964 0.15905,-0.33072 -0.0392,-0.545708 0.0238,-0.992192 0.14014,-0.992192 0.1163,0 0.21145,-0.174405 0.21145,-0.387566 0,-0.625818 0.91689,-0.97603 1.73801,-0.663843 l 0.71432,0.271584 -0.18532,3.009327 c -0.11535,1.87319 -0.0881,3.06938 0.0721,3.1684 0.14587,0.0901 0.20153,-0.0546 0.12846,-0.33397 -0.08,-0.30589 0.0419,-0.5586 0.32115,-0.66575 0.34737,-0.1333 0.42001,-0.0577 0.31833,0.3311 -0.15367,0.58764 0.20923,1.30308 0.50894,1.00336 0.11284,-0.11284 0.03,-0.31593 -0.18405,-0.45131 -0.32644,-0.20645 -0.31453,-0.2468 0.0738,-0.2502 0.36961,-0.003 0.46221,0.22282 0.45897,1.12043 -0.005,1.33611 -0.31408,1.92353 -0.89529,1.7005 -0.32174,-0.12346 -0.42904,0.0104 -0.44632,0.55676 l -0.0227,0.7193 -0.22494,-0.74999 c -0.12373,-0.41249 -0.16403,-0.94828 -0.0896,-1.19062 0.1243,-0.40458 0.11241,-0.40523 -0.14537,-0.008 -0.15442,0.238 -0.26462,0.89284 -0.2449,1.45521 0.0197,0.56237 -0.076,1.99139 -0.21263,3.1756 -0.19926,1.72657 -0.18091,2.12718 0.0926,2.02221 0.1981,-0.076 0.35399,0.0751 0.37181,0.36044 0.0293,0.46826 0.0367,0.46778 0.15909,-0.0101 0.0927,-0.36194 0.18534,-0.40929 0.33311,-0.17019 0.13254,0.21446 0.26387,0.23552 0.37251,0.0597 0.0923,-0.14932 -0.0289,-0.46819 -0.26931,-0.7086 -0.40543,-0.40543 -0.4056,-0.4686 -0.002,-0.87178 0.40317,-0.40317 0.43589,-0.37784 0.45144,0.34963 0.0164,0.76776 0.0221,0.77094 0.27027,0.15057 0.13942,-0.34854 0.32012,-0.5671 0.40154,-0.48568 0.0814,0.0814 0.0359,0.3666 -0.10117,0.63373 -0.13707,0.26712 -0.32131,0.95368 -0.40944,1.52569 -0.14282,0.92704 -0.11687,0.99666 0.23889,0.6409 0.2827,-0.2827 0.47375,-1.39633 0.65503,-3.81813 0.14076,-1.88047 0.37525,-4.84778 0.52109,-6.59403 0.14584,-1.74625 0.24813,-3.82984 0.2273,-4.630209 -0.0345,-1.326624 -0.0551,-1.373382 -0.23278,-0.529167 l -0.19492,0.926042 -0.0348,-0.992187 c -0.0253,-0.721036 0.0736,-0.992188 0.36204,-0.992188 0.27142,0 0.39681,-0.271834 0.39666,-0.859896 l -2.3e-4,-0.859896 -6.28363,0.05306 c -3.456,0.02918 -7.64293,0.05895 -9.30429,0.06614 -1.66136,0.0072 -2.93137,0.10238 -2.82224,0.211521 0.10913,0.10914 1.14059,0.202276 2.29214,0.206968 1.61817,0.0066 2.19694,0.111758 2.5482,0.463021 0.4296,0.429598 0.4288,0.45449 -0.0147,0.45449 -0.25805,0 -0.3956,-0.119063 -0.30567,-0.264584 0.0899,-0.14552 -0.0887,-0.264583 -0.39687,-0.264583 -0.30822,0 -0.48681,0.119063 -0.39688,0.264583 0.0908,0.146884 -0.10824,0.266386 -0.4474,0.268635 -0.4915,0.0033 -0.53335,0.05419 -0.21405,0.260532 0.30116,0.194627 0.1895,0.257457 -0.46303,0.260532 -0.47645,0.0022 -0.85989,0.141697 -0.85989,0.312732 0,0.169774 -0.0891,0.219571 -0.19802,0.110659 -0.10891,-0.108912 0.0329,-0.366881 0.31515,-0.573264 0.50616,-0.370116 0.50598,-0.375242 -0.0137,-0.375242 -0.28975,0 -0.66969,-0.142875 -0.84431,-0.3175 -0.22062,-0.220618 -0.3175,-0.227346 -0.3175,-0.02205 0,0.162498 0.12544,0.337268 0.27877,0.388377 0.19001,0.06334 0.19535,0.302032 0.0168,0.749653 -0.22574,0.565831 -0.26544,0.583487 -0.28682,0.12756 -0.0222,-0.473263 -0.0522,-0.482221 -0.28407,-0.08479 -0.1693,0.290208 -0.16901,1.483501 8.6e-4,3.439581 0.21207,2.44221 0.77439,9.80271 0.88931,11.64089 0.0329,0.52666 0.44351,0.35417 0.44351,-0.18632 0,-0.22282 0.15977,-0.31165 0.39687,-0.22067 0.2621,0.10058 0.39688,-0.009 0.39688,-0.32345 0,-0.44077 0.0286,-0.43799 0.38846,0.0378 0.21365,0.28247 0.40061,0.39452 0.41547,0.249 0.0149,-0.14552 0.12934,-0.0265 0.2544,0.26459 0.19355,0.45041 0.22693,0.41103 0.22425,-0.26459 -0.005,-1.36935 -0.68209,-7.70667 -0.74866,-7.01146 -0.0348,0.36381 -0.0516,0.95912 -0.0372,1.32292 l 0.0262,0.66146 -0.30188,-0.59531 c -0.39345,-0.7759 -0.70024,-0.75411 -0.90565,0.0643 -0.27536,1.09713 -0.57054,0.50217 -0.43755,-0.88191 0.0767,-0.79765 0.0111,-1.36659 -0.17037,-1.47874 -0.16222,-0.10026 -0.28113,-0.50268 -0.26425,-0.89428 0.0205,-0.47437 0.072,-0.55258 0.15451,-0.23432 0.16492,0.63619 0.6774,0.43411 0.9256,-0.36499 0.11747,-0.37817 0.14098,-0.12555 0.0572,0.61493 -0.0904,0.79911 -0.0399,1.25677 0.13866,1.25677 0.15444,0 0.29489,-0.56555 0.3121,-1.25677 0.0288,-1.15639 0.0492,-1.19337 0.25564,-0.46302 0.14111,0.4993 0.17848,-0.27806 0.10075,-2.09557 -0.10414,-2.434641 -0.0546,-2.965506 0.31454,-3.37344 0.54357,-0.60064 1.09537,-0.615436 1.72433,-0.04624 0.2895,0.26199 0.48386,0.31513 0.48386,0.132292 0,-0.168075 -0.12757,-0.305591 -0.28349,-0.305591 -0.15591,0 -0.10489,-0.178593 0.1134,-0.396875 0.21828,-0.218281 0.50459,-0.396875 0.63626,-0.396875 0.13166,0 0.23938,0.178594 0.23938,0.396875 0,0.218282 -0.10624,0.396875 -0.2361,0.396875 -0.12986,0 -0.16573,0.113863 -0.0797,0.253028 0.086,0.139166 0.31912,0.19058 0.51802,0.114254 0.1989,-0.07632 0.44076,-0.01075 0.53746,0.145716 0.0967,0.15647 -0.01,0.355751 -0.23685,0.442847 -0.32938,0.126397 -0.38159,0.433073 -0.25869,1.519484 0.0847,0.74863 0.0323,1.65879 -0.11649,2.02259 -0.23324,0.5704 -0.27946,0.44292 -0.33571,-0.92604 -0.0359,-0.87313 -0.0508,-1.855394 -0.0331,-2.182816 0.0177,-0.327422 -0.0881,-0.595313 -0.23515,-0.595313 -0.16585,0 -0.20815,0.527205 -0.11146,1.389069 0.17486,1.55872 0.65479,8.49265 0.70046,10.12031 0.029,1.03403 0.0342,1.03958 0.22498,0.24149 0.45615,-1.90806 1.09607,-1.67515 1.02557,0.37327 -0.0334,0.97009 -0.11315,1.12463 -0.5249,1.01696 -0.37825,-0.0989 -0.48553,0.0237 -0.48553,0.55503 0,0.78311 -0.67857,1.64782 -1.29778,1.65376 -0.35904,0.003 -0.36467,0.0403 -0.0378,0.24713 0.21133,0.13369 0.50899,0.17231 0.66146,0.0858 0.15247,-0.0865 0.18157,-0.0525 0.0647,0.0756 -0.11689,0.1281 -0.41455,0.24589 -0.66145,0.26175 -1.55959,0.10018 -1.53141,0.23501 0.0802,0.38393 2.5616,0.2367 3.71357,0.23881 5.55625,0.0102 z m -0.44648,-0.4555 c 0.191,-0.0764 0.4192,-0.067 0.50712,0.0209 0.0879,0.0879 -0.0684,0.15045 -0.34727,0.13896 -0.30822,-0.0127 -0.37092,-0.0754 -0.15985,-0.15985 z m -1.93477,-0.34843 c -0.0899,-0.14552 -0.0374,-0.26458 0.11668,-0.26458 0.15411,0 0.2802,0.11906 0.2802,0.26458 0,0.14552 -0.0525,0.26459 -0.11668,0.26459 -0.0642,0 -0.19026,-0.11907 -0.2802,-0.26459 z m -0.62807,-7.6022 c -0.0378,-5.13684 0.039,-7.913752 0.22875,-8.26823 0.33728,-0.630214 1.62907,-0.727333 2.10157,-0.158001 0.33159,0.399538 0.42902,14.279451 0.10614,15.120861 -0.12124,0.31593 -0.42692,0.40172 -1.17666,0.33022 -0.74521,-0.0711 -1.03798,0.01 -1.10789,0.30653 -0.0523,0.22171 -0.12063,-3.07741 -0.15191,-7.33138 z m -1.09172,5.88241 c 0,-0.21828 0.0468,-0.39687 0.10399,-0.39687 0.0572,0 0.17251,0.17859 0.25628,0.39687 0.0838,0.21828 0.037,0.39688 -0.10399,0.39688 -0.14095,0 -0.25628,-0.1786 -0.25628,-0.39688 z m -5.15937,-0.66146 c 0.0899,-0.14552 0.21602,-0.26458 0.2802,-0.26458 0.0642,0 0.11667,0.11906 0.11667,0.26458 0,0.14552 -0.12609,0.26459 -0.2802,0.26459 -0.15411,0 -0.20661,-0.11907 -0.11667,-0.26459 z m 1.47609,-0.68351 c 0.0127,-0.30822 0.0754,-0.37091 0.15986,-0.15985 0.0764,0.191 0.067,0.4192 -0.0209,0.50712 -0.0879,0.0879 -0.15046,-0.0683 -0.13897,-0.34727 z m 12.07883,-0.9252 c 0.0936,-0.35777 0.2135,-0.4777 0.27955,-0.27954 0.0636,0.19088 -0.0101,0.47285 -0.16386,0.6266 -0.19634,0.19634 -0.23077,0.093 -0.11569,-0.34706 z m 1.67951,-0.39771 c 0.0127,-0.30823 0.0754,-0.37092 0.15985,-0.15985 0.0764,0.19099 0.067,0.41919 -0.0209,0.50711 -0.0879,0.0879 -0.15045,-0.0684 -0.13896,-0.34726 z m -1.32292,-1.05834 c 0.0127,-0.30822 0.0754,-0.37091 0.15985,-0.15985 0.0764,0.191 0.067,0.4192 -0.0209,0.50712 -0.0879,0.0879 -0.15045,-0.0684 -0.13896,-0.34727 z m -14.5312,-3.02066 c 0,-0.3638 0.0601,-0.51263 0.13346,-0.33072 0.0734,0.1819 0.0734,0.47955 0,0.66145 -0.0734,0.18191 -0.13346,0.0331 -0.13346,-0.33073 z m 10.54561,0.21406 c -0.002,-0.24608 0.11501,-0.52099 0.26054,-0.61093 0.33485,-0.20695 0.33485,0.14331 0,0.66146 -0.22104,0.34202 -0.25704,0.33504 -0.26054,-0.0505 z m -4.62384,-3.98098 c -0.21684,-1.34694 -0.0295,-2.583076 0.3915,-2.583076 0.29796,0 0.30385,2.189736 0.009,3.174996 -0.17352,0.57895 -0.22343,0.5051 -0.40003,-0.59192 z m 0.30262,-0.51602 c -0.0845,-0.21106 -0.14716,-0.14837 -0.15986,0.15985 -0.0115,0.27892 0.051,0.43519 0.13897,0.34727 0.0879,-0.0879 0.0973,-0.31612 0.0209,-0.50712 z m -6.48897,0.84336 c 0,-0.3638 0.06,-0.51263 0.13345,-0.33073 0.0734,0.1819 0.0734,0.47956 0,0.66146 -0.0734,0.1819 -0.13345,0.0331 -0.13345,-0.33073 z m 0.77286,0.11024 c 0.0127,-0.30822 0.0754,-0.37091 0.15986,-0.15985 0.0764,0.191 0.067,0.4192 -0.0209,0.50712 -0.0879,0.0879 -0.15046,-0.0683 -0.13897,-0.34727 z m 14.60479,-3.615968 c -0.46401,-0.599965 -0.65128,-1.135794 -0.20806,-0.595313 0.42146,0.513942 0.42879,0.508147 0.25477,-0.201428 -0.13999,-0.570832 -0.0963,-0.698792 0.19983,-0.585161 0.25109,0.09635 0.34018,0.409876 0.26398,0.929033 -0.1302,0.887104 -0.15658,0.91051 -0.51052,0.452869 z m 0.72016,0.06615 c 0,-0.145521 0.11906,-0.264584 0.26458,-0.264584 0.14552,0 0.26459,0.119063 0.26459,0.264584 0,0.145521 -0.11907,0.264583 -0.26459,0.264583 -0.14552,0 -0.26458,-0.119062 -0.26458,-0.264583 z m -9.525,-0.497937 c 0,-0.145521 0.11906,-0.338168 0.26458,-0.428105 0.14552,-0.08994 0.26459,-0.04446 0.26459,0.101062 0,0.145521 -0.11907,0.338168 -0.26459,0.428105 -0.14552,0.08994 -0.26458,0.04446 -0.26458,-0.101062 z m 5.25942,-0.534867 c 0.20054,-0.127023 0.28281,-0.363324 0.18282,-0.525115 -0.1,-0.161791 -0.0259,-0.295988 0.16454,-0.298216 0.25167,-0.0029 0.23786,-0.07416 -0.0505,-0.260532 -0.28519,-0.184304 -0.0246,-0.25648 0.92604,-0.25648 0.94566,0 1.20974,0.07257 0.92604,0.254492 -0.21828,0.13997 -0.635,0.189879 -0.92604,0.110908 -0.38318,-0.103973 -0.43049,-0.07516 -0.17149,0.104454 0.28428,0.197143 0.23148,0.336426 -0.25731,0.678791 -0.33824,0.236913 -0.73732,0.428929 -0.88684,0.4267 -0.14952,-0.0022 -0.10778,-0.107979 0.0928,-0.235002 z m -4.2507,-1.264604 c 0.191,-0.07643 0.4192,-0.06703 0.50712,0.02089 0.0879,0.08792 -0.0684,0.150452 -0.34726,0.138964 -0.30823,-0.0127 -0.37092,-0.07539 -0.15986,-0.159854 z m -5.24205,17.643236 c 0,-0.14552 -0.11907,-0.26458 -0.26459,-0.26458 -0.14552,0 -0.26458,0.11906 -0.26458,0.26458 0,0.14552 0.11906,0.26459 0.26458,0.26459 0.14552,0 0.26459,-0.11907 0.26459,-0.26459 z m 9.91057,0.0183 c 0.0837,-0.13546 0.0511,-0.30882 -0.0726,-0.38523 -0.12364,-0.0764 -0.2248,0.0344 -0.2248,0.2463 0,0.44613 0.0834,0.48511 0.29738,0.13893 z m 2.26026,-0.0183 c 0,-0.14552 -0.12609,-0.26458 -0.2802,-0.26458 -0.15411,0 -0.20661,0.11906 -0.11668,0.26458 0.0899,0.14552 0.21603,0.26459 0.2802,0.26459 0.0642,0 0.11668,-0.11907 0.11668,-0.26459 z m -0.87759,-0.57877 c -0.0845,-0.21107 -0.14716,-0.14838 -0.15986,0.15985 -0.0115,0.27891 0.0511,0.43518 0.13897,0.34726 0.0879,-0.0879 0.0973,-0.31612 0.0209,-0.50711 z m -11.55783,-0.21498 c 0,-0.14552 -0.0525,-0.26458 -0.11667,-0.26458 -0.0642,0 -0.19027,0.11906 -0.2802,0.26458 -0.0899,0.14552 -0.0374,0.26459 0.11667,0.26459 0.15411,0 0.2802,-0.11907 0.2802,-0.26459 z m 4.14949,-2.69544 c -0.0845,-0.21107 -0.14715,-0.14837 -0.15985,0.15985 -0.0115,0.27892 0.0511,0.43519 0.13896,0.34727 0.0879,-0.0879 0.0973,-0.31612 0.0209,-0.50712 z m -3.81876,-13.88395 c -0.1819,-0.0734 -0.47956,-0.0734 -0.66146,0 -0.1819,0.0734 -0.0331,0.133452 0.33073,0.133452 0.3638,0 0.51263,-0.06005 0.33073,-0.133452 z m 9.98802,-2.725879 c 0,-0.48941 -0.84473,-1.193046 -1.11174,-0.926042 -0.0676,0.06764 -0.12298,-0.05372 -0.12298,-0.269692 0,-0.300725 0.0841,-0.322874 0.35917,-0.09459 0.49033,0.406938 0.76649,0.06742 0.35169,-0.432385 -0.26374,-0.31779 -0.96876,-0.403269 -3.32609,-0.403269 -3.3827,0 -3.82296,0.200233 -3.82296,1.73869 v 0.907143 h 3.83645 c 3.63717,0 3.83646,-0.027 3.83646,-0.519857 z m -4.54752,-0.19005 c 0.19099,-0.07643 0.4192,-0.06703 0.50711,0.02089 0.0879,0.08792 -0.0683,0.150453 -0.34726,0.138964 -0.30823,-0.01269 -0.37092,-0.07539 -0.15985,-0.159852 z m 2.43086,-0.07554 c 0,-0.140954 0.17859,-0.187746 0.39687,-0.103984 0.21828,0.08376 0.39688,0.199088 0.39688,0.256279 0,0.05719 -0.1786,0.103985 -0.39688,0.103985 -0.21828,0 -0.39687,-0.115326 -0.39687,-0.25628 z m -4.09917,-0.799023 c -0.0927,-0.149982 0.0135,-0.194339 0.24897,-0.103984 0.45836,0.175892 0.54223,0.365537 0.16164,0.365537 -0.13693,0 -0.32171,-0.117699 -0.41061,-0.261553 z m -1.1925,-0.102926 c 0,-0.05494 0.18132,-0.250376 0.40293,-0.434298 0.33691,-0.279608 0.37562,-0.263239 0.23628,0.09989 -0.14232,0.370876 -0.63921,0.630825 -0.63921,0.334403 z m 3.83646,-0.429271 -1.05834,-0.189492 1.27239,-0.03755 c 0.78937,-0.02329 1.21031,0.06289 1.10886,0.227038 -0.0899,0.14552 -0.18626,0.247687 -0.21405,0.227037 -0.0278,-0.02065 -0.52678,-0.122817 -1.10886,-0.227037 z"
         id="path147" /><path
         style="fill:#899299"
         d="m 104.74195,117.29264 c -1.10307,-0.86767 -1.39965,-1.75719 -1.5801,-4.73913 -0.35362,-5.84373 -0.95806,-14.201821 -1.10382,-15.263448 -0.13197,-0.961271 -0.24681,-1.11916 -0.86598,-1.190625 -0.42151,-0.04865 -0.71383,-0.244916 -0.71383,-0.479266 0,-0.329095 0.59873,-0.409483 3.50573,-0.4707 l 3.50573,-0.07383 0.008,-1.1168 c 0.0162,-2.157386 0.82442,-2.572008 5.0133,-2.572008 3.04944,0 3.23583,0.03141 3.85385,0.649432 0.35719,0.357188 0.66432,0.9525 0.68251,1.322917 0.0848,1.727706 -0.2111,1.588076 3.67054,1.731818 2.9403,0.108884 3.57242,0.202517 3.57242,0.529167 0,0.25039 -0.30326,0.426423 -0.82163,0.476931 l -0.82163,0.08005 -0.15566,2.301195 c -0.62649,9.261847 -1.311,16.972397 -1.56353,17.612177 -0.16475,0.41739 -0.66622,0.98249 -1.11438,1.25578 -0.74108,0.45191 -1.42829,0.49697 -7.59217,0.49787 -6.47302,9.5e-4 -6.80888,-0.0238 -7.47977,-0.55154 z m 14.39159,-2.03577 c 1.09852,-0.55652 1.21642,-0.96658 1.43841,-5.00276 0.0945,-1.71851 0.27957,-4.43425 0.41122,-6.03498 0.13165,-1.60073 0.3164,-4.08011 0.41056,-5.509735 l 0.1712,-2.599318 -9.26815,0.07006 -9.26814,0.07006 0.1141,1.206338 c 0.12569,1.328878 0.78898,10.305645 1.06197,14.372515 0.16304,2.42895 0.21916,2.62136 0.94176,3.2294 0.76649,0.64495 0.78365,0.64656 6.92925,0.64969 5.30257,0.003 6.28582,-0.0602 7.05782,-0.45128 z m -11.84699,-1.44659 c -0.14736,-0.18191 -0.46139,-3.00964 -0.69785,-6.28386 -0.23645,-3.27422 -0.49028,-6.50754 -0.56405,-7.18516 -0.0991,-0.910346 -0.024,-1.342129 0.28747,-1.653649 0.56038,-0.560381 1.62664,-0.536469 1.937,0.04344 0.13688,0.255775 0.44225,3.321629 0.67858,6.813019 0.23634,3.49139 0.4777,6.56832 0.53637,6.83763 0.19144,0.87879 -0.4045,1.75931 -1.19071,1.75931 -0.39539,0 -0.83945,-0.14883 -0.98681,-0.33073 z m 4.08434,-0.26459 c -0.51504,-0.84158 -0.45385,-14.230477 0.0679,-14.859156 0.48102,-0.579598 1.53091,-0.528162 1.86241,0.09124 0.16903,0.315838 0.27389,3.195566 0.27389,7.521726 0,6.01991 -0.0587,7.06868 -0.41577,7.42573 -0.59176,0.59176 -1.36385,0.51425 -1.78844,-0.17954 z m 4.06025,0.20321 c -0.25819,-0.3111 -0.23161,-1.68758 0.12867,-6.66245 0.6369,-8.794465 0.61407,-8.670253 1.61154,-8.767811 1.43564,-0.140413 1.50198,0.168164 1.16537,5.420491 -0.4201,6.55511 -0.71318,9.79429 -0.91583,10.1222 -0.25669,0.41533 -1.61547,0.33855 -1.98975,-0.11243 z m 0.78979,-19.496958 c 0,-1.579243 -0.49829,-1.806771 -3.95684,-1.806771 -2.04361,0 -3.18798,0.106909 -3.39857,0.3175 -0.17463,0.174625 -0.3175,0.769937 -0.3175,1.322917 v 1.005416 h 3.83645 3.83646 z"
         id="path146" /><path
         style="fill:#7a838b"
         d="m 105.21112,117.58586 c -0.79609,-0.32166 -1.65539,-1.50552 -1.79974,-2.47951 -0.0679,-0.45818 -0.25402,-2.79758 -0.4136,-5.19868 -0.93464,-14.063104 -0.88745,-13.702245 -1.80573,-13.808233 -0.42151,-0.04865 -0.71383,-0.244916 -0.71383,-0.479266 0,-0.329095 0.59873,-0.409483 3.50573,-0.4707 l 3.50573,-0.07383 v -1.159426 c 0,-0.969865 0.1331,-1.271416 0.81405,-1.844403 0.78053,-0.656767 0.94993,-0.684979 4.11307,-0.684979 3.14988,0 3.32838,0.02936 3.94845,0.649432 0.49783,0.49783 0.64943,0.928433 0.64943,1.844617 v 1.195185 l 3.63802,0.07361 c 3.02469,0.0612 3.63802,0.140521 3.63802,0.470487 0,0.249043 -0.30149,0.426356 -0.80941,0.476019 l -0.80942,0.07914 -0.31595,4.021897 c -0.17377,2.21205 -0.50114,6.52221 -0.72747,9.57815 -0.22634,3.05594 -0.54387,5.89775 -0.70563,6.31515 -0.16176,0.41739 -0.66079,0.98249 -1.10895,1.25578 -0.74186,0.45239 -1.40718,0.49547 -7.42942,0.4811 -3.63802,-0.009 -6.86603,-0.11738 -7.17335,-0.24155 z m 13.83638,-2.01949 c 1.02721,-0.27549 1.34329,-1.5279 1.66184,-6.58474 0.165,-2.61938 0.40804,-6.01266 0.5401,-7.54063 0.13205,-1.527964 0.24528,-3.343667 0.25163,-4.034891 l 0.0115,-1.256771 h -9.27356 -9.27355 l 0.14164,1.521354 c 0.14148,1.519744 0.53375,6.783888 0.80341,10.781768 0.43025,6.3787 0.4743,6.57384 1.58558,7.02429 0.61078,0.24757 12.66517,0.32729 13.55138,0.0896 z m -11.60713,-1.88839 c -0.29495,-0.34493 -0.50964,-2.04875 -0.84182,-6.68073 -0.24525,-3.41973 -0.44273,-6.64038 -0.43885,-7.156975 0.008,-1.020896 0.38939,-1.574271 1.08592,-1.574271 1.06864,0 1.11248,0.252171 1.85106,10.646576 0.25098,3.53217 0.24752,4.50981 -0.0171,4.82865 -0.44248,0.53315 -1.1527,0.50575 -1.63922,-0.0632 z m 4.2165,0.17509 c -0.42353,-0.24471 -0.46302,-0.89754 -0.46302,-7.6534 0,-7.115091 0.0194,-7.396264 0.52917,-7.669082 0.68298,-0.36552 1.52586,0.05918 1.72976,0.871565 0.17925,0.714187 0.0458,14.115487 -0.14226,14.287527 -0.34514,0.31569 -1.23745,0.40386 -1.65365,0.16339 z m 3.90668,-0.14266 c -0.33109,-0.33109 -0.39668,-0.74381 -0.28381,-1.78594 0.0807,-0.74544 0.33656,-3.97472 0.56849,-7.17617 0.23193,-3.20146 0.54431,-5.969665 0.69418,-6.151566 0.37291,-0.452624 1.14361,-0.41534 1.63821,0.07925 0.30376,0.303768 0.37713,0.766447 0.2832,1.785936 -0.0697,0.75678 -0.31105,3.99013 -0.53628,7.18523 -0.22522,3.1951 -0.53733,5.9633 -0.69358,6.15156 -0.38979,0.46968 -1.15276,0.42935 -1.67041,-0.0883 z m 0.65738,-19.43055 c 0,-1.738141 -0.19959,-1.834689 -3.79285,-1.834689 -2.17116,0 -3.35014,0.105071 -3.56256,0.3175 -0.17463,0.174625 -0.3175,0.769937 -0.3175,1.322917 v 1.005416 h 3.83645 3.83646 z"
         id="path145" /><path
         style="fill:#727b82"
         d="m 104.81683,117.24194 c -1.21142,-0.81284 -1.44457,-1.75867 -1.80792,-7.33427 -0.56369,-8.6496 -0.85091,-12.566363 -0.96397,-13.145508 -0.0776,-0.397775 -0.3393,-0.603866 -0.83976,-0.661458 -0.43261,-0.04978 -0.72696,-0.244352 -0.72696,-0.480533 0,-0.329095 0.59873,-0.409483 3.50573,-0.4707 l 3.50573,-0.07383 v -1.071006 c 0,-0.837427 0.17326,-1.244262 0.79441,-1.865417 l 0.79441,-0.794411 3.46291,0.08716 c 3.26818,0.08226 3.49131,0.122282 3.96809,0.711783 0.32559,0.402566 0.50518,1.03748 0.50518,1.785938 v 1.161313 h 3.54357 c 2.79596,0 3.5736,0.07827 3.68594,0.371008 0.19297,0.502891 -0.0418,0.687326 -0.87497,0.687326 h -0.70102 l -0.30766,3.770312 c -0.16921,2.073673 -0.49733,6.389693 -0.72916,9.591153 -0.23182,3.20146 -0.54599,6.1472 -0.69814,6.54609 -0.15216,0.3989 -0.66365,0.96445 -1.13665,1.25678 -0.80118,0.49515 -1.31208,0.5315 -7.47036,0.5315 -6.44165,0 -6.63332,-0.0154 -7.5094,-0.60323 z m 11.07337,-0.64784 c -0.5457,-0.0571 -0.99218,-0.20998 -0.99218,-0.33977 0,-0.1298 -0.74414,-0.27826 -1.65365,-0.32993 -0.90951,-0.0517 0.0298,-0.11688 2.08735,-0.14491 4.95713,-0.0676 4.86338,0.006 5.18176,-4.04396 0.74264,-9.44587 1.13697,-15.360151 1.03116,-15.465955 -0.0661,-0.06613 -4.26758,-0.120237 -9.33655,-0.120237 -7.01382,0 -9.21632,0.0762 -9.21632,0.318867 0,0.175377 0.17645,2.645924 0.39211,5.490105 0.21566,2.84418 0.51809,6.83811 0.67208,8.8754 0.26061,3.44813 0.32597,3.74532 0.94555,4.29948 0.58445,0.52274 0.9783,0.60048 3.23053,0.63766 1.41071,0.0233 2.14822,0.0964 1.63889,0.16239 -0.78036,0.10116 -0.84279,0.15401 -0.39687,0.33593 0.38616,0.15755 0.18954,0.22092 -0.72761,0.23449 -0.69122,0.0102 -1.25677,-0.0936 -1.25677,-0.23084 0,-0.13719 -0.62137,-0.24462 -1.38082,-0.23874 -1.31202,0.0102 -1.34828,0.0287 -0.72761,0.37235 0.49917,0.27636 1.93244,0.35338 6.07718,0.32656 2.98318,-0.0193 4.97748,-0.0818 4.43177,-0.13889 z m -8.33962,-2.92136 c -0.39635,-0.39635 -0.54051,-1.52578 -0.93867,-7.35378 -0.25873,-3.78703 -0.39599,-7.079446 -0.30503,-7.316483 0.23009,-0.599589 0.8575,-0.787589 1.49313,-0.447408 0.40099,0.214601 0.50801,0.481796 0.42353,1.057384 -0.0622,0.423617 -0.0328,0.770217 0.0653,0.770217 0.0981,0 0.25604,1.39899 0.35097,3.10886 0.0949,1.70987 0.28431,4.59593 0.42083,6.41347 0.2165,2.88216 0.19436,3.36415 -0.17321,3.77031 -0.52872,0.58423 -0.75049,0.58381 -1.33687,-0.003 z m 8.1941,0.15077 c -0.38233,-0.38234 -0.40813,-2.75362 -0.0714,-6.56167 0.13512,-1.52797 0.32477,-3.93957 0.42144,-5.35912 0.20405,-2.99612 0.66371,-3.934069 1.66528,-3.398045 0.50902,0.272418 0.57537,0.520027 0.55889,2.085745 -0.0292,2.77455 -0.88461,12.85126 -1.12223,13.21986 -0.27053,0.41963 -1.03858,0.42663 -1.45199,0.0132 z m 2.12157,-12.69468 c 0.0529,-0.53549 0.0122,-0.9217 -0.0905,-0.85824 -0.10268,0.0635 -0.23688,0.0253 -0.29822,-0.0847 -0.0613,-0.11005 -0.0715,-0.0415 -0.0226,0.15228 0.0489,0.19381 0.0983,0.78912 0.10982,1.32292 0.0241,1.12029 0.16239,0.87618 0.30151,-0.53225 z m -0.85157,-1.01074 c 0,-0.145523 -0.12609,-0.264586 -0.2802,-0.264586 -0.1541,0 -0.20661,0.119063 -0.11667,0.264586 0.0899,0.14552 0.21602,0.26458 0.2802,0.26458 0.0642,0 0.11667,-0.11906 0.11667,-0.26458 z m 1.05834,-0.529169 c 0,-0.145521 -0.12609,-0.264583 -0.2802,-0.264583 -0.15411,0 -0.20662,0.119062 -0.11668,0.264583 0.0899,0.145521 0.21603,0.264583 0.2802,0.264583 0.0642,0 0.11668,-0.119062 0.11668,-0.264583 z m -6.54844,14.118039 c -0.46643,-0.19634 -0.47906,-14.393039 -0.0132,-14.858872 0.54366,-0.543659 1.50845,-0.383163 1.67002,0.277812 0.08,0.327422 0.11207,3.75047 0.0712,7.60677 l -0.0743,7.01146 -0.66145,0.051 c -0.36381,0.0281 -0.81029,-0.0116 -0.99219,-0.0882 z m 4.69635,-19.4271 c 0,-1.738141 -0.19959,-1.834689 -3.79285,-1.834689 -2.17116,0 -3.35014,0.105071 -3.56256,0.3175 -0.17463,0.174625 -0.3175,0.769937 -0.3175,1.322917 v 1.005416 h 3.83645 3.83646 z"
         id="path144" /><path
         style="fill:#6c767d"
         d="m 104.92688,117.32917 c -1.48313,-0.90432 -1.37909,-0.23043 -2.53432,-16.41504 l -0.33033,-4.627909 -0.792,-0.137186 c -0.46392,-0.08036 -0.79201,-0.300512 -0.79201,-0.531462 0,-0.325761 0.60921,-0.407106 3.50573,-0.468102 l 3.50573,-0.07383 v -1.071006 c 0,-0.837427 0.17326,-1.244262 0.79441,-1.865417 l 0.79441,-0.794411 3.46291,0.08716 c 3.26818,0.08226 3.49131,0.122282 3.96809,0.711783 0.32559,0.402566 0.50518,1.03748 0.50518,1.785938 v 1.161313 h 3.54357 c 2.79596,0 3.5736,0.07827 3.68594,0.371008 0.19559,0.509706 -0.0431,0.687326 -0.9236,0.687326 -0.6444,0 -0.74966,0.103867 -0.74966,0.739722 0,0.406847 -0.16885,2.758332 -0.37523,5.225523 -0.20638,2.46719 -0.51281,6.45033 -0.68095,8.85142 -0.16815,2.4011 -0.43002,4.692 -0.58194,5.09089 -0.15192,0.3989 -0.66322,0.96445 -1.13622,1.25678 -0.80106,0.49508 -1.31115,0.53143 -7.44335,0.53051 -6.052,-9.1e-4 -6.65139,-0.0425 -7.42636,-0.51501 z m 14.64084,-1.12943 c 0.24989,-0.25015 0.49189,-0.66687 0.53778,-0.92604 0.21901,-1.23712 0.61888,-5.80757 1.00187,-11.45145 0.23207,-3.41974 0.47473,-6.545126 0.53926,-6.945308 l 0.11732,-0.727604 h -9.42259 -9.42258 l 0.16953,1.918229 c 0.0932,1.055026 0.41002,5.237943 0.70394,9.295363 0.29392,4.05742 0.61765,7.51023 0.71941,7.67292 0.10176,0.16268 0.21149,0.47111 0.24384,0.68541 0.15223,1.0084 0.7887,1.09215 7.68613,1.0114 5.89011,-0.069 6.72497,-0.1314 7.12609,-0.53292 z m -14.59158,-0.47123 c -0.0899,-0.14553 -0.0374,-0.26459 0.11668,-0.26459 0.15411,0 0.2802,0.11906 0.2802,0.26459 0,0.14552 -0.0525,0.26458 -0.11668,0.26458 -0.0642,0 -0.19026,-0.11906 -0.2802,-0.26458 z m 11.17865,0.0893 c 0.1819,-0.0734 0.47955,-0.0734 0.66145,0 0.18191,0.0734 0.0331,0.13345 -0.33072,0.13345 -0.36381,0 -0.51263,-0.0601 -0.33073,-0.13345 z m 1.71979,-0.007 c 0.25466,-0.0665 0.67138,-0.0665 0.92604,0 0.25466,0.0666 0.0463,0.121 -0.46302,0.121 -0.50932,0 -0.71768,-0.0545 -0.46302,-0.121 z m -10.05417,-1.99262 c -0.71281,-0.34377 -0.76716,-0.61124 -0.13229,-0.65105 0.25466,-0.016 0.72893,-0.0938 1.05392,-0.17295 0.57015,-0.13886 0.57605,-0.12124 0.16801,0.50151 -0.23259,0.35498 -0.43897,0.63736 -0.45861,0.62751 -0.0196,-0.01 -0.30361,-0.14711 -0.63103,-0.30502 z m 0.82856,-0.35228 c 0.0904,-0.23545 0.046,-0.34166 -0.10399,-0.24896 -0.14385,0.0889 -0.26155,0.27368 -0.26155,0.41061 0,0.38059 0.18965,0.29672 0.36554,-0.16165 z m 7.19655,0.2613 c -0.45282,-0.3311 -0.4672,-0.58319 -0.21337,-3.74087 l 0.27217,-3.38585 -0.0111,2.77812 c -0.0149,3.71189 -0.006,3.78719 0.44294,3.61505 0.20888,-0.0802 0.43342,-0.004 0.49899,0.17013 0.0656,0.17373 0.2443,0.0182 0.39719,-0.34559 0.1529,-0.3638 0.28554,-0.5048 0.29477,-0.31334 0.024,0.49882 -0.43815,1.28657 -0.84686,1.4434 -0.19204,0.0737 -0.56766,-0.0258 -0.8347,-0.22105 z m -4.33417,-0.16818 c -0.19695,-0.19694 -0.3175,-1.16808 -0.3175,-2.55764 0,-2.82677 0.22657,-2.67973 0.38792,0.25175 0.11431,2.07697 0.16144,2.22652 0.70178,2.22652 0.5513,0 0.58323,-0.12616 0.66174,-2.61472 0.0454,-1.43809 0.14612,-2.67833 0.22386,-2.75608 0.0777,-0.0777 0.14137,1.11591 0.14137,2.65256 0,2.30361 -0.0734,2.8221 -0.41852,2.95451 -0.62811,0.24103 -1.02819,0.19556 -1.38065,-0.1569 z m -2.75662,-2.16003 c -0.0658,-0.344 -0.035,-1.14767 0.0683,-1.78594 0.17551,-1.08403 0.19007,-1.04282 0.22101,0.62545 0.0339,1.82813 -0.0768,2.27221 -0.28934,1.16049 z m -1.74263,-0.56518 c 0.005,-0.43656 0.0647,-0.58312 0.13177,-0.32569 0.0671,0.25743 0.0627,0.61462 -0.01,0.79375 -0.0725,0.17913 -0.12737,-0.0315 -0.12197,-0.46806 z m 0.26458,-2.11666 c 0.005,-0.43657 0.0647,-0.58313 0.13177,-0.3257 0.0671,0.25743 0.0627,0.61462 -0.01,0.79375 -0.0725,0.17913 -0.12736,-0.0315 -0.12197,-0.46805 z m 3.95895,-0.66146 c 0,-0.3638 0.0601,-0.51263 0.13345,-0.33073 0.0734,0.1819 0.0734,0.47956 0,0.66146 -0.0734,0.1819 -0.13345,0.0331 -0.13345,-0.33073 z m -2.66673,-0.68351 c 0.0127,-0.30822 0.0754,-0.37092 0.15986,-0.15985 0.0764,0.19099 0.067,0.4192 -0.0209,0.50712 -0.0879,0.0879 -0.15045,-0.0684 -0.13897,-0.34727 z m -1.81456,-0.88811 c -0.0127,-0.4453 0.0147,-0.80963 0.0607,-0.80963 0.20524,0 0.32622,1.03043 0.15374,1.30951 -0.10647,0.17227 -0.20165,-0.0496 -0.21446,-0.49988 z m 9.27768,-1.73567 c 0.002,-0.72761 0.0534,-0.99386 0.11419,-0.59168 0.0608,0.40218 0.0592,0.9975 -0.004,1.32292 -0.0628,0.32542 -0.11256,-0.004 -0.11058,-0.73124 z m 1.69284,0.19843 c -0.0631,-0.10914 -0.019,-0.43656 0.0981,-0.7276 0.18585,-0.46196 0.21524,-0.43676 0.23148,0.19844 0.0184,0.71781 -0.10544,0.91657 -0.32956,0.52916 z m -4.62355,-1.98437 c -0.0305,-0.98227 -0.17444,-1.78594 -0.31996,-1.78594 -0.14552,0 -0.26458,-0.17859 -0.26458,-0.39687 0,-0.21829 -0.11907,-0.39688 -0.26459,-0.39688 -0.14552,0 -0.26458,-0.30468 -0.26458,-0.677072 0,-0.377832 -0.11536,-0.605778 -0.26101,-0.515759 -0.14356,0.08872 -0.19974,0.546898 -0.12484,1.018171 0.0749,0.47126 0.0257,1.32843 -0.10929,1.90482 -0.22434,0.95783 -0.24774,0.87404 -0.27203,-0.97425 -0.0198,-1.509403 0.0675,-2.058314 0.34443,-2.16458 0.47625,-0.182757 0.6852,0.03503 0.69574,0.725164 0.008,0.539746 0.0164,0.540606 0.39414,0.04136 0.21215,-0.280419 0.45098,-0.444594 0.53074,-0.364834 0.0798,0.07976 0.10591,1.32123 0.0581,2.75881 -0.0663,1.9939 -0.10004,2.19024 -0.14228,0.82786 z m -6.62819,0.85989 c 0,-0.3638 0.0601,-0.51263 0.13346,-0.33072 0.0734,0.1819 0.0734,0.47955 0,0.66145 -0.0734,0.1819 -0.13346,0.0331 -0.13346,-0.33073 z m -0.25996,-3.70416 c -0.0413,-0.997727 0.32581,-1.832654 0.65916,-1.499308 0.11284,0.112839 0.0695,0.289025 -0.0964,0.391525 -0.16585,0.1025 -0.35171,0.602042 -0.41302,1.110093 l -0.11147,0.92373 z m 1.01599,-0.99219 c -0.002,-0.327422 0.0912,-0.595312 0.20762,-0.595312 0.30541,0 0.84736,0.587101 0.84261,0.912812 -0.002,0.152797 -0.12129,0.09922 -0.26458,-0.119062 -0.23159,-0.352778 -0.28948,-0.352778 -0.52107,0 -0.21159,0.322324 -0.26129,0.285048 -0.26458,-0.198438 z m 9.52095,-0.330729 c 0,-0.145521 0.12609,-0.264583 0.2802,-0.264583 0.15411,0 0.20661,0.119062 0.11667,0.264583 -0.0899,0.145521 -0.21602,0.264583 -0.28019,0.264583 -0.0642,0 -0.11668,-0.119062 -0.11668,-0.264583 z m 0.79375,0 c 0,-0.145521 0.11203,-0.264583 0.24897,-0.264583 0.13693,0 0.32255,0.119062 0.41249,0.264583 0.0899,0.145521 -0.0221,0.264583 -0.24897,0.264583 -0.22687,0 -0.41249,-0.119062 -0.41249,-0.264583 z m -1.32292,-4.579639 c 0,-1.610712 -0.30491,-1.75537 -3.77677,-1.791772 -3.55891,-0.03731 -3.89614,0.104749 -3.89614,1.641308 v 1.025936 h 3.83645 3.83646 z"
         id="path143" /><path
         style="fill:#525b64"
         d="m 104.92688,117.32917 c -0.46365,-0.28271 -0.97219,-0.7554 -1.13009,-1.05042 -0.15789,-0.29503 -0.47154,-3.01007 -0.697,-6.03343 -0.22546,-3.02336 -0.55036,-7.3945 -0.722,-9.71363 l -0.31207,-4.216606 -0.87787,-0.227387 c -0.49841,-0.129101 -0.83214,-0.365061 -0.77208,-0.545894 0.0736,-0.22164 1.16539,-0.34096 3.58985,-0.392332 l 3.48406,-0.07383 v -1.071006 c 0,-0.837427 0.17326,-1.244262 0.79441,-1.865417 l 0.79441,-0.794411 3.46291,0.08716 c 3.26818,0.08226 3.49131,0.122282 3.96809,0.711783 0.32444,0.401153 0.50518,1.037358 0.50518,1.778258 v 1.153634 l 3.50573,0.07383 c 2.90701,0.06122 3.50573,0.141605 3.50573,0.4707 0,0.230766 -0.28857,0.430375 -0.68946,0.476914 -0.65995,0.07661 -0.69634,0.16722 -0.85021,2.116667 -0.0884,1.120145 -0.27624,3.465377 -0.41737,5.211627 -0.14114,1.74625 -0.39106,5.13953 -0.55538,7.54062 -0.48568,7.0968 -0.19602,6.87953 -9.17007,6.87818 -6.0425,-9.1e-4 -6.64189,-0.0425 -7.41677,-0.51501 z m 14.70522,-1.10195 c 0.62898,-0.67513 0.74079,-1.33932 1.08615,-6.45184 0.38288,-5.66789 0.78133,-10.909364 0.94031,-12.369271 l 0.13685,-1.256771 h -9.44144 -9.44144 l 0.17117,2.315104 c 1.34024,18.126918 1.21276,16.973418 1.97366,17.859378 0.35964,0.41874 1.05069,0.46302 7.22552,0.46302 6.61097,0 6.84442,-0.0178 7.34922,-0.55962 z m -3.41117,-22.18845 c 0,-1.635859 -0.65663,-1.927979 -4.08292,-1.816387 -3.12624,0.10182 -3.50582,0.292804 -3.76578,1.894757 l -0.15804,0.973864 h 4.00337 4.00337 z"
         id="path142" /><path
         style="fill:#4b5258"
         d="m 105.19455,117.45911 c -0.46196,-0.20094 -1.018,-0.64277 -1.23565,-0.98183 -0.39741,-0.61912 -0.80419,-4.75531 -1.50479,-15.30086 -0.34165,-5.14272 -0.37256,-5.334952 -0.84787,-5.272729 -0.7832,0.102532 -1.23516,-0.0412 -1.11491,-0.354572 0.0924,-0.24072 0.96919,-0.344962 3.10056,-0.368615 1.63446,-0.01814 3.16463,-0.0457 3.40036,-0.06124 0.30721,-0.02026 0.46757,-0.373901 0.56615,-1.248521 0.2295,-2.03607 0.7433,-2.335459 4.19031,-2.441673 4.31494,-0.132959 5.03243,0.18894 5.25924,2.359547 l 0.13902,1.330518 3.43959,0.05208 c 2.85787,0.04327 3.43958,0.119202 3.43958,0.448956 0,0.255776 -0.21481,0.373907 -0.60421,0.332272 -0.33231,-0.03553 -0.65215,0.08353 -0.71075,0.264584 -0.13663,0.422143 -0.82907,8.798563 -1.20829,14.616683 -0.32669,5.01198 -0.60793,5.9483 -1.98266,6.60065 -1.19379,0.56649 -13.03322,0.58694 -14.32568,0.0247 z m 13.67222,-0.63877 c 1.27985,-0.34505 1.50307,-1.39512 2.1163,-9.95538 0.31273,-4.36562 0.58958,-8.566472 0.61521,-9.335218 l 0.0466,-1.397721 -9.24486,0.01515 c -5.08467,0.0083 -9.3031,0.07339 -9.37429,0.144581 -0.0712,0.07119 0.015,2.062564 0.19146,4.425278 0.17649,2.36272 0.49535,6.6771 0.70858,9.58752 l 0.3877,5.29166 0.79852,0.72761 0.79853,0.7276 6.14739,-0.0264 c 3.38106,-0.0145 6.44504,-0.10662 6.80885,-0.20471 z m -2.6464,-22.634544 c 9.7e-4,-1.786764 -0.42137,-2.005209 -3.8769,-2.005209 -2.64893,0 -3.0639,0.06219 -3.53087,0.529167 -0.48242,0.482418 -0.74432,2.077901 -0.39795,2.42427 0.0722,0.07217 1.85785,0.121778 3.96818,0.110243 l 3.83697,-0.02097 z"
         id="path141" /><path
         style="fill:#39434c"
         d="m 105.18743,117.41545 c -1.67498,-0.82593 -1.49524,0.27763 -2.81743,-17.29736 l -0.30852,-4.101044 -0.74117,-0.08523 c -0.40764,-0.04688 -0.69984,-0.209219 -0.64933,-0.360756 0.0582,-0.17461 1.31096,-0.259809 3.42037,-0.232617 l 3.32853,0.04291 0.13048,-1.357874 c 0.22006,-2.290213 0.62088,-2.504342 4.68786,-2.504342 3.22739,0 3.44694,0.03385 4.08057,0.629111 0.49341,0.463537 0.69052,0.95098 0.74892,1.852083 l 0.0793,1.222973 3.43959,0.04341 c 2.67159,0.03372 3.43958,0.122334 3.43958,0.396875 0,0.224257 -0.25015,0.324434 -0.68433,0.274051 l -0.68434,-0.07941 -0.45362,5.63567 c -0.24949,3.09961 -0.56661,6.95165 -0.70472,8.56008 -0.13811,1.60844 -0.25111,3.43591 -0.25111,4.06106 0,1.57042 -0.62832,2.75949 -1.73768,3.28851 -1.33662,0.63739 -13.0347,0.64712 -14.32291,0.0119 z m 13.94392,-0.7064 c 0.3638,-0.18402 0.80071,-0.62874 0.97091,-0.98829 0.2719,-0.57441 1.38163,-13.94335 1.499,-18.058574 l 0.0436,-1.52986 -9.24486,0.015 c -5.08467,0.0082 -9.30376,0.0739 -9.37575,0.14589 -0.072,0.07199 0.0175,2.24196 0.19892,4.822154 1.03685,14.7481 1.08214,15.06018 2.26919,15.63688 0.84057,0.40837 12.82122,0.37042 13.63896,-0.0432 z m -2.91042,-22.457108 c 0,-1.861419 -0.39298,-2.071355 -3.87746,-2.071355 -2.64893,0 -3.0639,0.06219 -3.53087,0.529167 -0.51229,0.512287 -0.73699,2.085229 -0.35278,2.469445 0.097,0.09701 1.88295,0.176389 3.96875,0.176389 h 3.79236 z"
         id="path140" /><path
         style="fill:#303a43"
         d="m 105.18743,117.41545 c -1.64285,-0.81008 -1.51052,-6.8e-4 -2.80636,-17.16507 l -0.31959,-4.233334 -0.72548,-0.08372 c -0.39902,-0.04605 -0.72548,-0.194874 -0.72548,-0.330729 0,-0.140165 1.47324,-0.247009 3.40592,-0.247009 h 3.40592 l 0.12923,-1.344996 c 0.21003,-2.185832 0.67746,-2.469898 4.24321,-2.578691 3.02836,-0.0924 4.63062,0.203769 4.26888,0.789071 -0.1142,0.18478 -0.0734,0.234437 0.1031,0.125377 0.42675,-0.263746 0.8479,0.696631 0.8479,1.933511 v 1.075728 h 3.57188 c 2.20486,0 3.57187,0.10126 3.57187,0.264583 0,0.145521 -0.33796,0.264583 -0.75102,0.264583 h -0.75102 l -0.45143,5.490106 c -0.24829,3.01956 -0.56517,6.87805 -0.70419,8.57442 -0.13901,1.69638 -0.25275,3.58338 -0.25275,4.19335 0,1.66079 -0.64697,2.7926 -1.87783,3.2851 -1.5299,0.61214 -12.93644,0.60227 -14.18276,-0.0123 z m 14.45364,-1.09763 c 0.70939,-0.70939 0.74426,-0.87745 1.05669,-5.09323 0.1777,-2.39779 0.49327,-6.58427 0.70126,-9.30328 0.20799,-2.719013 0.37818,-5.159794 0.3782,-5.423961 3e-5,-0.455725 -0.48142,-0.478354 -9.40874,-0.44222 -5.17483,0.02095 -9.44773,0.08048 -9.49534,0.132291 -0.0476,0.05181 0.0137,1.284834 0.13628,2.740043 0.12256,1.455207 0.40782,5.265207 0.63391,8.466667 0.55802,7.90174 0.61839,8.30547 1.35149,9.03857 0.61574,0.61574 0.65079,0.61872 7.26569,0.61872 h 6.64696 z m -3.42014,-22.065878 c 0,-1.874057 -0.3805,-2.071355 -3.99475,-2.071355 -2.92314,0 -3.14486,0.03692 -3.53087,0.588039 -0.22653,0.323421 -0.41188,1.037796 -0.41188,1.5875 v 0.999462 h 3.96875 3.96875 z"
         id="path139" /><path
         style="fill:#262e37"
         d="m 106.31847,117.612 c -0.0837,-0.13548 -0.38879,-0.18445 -0.67792,-0.10885 -0.3328,0.087 -0.58558,-0.0186 -0.68892,-0.2879 -0.0898,-0.23395 -0.25679,-0.36755 -0.37115,-0.29687 -0.11435,0.0707 -0.38102,-0.13837 -0.5926,-0.46454 -0.58127,-0.8961 -1.38654,-11.37553 -1.0723,-13.9545 l 0.24179,-1.98438 0.24712,3.43959 c 0.13591,1.89177 0.24748,4.35098 0.24792,5.46492 4.5e-4,1.11394 0.0735,1.98036 0.1624,1.92539 0.0889,-0.055 0.22419,0.90348 0.30071,2.12989 0.11314,1.81353 0.25339,2.36792 0.7512,2.9694 l 0.61209,0.73956 6.76012,-0.0769 c 6.74193,-0.0767 6.76186,-0.0786 7.40245,-0.71449 0.7635,-0.75787 0.89795,-1.65753 1.37464,-9.19875 0.20436,-3.23305 0.42078,-5.10065 0.5672,-4.8948 0.14802,0.20809 0.17254,0.0413 0.0654,-0.44497 -0.22939,-1.04137 0.13428,-5.996732 0.42683,-5.815928 0.12698,0.07848 0.23096,0.04636 0.23108,-0.07137 1.1e-4,-0.117729 -1.75606,-0.18592 -3.90261,-0.151536 -2.14654,0.03438 -6.62422,0.06853 -9.95039,0.07588 l -6.04759,0.01337 0.1744,0.585575 c 0.35891,1.205165 0.42187,2.488157 0.20401,4.157449 l -0.22445,1.7198 -0.19884,-2.910424 c -0.24246,-3.548675 -0.24948,-3.571875 -1.08081,-3.571875 -0.36837,0 -0.66976,-0.119062 -0.66976,-0.264583 0,-0.162821 1.32291,-0.264583 3.43958,-0.264583 h 3.43958 v -1.073949 c 0,-0.640295 0.10562,-1.008675 0.26155,-0.9123 0.1513,0.09351 0.19354,-0.01559 0.10021,-0.258822 -0.19671,-0.512612 0.6349,-1.4947 1.2082,-1.42683 0.22793,0.02698 0.62539,-0.04251 0.88325,-0.154434 0.25786,-0.111922 1.67128,-0.155198 3.14092,-0.09617 2.55315,0.102549 2.7011,0.14107 3.32423,0.8655 0.53025,0.61645 0.63554,0.985398 0.56325,1.973736 l -0.0889,1.21556 3.63802,-0.08009 c 2.42113,-0.0533 3.63802,0.01307 3.63802,0.198437 0,0.153192 -0.33894,0.27853 -0.7532,0.27853 h -0.75321 l -0.43779,5.225527 c -0.79194,9.45279 -0.96885,11.82617 -0.96752,12.98019 7.8e-4,0.68418 -0.10329,1.07546 -0.26025,0.97845 -0.15232,-0.0941 -0.19289,0.0173 -0.0971,0.26682 0.264,0.68796 -0.43091,1.65656 -1.49351,2.08173 -0.762,0.30489 -2.32981,0.39896 -6.95445,0.41724 -3.42778,0.0135 -6.03551,-0.0813 -6.1229,-0.22271 z m 10.10564,-0.22046 c -0.39758,-0.0604 -1.11195,-0.0616 -1.5875,-0.003 -0.47555,0.0589 -0.15026,0.10828 0.72286,0.10976 0.87313,0.001 1.26221,-0.0467 0.86464,-0.10706 z m 4.47548,-3.30014 c -0.0845,-0.21107 -0.14716,-0.14838 -0.15985,0.15985 -0.0115,0.27891 0.051,0.43518 0.13896,0.34726 0.0879,-0.0879 0.0973,-0.31612 0.0209,-0.50711 z m -17.20343,-1.86862 c -0.0734,-0.18191 -0.13345,-0.0331 -0.13345,0.33073 0,0.3638 0.0601,0.51263 0.13345,0.33072 0.0734,-0.1819 0.0734,-0.47955 0,-0.66145 z m 17.99718,-8.9793 c -0.0845,-0.21107 -0.14716,-0.14837 -0.15985,0.15985 -0.0115,0.27892 0.051,0.43519 0.13896,0.34727 0.0879,-0.0879 0.0973,-0.31613 0.0209,-0.50712 z m -5.17408,-8.335556 c 0.24674,-0.304181 0.25713,-0.38398 0.0324,-0.248969 -0.24025,0.14434 -0.33073,-0.06318 -0.33073,-0.758576 0,-0.656214 0.0961,-0.897899 0.30547,-0.768484 0.19077,0.117905 0.23358,0.07248 0.11401,-0.120993 -0.1053,-0.170379 -0.32253,-0.228775 -0.48272,-0.129768 -0.18143,0.112125 -0.23349,0.02944 -0.13806,-0.219242 0.13086,-0.341014 -0.32902,-0.407714 -3.15264,-0.457257 -1.81822,-0.0319 -3.4938,-0.130127 -3.72352,-0.21828 -0.25569,-0.09812 -0.35067,-0.05185 -0.2449,0.11929 0.095,0.153762 -0.005,0.426699 -0.22118,0.606527 -0.2391,0.198438 -0.39396,0.782236 -0.39396,1.485187 v 1.158229 h 3.93636 c 3.37799,0 3.98786,-0.0635 4.29947,-0.447664 z m -3.53248,-3.184244 c -0.54186,-0.05685 -1.49436,-0.05764 -2.11667,-0.0017 -0.62231,0.05589 -0.17897,0.102408 0.9852,0.103369 1.16416,9.61e-4 1.67333,-0.04477 1.13147,-0.101622 z"
         id="path138" /><path
         style="fill:#1b252e"
         d="m 106.91091,117.66443 c 0.19099,-0.0764 0.4192,-0.067 0.50711,0.0209 0.0879,0.0879 -0.0683,0.15045 -0.34726,0.13896 -0.30823,-0.0127 -0.37092,-0.0754 -0.15985,-0.15985 z m 5.01754,-0.0133 c 0.62231,-0.0559 1.57481,-0.0551 2.11666,0.002 0.54186,0.0568 0.0327,0.10258 -1.13147,0.10162 -1.16417,-9.6e-4 -1.6075,-0.0475 -0.98519,-0.10337 z m -6.93706,-0.31042 c -0.0815,-0.13195 0.09,-0.17759 0.38126,-0.10143 0.6178,0.16156 0.69589,0.34134 0.14827,0.34134 -0.20969,0 -0.44798,-0.10796 -0.52953,-0.23991 z m 13.94476,0.0569 c 0.26575,-0.0693 0.38973,-0.25524 0.28831,-0.43233 -0.0979,-0.17089 -0.0837,-0.2256 0.0316,-0.12157 0.31544,0.28476 1.197,-0.27883 1.46099,-0.93403 0.16821,-0.41748 0.23755,-0.45595 0.24966,-0.13852 0.0208,0.54456 -1.45258,1.82046 -2.05405,1.77877 -0.3888,-0.027 -0.38594,-0.0455 0.0235,-0.15232 z m -15.01143,-1.0342 c -0.36816,-0.56189 -0.39194,-0.96804 -0.16557,-2.8283 l 0.26433,-2.1722 -0.11561,2.05052 c -0.0636,1.12779 -0.0278,2.05426 0.0795,2.05884 0.10728,0.005 0.40028,0.29069 0.6511,0.63583 0.37623,0.51768 0.3913,0.65236 0.0861,0.76946 -0.21096,0.081 -0.55467,-0.13999 -0.79983,-0.51415 z m 0.65455,0.059 c 0,-0.0549 -0.20836,-0.2633 -0.46303,-0.46302 -0.41964,-0.32911 -0.429,-0.31975 -0.0999,0.0999 0.34564,0.44073 0.56292,0.58089 0.56292,0.36313 z m 15.94172,-2.41365 c 0.003,-0.58208 0.0571,-0.78905 0.12041,-0.45993 0.0633,0.32912 0.0609,0.80537 -0.005,1.05833 -0.0662,0.25297 -0.11801,-0.0163 -0.11507,-0.5984 z m 0.54443,-0.52916 c 10e-4,-0.87313 0.0509,-1.19842 0.10976,-0.72287 0.0589,0.47555 0.0577,1.18992 -0.003,1.5875 -0.0604,0.39758 -0.10855,0.008 -0.10706,-0.86463 z m -17.94551,-3.41592 c -0.10375,-1.66047 -0.0971,-3.16714 0.0148,-3.34817 0.13125,-0.21237 0.0951,-0.26216 -0.10204,-0.14035 -0.22083,0.13648 -0.29446,-0.31041 -0.26573,-1.61276 0.0369,-1.67282 0.0521,-1.71648 0.21269,-0.61093 0.15714,1.08178 0.18467,1.11807 0.3011,0.39688 0.0705,-0.43657 0.13276,1.26007 0.1384,3.77031 0.006,2.51023 -0.0169,4.56406 -0.0502,4.56406 -0.0332,0 -0.1453,-1.35857 -0.24905,-3.01904 z m 17.65052,1.03467 c 0.005,-0.43657 0.0647,-0.58313 0.13177,-0.3257 0.0671,0.25743 0.0627,0.61462 -0.01,0.79375 -0.0725,0.17913 -0.12736,-0.0315 -0.12197,-0.46805 z m 0.50518,-0.1323 c -0.2453,-3.34984 -0.26421,-4.56586 -0.0638,-4.10104 0.14212,0.32956 0.1991,-0.46886 0.15105,-2.11666 l -0.0772,-2.64584 0.27539,2.29073 c 0.18396,1.53021 0.19032,3.11136 0.0192,4.7625 -0.14094,1.35948 -0.27804,2.17412 -0.30468,1.81031 z m -17.7031,-1.71979 c 0.005,-0.43656 0.0647,-0.58312 0.13178,-0.32569 0.0671,0.25743 0.0627,0.61462 -0.01,0.79375 -0.0725,0.17913 -0.12736,-0.0315 -0.12197,-0.46806 z m 18.28035,-6.61458 c 0.002,-0.7276 0.0534,-0.99386 0.11418,-0.59167 0.0608,0.40218 0.0592,0.99749 -0.004,1.32291 -0.0628,0.32542 -0.11256,-0.004 -0.11057,-0.73124 z m -18.78903,-0.66146 c 0,-0.65484 0.0516,-0.92273 0.11466,-0.59531 0.0631,0.32742 0.0631,0.8632 0,1.19062 -0.0631,0.32743 -0.11466,0.0595 -0.11466,-0.59531 z m -0.52917,-1.05833 c 0,-0.65485 0.0516,-0.922737 0.11466,-0.59531 0.0631,0.32742 0.0631,0.8632 0,1.19062 -0.0631,0.32742 -0.11466,0.0595 -0.11466,-0.59531 z m 19.43679,-1.514005 c -0.0792,-0.986239 -0.047,-1.853109 0.0716,-1.926377 0.11855,-0.07327 0.27461,-0.490016 0.34681,-0.926105 0.0722,-0.43609 0.0687,0.397735 -0.008,1.852943 -0.0765,1.455208 -0.16775,2.678874 -0.20288,2.719264 -0.0351,0.0404 -0.12864,-0.73349 -0.2078,-1.719725 z m -0.39747,0.720255 c 0,-0.509325 0.0544,-0.717684 0.121,-0.463023 0.0665,0.254661 0.0665,0.671383 0,0.926043 -0.0666,0.25466 -0.121,0.0463 -0.121,-0.46302 z M 102.2827,97.736838 c 0,-0.945886 0.048,-1.332839 0.10671,-0.859896 0.0587,0.472943 0.0587,1.246849 0,1.719792 -0.0587,0.472942 -0.10671,0.08599 -0.10671,-0.859896 z m 0.46537,1.168576 c 0.0127,-0.308224 0.0754,-0.370919 0.15985,-0.159852 0.0764,0.190996 0.067,0.419199 -0.0209,0.507118 -0.0879,0.08792 -0.15045,-0.06835 -0.13896,-0.347266 z m 19.05,-2.116667 c 0.0127,-0.308224 0.0754,-0.370919 0.15985,-0.159852 0.0764,0.190996 0.067,0.419199 -0.0209,0.507118 -0.0879,0.08792 -0.15046,-0.06835 -0.13897,-0.347266 z m -21.18755,-1.22022 c 0,-0.101367 1.5877,-0.220512 3.52823,-0.264767 2.47074,-0.05635 3.52809,0.0081 3.52777,0.215132 -3.1e-4,0.20448 -1.08786,0.286093 -3.52823,0.264767 -1.94027,-0.01695 -3.52777,-0.113765 -3.52777,-0.215132 z m 10.05416,0.03614 c -2.44879,-0.143986 -2.41869,-0.149097 1.16858,-0.198438 2.02516,-0.02786 3.63251,-0.0075 3.57187,0.04524 -0.25512,0.221908 -2.39546,0.291076 -4.74045,0.153195 z m 6.44978,-0.03711 c -0.072,-0.116586 1.48336,-0.211974 3.45648,-0.211974 1.97312,0 3.58737,0.0893 3.58721,0.198437 -3.8e-4,0.268341 -6.87804,0.281558 -7.04369,0.01354 z m -0.32394,-1.270308 c -0.0385,-0.734787 -0.10693,-0.844075 -0.33133,-0.529166 -0.21491,0.301582 -0.24665,0.18725 -0.13223,-0.476174 0.0957,-0.554728 0.0532,-0.812848 -0.11657,-0.707938 -0.14693,0.09081 -0.23444,0.02678 -0.19445,-0.142281 0.0804,-0.339775 -7.17055,-0.476126 -7.70646,-0.144917 -0.16048,0.09918 -0.24776,0.619629 -0.19397,1.15655 0.0538,0.53692 0.0366,0.678562 -0.0382,0.31476 l -0.13599,-0.661459 -0.22225,0.661459 c -0.17849,0.531201 -0.19575,0.479796 -0.0876,-0.26104 0.22993,-1.575677 0.45374,-1.655185 4.65913,-1.655185 3.71754,0 3.80132,0.01272 4.27657,0.649263 0.33753,0.452081 0.45242,0.964034 0.37832,1.685716 l -0.10643,1.036454 z m -8.50709,-1.422811 c 0,-0.05494 0.20836,-0.263302 0.46302,-0.463021 0.41965,-0.329108 0.42901,-0.319749 0.0999,0.0999 -0.34565,0.440729 -0.56292,0.580887 -0.56292,0.363126 z"
         id="path137" /><path
         style="fill:#040910"
         d="m 104.97801,117.31904 c -0.0927,-0.14999 0.0135,-0.19434 0.24897,-0.10399 0.45837,0.17589 0.54224,0.36554 0.16165,0.36554 -0.13693,0 -0.32171,-0.1177 -0.41062,-0.26155 z m 15.23442,-0.69577 c 0.35129,-0.45377 0.69193,-0.77758 0.75697,-0.71959 0.0651,0.058 -0.22237,0.42926 -0.63871,0.82503 l -0.75696,0.71959 z m -16.58989,-0.74702 c -0.0805,-0.20978 -0.0997,-0.59673 -0.0427,-0.85989 0.0647,-0.29877 0.15527,-0.15552 0.24114,0.38142 0.14409,0.90104 0.0504,1.12691 -0.1984,0.47847 z m 17.42762,-2.3967 c 0.003,-0.58209 0.0571,-0.78906 0.1204,-0.45994 0.0633,0.32912 0.0609,0.80537 -0.005,1.05833 -0.0662,0.25297 -0.118,-0.0163 -0.11506,-0.59839 z m -17.74223,-1.5875 c 0.005,-0.43657 0.0647,-0.58313 0.13177,-0.3257 0.0671,0.25743 0.0627,0.61462 -0.01,0.79375 -0.0725,0.17913 -0.12736,-0.0315 -0.12197,-0.46805 z m 18.01215,-1.7198 c 0,-0.65484 0.0516,-0.92273 0.11466,-0.59531 0.0631,0.32742 0.0631,0.86321 0,1.19063 -0.0631,0.32742 -0.11466,0.0595 -0.11466,-0.59532 z m -18.25264,-1.4552 c 0.002,-0.72761 0.0534,-0.99386 0.11419,-0.59168 0.0608,0.40219 0.0592,0.9975 -0.004,1.32292 -0.0628,0.32542 -0.11256,-0.004 -0.11057,-0.73124 z m 18.52985,-1.7198 c 0,-0.94588 0.048,-1.33283 0.10671,-0.85989 0.0587,0.47294 0.0587,1.24685 0,1.71979 -0.0587,0.47294 -0.10671,0.086 -0.10671,-0.8599 z m -18.78542,-1.85208 c 0,-0.94588 0.048,-1.33284 0.10671,-0.85989 0.0587,0.47294 0.0587,1.24684 0,1.71979 -0.0587,0.47294 -0.10671,0.086 -0.10671,-0.8599 z m 19.01689,-2.24896 c 0.005,-0.43656 0.0647,-0.58312 0.13178,-0.32569 0.0671,0.25743 0.0627,0.61462 -0.01,0.79375 -0.0725,0.17913 -0.12736,-0.0315 -0.12197,-0.46806 z m -19.31458,-1.85208 c 0.005,-0.43656 0.0647,-0.58313 0.13177,-0.32569 0.0671,0.25743 0.0627,0.61461 -0.01,0.79375 -0.0725,0.17913 -0.12736,-0.0315 -0.12197,-0.46806 z m 19.60326,-1.322917 c 0.002,-0.727604 0.0534,-0.993858 0.11419,-0.591675 0.0608,0.402183 0.0592,0.997492 -0.004,1.322912 -0.0628,0.32543 -0.11256,-0.004 -0.11057,-0.731237 z M 102.2773,98.001421 c 0,-0.800365 0.0496,-1.127786 0.11022,-0.727604 0.0606,0.400182 0.0606,1.055026 0,1.455208 -0.0606,0.400183 -0.11022,0.07276 -0.11022,-0.727604 z m 20.09577,-0.926042 c 0.003,-0.582083 0.0571,-0.789054 0.12041,-0.459936 0.0633,0.329119 0.0609,0.805369 -0.005,1.058334 -0.0662,0.252965 -0.118,-0.01631 -0.11507,-0.598398 z M 103.85166,95.42743 c 0.5457,-0.05708 1.43867,-0.05708 1.98438,0 0.5457,0.05708 0.0992,0.103786 -0.99219,0.103786 -1.09141,0 -1.53789,-0.0467 -0.99219,-0.103786 z m 14.55209,0 c 0.5457,-0.05708 1.43867,-0.05708 1.98437,0 0.5457,0.05708 0.0992,0.103786 -0.99219,0.103786 -1.0914,0 -1.53789,-0.0467 -0.99218,-0.103786 z m -1.63276,-0.755349 c 0.0127,-0.308225 0.0754,-0.37092 0.15985,-0.159853 0.0764,0.190996 0.067,0.419199 -0.0209,0.507118 -0.0879,0.08792 -0.15045,-0.06835 -0.13896,-0.347265 z m 0.0209,-1.168577 c 0,-0.363802 0.06,-0.51263 0.13345,-0.330729 0.0734,0.181901 0.0734,0.479557 0,0.661458 -0.0734,0.181901 -0.13345,0.03307 -0.13345,-0.330729 z m -9.03761,-0.762197 c 0,-0.258011 1.02874,-1.220615 1.13947,-1.066216 0.0429,0.05974 -0.19601,0.372258 -0.53079,0.69448 -0.33478,0.322221 -0.60868,0.489503 -0.60868,0.371736 z m 8.23891,-0.569522 c -0.34354,-0.2862 -0.51082,-0.520364 -0.37173,-0.520364 0.13909,0 0.46839,0.238125 0.73177,0.529166 0.60507,0.668596 0.44849,0.664767 -0.36004,-0.0088 z"
         id="path136" /></g></g></svg>
