<?xml version="1.0" encoding="UTF-8"?>
<svg id="Capa_1" data-name="Capa 1" xmlns="http://www.w3.org/2000/svg" viewBox="0 0 157.12 156.88">
  <defs>
    <style>
      .cls-1 {
        fill: #e94171;
      }

      .cls-2 {
        fill: #ee7798;
      }

      .cls-3 {
        fill: #ccb581;
      }

      .cls-4 {
        fill: #816033;
      }

      .cls-5 {
        fill: #f3dc9a;
      }

      .cls-6 {
        fill: #f8cb11;
      }

      .cls-7 {
        fill: #ca516e;
      }

      .cls-8 {
        fill: #b13256;
      }

      .cls-9 {
        fill: #b5954e;
      }

      .cls-10 {
        fill: #c19b17;
      }

      .cls-11 {
        fill: #f8eac2;
      }

      .cls-12 {
        fill: #010202;
      }

      .cls-13 {
        fill: #f9cb11;
      }

      .cls-14 {
        fill: #cba46b;
      }

      .cls-15 {
        fill: #fadb66;
      }
    </style>
  </defs>
  <path class="cls-12" d="M56.41,143.36l-23.3,6.84-21.41,6.25c-2.81.82-5.66.53-7.91-1.41-1.91-1.64-3.55-4.59-2.77-7.42l13.48-49.14c.36-1.32,1.44-2.11,2.37-3.03l37.07-37.13L105.1,7.09c4.99-5,11.51-7.73,18.69-6.96,4.41.47,8.63,2.05,12.01,5.01l3.48,3.34,11.75,11.93c4.05,4.58,5.81,11.01,5.14,17.06-.53,4.8-2.39,9.57-5.8,12.98l-84.61,84.63-6.71,6.77c-.75.76-1.5,1.18-2.64,1.51Z"/>
  <g>
    <g>
      <path class="cls-5" d="M28.37,106.96l15.48,6.04,5.18,15.36c-.51.61-1.47,1.22-2.23,1.69-5.87,3.64-12.15,6.28-18.75,7.99l-.36-.29c-2.29-4-5.81-7.06-10.01-9-.22-.16-.31-.24-.38-.48-.15-.5,2.34-7.59,2.73-8.61,1.25-3.17,2.86-6.55,4.48-9.59.61-1.14,1.44-2.65,2.4-3.41.49.15.97.25,1.45.29Z"/>
      <path class="cls-14" d="M49.02,128.37l3.21,9.4-22.13,6.58c-.5-2.34-1.22-4.51-2.41-6.59l3.06-.88c3.28-1.01,6.37-2.12,9.46-3.6,2.75-1.32,5.36-2.68,7.79-4.53.32-.24.61-.41,1.03-.37Z"/>
      <path class="cls-11" d="M28.37,106.96c-.28.45-1.2-.5-1.75.4l-1.58,2.58c-.95,1.55-1.69,3.11-2.42,4.77l-2.24,5.09-2.33,6.82c-.25.74-.43,1.41-.38,2.13-1.44-.67-2.84-1.06-4.35-1.49l6.47-23.71,8.57,3.41Z"/>
    </g>
    <g>
      <g>
        <path class="cls-9" d="M124.37,54.03l.25.47-8.21,8.22-.48-.23-28.55-28.5,8.45-8.46,35.28,35.22-8.45,8.46-29.31-29.26-.11-.4c2.86-2.58,5.65-5.25,8.37-7.99l.43.17,22.33,22.29Z"/>
        <path class="cls-4" d="M115.93,62.49c.32-.07.53-.22.78-.47l7.26-7.3c.22-.22.35-.38.4-.7l6.73,6.72-8.45,8.46-6.73-6.72Z"/>
        <path class="cls-3" d="M102.04,31.73c-.45.27-.73.59-1.08.93l-6.06,6.04-1.55,1.25-5.98-5.97,8.45-8.46,6.22,6.21Z"/>
      </g>
      <g>
        <path class="cls-13" d="M111.71,67l.14.4-55.77,55.74c-.64.76-1.21.98-1.7.66l-4.17-12.42c.25-.65.7-.87,1.12-1.3l15.58-15.62,8.61-8.63,3.56-3.51,23.93-23.94,8.7,8.63Z"/>
        <path class="cls-10" d="M54.39,123.8c.51-.18.96-.46,1.43-.93l55.89-55.86,6.54,6.52-45.58,45.56-1.2,1.14-5.09,5.12-1.34,1.34-7.24,7.31-3.42-10.18Z"/>
        <g>
          <path class="cls-6" d="M95.55,51.1c1.08.76,2.05,1.71,2.94,2.79l-17.44,17.36c-1.19,1.19-2.29,2.22-3.43,3.4l-1.77,1.83c-1.01,1.04-2.02,1.99-3.05,3.01l-3.5,3.48-2.59,2.56-3.1,3.13-3.41,3.4-6.04,6.08-2.95,2.92-5.65,5.6-12.79-4.99c.34.04.11-.15-.68-.58l.2-.48,54.28-54.27c.67-.73,1.42-1.3,2.25-1.71,2.24,2.16,4.48,4.32,6.73,6.46Z"/>
          <path class="cls-15" d="M95.55,51.1c-.2-.14-.48-.15-.75-.43l-5.27-5.32c-.2-.2-.32-.35-.55-.36-.19-.01-.42.1-.6.26l-1.45,1.27-54.41,54.4c-.23.23.1.61.44.47.46.13.1.5-.19.29l-9.44-3.64,59.6-59.65,12.61,12.7Z"/>
        </g>
      </g>
      <g>
        <path class="cls-1" d="M141.79,20.26c.48.13.79.74,1.12,1.07.99,1.29,1.16,2.93,1.27,4.51.4,5.73-1.78,9.81-5.09,14.26l-9.01,9.06c-.32.32-.59.44-.88.02l-.24.03c-8.77-8.71-17.41-17.38-25.92-26.02l.06-.35c.02-.16.05-.32.1-.47s.1-.29.2-.39c5.25-5.64,10.04-9.58,18.03-10.17s14.63,3.45,20.36,8.45Z"/>
        <path class="cls-8" d="M128.85,49.44c-.11-.48-.08-.5.35-.25.31-.03.5-.17.76-.43l8.86-8.91c4.49-5.45,6.3-11.79,4.1-18.52l3.09,3.13c2.58,3.14,3.86,6.83,3.77,10.93-.08,3.75-1.12,7.56-3.81,10.3l-10.34,10.55-3.63-3.72-2.06-2.11c-.46-.27-.76-.65-1.07-.97Z"/>
        <path class="cls-2" d="M141.79,20.26c-.48-.13-.82-.39-1.26-.72l-4.72-3.45c-4.05-2.63-8.69-4.14-13.55-3.95s-9.06,1.73-12.8,4.6c-2.38,1.82-4.36,4.01-6.36,6.1.26.48.2.75-.36.48l-2.33-2.32,11.03-10.83c5.71-5.04,14.67-4.96,20.35.08l9.99,10Z"/>
        <path class="cls-7" d="M129.2,49.18c-.07.06-.18.19-.35.25l-26.11-26.11c.24-.08.27-.39.36-.48.35.2.35.67.64.92l1.09.94c.43.8,1.13,1.15,1.69,1.74.71.75,1.24,1.48,2.14,2.07.23.15.68.58.84.82.86,1.29,2.05,2.09,3.1,3.17.5.51.92.9,1.42,1.41l1.78,1.81c.41.41.69.65,1.08,1.05l2.15,2.2c1.35,1.38,2.66,2.71,4.04,4.07,1.83,1.8,3.74,3.43,5.36,5.44.22.27.71.38.76.71Z"/>
      </g>
    </g>
  </g>
</svg>