<?xml version="1.0" encoding="UTF-8" standalone="no"?>
<!-- Created with Inkscape (http://www.inkscape.org/) -->

<svg
   width="26.82564mm"
   height="27.108885mm"
   viewBox="0 0 26.82564 27.108885"
   version="1.1"
   id="svg1"
   xml:space="preserve"
   xmlns="http://www.w3.org/2000/svg"
   xmlns:svg="http://www.w3.org/2000/svg"><defs
     id="defs1" /><g
     id="layer1"
     transform="translate(-49.724216,-91.400528)"><g
       id="g120"
       transform="translate(34.528125,1.7197917)"><path
         style="fill:#d2b297"
         d="m 15.94697,116.62292 c -0.32422,-0.15506 -0.657885,-0.49741 -0.741478,-0.76079 -0.08359,-0.26338 0.399867,-2.47877 1.074354,-4.9231 l 1.22634,-4.44424 7.981804,-8.021057 c 4.389993,-4.411582 8.303314,-8.191816 8.69627,-8.400521 1.204427,-0.639689 2.898037,-0.48482 4.074483,0.372584 1.674085,1.220087 3.224207,3.082114 3.53897,4.251056 0.631702,2.345961 0.509673,2.512191 -8.437891,11.494278 l -8.131631,8.163 -3.816698,1.1207 c -2.099184,0.61639 -4.054824,1.1903 -4.345865,1.27536 -0.291042,0.0851 -0.794438,0.0278 -1.118658,-0.12727 z"
         id="path135" /><path
         style="fill:#a4a6a8"
         d="m 15.48629,116.06938 c -0.369507,-0.56394 -0.315772,-0.92145 0.685981,-4.56406 0.597791,-2.17371 1.143363,-4.20355 1.212382,-4.51076 0.192851,-0.8584 16.461419,-16.963726 17.357894,-17.183722 2.023395,-0.496543 4.15791,0.639929 6.201728,3.301966 0.739703,0.963451 0.859895,1.331833 0.859895,2.635527 0,1.189186 -0.138357,1.703061 -0.642527,2.386426 -0.35339,0.478993 -4.145998,4.341893 -8.428017,8.584213 l -7.785489,7.71332 -3.941255,1.13148 c -2.16769,0.62232 -4.2064,1.12833 -4.530467,1.12448 -0.324068,-0.004 -0.769624,-0.28234 -0.990125,-0.61887 z m 4.225171,-3.62146 c -0.08994,-0.14552 -0.03743,-0.26459 0.116677,-0.26459 0.154109,0 0.280198,-0.14168 0.280198,-0.31486 0,-0.17317 0.470635,-0.74078 1.045855,-1.26134 0.653772,-0.59166 0.97099,-1.06762 0.846157,-1.26961 -0.206247,-0.33371 -3.272522,-1.6789 -3.44328,-1.51058 -0.107721,0.10619 -1.087734,3.68263 -1.011168,3.69014 0.02689,0.003 0.525144,0.26742 1.107228,0.5884 1.231456,0.67906 1.275108,0.69319 1.058333,0.34244 z m 3.087277,-1.91335 c -0.196338,-0.19634 -0.230772,-0.093 -0.115685,0.34706 0.09356,0.35777 0.213493,0.4777 0.279546,0.27954 0.06363,-0.19088 -0.01011,-0.47285 -0.163861,-0.6266 z"
         id="path134" /><path
         style="fill:#ad8a6d"
         d="m 15.608318,116.28184 c -0.404698,-0.48763 -0.263038,-1.51367 0.675448,-4.89226 0.38401,-1.38244 0.820944,-2.98979 0.970965,-3.57187 0.230851,-0.89571 1.538217,-2.32902 8.508103,-9.327746 8.629533,-8.665235 9.07725,-9.019946 10.943184,-8.669894 1.035495,0.19426 4.044829,2.84216 4.727856,4.160019 0.478496,0.92323 0.473999,2.688434 -0.0092,3.598154 -0.208704,0.392956 -3.988939,4.307737 -8.400521,8.699507 l -8.021058,7.98504 -4.009253,1.20923 c -4.393829,1.32522 -4.89524,1.40062 -5.385557,0.80982 z m 5.822935,-2.24642 c 0.352778,-0.22799 0.352778,-0.25648 0,-0.25648 -0.218281,0 -0.575469,0.11541 -0.79375,0.25648 -0.352778,0.22798 -0.352778,0.25648 0,0.25648 0.218281,0 0.575469,-0.11542 0.79375,-0.25648 z m 2.38125,-0.8246 c 0,-0.3394 -0.355148,-0.28703 -0.936586,0.13813 -0.475689,0.34783 -0.461857,0.36294 0.214013,0.23374 0.397415,-0.076 0.722573,-0.24331 0.722573,-0.37187 z m -4.064431,-0.63061 c -0.08376,-0.21828 -0.03697,-0.39688 0.103985,-0.39688 0.140953,0 0.256279,-0.12426 0.256279,-0.27613 0,-0.28385 0.833564,-1.2015 1.65362,-1.82043 0.411306,-0.31043 0.5077,-0.24244 0.863446,0.60898 0.58172,1.39225 0.729347,1.17593 0.189587,-0.2778 -0.431711,-1.16273 -0.568055,-1.28091 -2.293508,-1.98807 -1.008981,-0.41352 -1.913718,-0.66089 -2.010528,-0.54972 -0.157089,0.18039 -1.04845,3.20083 -1.04845,3.55274 0,0.0775 0.47625,0.35566 1.058333,0.61814 0.582083,0.26248 1.058333,0.57822 1.058333,0.70164 0,0.12342 0.07227,0.2244 0.1606,0.2244 0.08833,0 0.09207,-0.17859 0.0083,-0.39687 z m 17.504522,-18.202111 1.650845,-1.665651 -0.732447,-0.698767 c -0.910675,-0.8688 -2.035721,-1.309813 -2.831733,-1.110027 -0.334045,0.08384 -1.124728,0.679601 -1.757073,1.323914 l -1.149719,1.171478 1.302468,1.322352 c 0.716357,0.727293 1.429446,1.322351 1.584641,1.322351 0.155195,0 1.025053,-0.749542 1.933018,-1.66565 z"
         id="path133" /><path
         style="fill:#99836e"
         d="m 15.608318,116.28184 c -0.404698,-0.48763 -0.263038,-1.51367 0.675448,-4.89226 0.38401,-1.38244 0.820944,-2.98979 0.970965,-3.57187 0.230851,-0.89571 1.538217,-2.32902 8.508103,-9.327746 8.629533,-8.665235 9.07725,-9.019946 10.943184,-8.669894 1.035495,0.19426 4.044829,2.84216 4.727856,4.160019 0.478496,0.92323 0.473999,2.688434 -0.0092,3.598154 -0.208704,0.392956 -3.988939,4.307737 -8.400521,8.699507 l -8.021058,7.98504 -4.009253,1.20923 c -4.393829,1.32522 -4.89524,1.40062 -5.385557,0.80982 z m 6.662007,-2.41261 c 1.744108,-0.48937 1.740033,-0.46895 0.649409,-3.25493 -0.544597,-1.39116 -0.620658,-1.46053 -2.397601,-2.1865 -1.009339,-0.41237 -1.922847,-0.65881 -2.030018,-0.54764 -0.214577,0.22259 -1.108108,3.53354 -0.978295,3.62504 0.04454,0.0314 0.530345,0.32737 1.079576,0.65773 0.549232,0.33036 1.177367,0.94635 1.395858,1.36886 0.46671,0.90252 0.336034,0.88319 2.281071,0.33744 z m -0.113339,-7.04037 c 0.03505,-0.46525 -0.0087,-0.50773 -0.204227,-0.19844 -0.206104,0.32598 -0.249515,0.32919 -0.252871,0.0187 -0.0022,-0.20615 -0.06639,-0.31249 -0.142571,-0.2363 -0.175414,0.17541 0.134416,1.008 0.375105,1.008 0.09899,0 0.200038,-0.26639 0.224564,-0.59197 z m -1.387192,-0.73094 c -0.08994,-0.14552 -0.275557,-0.26459 -0.412489,-0.26459 -0.136933,0 -0.248969,0.11907 -0.248969,0.26459 0,0.14552 0.185621,0.26458 0.41249,0.26458 0.226869,0 0.338905,-0.11906 0.248968,-0.26458 z m 5.864931,-4.8948 c 0,-0.21828 -0.09922,-0.39687 -0.220486,-0.39687 -0.264243,0 -0.290724,0.37073 -0.0441,0.61736 0.245247,0.24525 0.264583,0.22913 0.264583,-0.22049 z m 3.775086,-1.566679 c 0.256091,-0.308571 0.214422,-0.350516 -0.232187,-0.233725 -0.299358,0.07828 -0.544287,0.24751 -0.544287,0.376059 0,0.356875 0.42715,0.278575 0.776474,-0.142334 z m 2.398526,-2.386452 c 0,-0.06417 -0.119063,-0.190261 -0.264584,-0.280198 -0.145521,-0.08994 -0.264583,-0.03743 -0.264583,0.116677 0,0.154109 0.119062,0.280198 0.264583,0.280198 0.145521,0 0.264584,-0.0525 0.264584,-0.116677 z m 4.444257,-2.87189 1.650845,-1.665651 -0.732447,-0.698767 c -0.910675,-0.8688 -2.035721,-1.309813 -2.831733,-1.110027 -0.334045,0.08384 -1.124728,0.679601 -1.757073,1.323914 l -1.149719,1.171478 1.302468,1.322352 c 0.716357,0.727293 1.429446,1.322351 1.584641,1.322351 0.155195,0 1.025053,-0.749542 1.933018,-1.66565 z"
         id="path132" /><path
         style="fill:#77818a"
         d="m 15.608318,116.28184 c -0.404698,-0.48763 -0.263038,-1.51367 0.675448,-4.89226 0.38401,-1.38244 0.820944,-2.98979 0.970965,-3.57187 0.230851,-0.89571 1.538217,-2.32902 8.508103,-9.327746 8.629533,-8.665235 9.07725,-9.019946 10.943184,-8.669894 1.035495,0.19426 4.044829,2.84216 4.727856,4.160019 0.478496,0.92323 0.473999,2.688434 -0.0092,3.598154 -0.208704,0.392956 -3.988939,4.307737 -8.400521,8.699507 l -8.021058,7.98504 -4.009253,1.20923 c -4.393829,1.32522 -4.89524,1.40062 -5.385557,0.80982 z m 8.150486,-2.89828 c 0.255713,-0.25571 -0.976452,-3.74051 -1.47055,-4.15899 -0.502798,-0.42586 -3.120787,-1.53915 -3.619407,-1.53915 -0.283213,0 -1.40943,3.63292 -1.17508,3.79055 0.05557,0.0374 0.537471,0.35607 1.070903,0.70821 0.533431,0.35215 1.152278,1.02277 1.375214,1.49027 l 0.40534,0.85001 1.629806,-0.49347 c 0.896394,-0.2714 1.699092,-0.56275 1.783774,-0.64743 z m -0.236633,-6.24181 c 0.379347,-0.58937 0.379196,-0.61772 -0.0017,-0.31852 -0.500393,0.39306 -0.877512,0.12437 -0.486575,-0.34668 0.174423,-0.21017 0.181464,-0.38942 0.01923,-0.48968 -0.140746,-0.087 -0.335831,0.20576 -0.433522,0.65055 -0.133692,0.60869 -0.259553,0.74071 -0.508895,0.53377 -0.1822,-0.15121 -0.428704,-0.18667 -0.547786,-0.0788 -0.119082,0.10788 -0.129666,0.0454 -0.02352,-0.1389 0.106147,-0.18428 0.303829,-0.26655 0.439295,-0.18283 0.135465,0.0837 0.246301,-0.0334 0.246301,-0.26026 0,-0.45694 -0.66901,-0.5638 -0.926042,-0.14791 -0.08994,0.14552 -0.29401,0.26458 -0.453497,0.26458 -0.159486,0 -0.07849,-0.23369 0.179996,-0.51931 0.258484,-0.28562 0.405304,-0.68783 0.326266,-0.8938 -0.07904,-0.20597 -0.0044,-0.53783 0.165877,-0.73746 0.17027,-0.19963 -0.253256,0.16539 -0.94117,0.81115 -0.687914,0.64577 -1.210017,1.21486 -1.160229,1.26465 0.213328,0.21333 3.227577,1.34322 3.447614,1.29234 0.133066,-0.0308 0.429326,-0.34707 0.658353,-0.7029 z m 3.197931,-3.10045 c 0.01022,-0.26207 -1.397276,0.91476 -1.634321,1.36648 -0.188617,0.35944 0.04946,0.22848 0.669385,-0.3682 0.529166,-0.50932 0.963387,-0.95855 0.964936,-0.99828 z m -4.018849,-0.37755 c 0.246944,-0.24694 0.31937,-0.23225 0.325915,0.0662 0.0063,0.28755 0.101161,0.26123 0.378702,-0.1051 0.203658,-0.2688 0.298701,-0.67529 0.211206,-0.9033 -0.104986,-0.27358 -0.05382,-0.3495 0.150464,-0.22325 0.17025,0.10522 0.309546,0.0652 0.309546,-0.0889 0,-0.1541 -0.104484,-0.28019 -0.232186,-0.28019 -0.37371,0 -0.839574,0.69025 -0.625414,0.92666 0.107878,0.11908 0.06323,0.1407 -0.09923,0.048 -0.162452,-0.0927 -0.508327,0.0668 -0.768611,0.35445 -0.503495,0.55636 -0.187187,0.74222 0.349605,0.20543 z m 6.934212,-2.52128 c 1.381277,-1.41581 2.258424,-2.363343 1.949216,-2.10563 -0.309209,0.257713 -0.666396,0.449503 -0.79375,0.426199 -0.578941,-0.105937 -1.157594,0.04538 -1.157594,0.302707 0,0.172023 0.232696,0.209144 0.595312,0.09497 0.399825,-0.125893 0.07377,0.324384 -0.992908,1.371234 -1.564376,1.53527 -2.409747,2.48472 -2.212361,2.48472 0.05537,0 1.230807,-1.15839 2.612085,-2.5742 z m -4.19703,-0.27007 c 0.701199,-1.111039 0.546933,-1.086527 -0.581842,0.0924 -0.65002,0.67893 -0.77529,0.9258 -0.436328,0.85989 0.261508,-0.0509 0.719685,-0.4794 1.01817,-0.95234 z m 1.549068,0.7276 c 0,-0.14552 -0.126089,-0.26458 -0.280198,-0.26458 -0.154109,0 -0.206614,-0.11907 -0.116677,-0.26459 0.08994,-0.14552 0.03743,-0.26458 -0.116677,-0.26458 -0.324544,0 -0.337835,0.0711 -0.119599,0.63982 0.177141,0.46162 0.633151,0.57249 0.633151,0.15393 z m 2.249866,-2.336246 c -0.08134,-0.08134 -0.412482,0.127732 -0.735861,0.464612 l -0.587963,0.612514 0.735861,-0.464615 c 0.404724,-0.255537 0.669307,-0.531166 0.587963,-0.612511 z m -2.345546,0.08729 c 0.08376,-0.218281 0.274419,-0.396875 0.423682,-0.396875 0.149263,0 0.493712,-0.256342 0.765443,-0.56965 0.27173,-0.313308 0.494055,-0.432371 0.494055,-0.264584 0,0.167787 0.131801,0.305068 0.292891,0.305068 0.161788,0 0.21896,-0.19266 0.127727,-0.430411 -0.09084,-0.236726 -0.02708,-0.59679 0.141687,-0.800144 0.168769,-0.203353 0.250549,-0.426036 0.181735,-0.49485 -0.06881,-0.06881 -0.810962,0.588907 -1.649218,1.461602 -0.838256,0.872696 -1.390496,1.586719 -1.2272,1.586719 0.163297,0 0.365435,-0.178593 0.449198,-0.396875 z m 6.232765,-1.637001 c 0.408145,-0.391028 0.742082,-0.830591 0.742082,-0.976807 0,-0.330412 -2.066943,-2.280984 -2.417068,-2.280984 -0.140816,0 0.02191,0.267891 0.361611,0.595313 1.255335,1.209954 2.016663,3.006455 0.871226,2.055827 -0.483803,-0.40152 -0.541997,0.0052 -0.07254,0.506939 0.270817,0.289458 0.226473,0.328434 -0.244788,0.215155 -0.416094,-0.100019 -0.536513,-0.0367 -0.434713,0.228588 0.196105,0.511042 0.347086,0.467546 1.19419,-0.344031 z m 4.128006,-3.335941 1.650845,-1.665651 -0.732447,-0.698767 c -0.910675,-0.8688 -2.035721,-1.309813 -2.831733,-1.110027 -0.334045,0.08384 -1.124728,0.679601 -1.757073,1.323914 l -1.149719,1.171478 1.302468,1.322352 c 0.716357,0.727293 1.429446,1.322351 1.584641,1.322351 0.155195,0 1.025053,-0.749542 1.933018,-1.66565 z"
         id="path131" /><path
         style="fill:#957b65"
         d="m 15.735061,116.23893 c -0.55731,-0.55731 -0.459696,-1.19792 0.918602,-6.0285 l 1.053629,-3.69269 8.145835,-8.153929 c 9.025371,-9.034343 9.141243,-9.119643 11.279084,-8.303194 1.599421,0.610824 4.301871,3.431888 4.548874,4.748529 0.438311,2.336398 0.463684,2.302554 -8.387281,11.187444 l -8.201613,8.23304 -2.954948,0.85895 c -1.625222,0.47243 -3.482174,1.02404 -4.12656,1.22581 -1.499318,0.46947 -1.738623,0.46154 -2.275622,-0.0755 z m 8.025012,-2.85664 c 0.08538,-0.0854 -0.139533,-1.06372 -0.499807,-2.1741 l -0.655043,-2.01887 -2.05769,-0.8655 c -1.396019,-0.58719 -2.090771,-0.76518 -2.160567,-0.55351 -0.348539,1.05697 -0.923346,3.23055 -0.917347,3.46886 0.0039,0.15549 0.464938,0.56491 1.024498,0.90983 0.559559,0.34491 1.204969,1.02049 1.434244,1.50129 l 0.416863,0.87417 1.629806,-0.49347 c 0.896394,-0.2714 1.699663,-0.56332 1.785043,-0.6487 z m -0.237902,-6.24054 c 0.379347,-0.58937 0.379196,-0.61772 -0.0017,-0.31852 -0.500393,0.39306 -0.877512,0.12437 -0.486575,-0.34668 0.174423,-0.21017 0.181464,-0.38942 0.01923,-0.48968 -0.140746,-0.087 -0.335831,0.20576 -0.433522,0.65055 -0.133692,0.60869 -0.259553,0.74071 -0.508895,0.53377 -0.1822,-0.15121 -0.428704,-0.18667 -0.547786,-0.0788 -0.119082,0.10788 -0.129666,0.0454 -0.02352,-0.1389 0.106147,-0.18428 0.303829,-0.26655 0.439295,-0.18283 0.135465,0.0837 0.246301,-0.0334 0.246301,-0.26026 0,-0.45694 -0.66901,-0.5638 -0.926042,-0.14791 -0.08994,0.14552 -0.29401,0.26458 -0.453497,0.26458 -0.159486,0 -0.07849,-0.23369 0.179996,-0.51931 0.258484,-0.28562 0.405304,-0.68783 0.326266,-0.8938 -0.07904,-0.20597 -0.0044,-0.53783 0.165877,-0.73746 0.17027,-0.19963 -0.253256,0.16539 -0.94117,0.81115 -0.687914,0.64577 -1.210017,1.21486 -1.160229,1.26465 0.213328,0.21333 3.227577,1.34322 3.447614,1.29234 0.133066,-0.0308 0.429326,-0.34707 0.658353,-0.7029 z m 3.197931,-3.10045 c 0.01022,-0.26207 -1.397276,0.91476 -1.634321,1.36648 -0.188617,0.35944 0.04946,0.22848 0.669385,-0.3682 0.529166,-0.50932 0.963387,-0.95855 0.964936,-0.99828 z m -4.018849,-0.37755 c 0.246944,-0.24694 0.31937,-0.23225 0.325915,0.0662 0.0063,0.28755 0.101161,0.26123 0.378702,-0.1051 0.203658,-0.2688 0.298701,-0.67529 0.211206,-0.9033 -0.104986,-0.27358 -0.05382,-0.3495 0.150464,-0.22325 0.17025,0.10522 0.309546,0.0652 0.309546,-0.0889 0,-0.1541 -0.104484,-0.28019 -0.232186,-0.28019 -0.37371,0 -0.839574,0.69025 -0.625414,0.92666 0.107878,0.11908 0.06323,0.1407 -0.09923,0.048 -0.162452,-0.0927 -0.508327,0.0668 -0.768611,0.35445 -0.503495,0.55636 -0.187187,0.74222 0.349605,0.20543 z m 6.934212,-2.52128 c 1.381277,-1.41581 2.258424,-2.363343 1.949216,-2.10563 -0.309209,0.257713 -0.666396,0.449503 -0.79375,0.426199 -0.578941,-0.105937 -1.157594,0.04538 -1.157594,0.302707 0,0.172023 0.232696,0.209144 0.595312,0.09497 0.399825,-0.125893 0.07377,0.324384 -0.992908,1.371234 -1.564376,1.53527 -2.409747,2.48472 -2.212361,2.48472 0.05537,0 1.230807,-1.15839 2.612085,-2.5742 z m -4.19703,-0.27007 c 0.701199,-1.111039 0.546933,-1.086527 -0.581842,0.0924 -0.65002,0.67893 -0.77529,0.9258 -0.436328,0.85989 0.261508,-0.0509 0.719685,-0.4794 1.01817,-0.95234 z m 1.549068,0.7276 c 0,-0.14552 -0.126089,-0.26458 -0.280198,-0.26458 -0.154109,0 -0.206614,-0.11907 -0.116677,-0.26459 0.08994,-0.14552 0.03743,-0.26458 -0.116677,-0.26458 -0.324544,0 -0.337835,0.0711 -0.119599,0.63982 0.177141,0.46162 0.633151,0.57249 0.633151,0.15393 z m 2.249866,-2.336246 c -0.08134,-0.08134 -0.412482,0.127732 -0.735861,0.464612 l -0.587963,0.612514 0.735861,-0.464615 c 0.404724,-0.255537 0.669307,-0.531166 0.587963,-0.612511 z m -2.345546,0.08729 c 0.08376,-0.218281 0.274419,-0.396875 0.423682,-0.396875 0.149263,0 0.493712,-0.256342 0.765443,-0.56965 0.27173,-0.313308 0.494055,-0.432371 0.494055,-0.264584 0,0.167787 0.131801,0.305068 0.292891,0.305068 0.161788,0 0.21896,-0.19266 0.127727,-0.430411 -0.09084,-0.236726 -0.02708,-0.59679 0.141687,-0.800144 0.168769,-0.203353 0.250549,-0.426036 0.181735,-0.49485 -0.06881,-0.06881 -0.810962,0.588907 -1.649218,1.461602 -0.838256,0.872696 -1.390496,1.586719 -1.2272,1.586719 0.163297,0 0.365435,-0.178593 0.449198,-0.396875 z m 12.266514,-0.941656 c 0,-0.154109 -0.119063,-0.206614 -0.264583,-0.116677 -0.145521,0.08994 -0.264584,0.03743 -0.264584,-0.116677 0,-0.154109 0.219672,-0.280198 0.48816,-0.280198 0.268488,0 0.714972,-0.267891 0.992187,-0.595313 0.499736,-0.590242 0.499521,-0.591663 -0.02514,-0.166816 -0.291042,0.235673 -0.676932,0.374933 -0.857534,0.309468 -0.516661,-0.187282 -1.158855,0.579397 -0.792332,0.94592 0.377389,0.377389 0.723824,0.387102 0.723824,0.02029 z M 33.124588,97.71404 c 0.408145,-0.391028 0.742082,-0.824539 0.742082,-0.963359 0,-0.344329 -2.297396,-2.554674 -2.472886,-2.379185 -0.07716,0.07716 0.124168,0.395684 0.447391,0.707833 1.232586,1.190359 1.967953,2.96313 0.841264,2.02806 -0.483803,-0.40152 -0.541997,0.0052 -0.07254,0.506939 0.270817,0.289458 0.226473,0.328434 -0.244788,0.215155 -0.416094,-0.100019 -0.536513,-0.0367 -0.434713,0.228588 0.196105,0.511042 0.347086,0.467546 1.19419,-0.344031 z m 4.926447,-0.753168 c 0.04583,-0.03824 -0.202211,-0.05188 -0.551198,-0.03031 -0.348987,0.02157 -0.634529,0.181623 -0.634538,0.355664 -1.3e-5,0.235831 0.140395,0.243551 0.551198,0.03031 0.303168,-0.157372 0.58871,-0.317421 0.634538,-0.355664 z m 1.918626,-1.181706 c 0.135855,0 0.247009,0.142875 0.247009,0.3175 0,0.242865 0.07295,0.244552 0.310323,0.0072 0.447416,-0.447416 -0.144109,-1.694768 -0.70215,-1.480628 -0.290637,0.111528 -0.362314,0.03768 -0.249292,-0.256852 0.09178,-0.239179 -0.157829,-0.836604 -0.592312,-1.417657 -1.387056,-1.854969 -2.367606,-2.412686 -3.668031,-2.0863 -0.764333,0.191836 -2.771455,1.913215 -2.771455,2.376898 0,0.169939 0.652278,0.953156 1.449507,1.740481 l 1.449507,1.431502 0.620643,-0.583064 c 0.341353,-0.320685 0.697775,-0.505931 0.792049,-0.411657 0.09427,0.09427 0.286285,-0.130748 0.426692,-0.500047 0.352571,-0.927331 1.335294,-1.593128 1.792009,-1.214088 0.191818,0.159195 0.346937,0.423695 0.344709,0.587778 -0.0022,0.164082 -0.119468,0.119738 -0.260532,-0.09854 -0.154109,-0.238467 -0.258097,-0.271101 -0.260532,-0.08176 -0.0022,0.173313 0.115011,0.388699 0.260532,0.478636 0.145521,0.08994 0.282423,0.722042 0.304226,1.404678 0.02485,0.778079 0.08077,0.969686 0.149866,0.513551 0.06062,-0.400182 0.221377,-0.727604 0.357232,-0.727604 z m -0.895167,0.214974 c -0.08446,-0.211067 -0.147156,-0.148372 -0.159852,0.159852 -0.01149,0.278915 0.05105,0.435185 0.138964,0.347266 0.08792,-0.08792 0.09732,-0.316122 0.02089,-0.507118 z m -0.18074,-2.225333 c 0,-0.322316 -1.307196,0.860083 -1.314603,1.189098 -0.0049,0.219863 0.259414,0.08048 0.653144,-0.344361 0.363802,-0.392549 0.661459,-0.77268 0.661459,-0.844737 z"
         id="path130" /><path
         style="fill:#727b84"
         d="m 15.735061,116.23893 c -0.55731,-0.55731 -0.459696,-1.19792 0.918602,-6.0285 l 1.053629,-3.69269 8.145835,-8.153929 c 9.025371,-9.034343 9.141243,-9.119643 11.279084,-8.303194 1.599421,0.610824 4.301871,3.431888 4.548874,4.748529 0.438311,2.336398 0.463684,2.302554 -8.387281,11.187444 l -8.201613,8.23304 -2.954948,0.85895 c -1.625222,0.47243 -3.482174,1.02404 -4.12656,1.22581 -1.499318,0.46947 -1.738623,0.46154 -2.275622,-0.0755 z m 7.993133,-2.8946 c 0.07382,-0.19239 -0.151578,-1.2072 -0.500892,-2.25514 l -0.635117,-1.90535 -2.051171,-0.86276 c -1.391926,-0.58547 -2.084235,-0.76249 -2.154048,-0.55077 -0.355716,1.07874 -0.924463,3.23746 -0.924463,3.50887 0,0.17749 0.419244,0.57008 0.931653,0.87241 0.51241,0.30233 1.170663,0.95478 1.462785,1.44989 l 0.531132,0.9002 1.602948,-0.40379 c 0.881621,-0.22208 1.663349,-0.56118 1.737173,-0.75356 z m 4.595102,-10.81511 c 2.976095,-2.981426 5.444175,-5.572746 5.484622,-5.758487 0.04045,-0.185741 -0.436524,-0.8383 -1.059935,-1.450132 l -1.133474,-1.112421 -6.023512,5.96239 c -3.312931,3.27932 -6.050648,6.08664 -6.083815,6.2385 -0.04745,0.21724 2.620382,1.46714 3.259863,1.52728 0.07984,0.008 2.580155,-2.4257 5.556251,-5.40713 z m 10.835041,-4.119835 c 0,-0.154109 -0.119063,-0.206614 -0.264583,-0.116677 -0.145521,0.08994 -0.264584,0.03743 -0.264584,-0.116677 0,-0.154109 0.219672,-0.280198 0.48816,-0.280198 0.268488,0 0.714972,-0.267891 0.992187,-0.595313 0.499736,-0.590242 0.499521,-0.591663 -0.02514,-0.166816 -0.291042,0.235673 -0.676932,0.374933 -0.857534,0.309468 -0.516661,-0.187282 -1.158855,0.579397 -0.792332,0.94592 0.377389,0.377389 0.723824,0.387102 0.723824,0.02029 z m -1.107302,-1.448513 c 0.04583,-0.03824 -0.202211,-0.05188 -0.551198,-0.03031 -0.348987,0.02157 -0.634529,0.181623 -0.634538,0.355664 -1.3e-5,0.235831 0.140395,0.243551 0.551198,0.03031 0.303168,-0.157372 0.58871,-0.317421 0.634538,-0.355664 z m 1.918626,-1.181706 c 0.135855,0 0.247009,0.142875 0.247009,0.3175 0,0.242865 0.07295,0.244552 0.310323,0.0072 0.447416,-0.447416 -0.144109,-1.694768 -0.70215,-1.480628 -0.290637,0.111528 -0.362314,0.03768 -0.249292,-0.256852 0.09178,-0.239179 -0.157829,-0.836604 -0.592312,-1.417657 -1.387056,-1.854969 -2.367606,-2.412686 -3.668031,-2.0863 -0.764333,0.191836 -2.771455,1.913215 -2.771455,2.376898 0,0.169939 0.652278,0.953156 1.449507,1.740481 l 1.449507,1.431502 0.620643,-0.583064 c 0.341353,-0.320685 0.697775,-0.505931 0.792049,-0.411657 0.09427,0.09427 0.286285,-0.130748 0.426692,-0.500047 0.352571,-0.927331 1.335294,-1.593128 1.792009,-1.214088 0.191818,0.159195 0.346937,0.423695 0.344709,0.587778 -0.0022,0.164082 -0.119468,0.119738 -0.260532,-0.09854 -0.154109,-0.238467 -0.258097,-0.271101 -0.260532,-0.08176 -0.0022,0.173313 0.115011,0.388699 0.260532,0.478636 0.145521,0.08994 0.282423,0.722042 0.304226,1.404678 0.02485,0.778079 0.08077,0.969686 0.149866,0.513551 0.06062,-0.400182 0.221377,-0.727604 0.357232,-0.727604 z m -0.895167,0.214974 c -0.08446,-0.211067 -0.147156,-0.148372 -0.159852,0.159852 -0.01149,0.278915 0.05105,0.435185 0.138964,0.347266 0.08792,-0.08792 0.09732,-0.316122 0.02089,-0.507118 z m -0.18074,-2.225333 c 0,-0.322316 -1.307196,0.860083 -1.314603,1.189098 -0.0049,0.219863 0.259414,0.08048 0.653144,-0.344361 0.363802,-0.392549 0.661459,-0.77268 0.661459,-0.844737 z"
         id="path129" /><path
         style="fill:#8a6a4d"
         d="m 15.783718,116.1974 c -0.240835,-0.26612 -0.437882,-0.62242 -0.437882,-0.79178 0,-0.16936 0.531506,-2.23857 1.181125,-4.59824 l 1.181126,-4.29033 7.880854,-7.899905 c 4.33447,-4.344949 8.217028,-8.078245 8.627908,-8.296213 1.093289,-0.579979 2.642284,-0.518572 3.719964,0.14747 1.48815,0.919728 3.559414,3.355364 3.759247,4.420568 0.404875,2.158171 0.105434,2.551585 -8.505328,11.17453 l -8.024023,8.03537 -4.182832,1.28737 c -2.300558,0.70805 -4.313208,1.28909 -4.472555,1.29119 -0.159347,0.002 -0.486769,-0.21391 -0.727604,-0.48003 z m 6.753167,-2.27807 1.502506,-0.4169 -0.725878,-2.16025 -0.725878,-2.16026 -2.048896,-0.8618 c -1.390497,-0.58487 -2.081955,-0.76155 -2.151773,-0.54981 -0.355716,1.07874 -0.924463,3.23746 -0.924463,3.50887 0,0.17749 0.419244,0.57008 0.931653,0.87241 0.51241,0.30233 1.175045,0.9622 1.472524,1.46639 0.297478,0.50419 0.681905,0.87205 0.854283,0.81748 0.172378,-0.0546 0.989543,-0.28684 1.815922,-0.51613 z m 6.048547,-11.65571 5.540712,-5.545423 -1.238265,-1.257169 c -0.681045,-0.691442 -1.267425,-1.230146 -1.303066,-1.197119 -3.221022,2.984783 -12.255127,12.213901 -12.097218,12.358361 0.306615,0.28049 3.083699,1.31198 3.345705,1.24269 0.116281,-0.0307 2.704741,-2.55135 5.752132,-5.60134 z m 11.068374,-4.229584 c 0.896888,-0.973008 1.092031,-1.372201 1.092031,-2.233902 0,-0.890228 -0.225423,-1.314903 -1.487867,-2.803002 -2.325641,-2.741334 -3.617514,-2.965073 -5.692317,-0.98585 l -1.320008,1.2592 2.993325,2.972653 c 1.646329,1.63496 3.067458,2.97332 3.158065,2.974134 0.09061,8.14e-4 0.656154,-0.53164 1.256771,-1.183233 z"
         id="path128" /><path
         style="fill:#796654"
         d="m 15.783718,116.1974 c -0.240835,-0.26612 -0.437882,-0.62242 -0.437882,-0.79178 0,-0.16936 0.531506,-2.23857 1.181125,-4.59824 l 1.181126,-4.29033 7.880854,-7.899905 c 4.33447,-4.344949 8.217028,-8.078245 8.627908,-8.296213 1.093289,-0.579979 2.642284,-0.518572 3.719964,0.14747 1.48815,0.919728 3.559414,3.355364 3.759247,4.420568 0.404875,2.158171 0.105434,2.551585 -8.505328,11.17453 l -8.024023,8.03537 -4.182832,1.28737 c -2.300558,0.70805 -4.313208,1.28909 -4.472555,1.29119 -0.159347,0.002 -0.486769,-0.21391 -0.727604,-0.48003 z m 6.753167,-2.27807 1.502506,-0.4169 -0.725878,-2.16025 -0.725878,-2.16026 -2.048896,-0.8618 c -1.390497,-0.58487 -2.081955,-0.76155 -2.151773,-0.54981 -0.355716,1.07874 -0.924463,3.23746 -0.924463,3.50887 0,0.17749 0.419244,0.57008 0.931653,0.87241 0.51241,0.30233 1.175045,0.9622 1.472524,1.46639 0.297478,0.50419 0.681905,0.87205 0.854283,0.81748 0.172378,-0.0546 0.989543,-0.28684 1.815922,-0.51613 z m 4.433987,-3.84082 c 0.450101,-0.3205 0.989918,-0.91447 1.199593,-1.31994 0.209675,-0.40547 0.803191,-0.93745 1.318925,-1.18218 0.515733,-0.24473 0.937697,-0.56141 0.937697,-0.70374 0,-0.14232 0.922734,-1.19804 2.05052,-2.34605 2.417181,-2.46051 3.241146,-3.41201 3.241146,-3.74283 0,-0.13316 0.178594,-0.2421 0.396875,-0.2421 0.58546,0 0.488332,-1.059172 -0.160457,-1.749776 -0.56655,-0.603066 -1.10476,-0.582561 -1.762496,0.06715 -0.1845,0.182248 -0.303563,0.475612 -0.264584,0.651921 0.03898,0.176309 -0.277478,0.510105 -0.703238,0.741775 -0.814491,0.44319 -1.542024,0.97033 -2.182842,1.5816 -0.271717,0.25919 -0.301834,0.44917 -0.102767,0.64823 0.451971,0.45197 0.327814,0.64038 -0.338106,0.51309 -0.810646,-0.15497 -1.644194,0.62168 -1.218168,1.13501 0.233605,0.28148 0.152799,0.39415 -0.378261,0.52744 -0.37143,0.0932 -0.747696,0.39751 -0.836149,0.6762 -0.08845,0.27869 -0.260568,0.44506 -0.382479,0.36972 -0.121912,-0.0754 -0.410996,-0.0643 -0.64241,0.0245 -0.498073,0.19113 -0.565373,1.32531 -0.09002,1.51711 0.181901,0.0734 -0.146646,0.14286 -0.730105,0.15435 -0.75927,0.0149 -1.154778,0.17131 -1.391305,0.55005 -0.251794,0.40319 -0.255068,0.52917 -0.01375,0.52917 0.174194,0 0.06608,0.2335 -0.240256,0.51889 -0.536744,0.50006 -0.573676,1.77555 -0.0419,1.44689 0.128977,-0.0797 0.234503,0.0915 0.234503,0.38045 0,0.65523 0.862848,0.87016 1.103856,0.27497 0.0978,-0.24153 0.546079,-0.70136 0.99618,-1.02186 z m 1.61456,-7.81489 5.540712,-5.545423 -1.238265,-1.257169 c -0.681045,-0.691442 -1.267425,-1.230146 -1.303066,-1.197119 -3.221022,2.984783 -12.255127,12.213901 -12.097218,12.358361 0.306615,0.28049 3.083699,1.31198 3.345705,1.24269 0.116281,-0.0307 2.704741,-2.55135 5.752132,-5.60134 z m 11.068374,-4.229584 c 0.896888,-0.973008 1.092031,-1.372201 1.092031,-2.233902 0,-0.890228 -0.225423,-1.314903 -1.487867,-2.803002 -2.325641,-2.741334 -3.617514,-2.965073 -5.692317,-0.98585 l -1.320008,1.2592 2.993325,2.972653 c 1.646329,1.63496 3.067458,2.97332 3.158065,2.974134 0.09061,8.14e-4 0.656154,-0.53164 1.256771,-1.183233 z"
         id="path127" /><path
         style="fill:#4e4d4c"
         d="m 15.745274,116.15492 c -0.460003,-0.5083 -0.451617,-0.61937 0.244712,-3.24115 0.39657,-1.49315 0.963256,-3.54825 1.259301,-4.5669 l 0.538264,-1.85208 7.841122,-7.888776 c 4.312617,-4.338827 8.162631,-8.05953 8.555587,-8.268229 1.204473,-0.639696 2.897389,-0.484641 4.082606,0.373925 2.809757,2.035378 4.019344,4.418996 3.227378,6.359887 -0.211228,0.517662 -3.647845,4.158933 -8.511376,9.018243 l -8.157106,8.15002 -4.14465,1.22113 c -2.279558,0.67162 -4.215495,1.22093 -4.302081,1.22069 -0.08659,-2.3e-4 -0.371778,-0.23728 -0.633757,-0.52676 z m 6.309246,-2.00771 c 0.89413,-0.22956 1.714858,-0.50328 1.823839,-0.60826 0.245698,-0.23668 -1.043704,-4.14439 -1.472973,-4.46404 -0.463123,-0.34486 -3.890846,-1.73851 -3.989293,-1.62197 -0.04655,0.0551 -0.321398,0.99315 -0.610774,2.08456 l -0.526139,1.98438 0.951557,0.53589 c 0.523357,0.29474 1.189682,0.97903 1.480724,1.52064 0.291042,0.54161 0.571512,0.98507 0.623267,0.98546 0.05176,3.9e-4 0.825662,-0.18711 1.719792,-0.41666 z m 9.302874,-7.76905 6.238456,-6.20206 -1.281495,-1.281491 -1.281494,-1.281494 -5.610179,5.601405 c -3.085599,3.08078 -5.610179,5.66602 -5.610179,5.74499 0,0.27754 1.159474,3.74021 1.232519,3.68081 0.04065,-0.0331 2.881222,-2.85103 6.312372,-6.26216 z m -2.807365,-3.82712 5.658952,-5.663552 -0.501884,-0.622323 c -1.126142,-1.396382 -1.803116,-2.073499 -2.073065,-2.073499 -0.156819,0 -3.07699,2.793761 -6.489268,6.208354 l -6.204142,6.20836 1.046878,0.41398 c 0.575783,0.22769 1.404065,0.58147 1.840628,0.78618 0.436562,0.20471 0.85432,0.37982 0.928349,0.38912 0.07403,0.009 2.681128,-2.53167 5.793552,-5.64662 z m 11.103777,-4.517004 c 0.896888,-0.973008 1.092031,-1.372201 1.092031,-2.233902 0,-0.890228 -0.225423,-1.314903 -1.487867,-2.803002 -2.325641,-2.741334 -3.617514,-2.965073 -5.692317,-0.98585 l -1.320008,1.2592 2.993325,2.972653 c 1.646329,1.63496 3.067458,2.97332 3.158065,2.974134 0.09061,8.14e-4 0.656154,-0.53164 1.256771,-1.183233 z"
         id="path126" /><path
         style="fill:#4f443b"
         d="m 15.634664,115.9328 c -0.257657,-0.48144 0.149063,-2.34764 1.624441,-7.45363 l 0.573386,-1.98438 7.999714,-8.003587 c 4.399842,-4.401974 8.312939,-8.122677 8.695772,-8.268229 0.917023,-0.348652 2.144128,-0.33586 2.861816,0.02983 1.177853,0.600166 3.89722,3.52991 4.147065,4.467893 0.5755,2.160578 0.442858,2.337072 -8.40871,11.188643 l -8.180594,8.18059 -3.808672,1.1587 c -4.242076,1.29055 -5.121212,1.39982 -5.504218,0.68417 z m 7.314258,-1.93897 c 0.470916,-0.14388 0.918492,-0.36238 0.994614,-0.48554 0.261648,-0.42336 -1.201915,-4.52258 -1.668471,-4.67314 -0.245816,-0.0793 -1.192469,-0.44845 -2.103674,-0.82028 -0.911205,-0.37183 -1.69365,-0.62783 -1.738765,-0.5689 -0.194485,0.25406 -1.224323,4.04219 -1.125713,4.1408 0.05987,0.0599 0.506319,0.31896 0.992115,0.57576 0.485797,0.25679 1.121391,0.90183 1.412433,1.4334 0.488691,0.89257 0.6,0.95476 1.455208,0.81301 0.509323,-0.0844 1.311337,-0.27122 1.782253,-0.41511 z m 8.448178,-7.43289 c 3.392324,-3.38336 6.169184,-6.244 6.170799,-6.35697 0.0035,-0.247383 -2.290858,-2.57272 -2.538492,-2.57272 -0.344738,0 -11.216904,11.0288 -11.216904,11.37851 0,0.50511 1.099553,3.70274 1.273241,3.70274 0.07892,0 2.919033,-2.7682 6.311356,-6.15156 z m -2.683319,-4.16137 5.681554,-5.67823 -1.381273,-1.398647 -1.381273,-1.398647 -6.250767,6.153084 c -3.437922,3.38419 -6.268026,6.27214 -6.289119,6.41766 -0.03635,0.25074 3.299406,1.69771 3.734149,1.61979 0.112846,-0.0202 2.761874,-2.59198 5.886729,-5.71501 z m 10.98478,-4.118129 c 1.074357,-1.09469 1.179568,-1.318245 1.179568,-2.506391 0,-1.258671 -0.06389,-1.368883 -1.818663,-3.137205 -2.090311,-2.106452 -2.946539,-2.435183 -4.285343,-1.645269 -1.136969,0.670828 -2.494953,1.892212 -2.494953,2.243985 0,0.278276 5.821824,6.242095 6.096474,6.245168 0.07884,8.82e-4 0.674155,-0.539247 1.322917,-1.200288 z"
         id="path125" /><path
         style="fill:#353b43"
         d="m 15.634664,115.9328 c -0.258035,-0.48214 0.161737,-2.4052 1.627005,-7.45363 l 0.575949,-1.98438 7.992242,-8.001721 c 4.395733,-4.400947 8.307677,-8.12165 8.693208,-8.268229 0.921524,-0.350363 2.147713,-0.338401 2.866725,0.02797 1.177853,0.600166 3.89722,3.52991 4.147065,4.467893 0.5755,2.160578 0.442858,2.337072 -8.40871,11.188637 l -8.180594,8.18059 -3.808672,1.1587 c -4.242076,1.29055 -5.121212,1.39982 -5.504218,0.68417 z m 7.470675,-1.96238 c 0.950214,-0.27738 1.003049,-0.34665 0.857221,-1.12398 -0.08547,-0.45562 -0.422094,-1.51472 -0.748044,-2.35357 -0.59181,-1.52304 -0.595411,-1.52625 -2.577013,-2.29763 -1.091407,-0.42486 -2.06001,-0.7729 -2.152452,-0.77343 -0.09244,-5.4e-4 -0.421281,0.92176 -0.730753,2.04954 -0.520513,1.89688 -0.529641,2.07035 -0.121819,2.31511 0.950749,0.5706 2.19444,1.7791 2.356556,2.28989 0.183715,0.57883 0.84783,0.55626 3.116304,-0.10593 z m 8.451821,-7.54733 6.285314,-6.28941 -1.397857,-1.380492 -1.397857,-1.380493 -5.755184,5.759645 -5.755183,5.75965 0.507759,1.44723 c 0.723938,2.0634 0.861756,2.37328 1.055497,2.37328 0.09471,0 3.000588,-2.83023 6.457511,-6.28941 z m -2.773177,-3.90978 5.712931,-5.701273 -1.489659,-1.48966 -1.48966,-1.489659 -6.230472,6.198742 c -3.42676,3.40931 -6.231968,6.3288 -6.233796,6.48776 -0.0032,0.27871 2.932003,1.6175 3.660846,1.66977 0.196283,0.0141 2.927697,-2.53998 6.06981,-5.67568 z m 10.914578,-4.231869 c 1.074357,-1.09469 1.179568,-1.318245 1.179568,-2.506391 0,-1.258671 -0.06389,-1.368883 -1.818663,-3.137205 -2.090311,-2.106452 -2.946539,-2.435183 -4.285343,-1.645269 -1.136969,0.670828 -2.494953,1.892212 -2.494953,2.243985 0,0.278276 5.821824,6.242095 6.096474,6.245168 0.07884,8.82e-4 0.674155,-0.539247 1.322917,-1.200288 z"
         id="path124" /><path
         style="fill:#453a31"
         d="m 15.786808,116.24028 c -0.376063,-0.37606 -0.135241,-1.84839 0.914543,-5.59129 l 1.090931,-3.88962 8.10334,-8.142452 c 8.799561,-8.842038 9.069622,-9.047374 11.099401,-8.439237 0.682028,0.20434 1.571004,0.88615 2.728172,2.092401 1.521617,1.586158 1.723542,1.919812 1.778643,2.938964 0.03419,0.63232 -0.06188,1.525501 -0.213474,1.984847 -0.182012,0.5515 -2.994536,3.548917 -8.280434,8.824777 l -8.004802,7.9896 -2.513542,0.76831 c -5.715242,1.74697 -6.293278,1.8732 -6.702778,1.4637 z m 6.549164,-2.07813 c 0.849785,-0.22135 1.632575,-0.45653 1.739533,-0.52263 0.216548,-0.13383 -1.128507,-4.29719 -1.489327,-4.60993 -0.125886,-0.10911 -0.824196,-0.41101 -1.5518,-0.6709 -0.727604,-0.25988 -1.601138,-0.64626 -1.941186,-0.85862 -0.340048,-0.21236 -0.649849,-0.34682 -0.688448,-0.29882 -0.0386,0.048 -0.327342,1.03979 -0.641651,2.20396 -0.528458,1.95735 -0.538288,2.13658 -0.130614,2.38125 0.933802,0.56043 2.193137,1.775 2.348737,2.26525 0.196106,0.61788 0.374447,0.62624 2.354756,0.11044 z m 14.112174,-15.405443 -1.381018,-1.398388 -5.76868,5.768681 -5.76868,5.76868 0.723382,2.05201 0.723382,2.05201 6.426315,-6.4223 6.426316,-6.42231 z m -7.675732,3.774313 5.712658,-5.683558 -1.301388,-1.431649 c -0.715764,-0.787407 -1.404766,-1.444492 -1.531116,-1.46019 -0.126349,-0.0157 -2.626662,2.373755 -5.55625,5.309894 -2.929588,2.936143 -5.761848,5.715373 -6.293911,6.176073 -0.532064,0.4607 -0.889251,0.96364 -0.793751,1.11763 0.186524,0.30076 3.118123,1.59413 3.699869,1.63231 0.193177,0.0127 2.921927,-2.53455 6.063889,-5.66051 z m 10.676065,-3.674402 c 1.276439,-1.263418 1.561941,-1.848555 1.561941,-3.201194 0,-1.10209 -0.127897,-1.324834 -1.744989,-3.039037 -2.391826,-2.535461 -3.585095,-2.742728 -5.626447,-0.977296 -0.529616,0.458031 -1.193978,0.960352 -1.476358,1.116269 -0.28238,0.155917 -0.565717,0.440381 -0.629637,0.632142 -0.07233,0.217001 0.0034,0.274732 0.200541,0.152887 0.200218,-0.123742 1.493744,0.982179 3.51579,3.005879 1.759467,1.760907 3.221451,3.201648 3.248853,3.201648 0.0274,0 0.45504,-0.401084 0.950306,-0.891298 z"
         id="path123" /><path
         style="fill:#2c2b2a"
         d="m 15.786808,116.24028 c -0.376063,-0.37606 -0.135241,-1.84839 0.914543,-5.59129 l 1.090931,-3.88962 8.10334,-8.142452 c 8.799561,-8.842038 9.069622,-9.047374 11.099401,-8.439237 0.682028,0.20434 1.571004,0.88615 2.728172,2.092401 1.521617,1.586158 1.723542,1.919812 1.778643,2.938964 0.03419,0.63232 -0.06188,1.525501 -0.213474,1.984847 -0.182012,0.5515 -2.994536,3.548917 -8.280434,8.824777 l -8.004802,7.9896 -2.513542,0.76831 c -5.715242,1.74697 -6.293278,1.8732 -6.702778,1.4637 z m 7.813091,-2.42713 0.713437,-0.28303 -0.680318,-2.06246 c -0.374176,-1.13435 -0.814285,-2.19999 -0.978021,-2.3681 -0.34979,-0.35912 -4.166253,-1.99941 -4.312276,-1.85339 -0.164116,0.16412 -1.220909,4.42376 -1.112542,4.48435 0.05502,0.0308 0.454834,0.23776 0.88848,0.45998 0.433647,0.22223 1.118793,0.89592 1.522548,1.49709 l 0.734098,1.09305 1.255578,-0.34223 c 0.690568,-0.18822 1.576625,-0.46959 1.969016,-0.62526 z m 8.194745,-7.46976 c 3.322427,-3.28472 6.040776,-6.03351 6.040776,-6.10841 0,-0.21556 -2.639783,-2.868314 -2.854289,-2.868314 -0.106169,0 -2.735007,2.544036 -5.841861,5.653414 -5.579667,5.5842 -5.646503,5.66437 -5.459029,6.54844 0.104389,0.49226 0.430403,1.46234 0.724477,2.15574 0.458454,1.08099 0.592734,1.21301 0.941914,0.92604 0.22398,-0.18407 3.125585,-3.02218 6.448012,-6.30691 z m -0.196598,-6.522383 2.890752,-2.969619 -1.303251,-1.437369 c -0.716789,-0.790553 -1.450223,-1.418756 -1.629854,-1.396007 -0.527594,0.06682 -12.687386,12.315078 -12.510411,12.601438 0.08868,0.14349 0.989229,0.60579 2.001211,1.02734 l 1.839968,0.76645 2.910417,-2.81131 c 1.600729,-1.54622 4.211255,-4.14763 5.801168,-5.780923 z m 7.850433,-0.964389 c 1.276439,-1.263418 1.561941,-1.848555 1.561941,-3.201194 0,-1.10209 -0.127897,-1.324834 -1.744989,-3.039037 -2.391826,-2.535461 -3.585095,-2.742728 -5.626447,-0.977296 -0.529616,0.458031 -1.193978,0.960352 -1.476358,1.116269 -0.28238,0.155917 -0.565717,0.440381 -0.629637,0.632142 -0.07233,0.217001 0.0034,0.274732 0.200541,0.152887 0.200218,-0.123742 1.493744,0.982179 3.51579,3.005879 1.759467,1.760907 3.221451,3.201648 3.248853,3.201648 0.0274,0 0.45504,-0.401084 0.950306,-0.891298 z"
         id="path122" /><path
         style="fill:#151719"
         d="m 15.927919,116.09917 c -0.372033,-0.37204 -0.38631,-1.44344 -0.02926,-2.19604 0.194097,-0.40913 0.220916,-0.3191 0.11823,0.39687 -0.108312,0.7552 -0.0797,0.83578 0.155061,0.43679 0.158331,-0.26909 0.215694,-0.85016 0.127472,-1.29127 -0.171831,-0.85915 0.303741,-2.84969 0.680838,-2.84969 0.125259,0 0.16255,0.26789 0.08287,0.59532 -0.121195,0.498 0.02613,0.66641 0.901309,1.03027 0.749633,0.31167 1.20228,0.74094 1.59686,1.51438 0.492755,0.96588 0.633973,1.06623 1.342609,0.9541 2.132363,-0.33742 2.516739,-0.36259 1.982557,-0.1298 -0.881755,0.38425 -5.842382,1.85657 -6.25527,1.85657 -0.212175,0 -0.528647,-0.14288 -0.703272,-0.3175 z m 4.180417,-0.96873 c 0,-0.12534 -0.297656,-0.17099 -0.661458,-0.10145 -0.363802,0.0696 -0.661459,0.1721 -0.661459,0.2279 0,0.0558 0.297657,0.10144 0.661459,0.10144 0.363802,0 0.661458,-0.10255 0.661458,-0.22789 z m -0.79375,-1.44578 c 0,-0.0474 -0.327422,-0.37481 -0.727604,-0.7276 l -0.727604,-0.64143 0.641433,0.7276 c 0.599516,0.68006 0.813775,0.84894 0.813775,0.64143 z m 4.365625,0.35076 c -0.08994,-0.14552 -0.04446,-0.26459 0.101062,-0.26459 0.145521,0 0.338168,0.11907 0.428105,0.26459 0.08994,0.14552 0.04446,0.26458 -0.101062,0.26458 -0.145521,0 -0.338168,-0.11906 -0.428105,-0.26458 z m 1.384308,-0.52917 c 0.249197,-0.29104 0.544523,-0.52917 0.656279,-0.52917 0.111756,0 -6.97e-4,0.23813 -0.249894,0.52917 -0.249198,0.29104 -0.544523,0.52917 -0.656279,0.52917 -0.111756,0 6.96e-4,-0.23813 0.249894,-0.52917 z m 1.580975,-1.71978 c 0.655543,-0.82159 1.135759,-1.16106 1.135759,-0.80288 0,0.18015 -1.542707,1.72891 -1.722154,1.72891 -0.08387,0 0.180009,-0.41672 0.586395,-0.92603 z m -3.34127,-1.34498 c 0.0127,-0.30822 0.07539,-0.37092 0.159853,-0.15985 0.07643,0.191 0.06703,0.4192 -0.02089,0.50712 -0.08792,0.0879 -0.150453,-0.0683 -0.138965,-0.34727 z m -6.350759,-0.52034 c 0.03298,-0.84543 0.664601,-2.3616 0.855283,-2.05307 0.185933,0.30085 -0.257407,1.88911 -0.646939,2.31765 -0.135695,0.14928 -0.220299,0.0418 -0.208344,-0.26458 z m 11.681384,-0.008 c 0.251197,-0.26227 0.513673,-0.41989 0.58328,-0.35029 0.06961,0.0696 -0.135917,0.28419 -0.456721,0.47684 -0.557294,0.33468 -0.562933,0.32904 -0.126559,-0.12655 z m 0.998488,-0.98577 c 0,-0.0468 0.372079,-0.43472 0.826843,-0.86213 0.578939,-0.54412 0.725847,-0.61037 0.489989,-0.22097 -0.290985,0.4804 -1.316832,1.32417 -1.316832,1.0831 z m -8.959,-0.98658 c -0.803043,-0.669 -0.552172,-0.66545 0.552083,0.008 0.47646,0.2905 0.687697,0.52466 0.469416,0.52037 -0.218281,-0.004 -0.677956,-0.24198 -1.021499,-0.52818 z m -2.926363,-0.93929 c 0.0127,-0.30822 0.07539,-0.37092 0.159853,-0.15985 0.07643,0.19099 0.06703,0.4192 -0.02089,0.50712 -0.08792,0.0879 -0.150452,-0.0684 -0.138964,-0.34727 z m 14.795779,-0.8275 c 0,-0.15196 0.20836,-0.43969 0.463021,-0.63941 0.428296,-0.33589 0.433911,-0.32344 0.07487,0.16604 -0.213484,0.29104 -0.421843,0.57878 -0.463021,0.63941 -0.04118,0.0606 -0.07487,-0.0141 -0.07487,-0.16604 z m -11.783905,-2.4055 c 1.333992,-1.39718 1.959656,-1.86411 1.044953,-0.77985 -0.683192,0.80984 -1.20769,1.31712 -1.832191,1.77204 -0.289153,0.21063 0.0651,-0.23585 0.787238,-0.99219 z m 2.509245,-2.54956 c 0.501489,-0.51825 0.951538,-0.94227 1.000108,-0.94227 0.243981,0 -1.125047,1.58418 -1.489133,1.72316 -0.232525,0.0888 -0.01246,-0.26264 0.489025,-0.78089 z m 13.507994,0.72392 c 0,-0.30539 0.750856,-1.01086 0.898301,-0.84399 0.05047,0.0571 -0.131001,0.33304 -0.403269,0.61316 -0.272268,0.28012 -0.495032,0.384 -0.495032,0.23083 z m -12.170834,-1.90472 c 0,-0.274758 0.503294,-0.672503 0.652376,-0.515565 0.0484,0.05095 -0.07858,0.246162 -0.282187,0.4338 -0.203604,0.187635 -0.370189,0.224435 -0.370189,0.08178 z m 14.746112,-0.852632 c 0.179475,-0.180821 0.39297,-0.262115 0.474432,-0.180653 0.08146,0.08146 -0.06538,0.229406 -0.32632,0.328765 -0.377084,0.143586 -0.407475,0.113195 -0.148112,-0.148112 z M 25.664586,98.854271 c 0,-0.05494 0.20836,-0.263301 0.463021,-0.46302 0.419644,-0.329108 0.429002,-0.31975 0.0999,0.09989 -0.345644,0.44073 -0.562916,0.580888 -0.562916,0.363126 z m 15.274718,-1.508814 c 0.09356,-0.35777 0.213493,-0.477704 0.279545,-0.279545 0.06363,0.190881 -0.01011,0.472852 -0.16386,0.626602 -0.196338,0.196339 -0.230772,0.09304 -0.115685,-0.347057 z M 27.781253,96.737605 c 0,-0.05494 0.208359,-0.263302 0.463021,-0.463021 0.419644,-0.329108 0.429002,-0.319749 0.0999,0.09989 -0.345644,0.440729 -0.562916,0.580887 -0.562916,0.363126 z m 1.066787,-0.853658 c 0.0046,-0.13039 0.62378,-0.832385 1.375845,-1.559989 0.752064,-0.727605 1.164719,-1.07513 0.91701,-0.772279 -0.247709,0.302851 -0.387711,0.613306 -0.311117,0.689901 0.07659,0.07659 -0.04221,0.28987 -0.264006,0.473946 -0.221798,0.184076 -0.403269,0.25444 -0.403269,0.156363 0,-0.09808 -0.297656,0.142856 -0.661458,0.535405 -0.363802,0.392549 -0.657654,0.607043 -0.653005,0.476653 z m 4.204855,-0.832385 -0.641433,-0.727604 0.727604,0.641433 c 0.680056,0.599516 0.848939,0.813775 0.641433,0.813775 -0.04739,0 -0.374816,-0.327422 -0.727604,-0.727604 z m 8.242997,0.30868 c 0.0127,-0.308224 0.07539,-0.370919 0.159852,-0.159852 0.07643,0.190996 0.06703,0.419199 -0.02089,0.507118 -0.08792,0.08792 -0.150453,-0.06835 -0.138964,-0.347266 z m -9.149014,-3.020659 c 0.263389,-0.291042 0.538421,-0.529167 0.611181,-0.529167 0.07276,0 -0.08321,0.238125 -0.346597,0.529167 -0.263389,0.291041 -0.538421,0.529166 -0.611181,0.529166 -0.07276,0 0.08321,-0.238125 0.346597,-0.529166 z m 6.896178,-0.45161 c -0.143585,-0.377084 -0.113194,-0.407475 0.148112,-0.148113 0.180822,0.179476 0.262116,0.39297 0.180654,0.474432 -0.08146,0.08146 -0.229407,-0.06538 -0.328766,-0.326319 z m -5.86761,-0.385135 c 0.08219,-0.419576 0.691224,-0.620486 0.691224,-0.228022 0,0.166235 -0.108893,0.234947 -0.241985,0.152691 -0.133092,-0.08226 -0.302756,-0.02677 -0.377031,0.123292 -0.07428,0.150065 -0.106769,0.128483 -0.07221,-0.04796 z m 4.809277,-0.408615 c -0.143586,-0.377084 -0.113195,-0.407475 0.148112,-0.148113 0.180821,0.179476 0.262115,0.39297 0.180653,0.474432 -0.08146,0.08146 -0.229406,-0.06538 -0.328765,-0.326319 z m -2.459372,-1.054661 c 0.257431,-0.06708 0.614619,-0.06267 0.793751,0.0098 0.179131,0.07247 -0.03149,0.127362 -0.468057,0.12197 -0.436562,-0.0054 -0.583125,-0.06469 -0.325694,-0.131774 z"
         id="path121" /></g></g></svg>
