<?xml version="1.0" encoding="UTF-8" standalone="no"?>
<!-- Created with Inkscape (http://www.inkscape.org/) -->

<svg
   width="27.532993mm"
   height="25.170294mm"
   viewBox="0 0 27.532993 25.170294"
   version="1.1"
   id="svg1"
   xml:space="preserve"
   xmlns="http://www.w3.org/2000/svg"
   xmlns:svg="http://www.w3.org/2000/svg"><defs
     id="defs1" /><g
     id="layer1"
     transform="translate(-60.954724,-12.470425)"><g
       id="g16"
       transform="translate(-13.190434,-109.08814)"><path
         style="fill:#a9b0b6"
         d="m 96.693615,146.30575 -0.588038,-0.41187 v -11.74396 -11.74395 l 0.588038,-0.41188 c 0.910565,-0.63778 3.653195,-0.55805 4.389155,0.1276 0.57853,0.53898 0.57906,0.54995 0.57906,12.03854 0,13.42103 0.18701,12.5574 -2.719257,12.5574 -1.075043,0 -1.868346,-0.14528 -2.248958,-0.41188 z M 79.37803,139.89726 c -3.918448,-3.91845 -5.232871,-5.39375 -5.232871,-5.87334 0,-0.47847 1.295313,-1.94059 5.120949,-5.78041 5.871314,-5.89309 5.819559,-5.86651 7.75413,-3.98239 2.144027,2.08811 2.124032,2.21899 -0.793335,5.19245 l -1.882041,1.91823 h 4.948216 4.948216 l 0.433763,0.662 c 0.616584,0.94103 0.421223,4.01056 -0.288272,4.52936 -0.380218,0.27802 -1.628893,0.36489 -5.245157,0.36489 h -4.746143 l 1.952441,1.99831 c 2.027555,2.07519 2.34901,2.57592 2.147745,3.34556 -0.194316,0.74306 -2.625646,2.85821 -3.285473,2.85821 -0.426085,0 -2.111735,-1.51244 -5.832168,-5.23287 z"
         id="path31" /><path
         style="fill:#97a1a9"
         d="m 97.16391,146.53402 c -1.038058,-0.371 -1.058333,-0.60825 -1.058333,-12.3841 0,-9.43508 0.06495,-11.49706 0.375546,-11.92182 0.31129,-0.42572 0.70009,-0.51359 2.272335,-0.51359 3.103802,0 2.908372,-0.83838 2.908372,12.47675 v 11.22751 l -0.64943,0.64943 c -0.53359,0.53359 -0.89937,0.64571 -2.050526,0.62854 -0.770599,-0.0115 -1.579683,-0.0847 -1.797964,-0.16272 z m -17.776178,-6.72441 c -4.440502,-4.48371 -4.998073,-5.14269 -4.926455,-5.82241 0.118491,-1.12461 9.780974,-10.81749 10.783562,-10.81749 0.920586,0 3.187821,2.26065 3.187821,3.17857 0,0.45634 -0.641116,1.2913 -2.176972,2.83518 l -2.176971,2.18834 h 4.936198 c 5.919098,0 5.767745,-0.0723 5.767745,2.75601 0,2.8369 0.07466,2.80024 -5.703168,2.80024 h -4.73546 l 2.044314,2.05637 c 2.456637,2.47113 2.528121,2.84922 0.87442,4.62493 -1.985362,2.13183 -2.014602,2.11772 -7.875034,-3.79974 z m 3.356386,-12.93573 c 0.263389,-0.29104 0.419358,-0.52917 0.346597,-0.52917 -0.07276,0 -0.347792,0.23813 -0.611181,0.52917 -0.263389,0.29104 -0.419358,0.52917 -0.346597,0.52917 0.07276,0 0.347792,-0.23813 0.611181,-0.52917 z"
         id="path30" /><path
         style="fill:#939da5"
         d="m 97.16391,146.53402 c -1.038058,-0.371 -1.058333,-0.60825 -1.058333,-12.3841 0,-9.35598 0.06658,-11.49928 0.370083,-11.91435 0.313913,-0.4293 0.663806,-0.49727 2.305311,-0.44779 1.324409,0.0399 2.063589,0.18662 2.341899,0.46478 0.35082,0.35063 0.41687,1.96814 0.48098,11.77816 l 0.0743,11.3717 -0.6576,0.65761 c -0.54246,0.54245 -0.90294,0.65394 -2.058696,0.63671 -0.770599,-0.0115 -1.579683,-0.0847 -1.797964,-0.16272 z m 3.11193,-12.71483 c 0.0458,-6.87192 -0.0213,-10.38489 -0.19844,-10.38489 -0.147212,0 -0.267657,0.1389 -0.267657,0.30868 0,0.16977 -0.07518,0.23349 -0.167079,0.1416 -0.09189,-0.0919 -0.403919,-0.0403 -0.693388,0.11459 -0.395222,0.21152 -0.478091,0.20366 -0.33272,-0.0316 0.132678,-0.21468 -0.003,-0.28542 -0.431092,-0.22483 l -0.624679,0.0884 v 9.78693 9.78693 l 0.79375,0.1894 0.79375,0.1894 -0.859896,-0.0748 c -0.907373,-0.0789 -1.183686,0.23509 -0.396875,0.451 0.254662,0.0699 0.87974,0.10837 1.389063,0.0855 l 0.926043,-0.0415 z m -1.793065,7.05556 c -0.0022,-0.93376 -0.11448,-1.87234 -0.249448,-2.08574 -0.259387,-0.41013 0.148882,-1.1631 0.509722,-0.94009 0.198852,0.1229 0.06644,4.40091 -0.142692,4.61004 -0.06244,0.0624 -0.115353,-0.65045 -0.117582,-1.58421 z m 1.141671,-1.30087 c 0,-0.80036 0.0496,-1.12778 0.110223,-0.7276 0.06062,0.40018 0.06062,1.05502 0,1.45521 -0.06062,0.40018 -0.110223,0.0728 -0.110223,-0.72761 z m -1.243453,-3.33375 c -0.09685,-0.2524 -0.05703,-0.57796 0.08849,-0.72348 0.176389,-0.17639 0.323283,-0.11162 0.440681,0.19431 0.09685,0.2524 0.05703,0.57797 -0.08849,0.72349 -0.176389,0.17639 -0.323282,0.11162 -0.440681,-0.19432 z m 0.167218,-2.48708 c 0,-0.50932 0.05445,-0.71768 0.121,-0.46302 0.06655,0.25466 0.06655,0.67138 0,0.92604 -0.06655,0.25466 -0.121,0.0463 -0.121,-0.46302 z m 1.078935,-2.51354 c 0.0015,-0.87313 0.05088,-1.19842 0.109766,-0.72287 0.05889,0.47555 0.05767,1.18992 -0.0027,1.5875 -0.06037,0.39758 -0.108551,0.008 -0.107066,-0.86463 z m -1.140319,-0.37483 c 0,-0.56996 -0.128621,-1.07916 -0.285823,-1.13156 -0.196141,-0.0654 -0.175892,-0.33655 0.06454,-0.86423 l 0.35036,-0.76896 0.184799,1.04062 c 0.273057,1.53761 0.251223,2.76041 -0.04929,2.76041 -0.145521,0 -0.264583,-0.46632 -0.264583,-1.03628 z m 0.895597,-3.57785 c -0.08037,-0.20945 -0.02072,-0.5964 0.13255,-0.8599 0.23681,-0.40711 0.279887,-0.3499 0.286724,0.38081 0.0085,0.90707 -0.174712,1.11641 -0.419274,0.47909 z m -0.631014,-4.11712 c 0,-0.14552 -0.245152,-0.26458 -0.544781,-0.26458 -0.29963,0 -0.471197,0.11906 -0.381261,0.26458 0.08994,0.14552 0.335089,0.26459 0.544782,0.26459 0.209693,0 0.38126,-0.11907 0.38126,-0.26459 z M 79.507876,139.8225 c -3.442155,-3.49567 -4.992774,-5.25399 -5.053616,-5.73055 -0.07474,-0.58538 0.671695,-1.44773 5.024539,-5.80487 4.042551,-4.04655 5.257522,-5.11737 5.806256,-5.11737 0.87217,0 3.147605,2.33087 3.147605,3.22429 0,0.39909 -0.731659,1.3366 -2.176972,2.78946 l -2.176971,2.18834 h 4.936198 c 5.919098,0 5.767745,-0.0723 5.767745,2.75601 0,2.83608 0.07282,2.80024 -5.689112,2.80024 h -4.721403 l 2.030257,2.08628 c 1.370491,1.40831 2.030211,2.28961 2.030114,2.71198 -8.9e-5,0.386 -0.468239,1.10716 -1.222021,1.88247 -1.986421,2.04315 -1.939941,2.06599 -7.702619,-3.78628 z m 5.563554,1.42602 c -0.09292,-0.24215 -2.3e-5,-0.30506 0.287543,-0.19471 0.233647,0.0897 0.35894,0.26961 0.278427,0.39988 -0.08051,0.13027 0.0355,0.23686 0.257799,0.23686 0.274655,0 0.348576,-0.14839 0.23066,-0.46302 -0.156908,-0.41868 -0.124439,-0.42578 0.339033,-0.0742 0.342606,0.25992 0.293234,0.12931 -0.148899,-0.39391 -1.212409,-1.43476 -2.144466,-2.27875 -2.416414,-2.1881 -0.148009,0.0493 -0.251807,0.14625 -0.230663,0.21538 0.02114,0.0691 -0.09345,0.47259 -0.25466,0.89659 -0.266011,0.69967 -0.2141,0.85243 0.561632,1.65278 0.569268,0.58734 0.917871,0.77971 1.043774,0.576 0.103971,-0.16823 0.127267,-0.46685 0.05177,-0.6636 z m -0.607521,0.0451 c 0,-0.21828 0.04679,-0.39687 0.103985,-0.39687 0.05719,0 0.172517,0.17859 0.256279,0.39687 0.08376,0.21828 0.03697,0.39688 -0.103984,0.39688 -0.140954,0 -0.25628,-0.1786 -0.25628,-0.39688 z m 0.927915,-0.65842 c -0.09269,-0.14999 0.01351,-0.19434 0.248969,-0.10399 0.458368,0.17589 0.542233,0.36554 0.161648,0.36554 -0.136933,0 -0.32171,-0.1177 -0.410617,-0.26155 z m -1.721665,-0.10702 c 0,-0.0572 0.184778,-0.17489 0.410617,-0.26155 0.23546,-0.0904 0.341663,-0.046 0.248969,0.10398 -0.155379,0.25141 -0.659586,0.37186 -0.659586,0.15757 z m 0.495418,-1.41737 c -0.329107,-0.41964 -0.319749,-0.429 0.0999,-0.0999 0.254661,0.19972 0.463021,0.40807 0.463021,0.46302 0,0.21776 -0.217272,0.0776 -0.562916,-0.36313 z m -1.024584,0.71199 c 0,-0.15411 -0.10315,-0.21645 -0.229223,-0.13853 -0.126072,0.0779 -0.442182,-0.0937 -0.702465,-0.38126 -0.260284,-0.28761 -0.342754,-0.52293 -0.183268,-0.52293 0.159487,0 0.363561,0.11906 0.453497,0.26458 0.08994,0.14553 0.305323,0.25519 0.478636,0.2437 0.211413,-0.014 0.200952,-0.0666 -0.03179,-0.15973 -0.276871,-0.11082 -0.26622,-0.228 0.05276,-0.58047 0.563821,-0.62301 0.155891,-1.16599 -0.71229,-0.94809 -0.741034,0.18599 -1.546102,0.91543 -1.01034,0.91543 0.16334,0 0.296981,-0.12709 0.296981,-0.28241 0,-0.16201 0.225607,-0.21081 0.529166,-0.11447 0.31538,0.1001 0.529167,0.0476 0.529167,-0.13007 0,-0.16392 0.117877,-0.22518 0.261949,-0.13614 0.164889,0.10191 0.14038,0.29348 -0.06615,0.51701 -0.180452,0.19532 -0.417392,0.30106 -0.526532,0.23498 -0.109141,-0.0661 -0.326454,-0.041 -0.482919,0.0557 -0.182015,0.11249 -0.0701,0.40401 0.310704,0.80936 0.634137,0.67501 1.032111,0.81126 1.032111,0.35335 z m -2.047663,-2.92409 c -0.0719,-0.27493 -0.235898,-0.49988 -0.364446,-0.49988 -0.331152,0 -0.289599,0.36746 0.08378,0.74083 0.174625,0.17463 0.201086,0.3175 0.0588,0.3175 -0.142285,0 -0.457435,-0.2321 -0.700335,-0.51579 -0.415225,-0.48495 -0.410972,-0.52552 0.07112,-0.67854 0.282017,-0.0895 0.619396,-0.0968 0.74973,-0.0163 0.130335,0.0805 0.384104,-0.0308 0.563931,-0.24751 0.226974,-0.27348 0.236142,-0.39396 0.02998,-0.39396 -0.163339,0 -0.29698,0.11533 -0.29698,0.25628 0,0.24385 -0.197151,0.21945 -1.256771,-0.15556 -0.254661,-0.0901 -0.815606,-0.19733 -1.246544,-0.23822 -0.769015,-0.073 -0.757538,-0.0496 0.619805,1.26433 1.007924,0.96149 1.461841,1.24401 1.610991,1.00268 0.114213,-0.1848 0.148836,-0.56095 0.07694,-0.83588 z m 1.371318,0.39526 c 0.556129,-0.2134 0.03903,-0.89514 -0.678969,-0.89514 -0.548987,0 -0.567888,0.036 -0.336171,0.63982 0.175003,0.45605 0.366527,0.50422 1.01514,0.25532 z M 81.699871,134.767 c 0.09159,-0.28857 0.09612,-0.59507 0.01007,-0.68111 -0.08605,-0.0861 -0.156449,-0.009 -0.156449,0.17113 0,0.18016 -0.178594,0.50617 -0.396875,0.72445 -0.218282,0.21828 -0.396875,0.26931 -0.396875,0.11339 0,-0.15591 -0.133641,-0.28348 -0.296981,-0.28348 -0.210632,0 -0.205007,0.11082 0.01935,0.38115 0.395483,0.47653 0.99832,0.26587 1.217764,-0.42553 z m -0.410962,-0.48479 c 0,-0.14552 -0.327422,-0.25621 -0.727604,-0.24598 -0.644748,0.0165 -0.667345,0.0445 -0.198437,0.24598 0.722677,0.31055 0.926041,0.31055 0.926041,0 z m 4.978928,0.12824 c -0.07499,-0.075 -0.600853,-0.18613 -1.168577,-0.24696 -0.567724,-0.0608 -1.47871,-0.19364 -2.024413,-0.29514 -0.816372,-0.15184 -0.992188,-0.10808 -0.992188,0.24695 0,0.36372 0.339426,0.4315 2.160764,0.4315 1.188421,0 2.099406,-0.0614 2.024414,-0.13635 z m 2.886915,-0.0235 c -0.08792,-0.0879 -0.316122,-0.0973 -0.507118,-0.0209 -0.211067,0.0845 -0.148372,0.14715 0.159852,0.15985 0.278915,0.0115 0.435185,-0.0511 0.347266,-0.13896 z m 4.370955,-0.50793 c 0.12816,-0.67042 -0.340932,-1.28544 -0.535418,-0.70198 -0.0571,0.17128 -0.257903,0.31142 -0.446239,0.31142 -0.188337,0 -0.484717,0.17145 -0.658624,0.381 -0.173907,0.20954 -0.575439,0.43145 -0.892293,0.49313 -0.316854,0.0617 0.09463,0.12836 0.914412,0.14818 1.395779,0.0337 1.498623,-0.006 1.618162,-0.63175 z m -7.818256,-0.39056 c 1.529976,0 0.936529,-0.52721 -0.648229,-0.57588 l -1.521354,-0.0467 1.852083,-0.17114 1.852084,-0.17113 -2.248959,-0.0427 c -1.259736,-0.0239 -2.423527,0.0829 -2.645833,0.24282 -0.321251,0.2311 -0.296043,0.25254 0.132291,0.11257 0.337659,-0.11034 0.433413,-0.0823 0.264584,0.0776 -0.417744,0.39555 -1.554451,0.68463 -1.342309,0.34138 0.114259,-0.18488 0.02237,-0.22973 -0.253634,-0.12382 -0.799114,0.30665 0.169029,0.59333 1.479564,0.43811 0.822381,-0.0974 1.301634,-0.0392 1.433385,0.17393 0.142528,0.23062 0.278438,0.23975 0.485565,0.0326 0.1582,-0.1582 0.680543,-0.28764 1.160762,-0.28764 z m -9.181042,-0.28241 c 0,-0.1661 0.245183,-0.21344 0.595313,-0.11496 0.41474,0.11666 0.486426,0.092 0.236335,-0.0814 -0.451705,-0.31312 -0.0059,-0.62228 0.471653,-0.32711 0.214997,0.13288 0.267545,0.35778 0.135016,0.57786 -0.179206,0.29758 -0.138536,0.29667 0.23362,-0.005 0.423738,-0.34377 0.422822,-0.38844 -0.01536,-0.74921 -0.44088,-0.363 -0.441037,-0.37581 -0.0029,-0.23805 0.254661,0.0801 0.463021,0.0383 0.463021,-0.0929 0,-0.13114 0.218281,-0.30773 0.485069,-0.3924 0.535927,-0.1701 0.657242,-0.94629 0.202516,-1.29573 -0.181805,-0.1397 -0.129332,-0.17223 0.14007,-0.0868 0.236929,0.0751 0.548541,0.0188 0.692472,-0.12512 0.172534,-0.17253 0.317701,-0.11573 0.426085,0.16671 0.09042,0.23562 0.06019,0.364 -0.06718,0.28528 -0.127366,-0.0787 -0.369908,0.0236 -0.538984,0.22729 -0.210437,0.25356 -0.219894,0.4245 -0.02998,0.54187 0.152587,0.0943 0.277431,0.0623 0.277431,-0.0712 0,-0.13345 0.316269,-0.22977 0.702821,-0.21405 0.408761,0.0166 0.758867,-0.13747 0.836777,-0.36829 0.118834,-0.35207 0.07999,-0.35231 -0.344111,-0.002 -0.440696,0.36393 -0.463348,0.34842 -0.289781,-0.19844 0.140398,-0.44236 0.08281,-0.59324 -0.226418,-0.59324 -0.432673,0 -0.546699,-0.30898 -0.230658,-0.62502 0.163813,-0.16381 0.371543,-0.96248 0.250337,-0.96248 -0.02638,0 -1.174351,1.13109 -2.55105,2.51354 -1.3767,1.38245 -2.356614,2.51354 -2.177587,2.51354 0.179026,0 0.325503,-0.12708 0.325503,-0.28241 z m 2.204861,-1.95491 c 0,-0.21188 0.101161,-0.32271 0.224802,-0.2463 0.123641,0.0764 0.156302,0.24977 0.07258,0.38524 -0.213949,0.34618 -0.297382,0.3072 -0.297382,-0.13894 z m 1.367014,-1.73143 c 0.263389,-0.29104 0.520976,-0.52916 0.572416,-0.52916 0.05144,0 -0.05518,0.23812 -0.236943,0.52916 -0.181759,0.29105 -0.439346,0.52917 -0.572416,0.52917 -0.13307,0 -0.02645,-0.23812 0.236943,-0.52917 z m 12.016494,3.53798 c 0.06063,-0.0541 -0.571471,-0.0984 -1.404678,-0.0984 -0.988807,0 -1.455407,0.0963 -1.343553,0.27727 0.153187,0.24787 2.436609,0.0992 2.748231,-0.17888 z m -1.372915,-0.55607 c -0.548949,-0.0573 -1.382387,-0.0563 -1.852084,0.002 -0.469697,0.0584 -0.02056,0.10531 0.998089,0.10413 1.018646,-0.001 1.402943,-0.049 0.853995,-0.10627 z M 80.179864,132.1457 c -0.05214,-0.15643 -0.207918,-0.28442 -0.346163,-0.28442 -0.138245,0 -0.294018,0.12799 -0.346163,0.28442 -0.05214,0.15644 0.103628,0.28443 0.346163,0.28443 0.242535,0 0.398308,-0.12799 0.346163,-0.28443 z m 2.167379,-3.19925 c 0,-0.16977 0.07963,-0.22905 0.176966,-0.13171 0.09733,0.0973 0.415176,-0.0317 0.706322,-0.28664 0.507112,-0.44411 0.521658,-0.44256 0.346144,0.0369 -0.152511,0.41658 -0.118327,0.44659 0.203992,0.17909 0.38525,-0.31973 0.298214,-1.07641 -0.123812,-1.07641 -0.1217,0 -0.387532,0.23737 -0.590737,0.52748 -0.203205,0.29012 -0.431115,0.46584 -0.506466,0.39049 -0.07535,-0.0754 -0.28761,0.0445 -0.471686,0.26626 -0.228877,0.27578 -0.240797,0.40327 -0.0377,0.40327 0.163339,0 0.29698,-0.13891 0.29698,-0.30868 z m 0.748337,-1.22786 c 0.465327,-0.26129 0.705235,-0.2719 0.980597,-0.0434 0.401289,0.33304 1.015963,0.10217 0.773308,-0.29045 -0.08372,-0.13547 0.05616,-0.24631 0.310838,-0.24631 0.418079,0 0.41317,-0.0377 -0.05053,-0.38846 -0.664241,-0.5024 -0.818264,-0.49802 -1.020507,0.029 -0.145466,0.37908 -0.109952,0.38749 0.279303,0.0662 0.384655,-0.31755 0.42792,-0.3136 0.314737,0.0287 -0.07874,0.23814 -0.456217,0.39688 -0.943803,0.39688 -0.44692,0 -0.757393,-0.0893 -0.689941,-0.19844 0.06745,-0.10914 0.28147,-0.19844 0.475594,-0.19844 0.401097,0 0.75142,-0.71926 0.527103,-1.08221 -0.08182,-0.13239 -0.0028,-0.24071 0.17553,-0.24071 0.178363,0 0.247798,-0.0765 0.154301,-0.16999 -0.257086,-0.25709 -0.99595,0.45369 -0.800448,0.77002 0.09364,0.15152 0.05215,0.20249 -0.09221,0.11327 -0.144357,-0.0892 -0.728301,0.33323 -1.297652,0.93877 -0.569351,0.60555 -0.826824,0.94322 -0.572163,0.7504 0.595774,-0.45111 0.596877,-0.0902 0.0019,0.61941 l -0.461128,0.55 0.659566,-0.52917 c 0.362761,-0.29104 0.936786,-0.68483 1.275611,-0.87508 z m 3.20263,-2.44999 c -0.281261,-0.28126 -0.587369,-0.50122 -0.68024,-0.48879 -0.09287,0.0124 -0.252209,-0.11227 -0.354084,-0.2771 -0.131245,-0.21236 -0.279789,-0.18577 -0.509686,0.0912 -0.264655,0.31889 -0.223775,0.44483 0.221793,0.68329 0.39379,0.21075 0.54625,0.21154 0.54625,0.003 0,-0.15923 0.121004,-0.21473 0.268899,-0.12332 0.147895,0.0914 0.215674,0.25231 0.150622,0.35756 -0.06505,0.10526 0.103596,0.20809 0.374776,0.22852 0.473663,0.0357 0.472942,0.017 -0.01833,-0.47424 z"
         id="path29" /><path
         style="fill:#889097"
         d="m 97.082739,146.53235 c -0.262925,-0.0681 -0.590347,-0.41926 -0.727604,-0.78028 -0.141915,-0.37326 -0.249558,-5.42952 -0.249558,-11.72235 0,-13.13107 -0.209832,-12.25449 2.903589,-12.12982 1.775884,0.0711 2.009264,0.14301 2.288584,0.70504 0.22558,0.45391 0.30015,3.71316 0.27141,11.86325 l -0.0396,11.23739 -0.62463,0.50603 c -0.60589,0.49085 -2.53967,0.65313 -3.822171,0.32074 z m 3.256171,-12.91159 v -10.71563 h -1.455208 -1.455209 v 10.53924 c 0,5.79658 0.07937,10.61861 0.176389,10.71562 0.09701,0.097 0.751858,0.17639 1.455209,0.17639 h 1.278819 z m -20.808894,6.20328 c -3.475528,-3.51283 -5.014597,-5.25045 -5.075756,-5.73056 -0.07481,-0.58729 0.66718,-1.44474 5.024539,-5.8064 4.042551,-4.04655 5.257522,-5.11737 5.806256,-5.11737 0.87217,0 3.147605,2.33087 3.147605,3.22429 0,0.39909 -0.731659,1.3366 -2.176972,2.78946 l -2.176971,2.18834 h 4.936198 c 5.925917,0 5.767745,-0.0763 5.767745,2.78202 0,2.77752 0.0069,2.77423 -5.793296,2.77423 h -4.617219 l 2.030257,2.08628 c 1.388294,1.4266 2.030258,2.28727 2.030258,2.72193 0,0.89369 -2.302677,3.12929 -3.22319,3.12929 -0.546865,0 -1.734606,-1.05433 -5.679454,-5.04151 z m 6.670533,2.00668 0.760613,-0.65357 -2.69219,-2.73582 c -2.181044,-2.21639 -2.663424,-2.84582 -2.540684,-3.31517 0.150205,-0.57439 0.202489,-0.57936 6.091591,-0.57936 h 5.940086 l -0.09652,-0.99219 -0.09652,-0.99219 -5.9723,-0.071 -5.972299,-0.071 0.168213,-0.82247 c 0.11623,-0.5683 0.943685,-1.5921 2.677565,-3.31292 l 2.509351,-2.49045 -0.894114,-0.81009 -0.894114,-0.81008 -2.465683,2.45543 c -1.356126,1.35049 -2.393894,2.57159 -2.306151,2.71356 0.08774,0.14197 0.04311,0.18617 -0.09919,0.0982 -0.142296,-0.0879 -1.191411,0.77829 -2.331366,1.92497 l -2.072645,2.08487 4.501264,4.51644 c 2.475695,2.48404 4.618989,4.51644 4.762874,4.51644 0.143886,0 0.603886,-0.29411 1.022223,-0.65358 z"
         id="path28" /><path
         style="fill:#77838c"
         d="m 97.25713,146.45482 c -0.312531,-0.1261 -0.650645,-0.36261 -0.751364,-0.52558 -0.315255,-0.51009 -0.149446,-23.35009 0.172326,-23.7378 0.372807,-0.4492 3.957488,-0.47131 4.401648,-0.0271 0.23738,0.23737 0.3175,3.27162 0.3175,12.02354 v 11.70604 l -0.58803,0.41187 c -0.63408,0.44413 -2.614775,0.52725 -3.55208,0.14907 z m 3.08178,-12.83406 v -10.71563 h -1.430721 -1.430721 l -0.09063,1.51103 c -0.04985,0.83107 -0.05384,5.6531 -0.0089,10.71563 l 0.08177,9.20459 h 1.439584 1.439588 z m -20.838483,6.14908 c -3.895076,-3.89892 -5.090685,-5.25108 -5.090685,-5.75723 0,-0.93044 9.893407,-10.8429 10.822051,-10.8429 0.830928,0 3.200867,2.34674 3.200867,3.16953 0,0.3931 -0.744416,1.36196 -2.163599,2.81593 l -2.1636,2.21663 h 4.900718 c 5.883173,0 5.776481,-0.0526 5.776481,2.8501 0,2.69895 -0.01542,2.70615 -5.793296,2.70615 h -4.617219 l 2.030257,2.08628 c 1.388294,1.4266 2.030258,2.28727 2.030258,2.72193 0,0.86874 -2.301973,3.12929 -3.186633,3.12929 -0.497946,0 -1.875042,-1.22133 -5.7456,-5.09571 z m 6.701802,2.74444 c -0.07975,-0.12903 0.03229,-0.38174 0.248969,-0.56157 0.216679,-0.17982 0.393962,-0.45897 0.393962,-0.62032 0,-0.16135 -1.09192,-1.38984 -2.426488,-2.72998 -1.717829,-1.725 -2.435146,-2.6344 -2.456133,-3.11382 l -0.02965,-0.67721 h 5.910929 5.910929 l -0.08136,-1.12448 -0.08136,-1.12448 -5.879357,-0.0712 -5.879356,-0.0712 0.16271,-0.81355 c 0.110448,-0.55224 0.915352,-1.56548 2.505919,-3.15453 1.288765,-1.28754 2.343209,-2.43071 2.343209,-2.54037 0,-0.28495 -1.376178,-1.68355 -1.656563,-1.68355 -0.288636,0 -9.191355,8.93804 -9.191355,9.22782 0,0.1144 1.930792,2.15337 4.290649,4.53106 2.970733,2.99318 4.537543,4.38224 5.093229,4.51542 0.44142,0.1058 0.839374,0.20455 0.884342,0.21945 0.04497,0.0149 0.01651,-0.0785 -0.06323,-0.20752 z"
         id="path27" /><path
         style="fill:#707b85"
         d="m 97.693077,146.53723 c -0.363802,-0.0742 -0.810287,-0.25712 -0.992188,-0.40651 -0.469165,-0.38533 -0.481923,-23.49773 -0.01323,-23.96642 0.421402,-0.42141 3.970681,-0.42141 4.392081,0 0.23737,0.23736 0.3175,3.26775 0.3175,12.00614 0,10.06903 -0.055,11.7343 -0.39702,12.01815 -0.43925,0.36454 -2.278405,0.55843 -3.307143,0.34864 z m 2.745053,-1.96934 c 0.0909,-0.45475 0.16536,-5.43156 0.16536,-11.05958 0,-7.60604 -0.0815,-10.31426 -0.3175,-10.55026 -0.411244,-0.41125 -2.393332,-0.41125 -2.80458,0 -0.236139,0.23614 -0.3175,2.9738 -0.3175,10.68335 v 10.36585 l 0.595313,0.41749 c 0.509191,0.3571 0.537898,0.45687 0.198437,0.68968 -0.295874,0.20292 -0.05179,0.27322 0.959115,0.27624 1.308205,0.004 1.361815,-0.0251 1.521355,-0.82277 z m -20.944082,-4.81102 c -3.786699,-3.80485 -5.084306,-5.27163 -5.084306,-5.74715 0,-0.90526 9.922923,-10.84001 10.827105,-10.84001 0.825989,0 3.195813,2.35034 3.195813,3.16953 0,0.3931 -0.744416,1.36196 -2.163599,2.81593 l -2.1636,2.21663 h 4.750562 c 5.951859,0 5.926637,-0.0118 5.926637,2.77812 0,2.78203 0.0081,2.77813 -5.793296,2.77813 h -4.617219 l 2.030257,2.08628 c 1.258717,1.29345 2.030258,2.30323 2.030258,2.65717 0,0.86807 -2.296803,3.19405 -3.153985,3.19405 -0.557647,0 -1.736141,-1.04079 -5.784627,-5.10868 z m 5.895903,3.78576 c -0.08994,-0.14552 -0.305323,-0.26276 -0.478636,-0.26053 -0.18934,0.002 -0.156706,0.10642 0.08176,0.26053 0.508297,0.32849 0.599891,0.32849 0.396876,0 z m 1.859697,-1.59982 c 0.08575,-0.13874 0.02982,-0.25226 -0.12429,-0.25226 -0.154109,0 -0.280198,0.11487 -0.280198,0.25527 0,0.1404 -0.267891,0.39607 -0.595313,0.56815 -0.508995,0.2675 -0.487964,0.20423 0.145044,-0.4364 l 0.740357,-0.74927 -2.651043,-2.66315 c -1.888779,-1.8974 -2.586646,-2.76636 -2.427076,-3.02212 0.15607,-0.25015 0.278834,-0.2702 0.404947,-0.0662 0.209308,0.33867 2.182921,0.3617 3.721625,0.0434 0.845595,-0.1749 0.912076,-0.22502 0.330729,-0.24934 -0.400182,-0.0167 -0.727604,-0.14948 -0.727604,-0.29501 0,-0.16105 1.190625,-0.26458 3.042709,-0.26458 1.852083,0 3.042708,0.10353 3.042708,0.26458 0,0.14674 -0.795461,0.28046 -1.785937,0.30023 l -1.785938,0.0356 2.356141,0.2415 c 1.295878,0.13283 2.498126,0.18702 2.671663,0.12043 0.188544,-0.0724 0.334977,-0.76951 0.363868,-1.73235 l 0.04835,-1.61128 h -5.961156 c -3.278636,0 -5.961156,-0.0611 -5.961156,-0.13588 0,-0.0747 0.110371,-0.34263 0.245269,-0.59531 0.134898,-0.25269 0.312651,-0.67534 0.395007,-0.93922 0.08235,-0.26389 0.27259,-0.40387 0.422744,-0.31107 0.150154,0.0928 0.242419,0.0706 0.205033,-0.0494 -0.108525,-0.34822 0.896516,-1.37374 1.223378,-1.24831 0.163322,0.0627 0.889954,-0.51104 1.614738,-1.2749 0.724784,-0.76387 0.990368,-1.1025 0.590185,-0.75252 -0.400182,0.34998 -0.727604,0.50515 -0.727604,0.34482 0,-0.16032 0.317855,-0.54152 0.706344,-0.84711 l 0.706344,-0.55561 -0.890538,-0.9188 c -0.489796,-0.50534 -1.02164,-0.9188 -1.181875,-0.9188 -0.397396,0 -9.659025,9.39421 -9.659025,9.79729 0,0.23275 0.0944,0.24332 0.341516,0.0382 0.257705,-0.21387 0.517431,-0.063 1.058333,0.61493 0.39425,0.4941 0.714994,0.99402 0.712766,1.11093 -0.0022,0.11692 -0.119468,0.034 -0.260532,-0.1843 -0.141064,-0.21828 -0.258303,-0.27458 -0.260532,-0.12511 -0.0042,0.28081 1.029018,1.45828 2.07018,2.35924 0.58866,0.50938 0.592601,0.50938 0.409879,0 -0.143642,-0.40045 0.01466,-0.33857 0.714896,0.27941 0.494666,0.43657 0.949596,0.82352 1.010957,0.8599 0.06136,0.0364 0.03292,0.14479 -0.0632,0.24091 -0.09612,0.0961 -0.443387,-0.0493 -0.771701,-0.3231 -0.721421,-0.60169 0.75202,1.0036 2.578065,2.80875 1.356304,1.34079 1.719792,1.54941 1.719792,0.98706 0,-0.20425 0.160475,-0.16081 0.440514,0.11923 0.410963,0.41096 0.490297,0.40507 1.182624,-0.0879 0.40816,-0.29064 0.812268,-0.64195 0.898017,-0.7807 z m -3.182614,0.54149 c -0.08994,-0.14552 -0.03743,-0.26459 0.116677,-0.26459 0.154109,0 0.280198,0.11907 0.280198,0.26459 0,0.14552 -0.0525,0.26458 -0.116676,0.26458 -0.06417,0 -0.190262,-0.11906 -0.280199,-0.26458 z m -2.170059,-2.17642 c -0.481467,-0.62167 -0.641028,-0.99858 -0.422742,-0.99858 0.262587,0 0.955744,1.06379 0.796754,1.22278 -0.06211,0.0621 -0.230412,-0.0388 -0.374012,-0.2242 z m -3.665934,-3.75507 c -0.282246,-0.20639 -0.453831,-0.42915 -0.381299,-0.49504 0.07253,-0.0659 0.361067,0.10298 0.641189,0.37525 0.60256,0.58566 0.464351,0.64936 -0.25989,0.11979 z m 4.066592,-1.65759 c 0.190996,-0.0764 0.4192,-0.067 0.507118,0.0209 0.08792,0.0879 -0.06835,0.15045 -0.347265,0.13897 -0.308225,-0.0127 -0.370919,-0.0754 -0.159853,-0.15986 z m 2.864346,-6.83071 c 0.08376,-0.21829 0.273198,-0.39688 0.420968,-0.39688 0.154862,0 0.129147,0.16812 -0.0607,0.39688 -0.181158,0.21828 -0.370593,0.39687 -0.420968,0.39687 -0.05038,0 -0.02306,-0.17859 0.0607,-0.39687 z"
         id="path26" /><path
         style="fill:#677078"
         d="m 96.68766,146.13555 c -0.456812,-0.45681 -0.456812,-23.51444 0,-23.97125 0.421402,-0.42141 3.97068,-0.42141 4.39208,0 0.45682,0.45681 0.45682,23.51444 0,23.97125 -0.4214,0.4214 -3.970678,0.4214 -4.39208,0 z m 3.75504,-1.59049 c 0.24532,-1.22662 0.1836,-21.19432 -0.0667,-21.58904 -0.14805,-0.23345 -0.684592,-0.3195 -1.649591,-0.26458 l -1.430167,0.0814 -0.04699,11.23491 c -0.02584,6.1792 -0.0076,11.29888 0.0405,11.37708 0.04812,0.0782 0.741045,0.10214 1.539837,0.0532 1.379821,-0.0845 1.460381,-0.12913 1.613151,-0.89297 z m -20.948652,-4.78819 c -3.786699,-3.80485 -5.084306,-5.27163 -5.084306,-5.74715 0,-0.90884 9.923227,-10.84001 10.83134,-10.84001 0.80065,0 3.191578,2.3968 3.191578,3.19942 0,0.35569 -0.812072,1.40138 -2.163599,2.78604 l -2.1636,2.21663 h 4.780121 c 5.980095,0 5.960627,-0.01 5.843973,2.90359 -0.105894,2.64452 -0.104144,2.64374 -5.94436,2.64876 l -4.542256,0.004 2.09486,2.05861 c 1.392768,1.36867 2.094861,2.25922 2.094861,2.65717 0,0.89544 -2.277367,3.22172 -3.153985,3.22172 -0.557647,0 -1.736141,-1.04079 -5.784627,-5.10868 z m 6.963056,3.13312 c 0.504472,-0.50447 0.917222,-1.01927 0.917222,-1.14399 0,-0.12472 -1.253564,-1.46815 -2.785698,-2.98538 l -2.785699,-2.75861 5.894553,-0.1323 5.894553,-0.13229 0.135516,-0.92604 c 0.07453,-0.50932 0.09111,-1.25126 0.03683,-1.64875 l -0.09868,-0.72271 -5.98996,-0.071 -5.989959,-0.071 2.840345,-2.92092 2.840344,-2.92093 -0.654246,-0.9628 c -1.251383,-1.84158 -1.288201,-1.82237 -6.516265,3.39964 -2.600337,2.59733 -4.727886,4.84419 -4.727886,4.99302 0,0.51998 4.206397,4.67758 4.53008,4.47753 0.19181,-0.11855 0.24436,-0.0812 0.13492,0.0959 -0.178227,0.28838 4.714566,5.34797 5.171663,5.34797 0.129328,0 0.647893,-0.41275 1.152365,-0.91723 z"
         id="path25" /><path
         style="fill:#434c55"
         d="m 96.68766,146.13555 c -0.456812,-0.45681 -0.456812,-23.51444 0,-23.97125 0.188673,-0.18868 1.097422,-0.3175 2.239649,-0.3175 1.629581,0 1.963841,0.0779 2.196041,0.51177 0.41497,0.77537 0.37354,23.35983 -0.0436,23.77698 -0.4214,0.4214 -3.970678,0.4214 -4.39208,0 z m 3.78354,-11.98563 v -11.37708 h -1.587498 -1.5875 l -0.0691,11.11242 c -0.03801,6.11183 -0.0097,11.26727 0.06295,11.45653 0.09243,0.24088 0.589388,0.32027 1.656602,0.26466 l 1.524556,-0.0794 z m -20.866055,5.71612 c -4.433907,-4.41668 -5.019014,-5.09848 -5.019014,-5.84841 0,-0.74993 0.585107,-1.43172 5.019014,-5.8484 3.508858,-3.49523 5.196583,-4.99952 5.609167,-4.99952 0.864517,0 3.218348,2.48559 3.218348,3.3985 0,0.20368 -0.97362,1.36781 -2.163599,2.58696 l -2.1636,2.21663 h 4.809433 c 5.78252,0 5.867766,0.0387 5.867766,2.66323 0,2.72921 0.207717,2.62843 -5.417653,2.62843 -2.678427,0 -4.936745,0.10821 -5.018484,0.24047 -0.08174,0.13226 0.184437,0.52071 0.591502,0.86324 1.33386,1.12237 3.494635,3.65514 3.494635,4.09627 0,0.67504 -2.472218,3.00211 -3.18937,3.00211 -0.450199,0 -1.988589,-1.36414 -5.638145,-4.99951 z m 6.710086,3.24893 c 0.582502,-0.52626 1.059095,-1.13883 1.059095,-1.36127 0,-0.22245 -1.213234,-1.63734 -2.696077,-3.14422 l -2.696077,-2.73977 h 5.866037 5.866036 l 0.155744,-0.62053 c 0.08566,-0.34129 0.117693,-1.08543 0.07119,-1.65364 l -0.08456,-1.03312 -5.886979,-0.0712 c -3.237839,-0.0392 -5.88698,-0.16047 -5.88698,-0.26955 0,-0.10909 1.190625,-1.3845 2.645834,-2.83425 1.455208,-1.44975 2.645833,-2.78282 2.645833,-2.96239 0,-0.5105 -1.593036,-2.19698 -2.075246,-2.19698 -0.543073,0 -9.831004,9.24372 -9.831004,9.78421 0,0.30667 9.423674,10.05954 9.719993,10.05954 0.03744,0 0.544659,-0.43057 1.127161,-0.95683 z"
         id="path24" /><path
         style="fill:#3a444d"
         d="m 96.644052,145.94128 c -0.176514,-0.32982 -0.273892,-4.52203 -0.273892,-11.79136 0,-7.26932 0.09738,-11.46153 0.273892,-11.79135 0.23306,-0.43548 0.566953,-0.51177 2.23965,-0.51177 1.672698,0 2.006588,0.0763 2.239648,0.51177 0.41497,0.77537 0.37354,23.35983 -0.0436,23.77698 -0.18867,0.18867 -1.097419,0.3175 -2.239646,0.3175 -1.629583,0 -1.963838,-0.0779 -2.196042,-0.51177 z m 3.896108,-11.72521 -0.069,-11.44323 -1.653644,-0.0788 -1.653646,-0.0788 v 11.522 11.522 h 1.722602 1.722598 z m -20.890278,5.68942 c -4.500055,-4.48605 -4.975556,-5.04562 -4.975556,-5.8553 0,-0.80654 0.477304,-1.37673 4.817718,-5.75526 2.649745,-2.67301 5.029573,-4.92726 5.288505,-5.00945 1.065693,-0.33823 3.814519,2.35059 3.502676,3.42622 -0.08914,0.30748 -1.044489,1.43985 -2.122989,2.51638 -1.0785,1.07653 -1.96091,2.02966 -1.96091,2.11806 0,0.0884 2.172888,0.16011 4.828639,0.15934 5.750972,-0.002 5.754695,-2e-5 5.754695,2.52955 0,2.7361 0.227971,2.62843 -5.565559,2.62843 -2.759776,0 -5.017775,0.0812 -5.017775,0.18038 0,0.0992 0.962039,1.16599 2.137864,2.37064 1.779715,1.82333 2.108724,2.29177 1.963917,2.79619 -0.254744,0.88736 -2.377113,2.85488 -3.079574,2.85488 -0.420266,0 -2.063721,-1.46306 -5.571651,-4.96006 z m 6.113272,3.91439 c 0.258889,-0.13855 0.802298,-0.68665 1.207575,-1.218 l 0.736869,-0.96608 -2.874103,-2.88304 -2.874103,-2.88305 h 6.014759 6.014759 v -1.69721 -1.69722 l -1.918229,-0.17734 c -1.055026,-0.0975 -3.734099,-0.13746 -5.953495,-0.0887 -2.219396,0.0487 -4.035099,0.031 -4.034896,-0.0393 2.03e-4,-0.0704 1.276777,-1.40835 2.83683,-2.97326 l 2.83646,-2.84528 -1.174482,-1.19671 c -0.645966,-0.65819 -1.262641,-1.16569 -1.370389,-1.12779 -0.500918,0.17623 -10.013151,9.84071 -9.930306,10.08924 0.130587,0.39176 9.529932,9.93545 9.796213,9.94665 0.118707,0.005 0.42765,-0.10428 0.686538,-0.24284 z"
         id="path23" /><path
         style="fill:#2f3942"
         d="m 96.644052,145.94128 c -0.176514,-0.32982 -0.273892,-4.52203 -0.273892,-11.79136 0,-7.26932 0.09738,-11.46153 0.273892,-11.79135 0.230125,-0.42999 0.565345,-0.51177 2.097768,-0.51177 1.30529,0 1.94209,0.11821 2.23965,0.41577 0.3653,0.3653 0.41577,1.82036 0.41577,11.98563 0,8.64599 -0.0802,11.65008 -0.3175,11.88735 -0.18867,0.18867 -1.097419,0.3175 -2.239646,0.3175 -1.629583,0 -1.963838,-0.0779 -2.196042,-0.51177 z m 4.058658,-0.87729 c -0.0182,-0.25467 -0.048,-5.40412 -0.0661,-11.44323 l -0.0331,-10.98021 H 98.883702 97.16391 v 11.52146 11.52147 l 1.785938,-0.0782 c 1.510022,-0.0662 1.780832,-0.14977 1.752862,-0.54125 z m -21.049638,-5.18453 c -4.36756,-4.374 -4.978746,-5.08911 -4.978746,-5.82532 0,-0.7357 0.616576,-1.45894 4.997278,-5.86183 2.748504,-2.76243 5.162793,-5.0226 5.365087,-5.0226 0.487295,0 1.462963,0.69848 2.375674,1.70073 1.258462,1.38192 1.055218,2.10126 -1.230547,4.35525 -1.090371,1.07522 -1.982492,2.04949 -1.982492,2.16505 0,0.11556 2.232422,0.21941 4.960938,0.23077 4.323263,0.018 5.003449,0.0778 5.291667,0.46521 0.392978,0.52822 0.437908,2.93748 0.07269,3.89806 l -0.258034,0.67868 h -5.033633 c -2.768497,0 -5.033632,0.0867 -5.033632,0.19259 0,0.10592 0.907852,1.10579 2.017448,2.22193 2.487095,2.50177 2.570664,2.9816 0.809151,4.64593 -0.684449,0.64669 -1.465345,1.14164 -1.801202,1.14164 -0.417048,0 -2.069617,-1.47889 -5.571651,-4.98609 z m 6.648585,3.50234 c 1.699037,-1.42964 1.689037,-1.46207 -1.409373,-4.56968 l -2.8018,-2.81011 h 5.883067 5.883067 l 0.07986,-1.6957 c 0.05537,-1.17571 -0.02576,-1.76431 -0.264584,-1.91944 -0.189445,-0.12306 -2.785227,-0.2188 -5.768404,-0.21275 -2.983177,0.006 -5.531626,0.007 -5.66322,0.001 -0.131593,-0.005 0.820907,-1.05722 2.116667,-2.33743 1.29576,-1.28021 2.58578,-2.59325 2.866711,-2.91788 l 0.510784,-0.59023 -1.161185,-1.18317 c -0.638651,-0.65073 -1.231508,-1.18316 -1.317459,-1.18316 -0.316198,0 -10.052299,9.77272 -10.052299,10.09011 0,0.42461 9.536266,10.01823 9.958339,10.01823 0.175896,0 0.688818,-0.3105 1.139826,-0.69 z"
         id="path22" /><path
         style="fill:#29323b"
         d="m 96.644052,145.94128 c -0.176514,-0.32982 -0.273892,-4.52203 -0.273892,-11.79136 0,-7.26932 0.09738,-11.46153 0.273892,-11.79135 0.229626,-0.42906 0.565095,-0.51177 2.07566,-0.51177 2.879048,0 2.677528,-0.9385 2.677528,12.46948 0,8.59304 -0.0803,11.58206 -0.3175,11.81927 -0.18867,0.18867 -1.097419,0.3175 -2.239646,0.3175 -1.629583,0 -1.963838,-0.0779 -2.196042,-0.51177 z m 4.189328,-0.63705 c 0.16208,-0.1953 0.23145,-0.41832 0.15416,-0.4956 -0.0773,-0.0773 -0.13382,-4.90328 -0.12563,-10.72443 0.008,-5.82114 -0.0593,-10.77734 -0.15007,-11.01377 -0.12838,-0.33455 -0.53883,-0.42988 -1.850855,-0.42988 h -1.685893 l -0.07174,11.24562 c -0.03945,6.18509 -0.03205,11.36431 0.01646,11.50938 0.136361,0.4078 3.365238,0.32839 3.713568,-0.0913 z m -1.889045,-23.08812 c -0.08792,-0.0879 -0.316122,-0.0973 -0.507118,-0.0209 -0.211066,0.0845 -0.148372,0.14716 0.159853,0.15986 0.278915,0.0115 0.435184,-0.0511 0.347265,-0.13897 z m -15.285661,21.68154 c -0.589238,-0.53234 -1.0115,-1.12384 -0.938359,-1.31444 0.07314,-0.1906 7.25e-4,-0.42829 -0.160925,-0.52819 -0.188569,-0.11655 -0.218642,-0.0599 -0.08391,0.15814 0.140043,0.22659 0.08756,0.29873 -0.157557,0.21654 -0.202157,-0.0678 -0.369077,-0.31295 -0.370933,-0.54482 -0.0019,-0.23186 -0.110241,-0.51927 -0.240857,-0.63868 -0.135702,-0.12406 -0.155912,-0.0754 -0.04716,0.11362 0.408829,0.71042 -0.187527,0.25849 -1.841701,-1.39569 -1.000688,-1.00068 -1.648775,-1.85203 -1.54172,-2.02525 0.111693,-0.18072 0.06625,-0.22564 -0.114962,-0.11364 -0.173112,0.10698 -0.972511,-0.47525 -1.892964,-1.37872 -2.431448,-2.38658 -2.513174,-2.18735 3.317398,-8.0874 3.306157,-3.34556 5.039672,-4.91974 5.305409,-4.81776 0.222911,0.0855 0.324347,0.0376 0.233055,-0.11009 -0.420122,-0.67977 0.554927,-0.13667 1.733,0.96528 1.879058,1.75763 1.823283,2.37761 -0.408026,4.53552 -0.944802,0.91372 -1.891274,1.92575 -2.103269,2.24896 l -0.385446,0.58764 5.149291,-0.077 5.149291,-0.077 0.258058,0.67874 c 0.265895,0.69936 0.177742,3.60655 -0.124172,4.09506 -0.108276,0.17519 -2.058641,0.27499 -5.374023,0.27499 h -5.204065 l 2.146705,2.18282 c 1.180689,1.20054 2.203521,2.3614 2.272961,2.57968 0.293621,0.92299 -1.890078,3.43959 -2.984585,3.43959 -0.285559,0 -1.001302,-0.43555 -1.590541,-0.9679 z m 2.879634,-0.68575 c 0.590309,-0.47294 1.078865,-1.03849 1.08568,-1.25677 0.0068,-0.21828 -1.115472,-1.52797 -2.493972,-2.91042 -1.3785,-1.38244 -2.509024,-2.61513 -2.512276,-2.7393 -0.0033,-0.12416 2.574777,-0.1837 5.728955,-0.13229 l 5.734869,0.0935 -0.06691,-1.85061 c -0.0368,-1.01784 -0.126807,-1.91081 -0.200018,-1.98438 -0.07321,-0.0736 -2.708042,-0.19329 -5.855178,-0.26605 l -5.722067,-0.13229 2.700757,-2.66068 c 1.485417,-1.46336 2.699474,-2.77305 2.697906,-2.91041 -0.0038,-0.33071 -2.084656,-2.49871 -2.398293,-2.49871 -0.134579,0 -0.720939,0.47625 -1.303022,1.05834 -0.582084,0.58208 -1.177396,1.05833 -1.322917,1.05833 -0.145521,0 -0.264583,0.12291 -0.264583,0.27314 0,0.46944 -3.994054,4.24037 -4.294556,4.05465 -0.170134,-0.10515 -0.208427,-0.0521 -0.09495,0.13149 0.114394,0.18509 -0.05381,0.40555 -0.42214,0.55327 -0.336771,0.13507 -0.504561,0.25312 -0.372866,0.26235 0.131694,0.009 0.02649,0.25209 -0.233798,0.5397 -0.260284,0.28761 -0.59479,0.4478 -0.743346,0.35599 -0.148557,-0.0918 -0.191042,-0.039 -0.09441,0.11734 0.09663,0.15636 -0.105696,0.50562 -0.449616,0.77615 -0.734599,0.57784 -0.60619,1.18662 0.459041,2.17631 0.379716,0.35279 0.690392,0.79225 0.690392,0.97658 0,0.18432 0.137459,0.42009 0.305464,0.52392 0.205176,0.12681 0.235166,0.0668 0.09134,-0.18282 -0.117765,-0.20439 1.559636,1.38456 3.727559,3.53099 2.167922,2.14644 4.078473,3.90261 4.245668,3.90261 0.167195,0 0.786972,-0.38695 1.37728,-0.8599 z"
         id="path21" /><path
         style="fill:#232b35"
         d="m 96.644052,145.94128 c -0.176514,-0.32982 -0.273892,-4.52203 -0.273892,-11.79136 0,-7.26932 0.09738,-11.46153 0.273892,-11.79135 0.229626,-0.42906 0.565095,-0.51177 2.07566,-0.51177 2.875778,0 2.680638,-0.88504 2.658938,12.05937 -0.0108,6.43724 -0.11402,10.86961 -0.24599,10.5625 -0.12506,-0.29104 -0.23576,-5.32665 -0.24599,-11.19023 l -0.0186,-10.66108 -1.918232,0.0777 -1.91823,0.0777 v 10.98021 c 0,6.13969 -0.1073,11.20346 -0.2434,11.48663 -0.187948,0.39105 -0.163565,0.45708 0.107026,0.28985 0.225199,-0.13918 0.287,-0.11395 0.172939,0.0706 -0.09762,0.15795 -0.05648,0.36196 0.09141,0.45337 0.147895,0.0914 0.268899,0.0163 0.268899,-0.16693 0,-0.25909 0.07056,-0.26256 0.3175,-0.0156 0.452135,0.45213 2.474878,0.39774 2.951998,-0.0794 0.55783,-0.55783 0.76953,-0.4934 0.43467,0.13229 -0.24419,0.45627 -0.55399,0.52917 -2.248959,0.52917 -1.672697,0 -2.00659,-0.0763 -2.23965,-0.51177 z m 3.104284,-23.75437 c -0.397576,-0.0604 -1.111951,-0.0616 -1.5875,-0.003 -0.475549,0.0589 -0.150259,0.10828 0.722866,0.10977 0.873125,0.001 1.262208,-0.0467 0.864634,-0.10707 z M 82.43612,142.59498 c -1.215531,-1.24882 -2.131114,-2.39831 -2.034628,-2.55443 0.102387,-0.16566 0.05129,-0.20712 -0.122721,-0.0996 -0.396682,0.24516 -4.893781,-4.25193 -4.648618,-4.64862 0.118359,-0.19151 0.06443,-0.22408 -0.150778,-0.0911 -0.41903,0.25898 -0.795587,-0.29909 -0.800998,-1.1871 -0.0031,-0.50412 0.929503,-1.60814 3.856098,-4.56504 2.123082,-2.14506 3.960324,-3.8382 4.08276,-3.76253 0.122435,0.0757 0.308764,-0.002 0.414064,-0.1722 0.119572,-0.19347 0.07677,-0.2389 -0.114009,-0.12099 -0.679724,0.42009 -0.245033,-0.29267 0.616665,-1.01115 0.872759,-0.72769 2.743611,-1.26336 2.38482,-0.68282 -0.08975,0.14521 -0.03392,0.26402 0.124071,0.26402 0.157987,0 0.686993,0.36376 1.175569,0.80836 0.728315,0.66275 0.87701,0.97715 0.825528,1.74548 -0.05125,0.7649 -0.354226,1.21199 -1.648599,2.43279 -0.872193,0.82262 -1.850273,1.88262 -2.173512,2.35556 -0.411205,0.60165 -0.795811,0.8599 -1.280649,0.8599 H 82.24824 l 0.751448,-0.78434 c 0.413296,-0.43139 0.870686,-0.71065 1.016423,-0.62058 0.145737,0.0901 0.19198,0.0456 0.102762,-0.0987 -0.16399,-0.26534 1.8003,-2.36654 2.143723,-2.29314 0.102129,0.0218 0.161191,-0.0517 0.13125,-0.16332 -0.02994,-0.11165 0.23795,-0.47769 0.595313,-0.81341 0.652466,-0.61296 0.884409,-1.5765 0.379495,-1.5765 -0.148641,0 -0.404176,-0.29393 -0.567856,-0.65316 -0.163681,-0.35924 -0.417649,-0.57897 -0.564375,-0.48829 -0.146726,0.0907 -0.18967,0.0401 -0.09543,-0.11236 0.282029,-0.45634 -1.152874,-0.67373 -1.64205,-0.24878 -0.237549,0.20636 -0.610501,0.44087 -0.828783,0.52113 -0.240792,0.0885 -0.266806,0.15415 -0.06614,0.16682 0.46794,0.0296 -0.625746,1.07922 -1.12448,1.07922 -0.218281,0 -0.367109,0.14883 -0.330729,0.33073 0.03638,0.1819 -0.09729,0.29609 -0.297043,0.25376 -0.231131,-0.049 -0.306303,0.0713 -0.206741,0.33073 0.09714,0.25316 0.0092,0.4077 -0.232124,0.4077 -0.213714,0 -0.388571,0.11974 -0.388571,0.2661 0,0.41687 -2.366417,2.64431 -2.809302,2.64431 -0.21831,0 -0.31839,0.12708 -0.2224,0.2824 0.096,0.15533 -0.07419,0.34743 -0.378284,0.42695 -0.304047,0.0795 -0.48577,0.25304 -0.40383,0.38562 0.08194,0.13259 -0.0087,0.20835 -0.201414,0.16836 -0.192717,-0.04 -0.32381,0.0666 -0.291317,0.23683 0.03249,0.17023 -0.35446,0.67261 -0.859896,1.11639 -0.505436,0.44378 -0.918974,0.92668 -0.918974,1.07312 0,0.14644 0.411826,0.64101 0.915169,1.09904 0.503343,0.45803 0.890296,0.96152 0.859896,1.11887 -0.0304,0.15734 0.09356,0.29149 0.275456,0.29811 0.181901,0.007 0.35384,0.13109 0.382087,0.27661 0.07515,0.38716 0.582817,0.88696 0.78006,0.76796 0.216764,-0.13077 3.401916,3.26134 3.401916,3.62296 0,0.14878 0.137458,0.18556 0.305463,0.0817 0.189257,-0.11697 0.233644,-0.0726 0.116677,0.11667 -0.111866,0.18101 -0.02072,0.30547 0.223703,0.30547 0.22687,0 0.382724,0.14883 0.346344,0.33073 -0.03638,0.1819 0.07314,0.30414 0.24338,0.27165 0.17024,-0.0325 0.672618,0.35446 1.116396,0.85989 0.443779,0.50544 0.959336,0.9208 1.145683,0.92303 0.236624,0.003 0.219112,0.0814 -0.05806,0.26053 -0.218281,0.14107 -0.271403,0.25831 -0.118048,0.26053 0.153355,0.002 0.673755,-0.40341 1.156444,-0.90142 0.48269,-0.49801 1.026463,-0.84835 1.208385,-0.77854 0.181922,0.0698 0.408364,-0.0753 0.503204,-0.32244 0.185138,-0.48246 -0.287489,-1.35491 -1.188945,-2.19474 -0.307442,-0.28643 -0.480607,-0.64759 -0.384812,-0.80259 0.101366,-0.16402 0.02392,-0.22416 -0.185274,-0.14389 -0.203978,0.0783 -0.84563,-0.38079 -1.483517,-1.06136 -0.618239,-0.65962 -1.028219,-1.20685 -0.911066,-1.21607 0.117152,-0.009 -0.05489,-0.12445 -0.382308,-0.25606 -0.728818,-0.29295 -0.784881,-0.76689 -0.08448,-0.71413 0.28096,0.0212 0.470112,0.10437 0.420337,0.18491 -0.114786,0.18572 0.43859,0.95261 0.788618,1.09289 0.145521,0.0583 0.231868,0.20418 0.191882,0.32414 -0.03999,0.11996 0.0334,0.15253 0.163077,0.0724 0.228099,-0.14098 1.169554,0.69759 1.034681,0.9216 -0.0367,0.0609 -0.01443,0.0784 0.04948,0.0387 0.06391,-0.0397 0.629459,0.43161 1.256771,1.04727 1.534356,1.50586 1.531286,2.27562 -0.01524,3.82215 -0.69089,0.69089 -1.399227,1.15581 -1.76095,1.15581 -0.411765,0 -1.311369,-0.72557 -2.815195,-2.27057 z m 4.442789,0.74921 c 0.329107,-0.41964 0.319749,-0.429 -0.09989,-0.0999 -0.254662,0.19972 -0.463021,0.40808 -0.463021,0.46302 0,0.21776 0.217272,0.0776 0.562916,-0.36313 z m -3.20875,-0.16604 c 0,-0.0549 -0.208359,-0.2633 -0.46302,-0.46302 -0.419644,-0.3291 -0.429003,-0.31975 -0.0999,0.0999 0.345643,0.44073 0.562915,0.58088 0.562915,0.36312 z m -4.7625,-4.7625 c 0,-0.0549 -0.208359,-0.2633 -0.463021,-0.46302 -0.419644,-0.3291 -0.429002,-0.31975 -0.09989,0.0999 0.345643,0.44073 0.562915,0.58088 0.562915,0.36312 z m -2.778125,-5.98552 c 0.263389,-0.29104 0.419358,-0.52917 0.346598,-0.52917 -0.07276,0 -0.347792,0.23813 -0.611181,0.52917 -0.263389,0.29104 -0.419358,0.52917 -0.346598,0.52917 0.07276,0 0.347792,-0.23813 0.611181,-0.52917 z m 7.682862,-0.84779 c 0.08665,-0.0866 0.04406,-0.2277 -0.09465,-0.31343 -0.138714,-0.0857 -0.391405,0.0118 -0.561536,0.21685 -0.244052,0.29406 -0.224078,0.3602 0.09465,0.31342 0.222191,-0.0326 0.474882,-0.13019 0.561536,-0.21684 z m 0.340199,4.85439 c 0.19258,-0.12395 2.449541,-0.17693 5.015469,-0.11772 4.615179,0.10649 4.670458,0.1011 5.142855,-0.50155 l 0.47753,-0.6092 -0.231435,0.66145 -0.231434,0.66146 -5.261565,0.0655 c -2.968093,0.0369 -5.108939,-0.0328 -4.91142,-0.15991 z m 9.836315,-2.65537 c 0,-0.93644 -0.115788,-1.33905 -0.418515,-1.45521 -0.230183,-0.0883 -2.439866,-0.1606 -4.910407,-0.1606 -2.47054,0 -4.433822,-0.094 -4.362847,-0.2088 0.07097,-0.11484 2.362108,-0.19791 5.091408,-0.1846 l 4.962364,0.0242 0.248122,0.74436 c 0.182016,0.54605 0.155949,0.80134 -0.09784,0.95819 -0.281647,0.17407 -0.275345,0.30079 0.0339,0.68165 0.323145,0.39798 0.323768,0.43401 0.0042,0.24134 -0.281739,-0.16984 -0.33344,-0.11638 -0.206741,0.2138 0.09292,0.24215 0.05363,0.44027 -0.08733,0.44027 -0.140953,0 -0.256279,-0.58257 -0.256279,-1.2946 z"
         id="path20" /><path
         style="fill:#1c252d"
         d="m 96.785934,146.03727 c -0.365155,-0.36515 -0.415774,-1.80854 -0.415774,-11.85568 0,-8.84814 0.07635,-11.54432 0.337017,-11.9008 0.27516,-0.3763 0.671929,-0.44629 2.161726,-0.3813 1.164357,0.0508 1.864257,0.19929 1.933987,0.41033 0.0809,0.24475 -0.40283,0.33073 -1.860754,0.33073 h -1.970039 l -0.148623,2.18281 c -0.255033,3.74562 -0.02681,20.83911 0.282358,21.14828 0.164443,0.16444 1.043373,0.23582 2.140513,0.17382 1.023825,-0.0579 1.718255,-0.0141 1.543185,0.0971 -0.6114,0.38862 -3.560915,0.23735 -4.003596,-0.20534 z m 2.957664,-23.85405 c -0.545703,-0.0571 -1.438672,-0.0571 -1.984375,0 -0.545704,0.0571 -0.09922,0.10379 0.992187,0.10379 1.091406,0 1.53789,-0.0467 0.992188,-0.10379 z m -16.089355,21.63922 c -0.853185,-0.82799 -0.966159,-1.03493 -0.547799,-1.00341 0.289881,0.0218 0.468746,0.13405 0.397479,0.24936 -0.07127,0.11531 -0.01151,0.20966 0.132792,0.20966 0.144303,0 0.329749,0.2123 0.412104,0.47177 0.102243,0.32214 0.380635,0.45484 0.877725,0.41837 0.400395,-0.0294 0.757756,-0.078 0.794136,-0.10797 0.03638,-0.03 0.214974,-0.0749 0.396875,-0.0997 0.181901,-0.0248 0.298014,-0.19736 0.258028,-0.38347 -0.03999,-0.1861 0.03128,-0.2741 0.158368,-0.19556 0.127088,0.0786 0.487226,-0.0958 0.800306,-0.38751 0.31308,-0.29168 0.56904,-0.43639 0.568801,-0.32158 -8.89e-4,0.42669 -2.128619,2.19312 -2.641689,2.19312 -0.292749,0 -1.015955,-0.4694 -1.607126,-1.04311 z m 17.349517,-0.01 c -0.25878,-0.41873 -0.10505,-20.37841 0.15696,-20.37841 0.13493,0 0.23652,4.43205 0.23652,10.31875 0,5.67531 -0.0525,10.31875 -0.11667,10.31875 -0.0642,0 -0.18874,-0.11659 -0.27681,-0.25909 z m -19.053392,-1.593 c -0.08994,-0.14552 -0.04446,-0.26458 0.101062,-0.26458 0.14552,0 0.338168,0.11906 0.428104,0.26458 0.08994,0.14553 0.04446,0.26459 -0.101061,0.26459 -0.145521,0 -0.338169,-0.11906 -0.428105,-0.26459 z m 5.55625,-0.74342 c -1.140153,-1.49627 -1.03102,-2.21466 0.146092,-0.96168 0.565209,0.60164 0.577581,0.65757 0.112267,0.50757 -0.505023,-0.1628 -0.506129,-0.15482 -0.03228,0.23313 0.269863,0.22093 0.448457,0.51729 0.396875,0.65856 -0.05158,0.14128 -0.331908,-0.0556 -0.62295,-0.43758 z m -8.424062,-2.29928 c -2.169559,-2.17661 -2.408805,-2.73941 -0.309304,-0.72761 0.721355,0.69123 1.403884,1.25677 1.516731,1.25677 0.112847,0 0.175411,0.0768 0.13903,0.17066 -0.03638,0.0939 0.160667,0.42129 0.437883,0.72761 0.277215,0.30632 0.434183,0.55694 0.348818,0.55694 -0.08537,0 -1.045286,-0.89297 -2.133158,-1.98437 z m 5.438545,-0.80383 c -0.623388,-0.6493 -1.017368,-1.18055 -0.87551,-1.18055 0.141857,0 0.332707,0.12101 0.424111,0.2689 0.0914,0.1479 0.257676,0.21236 0.369494,0.14325 0.111817,-0.0691 0.669137,0.37241 1.238488,0.98115 0.569351,0.60874 0.747104,0.8717 0.395007,0.58436 -0.565707,-0.46168 -0.620535,-0.46859 -0.471325,-0.0594 0.226261,0.62045 0.218687,0.61527 -1.080265,-0.73768 z m -8.986879,-2.66726 c -0.472943,-0.51904 -0.856276,-1.08147 -0.851851,-1.24985 0.0044,-0.16838 0.130806,-0.0953 0.280845,0.16244 0.15004,0.25772 0.41431,0.38746 0.587267,0.28831 0.172957,-0.0992 0.23234,-0.089 0.131963,0.0226 -0.100378,0.11158 0.04845,0.45078 0.330729,0.75377 0.434528,0.46641 0.678499,0.99756 0.447088,0.97336 -0.03638,-0.004 -0.453099,-0.43159 -0.926041,-0.95063 z m 10.517188,0.77644 c 4.23176,-0.19061 8.142559,-0.19905 8.029612,-0.0173 -0.06784,0.10914 -2.289206,0.17512 -4.936373,0.14661 -2.647167,-0.0285 -4.039125,-0.0867 -3.093239,-0.12928 z m -11.310649,-2.79691 c 0.03622,-0.25546 1.911325,-2.33275 4.166898,-4.6162 4.751871,-4.8106 5.79581,-5.77925 5.724991,-5.31209 -0.08463,0.55823 -0.454536,1.01817 -0.697907,0.86776 -0.125411,-0.0775 -0.302804,-0.0199 -0.394208,0.12798 -0.0914,0.14789 -0.02026,0.2689 0.158107,0.2689 0.178362,0 0.25583,0.0685 0.17215,0.15214 -0.129821,0.12982 -0.359454,0.19564 -1.258966,0.36083 -0.07276,0.0134 0.0463,0.15277 0.264583,0.30979 0.342014,0.24602 0.336764,0.26639 -0.03798,0.14735 -0.469498,-0.14914 -1.676075,0.9318 -1.375551,1.23233 0.09834,0.0983 -0.01963,0.17881 -0.262163,0.17881 -0.242535,0 -0.411207,0.14341 -0.374827,0.3187 0.03638,0.17529 -0.112447,0.32411 -0.330729,0.33073 -0.218281,0.007 -0.407158,0.13109 -0.419726,0.27661 -0.04966,0.575 -0.448263,1.19062 -0.770899,1.19062 -0.187143,0 -0.415332,0.19564 -0.507087,0.43475 -0.09176,0.23911 -0.244488,0.35708 -0.339408,0.26216 -0.236131,-0.23613 -1.422007,0.9095 -1.242351,1.20019 0.07909,0.12798 0.04566,0.19997 -0.0743,0.15998 -0.119957,-0.04 -0.218104,0.007 -0.218104,0.10442 0,0.34653 -1.271475,1.52393 -1.495906,1.38523 -0.125599,-0.0776 -0.346287,0.1344 -0.490418,0.47117 -0.154028,0.3599 -0.234908,0.42084 -0.196199,0.14784 z m 1.388773,-1.25532 c 0.263389,-0.29104 0.419358,-0.52917 0.346598,-0.52917 -0.07276,0 -0.347792,0.23813 -0.611181,0.52917 -0.263389,0.29104 -0.419358,0.52917 -0.346598,0.52917 0.07276,0 0.347792,-0.23813 0.611181,-0.52917 z m 17.863427,0.59531 c -0.0022,-0.32742 0.115011,-0.59531 0.260532,-0.59531 0.331503,0 0.331503,0.28079 0,0.79375 -0.2074,0.32093 -0.257255,0.28296 -0.260532,-0.19844 z m -1.194676,-0.85615 -1.058334,-0.14899 1.190626,-0.17669 c 0.654843,-0.0972 1.287925,-0.0803 1.406847,0.0375 0.328671,0.32557 -0.359011,0.45434 -1.539139,0.28819 z m -9.669966,-0.91671 c 0.486684,-0.50213 1.010644,-0.88908 1.164355,-0.85989 0.153711,0.0292 0.284886,-0.0958 0.291501,-0.27766 0.0066,-0.1819 0.08302,-0.30097 0.169799,-0.26459 0.08677,0.0364 0.384431,-0.1079 0.661458,-0.32062 0.277027,-0.21272 0.146498,0.0248 -0.290064,0.52784 -0.436563,0.50304 -0.812606,0.95391 -0.835652,1.00194 -0.02305,0.048 -0.20164,0.1115 -0.396875,0.14105 -0.588233,0.0891 -1.034737,0.45664 -0.872841,0.7186 0.08372,0.13546 -0.05675,0.2463 -0.31217,0.2463 -0.361561,0 -0.268451,-0.20216 0.420489,-0.91297 z m 3.121528,0.73774 c 0.181901,-0.0734 0.479557,-0.0734 0.661458,0 0.181901,0.0734 0.03307,0.13345 -0.330729,0.13345 -0.363802,0 -0.51263,-0.0601 -0.330729,-0.13345 z m -0.355995,-3.30524 c -0.108146,-0.17498 -0.07341,-0.23415 0.08132,-0.13853 0.262497,0.16223 1.010488,-0.47775 1.181867,-1.01121 0.04675,-0.14552 0.174296,-0.23482 0.283437,-0.19844 0.109141,0.0364 0.198438,-0.0529 0.198438,-0.19844 0,-0.14552 0.132872,-0.26458 0.295272,-0.26458 0.300905,0 -1.335267,2.05342 -1.66872,2.09427 -0.100552,0.0123 -0.267777,-0.11506 -0.37161,-0.28307 z m 1.877349,-2.34037 c -0.08994,-0.14552 -0.03743,-0.26458 0.116677,-0.26458 0.154109,0 0.280198,0.11906 0.280198,0.26458 0,0.14553 -0.0525,0.26459 -0.116676,0.26459 -0.06417,0 -0.190262,-0.11906 -0.280199,-0.26459 z m -0.132291,-0.80936 c 0,-0.15411 0.119062,-0.20661 0.264583,-0.11668 0.145521,0.0899 0.264583,0.21603 0.264583,0.2802 0,0.0642 -0.119062,0.11668 -0.264583,0.11668 -0.145521,0 -0.264583,-0.12609 -0.264583,-0.2802 z m -0.722383,-0.49522 c 0.02116,-0.28096 0.127627,-0.45574 0.236584,-0.3884 0.108958,0.0673 0.131035,0.29721 0.04906,0.51083 -0.206701,0.53866 -0.331417,0.4852 -0.285645,-0.12243 z"
         id="path19" /><path
         style="fill:#131c24"
         d="m 96.785934,146.03727 c -0.365082,-0.36508 -0.415774,-1.80269 -0.415774,-11.79135 0,-7.3355 0.09727,-11.55734 0.273892,-11.88735 0.230198,-0.43013 0.565383,-0.51177 2.101052,-0.51177 1.004938,0 1.882746,0.0893 1.950676,0.19843 0.0679,0.10915 -0.715249,0.15827 -1.74041,0.10916 -1.346016,-0.0645 -1.924496,0.009 -2.081904,0.26342 -0.119887,0.19398 -0.224828,5.48628 -0.233203,11.76066 -0.01315,9.85559 0.03905,11.45302 0.383637,11.73901 0.265249,0.22013 1.016094,0.29615 2.241407,0.22691 1.013403,-0.0573 1.699293,-0.0131 1.524223,0.0982 -0.6114,0.38862 -3.560915,0.23735 -4.003596,-0.20534 z m -12.469892,-1.58319 c -0.499699,-0.40034 -0.498501,-0.40421 0.04428,-0.14303 0.306827,0.14765 0.902139,0.21119 1.322916,0.14119 0.573268,-0.0953 0.665562,-0.0605 0.368175,0.13898 -0.568399,0.38129 -1.145167,0.33571 -1.735368,-0.13714 z m 2.629002,-3.60972 c -0.104814,-0.16959 -0.062,-0.21996 0.10122,-0.11909 0.155576,0.0962 0.330768,0.0311 0.389315,-0.14452 0.07479,-0.22437 0.159751,-0.2331 0.285661,-0.0294 0.09857,0.15948 0.0051,0.35678 -0.207668,0.43843 -0.212786,0.0816 -0.468623,0.0162 -0.568528,-0.14545 z m -6.565166,-0.39917 c -0.143585,-0.37709 -0.113194,-0.40748 0.148113,-0.14811 0.180821,0.17947 0.262115,0.39297 0.180653,0.47443 -0.08146,0.0815 -0.229406,-0.0654 -0.328766,-0.32632 z m -1.560413,-1.44457 c -0.266788,-0.29104 -0.43593,-0.57831 -0.37587,-0.63837 0.06006,-0.0601 0.388392,0.18799 0.729628,0.55122 0.341235,0.36322 0.510376,0.65049 0.375869,0.63836 -0.134507,-0.0121 -0.462839,-0.26017 -0.729627,-0.55121 z m 6.477882,-0.55122 c -0.181901,-0.1819 -0.443839,-0.34561 -0.582083,-0.3638 -0.138245,-0.0182 -0.370417,-0.048 -0.515938,-0.0661 -0.420162,-0.0525 -0.3067,-0.47404 0.127598,-0.47404 0.2157,0 0.653173,0.27781 0.972163,0.61736 0.594828,0.63317 0.593319,0.88169 -0.0017,0.28663 z m 1.481667,-1.98307 c 1.346067,-0.048 3.548724,-0.048 4.894792,0 1.346067,0.048 0.244739,0.0873 -2.447396,0.0873 -2.692136,0 -3.793464,-0.0393 -2.447396,-0.0873 z M 74.828697,134.9058 c -0.243073,-0.63343 -0.05361,-0.68208 0.320907,-0.0824 0.177626,0.28443 0.215623,0.51714 0.08444,0.51714 -0.131185,0 -0.31359,-0.19564 -0.405345,-0.43475 z m -0.154371,-1.46773 c 0,-0.0634 0.337343,-0.43838 0.749652,-0.8334 0.511068,-0.48963 0.749653,-0.59427 0.749653,-0.32878 0,0.21418 -0.128984,0.36628 -0.286632,0.33798 -0.157647,-0.0283 -0.246944,0.12715 -0.198437,0.34543 0.04851,0.21828 -7e-5,0.30861 -0.107948,0.20073 -0.107878,-0.10788 -0.355925,-0.0635 -0.551215,0.0985 -0.19529,0.16208 -0.355073,0.24285 -0.355073,0.1795 z m 9.921875,-3.12461 c 0.263389,-0.29104 0.538421,-0.52916 0.611181,-0.52916 0.07276,0 -0.08321,0.23812 -0.346598,0.52916 -0.263389,0.29105 -0.53842,0.52917 -0.61118,0.52917 -0.07276,0 0.08321,-0.23812 0.346597,-0.52917 z m -5.540861,-1.33977 c 0.428098,-0.51859 1.076017,-1.16789 1.439819,-1.44289 0.416244,-0.31463 0.539702,-0.3484 0.333025,-0.0911 -0.180639,0.2249 -0.24017,0.49716 -0.132292,0.60504 0.107878,0.10788 0.02296,0.15646 -0.188706,0.10795 -0.211667,-0.0485 -0.390261,0.0904 -0.396875,0.30868 -0.0066,0.21828 -0.160855,0.41176 -0.342756,0.42995 -0.679239,0.0679 -0.718141,0.11413 -0.330729,0.39281 0.343093,0.2468 0.338498,0.26698 -0.0339,0.14892 -0.236929,-0.0751 -0.587192,0.003 -0.778361,0.17348 -0.19117,0.17053 0.0027,-0.11425 0.43078,-0.63285 z m 8.58357,-1.83523 c 0,-0.14552 0.126089,-0.26458 0.280198,-0.26458 0.154109,0 0.206613,0.11906 0.116677,0.26458 -0.08994,0.14553 -0.216026,0.26459 -0.280199,0.26459 -0.06417,0 -0.116676,-0.11906 -0.116676,-0.26459 z m -5.027084,-1.67029 c 0,-0.0455 0.386953,-0.43248 0.859896,-0.85989 l 0.859896,-0.77711 -0.777106,0.8599 c -0.724371,0.80154 -0.942686,0.98151 -0.942686,0.7771 z m 15.147397,-3.01713 c 0.400182,-0.0606 1.055026,-0.0606 1.455208,0 0.400182,0.0606 0.07276,0.11022 -0.727604,0.11022 -0.800365,0 -1.127787,-0.0496 -0.727604,-0.11022 z"
         id="path18" /><path
         style="fill:#070e15"
         d="m 97.885613,146.26209 c 0.469697,-0.0584 1.303134,-0.0594 1.852083,-0.002 0.548954,0.0573 0.164652,0.10509 -0.853994,0.10627 -1.018646,0.001 -1.467786,-0.0457 -0.998089,-0.10414 z m -1.393924,-12.11217 c 6e-5,-6.40291 0.03457,-8.98443 0.07669,-5.7367 0.04212,3.24773 0.04207,8.48648 -1.1e-4,11.64167 -0.04218,3.15518 -0.07664,0.49795 -0.07658,-5.90497 z m -11.564759,10.5404 c 0.181901,-0.0734 0.479558,-0.0734 0.661459,0 0.181901,0.0734 0.03307,0.13345 -0.33073,0.13345 -0.363802,0 -0.51263,-0.06 -0.330729,-0.13345 z m 1.329911,-8.22093 c 0.62231,-0.0559 1.57481,-0.0551 2.116667,0.002 0.541856,0.0568 0.03269,0.10258 -1.131473,0.10162 -1.164167,-9.6e-4 -1.607504,-0.0475 -0.985194,-0.10337 z m -11.433213,-1.58045 c -0.143585,-0.37709 -0.113194,-0.40748 0.148113,-0.14811 0.180821,0.17947 0.262115,0.39297 0.180653,0.47443 -0.08146,0.0815 -0.229406,-0.0654 -0.328766,-0.32632 z"
         id="path17" /></g></g></svg>
