<?xml version="1.0" encoding="UTF-8" standalone="no"?>
<!-- Created with Inkscape (http://www.inkscape.org/) -->

<svg
   width="25.804886mm"
   height="25.885998mm"
   viewBox="0 0 25.804886 25.885998"
   version="1.1"
   id="svg1"
   xml:space="preserve"
   xmlns="http://www.w3.org/2000/svg"
   xmlns:svg="http://www.w3.org/2000/svg"><defs
     id="defs1" /><g
     id="layer1"
     transform="translate(-59.638868,-52.454614)"><g
       id="g38"
       transform="translate(37.604822,-6.5481034)"><path
         style="fill:#5286c4"
         d="M 32.279167,84.645593 C 31.624324,84.52037 30.267372,83.999588 29.26372,83.4883 l -1.824823,-0.929614 -1.020211,0.921699 c -0.561115,0.506934 -1.198461,0.921699 -1.416323,0.921699 -0.846875,0 -1.367544,-0.942382 -1.548328,-2.802384 -0.09771,-1.005304 -0.283286,-2.839856 -0.412388,-4.076783 -0.238883,-2.288741 -0.105295,-2.985236 0.626426,-3.266024 0.219691,-0.0843 2.267632,0.125054 4.550978,0.465239 3.226494,0.4807 4.229786,0.725526 4.502703,1.098763 0.487101,0.66615 0.46098,0.764785 -0.489114,1.846882 -0.947515,1.079159 -0.865098,1.226331 0.972569,1.736715 4.071474,1.130788 8.462395,-1.800004 9.270168,-6.187527 0.245811,-1.335151 0.951745,-1.779465 2.827246,-1.779465 2.700244,0 3.131966,1.149383 1.82667,4.863184 -2.121893,6.037165 -8.417586,9.574979 -14.850126,8.344909 z M 22.334242,71.571746 c -0.396947,-0.605818 -0.398228,-0.809596 -0.01574,-2.503317 0.584543,-2.58844 1.568336,-4.369853 3.446428,-6.240661 4.097523,-4.081628 10.119384,-4.988268 15.124883,-2.277175 1.408905,0.763095 1.533306,0.786108 2.131336,0.394263 0.349305,-0.228873 0.635099,-0.502391 0.635099,-0.607817 0,-0.383569 1.197409,-0.731632 1.778022,-0.516837 0.70935,0.262421 0.758154,0.46081 1.249367,5.078707 0.406201,3.818691 0.370103,4.284232 -0.3626,4.676363 -0.58525,0.313216 -7.875832,-0.707006 -8.68406,-1.215221 -0.795854,-0.500434 -0.751334,-1.360953 0.117318,-2.267631 0.431223,-0.4501 0.614064,-0.833358 0.463021,-0.970554 -0.872984,-0.792959 -4.050893,-1.083737 -5.700232,-0.521569 -2.43338,0.829404 -4.45612,3.091558 -4.989907,5.580518 -0.415364,1.936779 -0.571397,2.050435 -2.814935,2.050435 -1.782103,0 -1.982249,-0.05551 -2.378003,-0.659504 z"
         id="path45" /><path
         style="fill:#5884b7"
         d="M 32.279167,84.645593 C 31.624324,84.52037 30.267372,83.999588 29.26372,83.4883 l -1.824823,-0.929614 -1.020211,0.921699 c -0.561115,0.506934 -1.198461,0.921699 -1.416323,0.921699 -0.846875,0 -1.367544,-0.942382 -1.548328,-2.802384 -0.09771,-1.005304 -0.283286,-2.839856 -0.412388,-4.076783 -0.238883,-2.288741 -0.105295,-2.985236 0.626426,-3.266024 0.219691,-0.0843 2.267632,0.125054 4.550978,0.465239 3.226494,0.4807 4.229786,0.725526 4.502703,1.098763 0.487101,0.66615 0.46098,0.764785 -0.489114,1.846882 -0.947515,1.079159 -0.865098,1.226331 0.972569,1.736715 4.071474,1.130788 8.462395,-1.800004 9.270168,-6.187527 0.245811,-1.335151 0.951745,-1.779465 2.827246,-1.779465 2.700244,0 3.131966,1.149383 1.82667,4.863184 -2.121893,6.037165 -8.417586,9.574979 -14.850126,8.344909 z m 5.838958,-2.521975 c 0.790396,-0.23451 1.972866,-0.698354 2.62771,-1.030763 1.292273,-0.65598 3.439583,-2.6695 3.439583,-3.225278 0,-0.189563 0.09796,-0.34466 0.217685,-0.34466 0.490848,0 2.049426,-3.994695 1.696339,-4.347782 -0.265367,-0.265367 -1.269004,-0.160155 -1.596524,0.167365 -0.174625,0.174625 -0.319323,0.621109 -0.321552,0.992187 -0.0028,0.467685 -0.07235,0.566959 -0.226655,0.323567 -0.152752,-0.240941 -0.27053,-0.05579 -0.375332,0.590034 -0.084,0.517635 -0.472388,1.360249 -0.863081,1.872475 -0.390694,0.512226 -0.619304,0.93132 -0.508023,0.93132 0.111281,0 -0.142478,0.299912 -0.563909,0.66647 -0.421432,0.366558 -0.944834,0.82213 -1.163115,1.012383 -0.218281,0.190253 -1.230312,0.593203 -2.248958,0.895445 -2.603607,0.772515 -3.022126,0.848058 -3.190352,0.575863 -0.08149,-0.131859 -0.792791,-0.239744 -1.580662,-0.239744 -1.769369,0 -3.556347,-0.904996 -3.915704,-1.983068 -0.207812,-0.623438 -0.138989,-0.805348 0.496364,-1.311961 0.457117,-0.364492 0.628165,-0.655818 0.449782,-0.766065 -0.364045,-0.224992 -3.639716,-0.28325 -3.983396,-0.07084 -0.141181,0.08725 -0.451054,-0.137989 -0.688608,-0.500542 -1.105843,-1.68773 -1.522845,-0.230159 -0.921722,3.221745 0.310661,1.78395 0.623569,2.03509 1.428047,1.146152 0.763688,-0.843865 1.297391,-0.723204 3.72689,0.842585 0.594582,0.383202 1.368488,0.750889 1.719792,0.817083 1.559682,0.29388 4.99301,0.167287 6.345401,-0.233967 z M 22.334242,71.571746 c -0.396947,-0.605818 -0.398228,-0.809596 -0.01574,-2.503317 0.584543,-2.58844 1.568336,-4.369853 3.446428,-6.240661 4.097523,-4.081628 10.119384,-4.988268 15.124883,-2.277175 1.408905,0.763095 1.533306,0.786108 2.131336,0.394263 0.349305,-0.228873 0.635099,-0.502391 0.635099,-0.607817 0,-0.383569 1.197409,-0.731632 1.778022,-0.516837 0.70935,0.262421 0.758154,0.46081 1.249367,5.078707 0.406201,3.818691 0.370103,4.284232 -0.3626,4.676363 -0.58525,0.313216 -7.875832,-0.707006 -8.68406,-1.215221 -0.795854,-0.500434 -0.751334,-1.360953 0.117318,-2.267631 0.431223,-0.4501 0.614064,-0.833358 0.463021,-0.970554 -0.872984,-0.792959 -4.050893,-1.083737 -5.700232,-0.521569 -2.43338,0.829404 -4.45612,3.091558 -4.989907,5.580518 -0.415364,1.936779 -0.571397,2.050435 -2.814935,2.050435 -1.782103,0 -1.982249,-0.05551 -2.378003,-0.659504 z m 3.111071,-1.630462 c 0.26612,-0.240835 0.483854,-0.654159 0.483854,-0.918497 0,-1.173372 1.288594,-3.333709 2.80479,-4.702249 2.09429,-1.890337 2.938572,-2.226358 5.661877,-2.253408 1.967738,-0.01955 2.430925,0.07052 3.704167,0.720253 2.131132,1.087514 2.412333,1.354787 2.439745,2.318905 0.01704,0.599468 -0.16054,1.01147 -0.583647,1.35408 -0.334479,0.270846 -0.561512,0.535093 -0.504517,0.587217 0.277971,0.254215 2.660122,0.588947 4.072378,0.572239 l 1.5875,-0.01878 0.03503,-1.322916 c 0.04295,-1.622027 -0.456941,-3.88696 -0.823899,-3.73299 -0.148203,0.06218 -0.703217,0.298747 -1.233363,0.525695 -0.943472,0.403888 -0.986886,0.395986 -2.04823,-0.372848 -0.59638,-0.432016 -1.263952,-0.785483 -1.483494,-0.785483 -0.219541,0 -0.399166,-0.099 -0.399166,-0.220007 0,-0.603298 -5.860598,-1.416142 -6.204019,-0.860475 -0.09747,0.157703 -0.413274,0.286732 -0.701796,0.286732 -0.899557,0 -3.842221,1.527946 -4.30608,2.235885 -0.243084,0.370993 -0.588054,0.676589 -0.7666,0.679103 -0.441794,0.0062 -1.397496,1.0522 -1.627619,1.781367 -0.103333,0.327422 -0.290363,0.595312 -0.415622,0.595312 -0.27751,0 -1.324098,2.726546 -1.324098,3.449509 0,0.654528 0.94731,0.701731 1.632813,0.08136 z"
         id="path44" /><path
         style="fill:#4c729f"
         d="m 32.981646,84.635105 c -0.850563,-0.121147 -2.440171,-0.650117 -3.53246,-1.175487 L 27.463205,82.5044 26.447117,83.32095 c -1.087751,0.874141 -1.86372,1.029745 -2.330485,0.467329 -0.351558,-0.423602 -1.166602,-6.860264 -1.049402,-8.28746 0.07543,-0.918495 0.16323,-1.028266 0.877562,-1.097122 1.190956,-0.114798 8.051129,0.922271 8.48551,1.282775 0.603661,0.500993 0.441263,1.34914 -0.430553,2.248625 l -0.808585,0.834248 0.874731,0.368973 c 0.516887,0.218031 1.794757,0.368974 3.123689,0.368974 1.975564,0 2.399038,-0.08823 3.483516,-0.72574 1.782915,-1.048093 3.052974,-2.662134 3.672109,-4.666662 0.290553,-0.940701 0.659448,-1.868415 0.819766,-2.061586 0.190381,-0.229396 0.920551,-0.351221 2.105074,-0.351221 1.589835,0 1.861277,0.07345 2.200135,0.595313 0.328541,0.505978 0.335927,0.833537 0.04922,2.182812 -1.43659,6.760785 -7.691582,11.130014 -14.537758,10.154897 z m 5.779813,-2.653998 c 2.082468,-0.689011 3.426629,-1.565286 4.953302,-3.229121 1.531591,-1.669194 2.506546,-3.408852 2.744546,-4.897222 l 0.179817,-1.124514 -1.409195,0.08123 -1.409195,0.08123 -0.302763,1.190625 c -0.860089,3.382323 -3.256195,5.79804 -6.581492,6.63536 -2.061238,0.519026 -6.474705,-0.481884 -7.183769,-1.629175 -0.0998,-0.161486 0.32593,-0.809681 0.948321,-1.443851 1.319716,-1.344692 1.46223,-1.247961 -2.522905,-1.712416 -1.309688,-0.15264 -2.770878,-0.347565 -3.24709,-0.433166 l -0.865839,-0.15564 0.155416,1.552257 c 0.210975,2.107183 0.652952,5.215057 0.756346,5.318451 0.04634,0.04634 0.517355,-0.395148 1.046706,-0.981077 0.529352,-0.585929 1.08755,-1.065326 1.24044,-1.065326 0.15289,0 0.911874,0.405496 1.686632,0.901103 2.123448,1.358353 3.615289,1.743775 6.106556,1.577647 1.164166,-0.07763 2.831041,-0.377508 3.704166,-0.666393 z M 22.632056,71.874537 c -0.413288,-0.302203 -0.465516,-0.602843 -0.341783,-1.967392 0.335497,-3.699927 3.280946,-7.705075 6.946186,-9.445251 4.129388,-1.960544 7.472126,-1.907795 11.675679,0.184242 l 1.687155,0.839668 0.871805,-0.844985 c 0.933563,-0.904845 1.779301,-1.077708 2.285951,-0.467233 0.353395,0.425816 1.142301,6.64547 1.020891,8.048599 -0.128415,1.484077 -0.495487,1.548995 -5.028338,0.889277 -2.991244,-0.43535 -4.132723,-0.70502 -4.377205,-1.034099 -0.495735,-0.667271 -0.410838,-1.028128 0.480792,-2.043639 l 0.811522,-0.924272 -1.009959,-0.443775 c -0.590168,-0.25932 -1.724794,-0.449056 -2.729751,-0.45648 -3.59565,-0.02656 -6.583178,2.311555 -7.437083,5.820455 -0.465217,1.911691 -0.825997,2.201598 -2.739813,2.201598 -0.948212,0 -1.831953,-0.148977 -2.116049,-0.356713 z m 3.444661,-2.426455 c 0.485529,-2.390523 1.017727,-3.442001 2.418568,-4.778431 2.391932,-2.28195 4.914574,-3.022591 8.044786,-2.361927 1.115946,0.235532 2.861,1.306355 3.484959,2.138487 0.466249,0.621804 0.460214,0.635664 -0.79375,1.823074 -0.694964,0.658079 -1.144508,1.198072 -0.998987,1.199985 0.145521,0.0019 0.978958,0.114966 1.852083,0.251231 0.873125,0.136264 2.123281,0.306557 2.778125,0.378428 0.654844,0.07187 1.571802,0.211334 2.037685,0.30992 l 0.847059,0.179245 -0.155854,-1.948735 c -0.08572,-1.071804 -0.291004,-2.776548 -0.456186,-3.788321 l -0.300331,-1.839586 -1.0844,0.97969 c -0.59642,0.53883 -1.147302,0.979691 -1.224182,0.979691 -0.07688,0 -0.759422,-0.416987 -1.516759,-0.926637 -3.458738,-2.32756 -7.605425,-2.408925 -11.948794,-0.234457 -2.451268,1.227205 -4.762672,4.285621 -5.522866,7.307775 -0.440569,1.751484 -0.245033,2.104514 1.110296,2.004588 l 1.105093,-0.08148 z"
         id="path43" /><path
         style="fill:#3a6597"
         d="m 31.13258,84.118001 c -0.848904,-0.292018 -2.017817,-0.830389 -2.597585,-1.19638 l -1.054124,-0.665439 -1.041197,0.940659 c -0.572659,0.517363 -1.196692,0.940659 -1.386741,0.940659 -0.972347,0 -1.192913,-0.642237 -1.661642,-4.838321 -0.617837,-5.530899 -0.939743,-5.215193 4.547965,-4.460361 2.287441,0.314636 4.318755,0.704665 4.514031,0.866729 0.581209,0.482361 0.406756,1.290576 -0.438703,2.032453 -0.978774,0.85886 -0.98768,1.047088 -0.06615,1.397982 4.740489,1.805042 9.312851,-0.592544 10.64774,-5.583303 0.463644,-1.733427 0.631273,-1.850596 2.647573,-1.850596 2.257663,0 2.510875,0.255108 2.298231,2.315433 -0.355195,3.441506 -3.280859,7.546686 -6.564029,9.210394 -2.971742,1.505895 -6.997246,1.869829 -9.845373,0.890091 z m 3.985346,-0.66952 c -0.08792,-0.08792 -0.316122,-0.09732 -0.507118,-0.02089 -0.211067,0.08446 -0.148372,0.147157 0.159853,0.159852 0.278915,0.01149 0.435184,-0.05105 0.347265,-0.138964 z m -9.566612,-1.132287 c -0.05909,-0.09562 0.275366,-0.604039 0.743244,-1.129829 l 0.850688,-0.955982 1.573376,0.926391 c 2.521228,1.484479 3.196369,1.667734 6.257304,1.698429 1.597289,0.01602 4.499293,-0.783071 5.98347,-1.647594 1.083463,-0.631109 1.278157,-0.642313 0.811023,-0.04667 -0.32763,0.41776 -0.318693,0.428211 0.09144,0.106915 0.250009,-0.195858 0.444269,-0.433983 0.431688,-0.529167 -0.0672,-0.508457 0.07859,-0.654723 0.304375,-0.305352 0.217461,0.336497 0.257097,0.324059 0.260532,-0.08176 0.0025,-0.293882 0.121961,-0.405764 0.309515,-0.289849 0.172922,0.106872 0.234223,0.07352 0.141277,-0.07687 -0.0903,-0.146112 0.37027,-0.89179 1.023494,-1.657062 0.653224,-0.765271 1.32548,-1.646387 1.493901,-1.958034 0.470811,-0.871188 0.965636,-3.244303 0.749425,-3.594139 -0.117327,-0.189839 -0.687878,-0.279852 -1.456546,-0.229791 l -1.263664,0.0823 -0.525712,1.71697 c -0.289141,0.944334 -0.889166,2.223072 -1.333388,2.841641 -0.917052,1.276973 -3.004885,2.777382 -4.528277,3.254221 -2.208958,0.691428 -7.013958,-0.261696 -7.48314,-1.484363 -0.118712,-0.30936 0.124677,-0.700842 0.796876,-1.281748 0.532284,-0.459994 0.96779,-0.95231 0.96779,-1.094036 0,-0.141726 -1.535691,-0.463066 -3.412647,-0.714089 -1.876955,-0.251023 -3.603362,-0.52959 -3.836458,-0.619037 -0.516383,-0.198155 -0.548158,0.573631 -0.159317,3.869674 0.449406,3.809429 0.508994,4.043418 0.938849,3.686669 0.208081,-0.172692 0.32998,-0.392216 0.270886,-0.487833 z m -2.826603,-10.58476 c -0.594835,-0.481668 -0.606462,-0.562774 -0.320226,-2.233811 0.457574,-2.671294 1.421006,-4.480929 3.45465,-6.488939 4.306878,-4.252591 10.543675,-5.134226 15.241241,-2.154508 l 1.280584,0.812289 1.035283,-0.935316 c 1.076611,-0.972654 1.832033,-1.170596 2.302771,-0.603392 0.292778,0.352777 0.715846,3.185816 0.998895,6.68903 0.244678,3.028292 0.3058,2.998479 -4.659335,2.272633 -2.176643,-0.3182 -4.124628,-0.642666 -4.328855,-0.721035 -0.743958,-0.285484 -0.66939,-1.167059 0.180599,-2.135144 0.797269,-0.908039 0.808759,-0.954806 0.32201,-1.310725 -1.253267,-0.916411 -3.504981,-1.120422 -5.576505,-0.505246 -2.660131,0.789975 -4.50768,2.802007 -5.287527,5.758266 -0.201856,0.765201 -0.571463,1.540774 -0.821348,1.723494 -0.717409,0.524583 -3.096246,0.420276 -3.822237,-0.167596 z m 3.30844,-0.977032 c 0.08833,-0.230183 0.1606,-0.666362 0.1606,-0.969286 0,-1.770359 2.002705,-5.524167 2.509623,-4.703957 0.154645,0.250222 0.11735,0.290498 -0.128373,0.138632 -0.230348,-0.142362 -0.28251,-0.110767 -0.155748,0.09434 0.129342,0.209279 0.446638,0.05235 0.987275,-0.488286 0.438173,-0.438173 0.926425,-0.796678 1.085006,-0.796678 0.15858,0 0.219283,-0.06905 0.134895,-0.153433 -0.08439,-0.08439 -0.491185,0.05977 -0.903993,0.320345 l -0.75056,0.473778 0.529166,-0.613083 c 1.232046,-1.427424 3.676795,-2.091682 6.085417,-1.653456 1.0311,0.187599 1.147827,0.252574 0.529167,0.294554 l -0.79375,0.05386 0.787409,0.234954 c 0.461524,0.137713 0.885504,0.136858 1.024428,-0.0021 0.315511,-0.315511 1.010647,-0.03503 0.791596,0.3194 -0.10037,0.162402 -0.04452,0.199169 0.134483,0.08854 0.175787,-0.108642 0.728309,0.214579 1.297651,0.759115 l 0.991516,0.948317 -1.142349,1.078315 c -0.628293,0.593073 -1.074534,1.146131 -0.991647,1.229017 0.185951,0.185952 5.829196,1.106482 6.830351,1.114172 0.510114,0.0039 0.727604,-0.128626 0.727604,-0.443421 0,-0.828864 -0.561179,-6.558471 -0.67697,-6.911831 -0.07851,-0.239586 -0.498385,-0.03481 -1.33609,0.65163 l -1.221603,1.001011 -0.962356,-0.595856 c -4.149543,-2.569249 -7.907474,-2.792818 -12.101624,-0.719957 -3.233297,1.597982 -5.787013,5.03886 -6.11771,8.243003 l -0.147263,1.426843 h 1.331625 c 0.970192,0 1.375215,-0.113594 1.492224,-0.418514 z"
         id="path42" /><path
         style="fill:#304a67"
         d="m 31.13258,84.118001 c -0.848904,-0.292018 -2.017817,-0.830389 -2.597585,-1.19638 l -1.054124,-0.665439 -1.041197,0.940659 c -0.572659,0.517363 -1.196692,0.940659 -1.386741,0.940659 -0.972347,0 -1.192913,-0.642237 -1.661642,-4.838321 -0.617837,-5.530899 -0.939743,-5.215193 4.547965,-4.460361 2.287441,0.314636 4.318755,0.704665 4.514031,0.866729 0.581209,0.482361 0.406756,1.290576 -0.438703,2.032453 -0.978774,0.85886 -0.98768,1.047088 -0.06615,1.397982 4.740489,1.805042 9.312851,-0.592544 10.64774,-5.583303 0.463644,-1.733427 0.631273,-1.850596 2.647573,-1.850596 2.257663,0 2.510875,0.255108 2.298231,2.315433 -0.355195,3.441506 -3.280859,7.546686 -6.564029,9.210394 -2.971742,1.505895 -6.997246,1.869829 -9.845373,0.890091 z m 6.519403,-0.639755 c 2.246818,-0.585221 4.073481,-1.608781 5.605974,-3.141274 1.645576,-1.645576 3.270422,-4.786945 3.371494,-6.518222 l 0.06951,-1.190625 -1.492007,-0.07847 -1.492007,-0.07847 -0.323576,1.401391 c -0.62215,2.694502 -2.478543,4.970049 -4.994399,6.122082 -2.303781,1.054923 -6.770689,0.587046 -8.0666,-0.844919 -0.39655,-0.438183 -0.362099,-0.532866 0.496765,-1.36531 0.939453,-0.910554 1.188602,-1.579696 0.592136,-1.590302 -0.181901,-0.0032 -1.878542,-0.232801 -3.770313,-0.510148 -1.891771,-0.277347 -3.514723,-0.423529 -3.606561,-0.324849 -0.164671,0.176941 0.391273,5.938081 0.686546,7.114543 0.203966,0.812664 0.410204,0.767534 1.464807,-0.32054 0.971839,-1.002684 1.446904,-1.129341 2.095833,-0.558772 0.863575,0.759296 3.114547,1.743583 4.51875,1.975923 2.184073,0.361378 3.175197,0.342547 4.843649,-0.09203 z M 22.724711,71.731434 c -0.594835,-0.481668 -0.606462,-0.562774 -0.320226,-2.233811 0.457574,-2.671294 1.421006,-4.480929 3.45465,-6.488939 4.306878,-4.252591 10.543675,-5.134226 15.241241,-2.154508 l 1.280584,0.812289 1.035283,-0.935316 c 1.076611,-0.972654 1.832033,-1.170596 2.302771,-0.603392 0.292778,0.352777 0.715846,3.185816 0.998895,6.68903 0.244678,3.028292 0.3058,2.998479 -4.659335,2.272633 -2.176643,-0.3182 -4.124628,-0.642666 -4.328855,-0.721035 -0.743958,-0.285484 -0.66939,-1.167059 0.180599,-2.135144 0.797269,-0.908039 0.808759,-0.954806 0.32201,-1.310725 -1.253267,-0.916411 -3.504981,-1.120422 -5.576505,-0.505246 -2.660131,0.789975 -4.50768,2.802007 -5.287527,5.758266 -0.201856,0.765201 -0.571463,1.540774 -0.821348,1.723494 -0.717409,0.524583 -3.096246,0.420276 -3.822237,-0.167596 z m 3.317849,-0.709708 c 0.228676,-0.228676 0.415774,-0.712299 0.415774,-1.074718 0,-1.11491 1.296688,-3.472527 2.463295,-4.478723 2.096867,-1.808544 2.921099,-2.101866 5.87108,-2.089363 2.214223,0.0094 2.850849,0.11125 3.902605,0.62445 0.691224,0.33728 1.25677,0.752424 1.25677,0.922542 0,0.170119 -0.435339,0.757511 -0.967421,1.305316 -0.565233,0.581935 -0.867722,1.09087 -0.727605,1.224186 0.326214,0.31038 7.337081,1.349255 7.566528,1.121214 0.100628,-0.100011 0.01382,-1.610589 -0.192901,-3.356839 -0.206723,-1.74625 -0.378352,-3.442891 -0.381397,-3.770313 -0.0079,-0.850808 -0.558671,-0.736465 -1.593037,0.33073 -0.493655,0.509323 -1.001575,0.926041 -1.12871,0.926041 -0.127135,0 -0.738731,-0.349221 -1.3591,-0.776046 -1.717498,-1.18167 -4.056389,-1.869787 -6.35535,-1.869787 -5.540979,0 -10.67071,4.19346 -11.485477,9.389166 -0.218712,1.394713 -0.195462,1.519125 0.323044,1.728627 0.894303,0.361342 1.942663,0.292756 2.391902,-0.156483 z"
         id="path41" /><path
         style="fill:#1e334b"
         d="m 32.543751,84.416098 c -1.158491,-0.214892 -3.660868,-1.266611 -4.53435,-1.905733 -0.360173,-0.263536 -0.62499,-0.152976 -1.568979,0.655043 -1.927203,1.649615 -2.282661,1.348618 -2.76726,-2.343275 -0.423378,-3.225493 -0.553383,-5.869689 -0.300998,-6.122074 0.440704,-0.440705 8.290278,0.593921 8.973149,1.18272 0.62247,0.536718 0.594054,0.678736 -0.351216,1.75534 -0.44783,0.51005 -0.744086,1.040871 -0.658346,1.179601 0.08574,0.13873 0.766282,0.454976 1.512316,0.702769 4.050193,1.345258 8.366046,-1.151498 9.753097,-5.642247 0.298772,-0.967311 0.688157,-1.850841 0.8653,-1.963401 0.177144,-0.11256 0.998184,-0.206478 1.824534,-0.208706 2.322218,-0.0063 2.690849,0.616668 1.969025,3.32735 -0.459818,1.726766 -1.501827,3.797043 -2.597119,5.159987 -1.047347,1.303283 -3.845683,3.184966 -5.609065,3.771699 -1.571492,0.522885 -4.884888,0.75239 -6.510088,0.450927 z m 4.531257,-0.575049 c 3.572832,-0.766235 6.390609,-2.765054 8.206207,-5.821159 1.19216,-2.006703 1.979625,-4.874142 1.497941,-5.454536 -0.358513,-0.431983 -2.713828,-0.434584 -3.055859,-0.0034 -0.144282,0.181901 -0.403473,0.926042 -0.575981,1.653646 -0.466171,1.96622 -1.982869,3.994973 -3.83357,5.127826 -1.511284,0.92509 -1.650474,0.957584 -4.101041,0.957393 -2.052359,-1.6e-4 -2.776607,-0.110978 -3.793433,-0.580435 -0.691224,-0.31913 -1.256771,-0.751394 -1.256771,-0.960587 0,-0.209192 0.416718,-0.698196 0.926041,-1.086676 0.938065,-0.715496 1.199015,-1.41057 0.595313,-1.585691 -0.894996,-0.259618 -7.615397,-1.025357 -7.756913,-0.883841 -0.145753,0.145752 0.281926,5.895177 0.536631,7.214095 0.0562,0.291041 0.1113,0.682183 0.122434,0.869205 0.02894,0.486083 0.993196,-0.06568 1.808881,-1.035064 0.351809,-0.418101 0.793237,-0.760183 0.980952,-0.760183 0.187715,0 1.024225,0.411236 1.858912,0.913858 0.834687,0.502623 2.129034,1.037232 2.876327,1.188021 2.311019,0.466319 2.401061,0.481728 2.999336,0.513262 0.32026,0.01688 1.204326,-0.102711 1.964593,-0.265759 z M 24.131266,72.01857 c -1.677367,-0.09624 -1.959492,-0.538947 -1.638026,-2.570349 0.708124,-4.474769 4.446347,-8.515446 8.970696,-9.696501 3.397057,-0.886783 6.430893,-0.519791 9.608398,1.16229 l 1.517125,0.803124 1.069512,-0.966241 c 0.904357,-0.817032 1.152462,-0.921847 1.606675,-0.678759 0.715146,0.382734 0.704595,0.336609 1.109349,4.849686 0.392523,4.3767 0.283347,4.82933 -1.09783,4.551472 -0.38218,-0.07688 -2.061793,-0.334625 -3.732474,-0.572755 C 39.87401,68.662406 38.2369,68.364846 37.90667,68.239292 37.050523,67.913786 37.147179,66.996604 38.146257,65.965817 l 0.840005,-0.866665 -1.038443,-0.467063 c -1.64317,-0.739052 -4.924941,-0.647798 -6.549653,0.182121 -2.030987,1.037448 -4.146082,3.773474 -4.146082,5.363253 0,0.771266 -0.631193,1.692457 -1.248677,1.822374 -0.259113,0.05452 -1.101577,0.06295 -1.872141,0.01873 z m 2.412358,-1.771695 c 0.824764,-4.011715 4.026265,-6.728498 7.943781,-6.741065 1.882561,-0.006 4.178207,0.532241 5.034636,1.180515 0.471781,0.357116 0.442716,0.429801 -0.595313,1.488749 -0.600221,0.612316 -1.09131,1.205394 -1.09131,1.317951 0,0.381431 0.876092,0.537583 6.813021,1.214334 1.629842,0.185786 1.551024,0.462021 1.119217,-3.922555 -0.331767,-3.368767 -0.493258,-4.195221 -0.819756,-4.195221 -0.139593,0 -0.748947,0.461862 -1.354119,1.02636 l -1.100313,1.026361 -1.39799,-0.928213 c -1.580407,-1.049331 -4.382428,-1.919797 -6.164751,-1.915118 -2.897958,0.0076 -6.641894,1.64282 -8.669184,3.78638 -1.557162,1.64647 -2.920307,4.180845 -3.149978,5.856479 -0.251943,1.838122 -0.08062,2.035085 1.689922,1.942821 l 1.524555,-0.07945 z"
         id="path40" /><path
         style="fill:#142333"
         d="m 34.46198,84.484283 c 0.254662,-0.06655 0.67138,-0.06655 0.926042,0 0.254661,0.06655 0.0463,0.121 -0.463021,0.121 -0.509323,0 -0.717682,-0.05445 -0.463021,-0.121 z m -3.108854,-0.469519 c -1.023399,-0.468606 -0.631089,-0.475475 1.190625,-0.02085 1.28128,0.319758 1.344526,0.364427 0.529166,0.373731 -0.509322,0.0058 -1.283229,-0.152985 -1.719791,-0.352884 z m 5.953125,0.115593 C 38.630952,83.828704 40.182428,83.21924 40.542668,82.859001 40.712618,82.68905 40.990392,82.55 41.159945,82.55 c 0.169552,0 0.62199,-0.246766 1.005417,-0.54837 0.383426,-0.301604 0.696926,-0.450432 0.696666,-0.330729 -0.0014,0.650476 -4.492219,2.754665 -5.764009,2.700756 -0.64007,-0.02713 -0.617518,-0.05326 0.208232,-0.2413 z m -12.435417,-0.08541 c 0,-0.06114 0.312315,-0.315808 0.694035,-0.56592 0.381719,-0.250112 0.613213,-0.323977 0.514431,-0.164144 -0.188769,0.305434 -1.208466,0.921458 -1.208466,0.730064 z m 3.96875,-1.098072 c -1.056916,-0.720124 -1.58751,-0.803011 -2.117136,-0.330729 -0.315522,0.281361 -0.318585,0.261613 -0.02052,-0.132292 0.483412,-0.638847 0.884022,-0.585775 2.477755,0.328247 0.758831,0.435197 1.201098,0.785521 0.982817,0.778498 -0.218282,-0.007 -0.813594,-0.296699 -1.322916,-0.643724 z m -4.975503,-1.322916 c 0.0054,-0.436563 0.06469,-0.583125 0.131773,-0.325694 0.06708,0.257431 0.06267,0.614618 -0.0098,0.79375 -0.07247,0.179131 -0.127362,-0.03149 -0.121969,-0.468056 z M 43.52396,80.9625 c 0.263389,-0.291041 0.53842,-0.529166 0.611181,-0.529166 0.07276,0 -0.08321,0.238125 -0.346598,0.529166 -0.263389,0.291042 -0.538421,0.529167 -0.611181,0.529167 -0.07276,0 0.08321,-0.238125 0.346598,-0.529167 z M 23.454779,79.044271 c -0.238351,-1.984373 -0.197838,-3.656749 0.07211,-2.976563 0.218147,0.54967 0.396595,4.365626 0.204153,4.365626 -0.06018,0 -0.184493,-0.625079 -0.276259,-1.389063 z m 11.073347,1.151591 c -0.950557,-0.155447 -0.852656,-0.190269 0.961363,-0.341941 1.110833,-0.09288 2.403859,-0.367527 2.873392,-0.610332 0.469533,-0.242805 0.769494,-0.305222 0.666582,-0.138706 -0.193319,0.312797 -1.290657,0.844425 -1.987795,0.963029 -0.218282,0.03714 -0.635,0.120058 -0.926042,0.184272 -0.291042,0.06421 -1.005417,0.03887 -1.5875,-0.05632 z M 44.617624,79.72904 c 0.08057,-0.314602 0.349714,-0.790852 0.598103,-1.058334 0.248389,-0.267482 0.537705,-0.711732 0.642923,-0.987221 0.105219,-0.27549 0.256815,-0.435382 0.33688,-0.355317 0.171772,0.171772 -0.451962,1.37582 -1.197385,2.311415 -0.489099,0.613879 -0.516471,0.620314 -0.380521,0.08946 z M 31.602133,79.515706 c -0.646735,-0.489166 -0.51139,-0.491849 0.809326,-0.01604 0.876685,0.315837 0.94213,0.383271 0.381299,0.392892 -0.372369,0.0064 -0.90815,-0.163194 -1.190625,-0.376848 z m 7.953076,-0.934456 c 0.08994,-0.145521 0.216026,-0.264583 0.280199,-0.264583 0.06417,0 0.116676,0.119062 0.116676,0.264583 0,0.145521 -0.126089,0.264583 -0.280198,0.264583 -0.154109,0 -0.206613,-0.119062 -0.116677,-0.264583 z m -8.598958,-0.39326 c 0.218281,-0.289054 0.635,-0.727784 0.926041,-0.974956 0.462596,-0.392867 0.485016,-0.521764 0.178217,-1.024591 -0.291545,-0.477825 -0.291545,-0.555386 0,-0.458204 0.193023,0.06434 0.35095,0.44899 0.35095,0.854776 0,0.534351 -0.255349,0.929535 -0.926042,1.43316 -0.692865,0.520274 -0.826109,0.563033 -0.529166,0.169815 z m 9.412491,-0.103898 c -0.08044,-0.130149 0.04723,-0.397205 0.283699,-0.593458 0.746536,-0.61957 1.652421,-2.264716 1.975124,-3.586953 0.448284,-1.836789 0.584648,-1.937015 2.635436,-1.937015 2.042833,0 2.322228,0.224262 2.147202,1.723488 -0.150355,1.287894 -0.44666,1.15403 -0.44666,-0.201791 v -1.124822 h -1.834794 -1.834794 l -0.32228,1.263337 c -0.177254,0.694836 -0.342401,1.349679 -0.366993,1.455209 -0.137252,0.58897 -0.895059,1.911663 -1.095244,1.911663 -0.12894,0 -0.234437,0.127567 -0.234437,0.283482 0,0.423213 -0.737538,1.079857 -0.906259,0.80686 z m 6.359401,-2.280967 c 0.217612,-0.972854 0.369048,-1.184041 0.36364,-0.507118 -0.0022,0.278915 -0.124907,0.685712 -0.27262,0.903993 -0.196138,0.28984 -0.220685,0.182805 -0.09102,-0.396875 z M 27.281692,75.38482 c -0.638559,-0.125419 -1.22395,-0.290968 -1.300868,-0.367886 -0.228066,-0.228065 0.992282,-0.140875 3.387927,0.242058 l 2.248958,0.359485 -1.5875,-0.0028 c -0.873125,-0.0015 -2.109958,-0.105427 -2.748517,-0.230846 z m -3.998358,-0.532507 c 0,-0.131897 0.238125,-0.239813 0.529166,-0.239813 0.291042,0 0.529167,0.04565 0.529167,0.101433 0,0.05579 -0.238125,0.163704 -0.529167,0.239813 -0.291041,0.07611 -0.529166,0.03046 -0.529166,-0.101433 z m -0.501398,-3.127468 c -0.278683,-0.176464 -0.335422,-0.65334 -0.23161,-1.946617 0.155147,-1.932811 1.385259,-4.759655 2.520796,-5.792885 0.743388,-0.676413 0.602755,-0.299735 -0.388442,1.04042 -1.366779,1.847962 -2.177973,4.58804 -1.801888,6.08648 0.150964,0.601491 0.247689,0.628168 1.976041,0.544999 0.999519,-0.0481 1.761724,0.0018 1.693789,0.110987 -0.172673,0.277407 -3.319274,0.241184 -3.768686,-0.04338 z m 3.985951,-0.816512 c 0.0043,-0.218281 0.103104,-0.694531 0.219614,-1.058333 0.170293,-0.531742 0.213361,-0.557685 0.219613,-0.132292 0.0043,0.291042 -0.09455,0.767292 -0.219613,1.058333 -0.139313,0.324197 -0.224379,0.37544 -0.219614,0.132292 z m 16.094614,-1.852083 -0.926041,-0.194924 0.926041,-0.0035 c 0.509323,-0.0019 1.283229,0.08736 1.719792,0.198449 l 0.79375,0.201975 -0.79375,-0.0035 c -0.436563,-0.0019 -1.210469,-0.09124 -1.719792,-0.198449 z m 3.230715,-0.105606 c 0.187638,-0.203604 0.382848,-0.330588 0.4338,-0.282187 0.156938,0.149082 -0.240807,0.652376 -0.515561,0.652376 -0.14267,0 -0.105878,-0.166585 0.08176,-0.370189 z M 27.403881,68.527083 c 0.222458,-0.829768 1.810934,-2.810912 2.578146,-3.21546 0.371454,-0.195866 0.222045,0.06426 -0.41896,0.729428 -0.54797,0.568624 -1.297857,1.509428 -1.666415,2.090676 -0.483151,0.76197 -0.620631,0.872272 -0.492771,0.395356 z m 11.225287,-0.08744 c -1.562316,-0.406036 -1.683912,-1.079617 -0.434116,-2.404787 0.504229,-0.534638 0.979543,-0.870516 1.056254,-0.746396 0.07671,0.124121 -0.270014,0.567101 -0.770499,0.9844 -1.536825,1.281389 -1.242259,1.676755 1.603569,2.152304 1.405296,0.234831 1.596776,0.311231 0.79375,0.316703 -0.582083,0.004 -1.594114,-0.132034 -2.248958,-0.302224 z m 7.565046,-0.734588 c -0.06618,-0.202729 -0.189818,-1.380629 -0.274752,-2.617557 -0.08493,-1.236927 -0.223369,-2.804419 -0.307635,-3.483316 -0.148759,-1.198493 -0.176893,-1.231361 -0.968294,-1.131203 -0.573785,0.07262 -0.732115,0.02019 -0.534824,-0.177106 0.154144,-0.154143 0.553868,-0.240414 0.888278,-0.191713 0.769222,0.112023 0.952107,0.777236 1.293123,4.703511 0.241629,2.781991 0.207091,3.825529 -0.0959,2.897384 z m -8.62338,-3.279015 c -0.509323,-0.196139 -0.747448,-0.360305 -0.529166,-0.364812 0.218281,-0.0045 0.754062,0.155358 1.190625,0.355257 1.021836,0.467891 0.546549,0.474757 -0.661459,0.0096 z m -5.087913,-0.406926 c 0.621387,-0.299076 1.275576,-0.453677 1.453754,-0.343557 0.310791,0.192079 0.184896,0.240069 -1.922091,0.732684 -0.363802,0.08506 -0.153051,-0.09005 0.468337,-0.389127 z m 3.450804,-0.17069 c 0.190996,-0.07643 0.419199,-0.06703 0.507118,0.02089 0.08792,0.08792 -0.06835,0.150452 -0.347266,0.138964 -0.308224,-0.0127 -0.370919,-0.07539 -0.159852,-0.159853 z m -9.880442,-0.89317 c 0.319641,-0.832973 4.770023,-3.336029 5.499223,-3.092962 0.16871,0.05624 -0.37268,0.383854 -1.203088,0.728039 -0.830409,0.344185 -1.509834,0.722945 -1.509834,0.841688 0,0.118743 -0.229621,0.215896 -0.510268,0.215896 -0.280647,0 -0.671306,0.148828 -0.868131,0.330729 -1.142877,1.056221 -1.545668,1.335622 -1.407902,0.97661 z M 41.358604,61.67806 c -0.583199,-0.422467 -1.406139,-0.943766 -1.828754,-1.158441 -1.015365,-0.515774 -4.903182,-1.062452 -6.286353,-0.883943 -0.820001,0.105826 -0.92977,0.08379 -0.435163,-0.08737 1.010964,-0.34984 3.145286,-0.303548 4.7625,0.103295 1.83702,0.462139 3.175001,0.993357 3.175001,1.26057 0,0.113617 0.156143,0.206576 0.346984,0.206576 0.190842,0 0.596686,0.232632 0.901876,0.51696 0.551412,0.513718 0.557443,0.513304 0.962054,-0.06615 0.22394,-0.320708 0.413408,-0.45273 0.421041,-0.293383 0.0076,0.159347 -0.20498,0.487785 -0.472473,0.729863 -0.457075,0.413647 -0.550177,0.393905 -1.546713,-0.327982 z"
         id="path39" /></g></g></svg>
