<?xml version="1.0" encoding="UTF-8" standalone="no"?>
<!-- Created with Inkscape (http://www.inkscape.org/) -->

<svg
   width="27.045101mm"
   height="27.281136mm"
   viewBox="0 0 27.045101 27.281136"
   version="1.1"
   id="svg1"
   xml:space="preserve"
   xmlns="http://www.w3.org/2000/svg"
   xmlns:svg="http://www.w3.org/2000/svg"><defs
     id="defs1" /><g
     id="layer1"
     transform="translate(-54.223652,-169.33334)"><g
       id="g180"
       transform="translate(34.660417,-0.79375)"><path
         style="fill:#9dc7c2"
         d="m 21.298959,197.12905 c -0.291042,-0.11912 -0.767292,-0.48116 -1.058333,-0.80453 -0.509946,-0.56659 -0.531859,-1.01546 -0.603282,-12.35751 l -0.07411,-11.76957 1.035175,-1.03518 1.035175,-1.03517 h 9.304684 c 7.551978,0 9.439266,0.0712 10.019149,0.37779 0.838387,0.44332 4.891069,4.52484 5.308033,5.34581 0.392594,0.77298 0.444092,19.17965 0.05569,19.90538 -0.15416,0.28805 -0.594756,0.77109 -0.979102,1.07342 -0.683759,0.53784 -0.944553,0.54932 -12.106361,0.53291 -6.274151,-0.009 -11.645673,-0.11423 -11.936715,-0.23335 z"
         id="path195" /><path
         style="fill:#89c1b4"
         d="m 21.10202,196.91488 c -1.501872,-0.9312 -1.522853,-1.11346 -1.522853,-13.22875 v -11.09954 l 0.604475,-0.89902 c 0.34538,-0.51368 0.997474,-1.03438 1.521354,-1.21482 1.295858,-0.44632 17.830635,-0.44896 18.82718,-0.003 0.719985,0.3222 3.218782,2.62399 5.042305,4.64476 l 0.992188,1.09952 v 9.40508 c 0,7.88924 -0.06469,9.53018 -0.401354,10.18122 -0.81366,1.57345 -0.864504,1.57953 -13.145404,1.5718 -10.068944,-0.006 -11.264634,-0.0522 -11.917891,-0.45725 z m 11.706315,-3.06872 c 0.509323,-0.0452 -0.56224,-0.10039 -2.381251,-0.12263 -1.81901,-0.0222 -3.170782,0.047 -3.003937,0.15396 0.280147,0.17952 3.201292,0.16252 5.385188,-0.0313 z m 2.309592,-0.0664 c -0.08792,-0.0879 -0.316122,-0.0973 -0.507118,-0.0209 -0.211067,0.0845 -0.148372,0.14715 0.159852,0.15985 0.278915,0.0115 0.435185,-0.051 0.347266,-0.13896 z m -6.350001,-2.91042 c -0.08792,-0.0879 -0.316122,-0.0973 -0.507118,-0.0209 -0.211066,0.0845 -0.148372,0.14716 0.159853,0.15985 0.278915,0.0115 0.435184,-0.051 0.347265,-0.13896 z m 6.752388,-0.037 c -1.200547,-0.049 -3.165078,-0.049 -4.365625,0 -1.200547,0.049 -0.218282,0.0891 2.182812,0.0891 2.401094,0 3.38336,-0.0401 2.182813,-0.0891 z m -9.936959,-3.17156 c -0.06708,-0.25743 -0.126382,-0.11087 -0.131774,0.32569 -0.0054,0.43657 0.04949,0.64719 0.12197,0.46806 0.07248,-0.17913 0.07689,-0.53632 0.0098,-0.79375 z m 4.253155,0.26893 c -0.397576,-0.0604 -1.111951,-0.0616 -1.5875,-0.003 -0.475549,0.0589 -0.150259,0.10828 0.722866,0.10977 0.873125,10e-4 1.262211,-0.0467 0.864634,-0.10707 z m 8.858804,0.0138 c -0.181901,-0.0734 -0.479557,-0.0734 -0.661458,0 -0.181901,0.0734 -0.03307,0.13345 0.330729,0.13345 0.363802,0 0.51263,-0.06 0.330729,-0.13345 z m -13.114572,-1.72647 c -0.08446,-0.21106 -0.147157,-0.14837 -0.159853,0.15985 -0.01149,0.27892 0.05105,0.43519 0.138964,0.34727 0.08792,-0.0879 0.09732,-0.31612 0.02089,-0.50712 z m 3.862722,-14.57035 2.174246,-0.089 -2.315105,-0.0538 -2.315104,-0.0539 0.05656,3.10886 0.05656,3.10885 0.0843,-2.966 0.0843,-2.966 z m 3.816179,4.23507 c -0.06306,-0.32743 -0.114662,-0.0595 -0.114662,0.59531 0,0.65484 0.0516,0.92273 0.114662,0.59531 0.06306,-0.32742 0.06306,-0.8632 0,-1.19062 z m 3.975118,-1.97848 c -0.05728,-0.54895 -0.105099,-0.16465 -0.106272,0.854 -0.0012,1.01864 0.04569,1.46778 0.104137,0.99808 0.05845,-0.46969 0.05941,-1.30313 0.0021,-1.85208 z m -3.978489,-0.26545 c -0.06708,-0.25743 -0.126382,-0.11087 -0.131774,0.3257 -0.0054,0.43656 0.04949,0.64718 0.12197,0.46805 0.07247,-0.17913 0.07689,-0.53632 0.0098,-0.79375 z m 1.404146,-1.68699 c 0,-0.16109 0.148828,-0.23709 0.330729,-0.1689 0.181901,0.0682 0.568854,0.0362 0.859896,-0.0711 0.343197,-0.12652 0.06812,-0.18984 -0.782703,-0.18019 -0.721529,0.008 -1.154541,0.0673 -0.962249,0.13141 0.286046,0.0953 0.284038,0.15809 -0.01105,0.34505 -0.282256,0.17882 -0.260004,0.22938 0.102353,0.23255 0.254662,0.002 0.463021,-0.12775 0.463021,-0.28884 z"
         id="path194" /><path
         style="fill:#87baaf"
         d="m 21.10202,196.91488 c -1.501872,-0.9312 -1.522853,-1.11346 -1.522853,-13.22875 v -11.09954 l 0.604475,-0.89902 c 0.34538,-0.51368 0.997474,-1.03438 1.521354,-1.21482 1.295858,-0.44632 17.830635,-0.44896 18.82718,-0.003 0.719985,0.3222 3.218782,2.62399 5.042305,4.64476 l 0.992188,1.09952 v 9.40508 c 0,7.88924 -0.06469,9.53018 -0.401354,10.18122 -0.81366,1.57345 -0.864504,1.57953 -13.145404,1.5718 -10.068944,-0.006 -11.264634,-0.0522 -11.917891,-0.45725 z m 4.808551,-2.41607 c 0.0162,0.37195 0.452942,0.42127 3.392034,0.38303 4.279419,-0.0557 8.26823,-0.4166 8.26823,-0.74815 0,-0.1407 0.238006,-0.19358 0.528903,-0.11751 0.290897,0.0761 0.59558,0.0304 0.677073,-0.10143 0.08149,-0.13186 0.267233,-0.23974 0.412754,-0.23974 0.145521,0 0.197283,0.10889 0.115028,0.24198 -0.08225,0.13309 1.5e-5,0.31059 0.182823,0.39443 0.182807,0.0839 0.06449,0.086 -0.262935,0.005 -0.337779,-0.0838 -0.595313,-0.0255 -0.595313,0.13474 0,0.15532 0.02977,0.28981 0.06615,0.29886 0.03638,0.009 0.572162,0.0745 1.190625,0.14552 1.037832,0.11913 1.124479,0.0816 1.124479,-0.48682 0,-0.33873 -0.238125,-0.81977 -0.529166,-1.06897 -0.504416,-0.43189 -0.529167,-0.42773 -0.529167,0.0891 0,0.31715 -0.117301,0.46969 -0.282621,0.36752 -0.155442,-0.0961 -0.209849,-0.36431 -0.120906,-0.59609 0.13751,-0.35835 0.08593,-0.35284 -0.344595,0.0368 -0.453783,0.41067 -1.113771,0.4503 -6.361625,0.38204 -4.469201,-0.0581 -5.855257,1.6e-4 -5.855075,0.24626 1.43e-4,0.19395 0.184739,0.25622 0.463259,0.15628 0.484504,-0.17385 0.46022,-0.13018 -0.209295,0.37642 -0.334525,0.25313 -0.41528,0.20833 -0.449767,-0.2495 -0.0451,-0.59866 -0.671493,-1.15548 -0.818745,-0.72779 -0.04881,0.14176 -0.197637,0.19045 -0.330729,0.1082 -0.133092,-0.0823 -0.233617,0.24442 -0.223389,0.72595 0.0155,0.72952 0.05652,0.78727 0.245987,0.34635 0.172556,-0.40156 0.231875,-0.42622 0.245987,-0.10224 z m 0.560802,-5.21706 c 0.572021,0.0201 0.75014,0.13537 0.656152,0.42451 -0.07095,0.21828 0.06163,0.12898 0.29463,-0.19844 0.387925,-0.54513 1.098164,-0.88441 0.78263,-0.37387 -0.182196,0.2948 3.871045,0.0535 4.193445,-0.24968 0.264067,-0.2483 0.114164,-0.27816 -1.684514,-0.33557 -0.569956,-0.0182 -1.125581,-0.12237 -1.234722,-0.23151 -0.10914,-0.10914 1.805781,-0.19843 4.255382,-0.19843 4.566234,0 5.386129,0.13496 2.624285,0.43199 -2.202157,0.23684 -2.973763,0.57977 -1.43366,0.63717 0.654844,0.0244 1.617424,0.0716 2.139066,0.10495 0.738818,0.0472 1.004108,-0.0613 1.200309,-0.49062 0.138527,-0.30316 0.405188,-0.51849 0.59258,-0.4785 0.187391,0.04 0.265304,-0.0493 0.173139,-0.19844 -0.09217,-0.14913 -0.04148,-0.27114 0.112625,-0.27114 0.50271,0 0.294385,0.72832 -0.248968,0.87041 -0.291042,0.0761 -0.527344,0.29836 -0.525116,0.49388 0.0031,0.26997 0.06576,0.26002 0.260532,-0.0414 0.141064,-0.21828 0.258304,-0.30758 0.260532,-0.19844 0.0022,0.10914 -0.01607,0.2282 -0.04066,0.26458 -0.02459,0.0364 0.0889,0.3158 0.2522,0.62093 0.220926,0.4128 0.218826,0.63286 -0.0082,0.8599 -0.167814,0.16781 -0.240226,0.30511 -0.160916,0.30511 0.07931,0 0.371014,-0.25859 0.64823,-0.57465 0.277215,-0.31605 0.367675,-0.49533 0.201023,-0.39839 -0.166653,0.0969 -0.371276,-0.002 -0.454717,-0.2191 -0.0952,-0.24809 0.0042,-0.39536 0.266889,-0.39536 0.312945,0 0.389714,-0.19682 0.304154,-0.77977 -0.06295,-0.42888 -0.01693,-0.71951 0.102262,-0.64585 0.119189,0.0737 0.216708,0.36503 0.216708,0.64749 0,0.28245 0.178594,0.51355 0.396875,0.51355 0.31498,0 0.396875,-0.38218 0.396875,-1.85208 0,-1.01865 -0.09525,-1.85209 -0.211666,-1.85209 -0.373903,0 -0.846667,0.6205 -0.846667,1.11125 0,0.54771 -0.110684,0.57723 -0.793635,0.21173 -0.335856,-0.17974 -0.457244,-0.46867 -0.378756,-0.9015 0.11161,-0.61549 0.08402,-0.62731 -0.817897,-0.35051 -0.566039,0.17373 -0.811543,0.36179 -0.623779,0.47783 0.206959,0.12791 0.143363,0.23393 -0.1918,0.31976 -0.424901,0.1088 -0.410573,0.13307 0.09389,0.15908 0.327422,0.0169 0.595312,-0.11543 0.595312,-0.29402 0,-0.17859 0.312335,-0.0124 0.694078,0.36936 0.381742,0.38174 0.612841,0.82552 0.513551,0.98617 -0.122817,0.19873 -2.037598,0.2921 -5.989947,0.2921 h -5.809421 l 0.06201,-0.81386 c 0.05325,-0.69886 0.475172,-1.45744 0.475771,-0.8554 3.23e-4,0.32508 2.313623,0.40489 2.510329,0.0866 0.09452,-0.15294 0.282691,-0.20957 0.418157,-0.12585 0.135466,0.0837 0.246301,0.0275 0.246301,-0.12501 0,-0.35006 -1.328722,-0.28093 -1.836726,0.0956 -0.286798,0.21255 -0.332188,0.20063 -0.182823,-0.048 0.145253,-0.24177 -0.07593,-0.33073 -0.822336,-0.33073 -0.561567,0 -1.181374,0.14883 -1.377347,0.33073 -0.195974,0.18191 -0.282125,0.19782 -0.191448,0.0354 0.190537,-0.34135 -0.703254,-1.24937 -0.968604,-0.98402 -0.09733,0.0973 -0.153309,1.91329 -0.124394,4.03547 0.02891,2.12218 0.09331,3.01264 0.143105,1.9788 l 0.09053,-1.87971 z m 0.119253,-0.63383 c -0.206952,-0.33485 0.143306,-0.33485 0.661458,0 0.342024,0.22103 0.33504,0.25704 -0.05053,0.26053 -0.246073,0.002 -0.52099,-0.11501 -0.610927,-0.26053 z m 0.874943,3.56488 c -0.08146,-0.0815 -0.229406,0.0654 -0.328765,0.32632 -0.143586,0.37708 -0.113195,0.40747 0.148112,0.14811 0.180821,-0.17948 0.262115,-0.39297 0.180653,-0.47443 z m 11.025242,-0.13511 c -0.07554,-0.12223 0.03146,-0.31886 0.237779,-0.43694 0.318414,-0.18224 0.31164,-0.2734 -0.0448,-0.60291 -0.369188,-0.3413 -0.401868,-0.34113 -0.270431,0.001 0.284832,0.74226 -0.421504,1.02181 -1.123154,0.44451 l -0.645413,-0.53103 0.727604,0.13383 c 0.400183,0.0736 0.727605,0.0359 0.727605,-0.0838 0,-0.11972 -2.489103,-0.25204 -5.531339,-0.29404 -3.042236,-0.042 -5.47599,0.0129 -5.408343,0.12207 0.06765,0.10914 -0.0031,0.19844 -0.157204,0.19844 -0.496901,0 -0.297553,0.57417 0.248968,0.71709 0.291042,0.0761 0.529167,0.24071 0.529167,0.36579 0,0.12508 2.440556,0.21852 5.423458,0.20765 2.982902,-0.0109 5.361648,-0.11977 5.286102,-0.24201 z m -8.923622,-0.16541 c 0.181901,-0.0734 0.479557,-0.0734 0.661458,0 0.181901,0.0734 0.03307,0.13345 -0.330729,0.13345 -0.363802,0 -0.51263,-0.06 -0.330729,-0.13345 z m 7.14375,0 c 0.181901,-0.0734 0.479557,-0.0734 0.661458,0 0.181901,0.0734 0.03307,0.13345 -0.330729,0.13345 -0.363802,0 -0.51263,-0.06 -0.330729,-0.13345 z m -8.929688,-0.34564 c 0,-0.14095 -0.198125,-0.18025 -0.440279,-0.0873 -0.296038,0.1136 -0.377603,0.0675 -0.248968,-0.14059 0.268893,-0.43508 0.86818,-0.38521 1.049511,0.0873 0.08376,0.21828 0.03697,0.39687 -0.103985,0.39687 -0.140953,0 -0.256279,-0.11532 -0.256279,-0.25628 z m 1.424159,-0.32312 c -0.07286,-0.11789 0.618695,-0.21252 1.536789,-0.2103 1.192286,0.003 1.555858,0.0788 1.272386,0.26561 -0.460586,0.30354 -2.613591,0.26115 -2.809175,-0.0553 z m 10.482092,-4.71227 c 0,-0.14552 -0.12609,-0.26458 -0.280199,-0.26458 -0.154109,0 -0.206613,0.11906 -0.116676,0.26458 0.08994,0.14553 0.216026,0.26459 0.280198,0.26459 0.06417,0 0.116677,-0.11906 0.116677,-0.26459 z m -6.510178,-0.83886 c -0.122962,-0.19896 -0.06714,-0.22766 0.164434,-0.0845 0.451065,0.27878 2.37432,0.33939 2.207566,0.0696 -0.06951,-0.11247 0.148532,-0.21473 0.484542,-0.22724 0.527955,-0.0196 0.503125,-0.057 -0.182823,-0.27487 -0.835305,-0.26532 -8.791715,-0.0316 -8.97577,0.26372 -0.05697,0.0914 0.897471,0.12767 2.120987,0.0806 1.223516,-0.0471 2.224652,0.0125 2.224746,0.13229 9.4e-5,0.11983 0.482192,0.24573 1.071328,0.27978 0.745459,0.0431 1.014551,-0.0297 0.88499,-0.23931 z m 6.895754,0.0634 c 0.08372,-0.13547 0.01282,-0.33246 -0.157558,-0.43776 -0.184638,-0.11411 -0.239157,-0.0772 -0.134959,0.0914 0.09615,0.15558 0.02525,0.34317 -0.157557,0.41687 -0.237898,0.0959 -0.242805,0.13994 -0.01726,0.15489 0.173313,0.0115 0.383614,-0.0899 0.467337,-0.22541 z m -2.573901,-0.44272 c -0.08792,-0.0879 -0.316122,-0.0973 -0.507118,-0.0209 -0.211067,0.0845 -0.148372,0.14716 0.159852,0.15985 0.278915,0.0115 0.435185,-0.051 0.347266,-0.13896 z m -3.570289,-6.83042 c -0.08342,-0.13625 0.05829,-0.16385 0.32189,-0.0627 0.879193,0.33738 3.58464,0.50006 3.58464,0.21555 0,-0.14921 -0.2946,-0.21787 -0.654667,-0.15257 -0.527329,0.0956 -0.621511,0.0323 -0.484204,-0.32551 0.129757,-0.33814 0.08075,-0.38647 -0.205228,-0.20238 -0.206631,0.13301 -0.984088,0.24184 -1.727683,0.24184 h -1.351991 l 0.02907,-2.77361 c 0.02857,-2.72543 0.04122,-2.77944 0.728669,-3.10986 0.957758,-0.46035 2.465437,-0.74622 2.270292,-0.43046 -0.08531,0.13802 0.103039,0.2704 0.418545,0.29417 0.454444,0.0342 0.49187,-0.008 0.180107,-0.20561 -0.338687,-0.21414 -0.332903,-0.24938 0.04149,-0.25287 0.295024,-0.003 0.422751,0.20153 0.396875,0.63474 -0.02357,0.39461 -0.139667,0.55461 -0.303717,0.41856 -0.338913,-0.28106 -0.183386,3.99473 0.15835,4.35338 0.354331,0.37186 0.290569,0.73475 -0.09123,0.51919 -0.262564,-0.14824 -0.263473,-0.11419 -0.0044,0.16519 0.464579,0.501 0.774881,0.067 0.391269,-0.5473 -0.176393,-0.28245 -0.31889,-0.78305 -0.316662,-1.11245 0.0033,-0.48372 0.05338,-0.52257 0.260532,-0.20203 0.175913,0.27221 0.257753,-0.36626 0.260532,-2.03251 l 0.0041,-2.42938 -5.423958,-0.0249 -5.423959,-0.0249 v 3.57045 c 0,3.22146 0.04303,3.55392 0.440279,3.40149 0.266754,-0.10237 0.374397,-0.0624 0.27312,0.10151 -0.110749,0.1792 0.937026,0.26134 3.104929,0.2434 1.915933,-0.0159 3.21032,-0.12794 3.123059,-0.27046 z m -6.672752,-1.41025 c 0.003,-0.73802 0.06975,-0.89052 0.260532,-0.59531 0.141064,0.21828 0.258303,0.60523 0.260532,0.85989 0.0022,0.25467 0.102493,0.46302 0.22281,0.46302 0.120318,0 0.185111,-0.38695 0.143984,-0.85989 l -0.07478,-0.8599 0.221587,0.79375 c 0.213395,0.7644 0.222745,0.75275 0.252892,-0.31511 0.01722,-0.60988 0.139263,-1.17559 0.271213,-1.25714 0.131949,-0.0816 0.177594,0.09 0.101433,0.38126 -0.08052,0.3079 -0.0083,0.52953 0.172581,0.52953 0.175596,0 0.22684,0.14403 0.11767,0.33073 -0.106363,0.1819 0.05832,0.11016 0.36595,-0.15944 0.307636,-0.26959 0.715055,-0.42782 0.905376,-0.35162 0.284795,0.11404 0.284741,0.14226 -3.05e-4,0.15945 -0.190489,0.0115 -0.273602,0.13858 -0.184695,0.28244 0.09711,0.15712 -0.0287,0.19016 -0.315114,0.0828 -0.410523,-0.15396 -0.428711,-0.11967 -0.130913,0.2468 0.297004,0.36549 0.27685,0.40755 -0.142695,0.29784 -0.285335,-0.0746 -0.69387,0.0991 -0.98217,0.41769 -0.271494,0.3 -0.713296,0.54545 -0.981784,0.54545 -0.388427,0 -0.487332,-0.20271 -0.484108,-0.99219 z m 4.758449,0.71199 c 0,-0.15411 0.119062,-0.20661 0.264583,-0.11668 0.145521,0.0899 0.264583,0.21603 0.264583,0.2802 0,0.0642 -0.119062,0.11668 -0.264583,0.11668 -0.145521,0 -0.264583,-0.12609 -0.264583,-0.2802 z m -4.477029,-2.78456 c 0.0127,-0.30822 0.07539,-0.37092 0.159852,-0.15985 0.07643,0.19099 0.06703,0.4192 -0.02089,0.50712 -0.08792,0.0879 -0.150453,-0.0684 -0.138964,-0.34727 z m 2.250119,0.22049 c -0.335113,-0.33512 -0.12444,-0.80778 0.440972,-0.98938 0.504166,-0.16192 0.524421,-0.21012 0.132292,-0.31484 -0.602257,-0.16083 -0.605054,-0.68017 -0.003,-0.56423 0.252991,0.0487 0.498436,0.28826 0.545435,0.5323 0.09039,0.46937 -0.85282,1.59899 -1.11566,1.33615 z m 2.878318,-0.0499 c 0.08441,-0.13657 -0.04913,-0.3617 -0.296754,-0.50028 -0.422675,-0.23654 -0.422866,-0.27931 -0.0031,-0.69905 0.245901,-0.2459 0.368071,-0.57495 0.271488,-0.73122 -0.104094,-0.16843 -0.05121,-0.20726 0.12986,-0.0953 0.383063,0.23675 0.405699,2.27422 0.02527,2.27422 -0.154109,0 -0.211136,-0.11174 -0.126727,-0.24832 z m -1.128995,-0.67772 c 0.0054,-0.43656 0.06469,-0.58312 0.131774,-0.32569 0.06708,0.25743 0.06267,0.61462 -0.0098,0.79375 -0.07248,0.17913 -0.127362,-0.0315 -0.12197,-0.46806 z m -4.094293,-0.74924 c -0.33714,-0.85719 -0.211798,-1.38551 0.338546,-1.42697 0.360834,-0.0272 0.529167,0.12324 0.529167,0.47286 0,0.282 -0.110333,0.51273 -0.245183,0.51273 -0.134851,0 -0.287197,0.20836 -0.338546,0.46302 -0.08679,0.4304 -0.106792,0.42888 -0.283984,-0.0216 z m 3.976567,-1.67494 c 0.181901,-0.0734 0.479557,-0.0734 0.661458,0 0.181901,0.0734 0.03307,0.13345 -0.330729,0.13345 -0.363802,0 -0.51263,-0.0601 -0.330729,-0.13345 z"
         id="path193" /><path
         style="fill:#79aba4"
         d="m 21.563542,197.12675 c -0.291041,-0.12038 -0.826823,-0.53904 -1.190625,-0.93035 l -0.661458,-0.71148 -0.07431,-11.35336 c -0.06441,-9.84131 -0.01963,-11.45909 0.336235,-12.14726 0.817198,-1.58028 0.914085,-1.59786 9.743108,-1.76738 4.446048,-0.0854 8.776253,-0.0692 9.622677,0.0359 1.518432,0.1886 1.575997,0.22771 4.317078,2.93336 l 2.778125,2.74221 0.07566,9.52948 c 0.06608,8.32257 0.02197,9.63331 -0.348302,10.34934 -0.794408,1.53622 -1.110701,1.57363 -13.146468,1.55515 -6.007408,-0.009 -11.160686,-0.11526 -11.451728,-0.23565 z m 19.386569,-7.08977 -0.07198,-4.96093 -7.739063,-0.076 -7.739063,-0.076 v 5.03694 5.03695 h 7.811047 7.811047 z m -13.607184,3.22854 c -0.08861,-0.23091 -0.04762,-0.53332 0.09109,-0.67203 0.148777,-0.14878 2.577336,-0.22286 5.922112,-0.18066 5.469675,0.069 5.669912,0.0902 5.669912,0.60072 0,0.51078 -0.200163,0.53164 -5.761005,0.60049 -5.059278,0.0626 -5.780628,0.0202 -5.922111,-0.34852 z m -0.0431,-3.09624 c 0.08423,-0.59306 0.105558,-0.59559 5.622057,-0.66697 5.534781,-0.0716 6.003532,-0.006 6.130985,0.86273 0.05082,0.34623 -0.735039,0.39955 -5.889474,0.39955 H 27.21528 Z m -0.04774,-2.84427 c 0,-0.64096 -0.486811,-0.58856 6.035072,-0.64962 4.807393,-0.045 5.398847,-0.003 5.613087,0.39716 0.131711,0.2461 0.164288,0.52265 0.07239,0.61454 -0.09189,0.0919 -2.766611,0.16708 -5.943816,0.16708 -5.600348,0 -5.776737,-0.0162 -5.776737,-0.52916 z m 10.735586,-12.22677 0.110919,-3.62781 -5.555799,-0.0764 -5.555799,-0.0764 2.55e-4,3.77568 2.55e-4,3.77568 5.444625,-0.0715 5.444625,-0.0715 z m -4.332669,2.64885 c -0.428808,-0.42881 -0.428808,-4.75703 0,-5.18584 0.463344,-0.46334 2.475848,-0.39677 2.970893,0.0983 0.519126,0.51912 0.597724,4.58811 0.09827,5.08756 -0.174625,0.17462 -0.865187,0.3175 -1.534583,0.3175 -0.669396,0 -1.359959,-0.14288 -1.534584,-0.3175 z m -12.274849,-5.64263 c -0.08146,-0.0815 -0.229406,0.0654 -0.328765,0.32632 -0.143586,0.37708 -0.113195,0.40748 0.148112,0.14811 0.180821,-0.17947 0.262115,-0.39297 0.180653,-0.47443 z"
         id="path192" /><path
         style="fill:#6c9791"
         d="m 21.439192,197.04069 c -0.359434,-0.18188 -0.924981,-0.73351 -1.256771,-1.22585 l -0.603254,-0.89517 v -10.94958 c 0,-11.74969 0.04983,-12.2336 1.35384,-13.14697 0.542123,-0.37971 1.771962,-0.43145 10.256303,-0.43145 h 9.640316 l 2.802375,2.76838 2.802376,2.76838 0.07566,9.52948 c 0.0845,10.64236 0.05847,10.8221 -1.672238,11.54523 -1.235568,0.51625 -22.385489,0.55019 -23.39861,0.0376 z m 4.489976,-1.10111 c 0,-0.0642 -0.119063,-0.19026 -0.264584,-0.2802 -0.145521,-0.0899 -0.264583,-0.0374 -0.264583,0.11668 0,0.15411 0.119062,0.2802 0.264583,0.2802 0.145521,0 0.264584,-0.0525 0.264584,-0.11668 z M 41.0104,190.17859 c 1.7e-5,-4.62476 -0.03377,-4.96971 -0.511754,-5.22553 -0.316571,-0.16942 -3.239642,-0.27389 -7.663608,-0.27389 -6.870266,0 -7.162935,0.0207 -7.433762,0.52679 -0.252859,0.47247 -0.351095,9.38726 -0.108198,9.8188 0.04926,0.0875 3.605809,0.14706 7.903436,0.13229 l 7.813867,-0.0268 z m -13.672882,3.07284 c -0.0894,-0.23297 -0.03375,-0.50318 0.123672,-0.60047 0.375595,-0.23213 10.996706,-0.17137 11.37932,0.0651 0.162093,0.10018 0.227644,0.35692 0.14567,0.57054 -0.12462,0.32476 -1.077918,0.38841 -5.817582,0.38841 -4.953449,0 -5.689043,-0.0534 -5.83108,-0.42358 z m 0.0059,-2.89513 c -0.08617,-0.22455 -0.09749,-0.46746 -0.02516,-0.5398 0.185169,-0.18516 11.269143,-0.16731 11.57002,0.0186 0.135839,0.084 0.17991,0.32743 0.09794,0.54105 -0.228895,0.59649 -11.413599,0.57739 -11.642794,-0.0199 z m 0.04099,-2.76671 c -0.423076,-0.68455 0.379866,-0.79375 5.836449,-0.79375 5.496538,0 5.672927,0.0164 5.672927,0.52917 0,0.51271 -0.176389,0.52916 -5.672927,0.52916 -3.496549,0 -5.735661,-0.1015 -5.836449,-0.26458 z m 10.353257,-8.84017 c 0.282693,-0.10848 0.362369,-0.94678 0.362369,-3.81263 v -3.67357 l -5.556251,-0.0491 -5.55625,-0.0491 v 3.82458 c 0,2.30236 0.104818,3.85968 0.263354,3.91278 0.421845,0.14127 10.087404,2.3e-4 10.486778,-0.15302 z m -4.082632,-1.00233 c -0.49945,-0.49945 -0.420851,-4.56844 0.09827,-5.08756 0.509061,-0.50906 2.318624,-0.54979 2.724024,-0.0613 0.326949,0.39395 0.485853,4.68668 0.191138,5.16354 -0.248009,0.40128 -2.608975,0.3898 -3.013436,-0.0147 z m 11.853334,-0.82938 c 0,-0.19422 -1.126938,-1.47243 -2.504307,-2.84046 -2.556102,-2.53877 -3.845693,-3.32338 -3.845693,-2.33978 0,0.35472 0.185736,0.50628 0.620451,0.50628 0.341248,0 0.831675,0.2334 1.089837,0.51867 0.258162,0.28527 0.544506,0.49544 0.63632,0.46704 0.333515,-0.10313 1.599616,1.21855 1.438407,1.50156 -0.09113,0.15997 -0.06939,0.20373 0.04831,0.0972 0.217404,-0.1967 0.558387,0.12764 1.696353,1.61357 0.706966,0.92314 0.820323,0.9889 0.820323,0.47589 z m -23.942481,-4.40563 c -0.05266,-0.0852 0.103866,-0.18093 0.347843,-0.21271 0.499178,-0.065 3.176666,-0.28864 3.684741,-0.30776 0.181901,-0.007 0.33073,-0.1315 0.33073,-0.27702 0,-0.15301 -0.841856,-0.26459 -1.996402,-0.26459 -1.766858,0 -2.071072,0.0747 -2.645833,0.64944 -0.78992,0.78992 -0.876464,1.34892 -0.13738,0.88735 0.281629,-0.17588 0.468964,-0.3895 0.416301,-0.47471 z"
         id="path191" /><path
         style="fill:#458d85"
         d="m 21.828126,197.19518 c -0.842064,-0.21231 -1.69861,-1.15277 -1.983302,-2.17761 -0.288627,-1.039 -0.375126,-20.83741 -0.09711,-22.22748 0.0927,-0.46349 0.522728,-1.1969 0.955619,-1.62979 l 0.787074,-0.78708 9.75474,0.0754 9.75474,0.0754 2.405469,2.38125 c 1.323008,1.30969 2.575534,2.70276 2.783392,3.09572 0.570798,1.07909 0.554122,18.41341 -0.01888,19.62092 -0.787245,1.65899 -0.497778,1.62102 -12.700078,1.66589 -6.111875,0.0225 -11.350626,-0.0192 -11.641667,-0.0926 z m 19.182292,-6.53458 c 0,-4.91731 -0.05493,-5.68131 -0.418514,-5.82083 -0.230183,-0.0883 -3.668417,-0.1606 -7.640521,-0.1606 -5.865871,0 -7.279704,0.0695 -7.529277,0.37024 -0.310343,0.37394 -0.403648,10.12961 -0.104341,10.90959 0.11309,0.29471 1.581684,0.36184 7.915752,0.36184 h 7.776901 z m -13.576826,2.84314 c -0.09983,-0.0998 -0.181508,-0.34026 -0.181508,-0.53429 0,-0.28333 1.149762,-0.35278 5.840234,-0.35278 5.419645,0 5.833825,0.0334 5.751231,0.46302 -0.08088,0.42075 -0.597489,0.46953 -5.658727,0.53429 -3.063347,0.0392 -5.651401,-0.0104 -5.75123,-0.11024 z m -0.046,-2.99853 c -0.426805,-0.69058 0.367061,-0.79895 5.852631,-0.79895 5.278781,0 5.685861,0.0336 5.603324,0.46302 -0.0809,0.42085 -0.598973,0.46951 -5.689109,0.53437 -3.597181,0.0458 -5.659742,-0.0251 -5.766846,-0.19844 z m -0.01425,-2.93347 c -0.414062,-0.66997 0.520658,-0.78424 5.850605,-0.71527 4.713993,0.061 5.537509,0.13068 5.537509,0.46854 0,0.33803 -0.83072,0.40745 -5.603563,0.46822 -3.882045,0.0494 -5.659166,-0.0186 -5.784551,-0.22149 z m 1.532384,-7.30113 c -0.181901,-0.0734 -0.479557,-0.0734 -0.661458,0 -0.181901,0.0734 -0.03307,0.13345 0.330729,0.13345 0.363802,0 0.51263,-0.06 0.330729,-0.13345 z m 8.775757,-1.30829 c 0.354807,-0.13615 0.418515,-0.74029 0.418515,-3.96875 v -3.80815 h -5.556251 -5.55625 v 3.79236 c 0,2.0858 0.07937,3.87174 0.176389,3.96875 0.220445,0.22045 9.946224,0.23505 10.517597,0.0158 z m -4.070093,-1.4095 c -0.150641,-0.28148 -0.273893,-1.40983 -0.273893,-2.50745 0,-1.78002 0.06433,-2.03694 0.595313,-2.37761 0.5876,-0.377 1.972632,-0.40231 2.54824,-0.0466 0.412871,0.25517 0.394212,4.71022 -0.02147,5.1259 -0.174625,0.17462 -0.82528,0.3175 -1.4459,0.3175 -0.844826,0 -1.19723,-0.12861 -1.402291,-0.51177 z m 11.800024,-0.8967 c -0.08172,-0.3256 -1.267934,-1.68971 -2.636027,-3.03135 -2.596742,-2.54654 -3.617056,-3.05504 -3.617056,-1.80266 0,0.4998 0.110325,0.60784 0.513159,0.50249 0.378918,-0.0991 1.138354,0.46974 2.903062,2.17444 1.314446,1.26975 2.471395,2.56168 2.570997,2.87095 0.233731,0.72575 0.468782,0.0946 0.265865,-0.71387 z m -23.120984,-4.1264 c 0.545311,-0.17959 1.43828,-0.30587 1.984375,-0.28061 1.53343,0.0709 1.654359,0.0318 1.654359,-0.53452 0,-0.47821 -0.176389,-0.52917 -1.831784,-0.52917 -1.584659,0 -1.941605,0.0924 -2.645833,0.68498 -0.456963,0.38451 -0.810359,0.9358 -0.805636,1.25677 0.0074,0.50404 0.04661,0.52187 0.33073,0.15044 0.177273,-0.23175 0.768478,-0.5683 1.313789,-0.74789 z"
         id="path190" /><path
         style="fill:#3d8e82"
         d="m 21.828126,197.19518 c -0.842064,-0.21231 -1.69861,-1.15277 -1.983302,-2.17761 -0.288627,-1.039 -0.375126,-20.83741 -0.09711,-22.22748 0.0927,-0.46349 0.522728,-1.1969 0.955619,-1.62979 l 0.787074,-0.78708 9.75474,0.0754 9.75474,0.0754 2.405469,2.38125 c 1.323008,1.30969 2.575534,2.70276 2.783392,3.09572 0.570798,1.07909 0.554122,18.41341 -0.01888,19.62092 -0.787245,1.65899 -0.497778,1.62102 -12.700078,1.66589 -6.111875,0.0225 -11.350626,-0.0192 -11.641667,-0.0926 z m 19.182292,-6.53458 c 0,-4.91731 -0.05493,-5.68131 -0.418514,-5.82083 -0.230183,-0.0883 -3.668417,-0.1606 -7.640521,-0.1606 -5.865871,0 -7.279704,0.0695 -7.529277,0.37024 -0.310343,0.37394 -0.403648,10.12961 -0.104341,10.90959 0.11309,0.29471 1.581684,0.36184 7.915752,0.36184 h 7.776901 z m -13.576826,2.84314 c -0.09983,-0.0998 -0.181508,-0.34026 -0.181508,-0.53429 0,-0.28333 1.149762,-0.35278 5.840234,-0.35278 5.419645,0 5.833825,0.0334 5.751231,0.46302 -0.08088,0.42075 -0.597489,0.46953 -5.658727,0.53429 -3.063347,0.0392 -5.651401,-0.0104 -5.75123,-0.11024 z m -0.046,-2.99853 c -0.426805,-0.69058 0.367061,-0.79895 5.852631,-0.79895 5.278781,0 5.685861,0.0336 5.603324,0.46302 -0.0809,0.42085 -0.598973,0.46951 -5.689109,0.53437 -3.597181,0.0458 -5.659742,-0.0251 -5.766846,-0.19844 z m -0.01425,-2.93347 c -0.414062,-0.66997 0.520658,-0.78424 5.850605,-0.71527 4.713993,0.061 5.537509,0.13068 5.537509,0.46854 0,0.33803 -0.83072,0.40745 -5.603563,0.46822 -3.882045,0.0494 -5.659166,-0.0186 -5.784551,-0.22149 z m -3.292649,2.59754 c 0.002,-2.65576 0.07185,-5.12631 0.155243,-5.49011 0.123687,-0.53956 0.09493,-0.58832 -0.156047,-0.26458 -0.272122,0.35101 -0.295201,0.35114 -0.199715,0.001 0.05938,-0.21766 0.326085,-0.39626 0.592678,-0.39687 0.266594,-6.2e-4 0.540977,-0.16893 0.609741,-0.37402 0.08602,-0.25654 -0.01007,-0.32105 -0.307952,-0.20674 -0.305361,0.11718 -0.432977,0.021 -0.432977,-0.3264 0,-0.27091 0.188331,-0.56483 0.418514,-0.65316 0.659537,-0.25309 1.481372,-0.18742 1.301277,0.10398 -0.08994,0.14553 0.08537,0.26459 0.389564,0.26459 0.304197,0 0.621619,-0.1786 0.705381,-0.39688 0.08376,-0.21828 0.325177,-0.39687 0.536478,-0.39687 0.2113,0 0.316167,-0.11005 0.233036,-0.24456 -0.08313,-0.13451 0.05867,-0.30754 0.315115,-0.38452 0.256443,-0.077 0.01977,-0.10989 -0.525928,-0.0731 -0.545703,0.0367 -0.992187,-0.0283 -0.992187,-0.14465 0,-0.17126 2.75176,-0.36184 3.505729,-0.24279 0.109141,0.0172 0.198437,-0.0768 0.198437,-0.20898 0,-0.28388 2.37018,-0.23827 2.832008,0.0545 0.484254,0.30698 5.396345,0.17779 5.201907,-0.13682 -0.0962,-0.15565 0.04008,-0.20197 0.333473,-0.11334 0.272885,0.0824 0.73428,-0.0307 1.025321,-0.25152 0.498907,-0.37845 0.502372,-0.41659 0.06058,-0.66696 -0.27168,-0.15398 -0.386078,-0.39771 -0.272237,-0.58004 0.361517,-0.579 0.33101,-1.15231 -0.06132,-1.15231 -0.336312,0 -0.540787,0.88076 -0.322339,1.38845 0.03638,0.0846 -0.231511,0.31846 -0.595313,0.51979 -0.501875,0.27775 -1.986579,0.36833 -6.153971,0.37544 l -5.492512,0.009 -0.787969,-0.75302 c -0.433383,-0.41417 -0.710112,-0.83088 -0.614953,-0.92604 0.09516,-0.0952 0.04114,-0.17302 -0.12005,-0.17302 -0.420689,0 -0.649419,0.46489 -0.288003,0.58536 0.227862,0.076 0.225941,0.24757 -0.0077,0.68406 -0.437079,0.81669 -0.822381,0.72511 -0.822381,-0.19547 0,-0.42797 -0.119063,-0.85172 -0.264584,-0.94166 -0.336776,-0.20814 -0.34413,-1.26983 -0.0111,-1.60285 0.139414,-0.13942 0.288243,-0.75835 0.330729,-1.37541 0.04249,-0.61705 0.19631,-1.08265 0.341831,-1.03467 0.374461,0.12349 0.63451,2.3055 0.36181,3.03587 -0.129567,0.34701 -0.128134,0.54876 0.0033,0.46751 0.313869,-0.19398 0.825493,-2.2972 0.825493,-3.3935 0,-0.48983 -0.174808,-1.12172 -0.388461,-1.40419 -0.373147,-0.49335 -0.388792,-0.48589 -0.396875,0.18912 -0.0078,0.65372 -0.05439,0.68139 -0.667809,0.39688 -0.709846,-0.32924 -0.867344,-0.67958 -0.332793,-0.74026 0.181901,-0.0206 -0.145521,-0.12282 -0.727604,-0.22704 -0.939849,-0.16828 -0.858391,-0.19369 0.727604,-0.22704 1.718599,-0.0361 1.785938,-0.0625 1.785938,-0.699 0,-0.64186 -0.05427,-0.66146 -1.831784,-0.66146 -1.584659,0 -1.941605,0.0924 -2.645833,0.68498 l -0.81405,0.68498 v 10.6638 c 0,10.84033 1.54e-4,10.84216 0.926041,10.94781 0.160103,0.0183 0.249619,-0.8304 0.226687,-2.14913 -0.02084,-1.19862 0.02583,-1.76259 0.103707,-1.25327 0.136348,0.89167 0.149832,0.90149 0.363303,0.26458 0.140212,-0.41833 0.180301,0.12991 0.109069,1.4916 -0.06195,1.18418 -0.03971,2.22597 0.04942,2.3151 0.08913,0.0891 0.499394,0.16205 0.911703,0.16205 h 0.749653 z m -1.403192,4.03489 c 0.07611,-0.29104 0.184025,-0.52916 0.239813,-0.52916 0.05579,0 0.101433,0.23812 0.101433,0.52916 0,0.29104 -0.107916,0.52917 -0.239813,0.52917 -0.131898,0 -0.177542,-0.23813 -0.101433,-0.52917 z m 0.79375,-0.26458 c 0.07611,-0.29104 0.184025,-0.52917 0.239813,-0.52917 0.05579,0 0.101433,0.23813 0.101433,0.52917 0,0.29104 -0.107916,0.52917 -0.239813,0.52917 -0.131898,0 -0.177542,-0.23813 -0.101433,-0.52917 z m -1.263025,-4.51997 c -0.01569,-0.84587 -0.03307,-0.86325 -0.270268,-0.27026 -0.139423,0.34854 -0.299625,0.58667 -0.356005,0.52916 -0.220269,-0.22467 0.204854,-5.7931 0.442275,-5.7931 0.138821,0 0.221899,0.62508 0.184618,1.38906 -0.03728,0.76399 -0.04053,1.74625 -0.0072,2.18282 0.05284,0.69253 0.08923,0.72627 0.285384,0.26458 0.139908,-0.32931 0.168848,0.0205 0.07662,0.92604 -0.173803,1.70666 -0.331701,2.04951 -0.355407,0.7717 z m 0.822931,-5.00503 c 0.309672,-0.60458 0.300953,-0.63023 -0.101384,-0.29833 -0.376632,0.31069 -0.440193,0.30523 -0.440193,-0.0378 0,-0.22053 0.183101,-0.47123 0.406891,-0.55711 0.60659,-0.23277 0.800371,0.5967 0.25984,1.11223 -0.43921,0.4189 -0.445887,0.40722 -0.125154,-0.21895 z M 21.9726,182.06275 c -0.177995,-0.42972 -0.267364,-0.99908 -0.198597,-1.26525 0.08313,-0.32178 0.148633,-0.21796 0.195461,0.3098 0.144369,1.62702 0.426659,-1.54056 0.326359,-3.66206 -0.06758,-1.42946 -0.01,-2.0201 0.185312,-1.89942 0.190849,0.11796 0.23424,1.31089 0.132873,3.65306 -0.08279,1.91286 -0.188154,3.51555 -0.23415,3.56155 -0.046,0.046 -0.229263,-0.26796 -0.407258,-0.69768 z m 4.618026,0.23517 c 0.08994,-0.14552 0.216026,-0.26458 0.280198,-0.26458 0.06417,0 0.116677,0.11906 0.116677,0.26458 0,0.14552 -0.126089,0.26458 -0.280198,0.26458 -0.154109,0 -0.206614,-0.11906 -0.116677,-0.26458 z m -5.616479,-1.5875 c 0,-0.65484 0.0516,-0.92273 0.114662,-0.59531 0.06306,0.32742 0.06306,0.8632 0,1.19062 -0.06306,0.32743 -0.114662,0.0595 -0.114662,-0.59531 z m 4.068842,0.14077 c -0.183998,-0.47949 0.3441,-0.85435 0.606184,-0.43029 0.111459,0.18035 0.400024,0.22857 0.698023,0.11665 0.449489,-0.16881 0.466181,-0.13936 0.144887,0.25562 -0.447095,0.54965 -1.248132,0.58171 -1.449094,0.058 z m 8.49295,-0.316 c 0.181901,-0.0734 0.479557,-0.0734 0.661458,0 0.181901,0.0734 0.03307,0.13346 -0.330729,0.13346 -0.363802,0 -0.51263,-0.0601 -0.330729,-0.13346 z m -11.840105,-1.03101 c 0,-0.22687 0.121005,-0.3377 0.268899,-0.2463 0.147895,0.0914 0.200399,0.27702 0.116677,0.41249 -0.226811,0.36699 -0.385576,0.29856 -0.385576,-0.16619 z m -0.04141,-3.68855 c -0.05208,-0.65484 -0.0045,-1.19063 0.105649,-1.19063 0.11019,0 0.200344,0.53579 0.200344,1.19063 0,0.65484 -0.04754,1.19062 -0.105649,1.19062 -0.05811,0 -0.148263,-0.53578 -0.200344,-1.19062 z m -0.75234,-1.5875 c 0,-0.3638 0.102552,-0.66146 0.227893,-0.66146 0.125341,0 0.170993,0.29766 0.101447,0.66146 -0.06955,0.3638 -0.172097,0.66146 -0.227893,0.66146 -0.0558,0 -0.101447,-0.29766 -0.101447,-0.66146 z m 1.499306,0.48507 c -0.09701,-0.097 -0.176389,-0.52831 -0.176389,-0.95844 0,-0.68883 0.05076,-0.73992 0.425887,-0.42859 0.266432,0.22111 0.315963,0.39009 0.132292,0.45132 -0.161478,0.0538 -0.293596,0.21403 -0.293596,0.35601 0,0.14198 0.117699,0.18541 0.261553,0.0965 0.149982,-0.0927 0.194338,0.0135 0.103984,0.24897 -0.178159,0.46427 -0.208185,0.47978 -0.453731,0.23423 z m -0.653976,-1.27882 c 0.0054,-0.43656 0.06469,-0.58313 0.131774,-0.32569 0.06708,0.25743 0.06267,0.61461 -0.0098,0.79375 -0.07248,0.17913 -0.127362,-0.0315 -0.12197,-0.46806 z m 23.018839,20.85258 0.742082,-0.71096 v -8.60108 -8.60108 l -2.594207,-2.59421 c -1.706814,-1.70682 -2.792878,-2.59421 -3.175,-2.59421 -0.567672,0 -0.579749,0.0702 -0.534568,3.10886 0.02542,1.70987 0.09193,2.60012 0.147799,1.97834 0.05587,-0.62178 0.213659,-1.06124 0.35065,-0.97657 0.136992,0.0847 0.249076,-0.0387 0.249076,-0.27417 0,-0.23546 0.119062,-0.35452 0.264583,-0.26458 0.145521,0.0899 0.264584,0.0374 0.264584,-0.11668 0,-0.15411 -0.106037,-0.2802 -0.235637,-0.2802 -0.1296,0 -0.283605,-0.41089 -0.342234,-0.91309 -0.07704,-0.65993 -0.0233,-0.84396 0.193834,-0.66375 0.165238,0.13713 0.394903,0.16107 0.510366,0.0532 0.115462,-0.10788 0.08309,0.0483 -0.07194,0.34711 -0.229853,0.443 -0.182885,0.60507 0.254509,0.87823 0.295008,0.18424 0.60416,0.2672 0.687003,0.18435 0.08284,-0.0828 0.01172,-0.15062 -0.158056,-0.15062 -0.169774,0 -0.308681,-0.1796 -0.308681,-0.39912 0,-0.32844 0.09068,-0.34249 0.512053,-0.0793 0.281629,0.17588 0.461562,0.40147 0.399851,0.50132 -0.06171,0.0999 0.124584,0.24347 0.413989,0.31915 0.580295,0.15175 0.644185,0.38457 0.268573,0.97868 -0.189717,0.30008 -0.323289,0.32089 -0.557356,0.0868 -0.169313,-0.16931 -0.471927,-0.24487 -0.672475,-0.16791 -0.200549,0.0769 -0.372182,-0.0217 -0.381406,-0.21912 -0.0092,-0.19747 -0.124449,-0.0911 -0.256057,0.23628 -0.131608,0.32742 -0.141819,0.85879 -0.02269,1.18082 l 0.216594,0.58551 0.327184,-0.61135 0.327184,-0.61135 0.423461,0.60458 c 0.30378,0.43371 0.33463,0.63419 0.109155,0.70935 -0.172869,0.0576 -0.314308,0.33297 -0.314308,0.61188 0,0.27892 -0.119062,0.50712 -0.264583,0.50712 -0.145521,0 -0.264583,-0.26194 -0.264583,-0.58208 0,-1.03891 -0.594507,-0.0777 -0.684288,1.10639 -0.07262,0.95772 -0.0021,1.11709 0.59429,1.34385 0.536,0.20379 0.613767,0.33308 0.374067,0.6219 -0.344294,0.41485 -2.188318,0.71882 -1.941898,0.3201 0.09663,-0.15635 -0.03786,-0.16961 -0.349289,-0.0344 -0.278533,0.12091 -1.042205,0.21032 -1.697049,0.1987 l -1.190625,-0.0211 1.152694,0.23416 c 0.633982,0.12878 1.30116,0.35737 1.482618,0.50797 0.189895,0.15759 0.834716,0.20462 1.51928,0.11079 1.001838,-0.13732 1.222266,-0.0852 1.398074,0.33048 0.188671,0.44611 0.228093,0.42998 0.410505,-0.16796 0.110984,-0.3638 0.213658,-1.09992 0.228164,-1.63581 0.01971,-0.72829 0.160011,-1.01678 0.55554,-1.14231 0.525653,-0.16684 0.760168,-1.4006 0.34512,-1.81565 -0.285965,-0.28596 -0.326117,-0.96248 -0.05712,-0.96248 0.514781,0 0.635658,0.0615 0.571901,0.29104 -0.08809,0.31714 0.279682,0.30272 0.674687,-0.0265 0.23091,-0.19242 0.245341,-0.17799 0.05292,0.0529 -0.399024,0.47883 -0.317433,1.9731 0.132292,2.42283 0.255318,0.25532 0.384452,0.85188 0.362045,1.67254 -0.03377,1.2368 -0.04077,1.24746 -0.229754,0.34963 -0.127925,-0.60775 -0.206894,0.19335 -0.229753,2.33072 -0.02259,2.11228 0.05815,3.1993 0.229753,3.09324 0.162108,-0.10019 0.254369,0.27805 0.23821,0.97657 -0.02229,0.96345 -0.0592,1.03761 -0.23821,0.47864 -0.1741,-0.54363 -0.223612,-0.4258 -0.277948,0.66146 l -0.06611,1.32291 -0.171692,-1.19062 -0.171691,-1.19063 -0.196524,1.32292 c -0.2608,1.75559 -0.360336,2.26511 -0.583686,2.98783 -0.103102,0.33362 -0.08295,0.57175 0.04478,0.52917 0.283435,-0.0945 0.370291,0.1352 0.345939,0.91477 -0.01774,0.56804 -0.02902,0.57107 -0.245987,0.0661 -0.209726,-0.48806 -0.230458,-0.47779 -0.266875,0.13229 l -0.03949,0.66146 -0.220552,-0.66146 c -0.121303,-0.3638 -0.296292,-1.00293 -0.388863,-1.42028 -0.222932,-1.00508 -0.305713,-0.85424 -0.525346,0.95726 l -0.184456,1.52135 h 0.996748 c 0.721206,0 1.201891,-0.19654 1.73883,-0.71096 z m -0.696115,0.10424 c 0.09936,-0.26094 0.247304,-0.40778 0.328765,-0.32632 0.08146,0.0815 1.68e-4,0.29496 -0.180653,0.47443 -0.261307,0.25936 -0.291698,0.22897 -0.148112,-0.14811 z m -1.840967,-18.06851 c -0.09888,-0.25768 -0.03975,-0.37864 0.153593,-0.3142 0.39551,0.13184 0.613277,0.73318 0.26551,0.73318 -0.142078,0 -0.330675,-0.18854 -0.419103,-0.41898 z m 0.892608,-0.51345 c -0.511275,-0.61605 -0.146463,-0.73215 0.400713,-0.12752 0.264197,0.29193 0.35742,0.53078 0.207164,0.53078 -0.150257,0 -0.423801,-0.18147 -0.607877,-0.40326 z m -0.263329,12.77254 c 0.0022,-0.40019 0.123114,-0.72761 0.268635,-0.72761 0.145521,0 0.252715,-0.44648 0.23821,-0.99219 -0.02393,-0.90032 -0.04727,-0.93094 -0.252037,-0.33073 l -0.225664,0.66146 0.01674,-0.66146 c 0.04017,-1.58732 -0.05524,-2.02847 -0.438708,-2.02847 -0.325407,0 -0.396875,0.46057 -0.396875,2.55764 0,1.4067 0.08116,2.6388 0.180365,2.73801 0.271364,0.27136 0.604754,-0.39432 0.609334,-1.21665 z m 1.591552,-3.26946 c 0,-0.51681 -0.197741,-0.45867 -0.52598,0.15465 -0.228451,0.42686 -0.205804,0.49473 0.122983,0.36856 0.221648,-0.085 0.402997,-0.3205 0.402997,-0.52321 z m -0.587801,-1.00541 c -0.07044,-0.85106 -0.349706,-0.56102 -0.564293,0.58605 -0.144645,0.77321 -0.118027,0.82955 0.228303,0.48322 0.215621,-0.21562 0.366817,-0.69679 0.33599,-1.06927 z m -1.573502,-0.60756 c -0.153948,-0.1855 -0.385477,-0.27202 -0.51451,-0.19228 -0.404291,0.24987 -0.25646,0.52954 0.279906,0.52954 0.386926,0 0.445101,-0.0836 0.234604,-0.33726 z m -5.114739,-0.35821 c 0.655733,-0.17934 0.556547,-0.2084 -0.570431,-0.16713 -0.7503,0.0275 -1.322611,-0.017 -1.271802,-0.0989 0.05081,-0.0819 -1.448669,-0.1566 -3.332173,-0.16608 -1.883504,-0.009 -3.424553,0.0786 -3.424553,0.1956 0,0.11705 -0.208359,0.26727 -0.463021,0.33382 -0.254661,0.0666 1.501511,0.12073 3.902605,0.12039 2.401093,-3.3e-4 4.722812,-0.0983 5.159375,-0.2177 z m 2.645833,0.0151 c -0.08994,-0.14552 -0.364854,-0.25621 -0.610927,-0.24598 -0.364727,0.0152 -0.349618,0.0606 0.08176,0.24598 0.708002,0.30424 0.717196,0.30424 0.529167,0 z M 26.52448,183.18103 c -0.181901,-0.0734 -0.479557,-0.0734 -0.661458,0 -0.181901,0.0734 -0.03307,0.13345 0.330729,0.13345 0.363802,0 0.51263,-0.06 0.330729,-0.13345 z m 14.678864,0.0154 c -0.08792,-0.0879 -0.316122,-0.0973 -0.507118,-0.0209 -0.211067,0.0845 -0.148372,0.14716 0.159852,0.15986 0.278915,0.0115 0.435184,-0.0511 0.347266,-0.13897 z m -15.935635,-0.36931 c 0.08994,-0.14552 0.03743,-0.26459 -0.116677,-0.26459 -0.154109,0 -0.280198,0.11907 -0.280198,0.26459 0,0.14552 0.05251,0.26458 0.116677,0.26458 0.06417,0 0.190261,-0.11906 0.280198,-0.26458 z m 14.885898,-0.18179 c -0.252965,-0.0662 -0.729215,-0.0686 -1.058333,-0.005 -0.329119,0.0633 -0.122147,0.11747 0.459936,0.1204 0.582083,0.003 0.851362,-0.0488 0.598397,-0.11506 z m 3.744486,-1.47186 c -0.02067,-1.26253 -0.04509,-1.31676 -0.268062,-0.59531 -0.228268,0.73857 -0.125589,1.98437 0.163553,1.98437 0.06999,0 0.117017,-0.62507 0.104509,-1.38906 z m 0.468066,0.81029 c -0.08446,-0.21107 -0.147157,-0.14837 -0.159852,0.15985 -0.01149,0.27892 0.05104,0.43519 0.138964,0.34727 0.08792,-0.0879 0.09732,-0.31613 0.02089,-0.50712 z m -14.010733,-0.63941 c -0.08792,-0.0879 -0.316121,-0.0973 -0.507118,-0.0209 -0.211066,0.0845 -0.148372,0.14716 0.159853,0.15985 0.278915,0.0115 0.435184,-0.051 0.347265,-0.13896 z m 5.564848,-0.0219 c -0.252965,-0.0662 -0.729215,-0.0686 -1.058334,-0.005 -0.329118,0.0633 -0.122147,0.11747 0.459936,0.12041 0.582084,0.003 0.851363,-0.0489 0.598398,-0.11507 z M 31.485418,180.975 c -0.218281,-0.14106 -0.515938,-0.25648 -0.661458,-0.25648 -0.145521,0 -0.08599,0.11542 0.132291,0.25648 0.218281,0.14107 0.515938,0.25649 0.661459,0.25649 0.14552,0 0.08599,-0.11542 -0.132292,-0.25649 z m 12.880741,-0.57877 c -0.08446,-0.21107 -0.147157,-0.14837 -0.159852,0.15985 -0.01149,0.27892 0.05104,0.43519 0.138964,0.34727 0.08792,-0.0879 0.09732,-0.31613 0.02089,-0.50712 z m -6.32523,-5.3082 0.07322,-3.90261 h -5.563324 -5.563323 v 3.79236 c 0,2.0858 0.08177,3.87413 0.18171,3.97407 0.09994,0.0999 2.570487,0.14955 5.490104,0.11025 l 5.308395,-0.0715 z m -4.429535,2.46479 c -0.150641,-0.28148 -0.273893,-1.40983 -0.273893,-2.50745 0,-1.78002 0.06433,-2.03694 0.595313,-2.37761 0.5876,-0.377 1.972632,-0.40231 2.54824,-0.0466 0.412871,0.25517 0.394212,4.71022 -0.02147,5.1259 -0.174625,0.17462 -0.82528,0.3175 -1.4459,0.3175 -0.844826,0 -1.19723,-0.12861 -1.402291,-0.51177 z m 6.43312,-1.2165 c -0.209875,-0.54692 -0.357012,-0.48247 -0.357012,0.15638 0,0.29963 0.113862,0.47441 0.253028,0.3884 0.139165,-0.086 0.185958,-0.33116 0.103984,-0.54478 z"
         id="path189" /><path
         style="fill:#44867e"
         d="m 21.828126,197.19518 c -0.842064,-0.21231 -1.69861,-1.15277 -1.983302,-2.17761 -0.288627,-1.039 -0.375126,-20.83741 -0.09711,-22.22748 0.0927,-0.46349 0.522728,-1.1969 0.955619,-1.62979 l 0.787074,-0.78708 9.75474,0.0754 9.75474,0.0754 2.405469,2.38125 c 1.323008,1.30969 2.575534,2.70276 2.783392,3.09572 0.570798,1.07909 0.554122,18.41341 -0.01888,19.62092 -0.787245,1.65899 -0.497778,1.62102 -12.700078,1.66589 -6.111875,0.0225 -11.350626,-0.0192 -11.641667,-0.0926 z m 19.182292,-6.53458 c 0,-4.91731 -0.05493,-5.68131 -0.418514,-5.82083 -0.230183,-0.0883 -3.668417,-0.1606 -7.640521,-0.1606 -5.865871,0 -7.279704,0.0695 -7.529277,0.37024 -0.310343,0.37394 -0.403648,10.12961 -0.104341,10.90959 0.11309,0.29471 1.581684,0.36184 7.915752,0.36184 h 7.776901 z m -13.576826,2.84314 c -0.09983,-0.0998 -0.181508,-0.34026 -0.181508,-0.53429 0,-0.28333 1.149762,-0.35278 5.840234,-0.35278 5.419645,0 5.833825,0.0334 5.751231,0.46302 -0.08088,0.42075 -0.597489,0.46953 -5.658727,0.53429 -3.063347,0.0392 -5.651401,-0.0104 -5.75123,-0.11024 z m -0.046,-2.99853 c -0.426805,-0.69058 0.367061,-0.79895 5.852631,-0.79895 5.278781,0 5.685861,0.0336 5.603324,0.46302 -0.0809,0.42085 -0.598973,0.46951 -5.689109,0.53437 -3.597181,0.0458 -5.659742,-0.0251 -5.766846,-0.19844 z m -0.01425,-2.93347 c -0.414062,-0.66997 0.520658,-0.78424 5.850605,-0.71527 4.713993,0.061 5.537509,0.13068 5.537509,0.46854 0,0.33803 -0.83072,0.40745 -5.603563,0.46822 -3.882045,0.0494 -5.659166,-0.0186 -5.784551,-0.22149 z m -3.292649,2.59754 c 0.002,-2.65576 0.07185,-5.12631 0.155243,-5.49011 0.123687,-0.53956 0.09493,-0.58832 -0.156047,-0.26458 -0.272122,0.35101 -0.295201,0.35114 -0.199715,0.001 0.05938,-0.21766 0.336335,-0.39626 0.615456,-0.39687 0.27912,-6.2e-4 0.507492,-0.17972 0.507492,-0.398 0,-0.21828 0.119062,-0.48435 0.264583,-0.59126 0.328391,-0.24127 1.897696,-0.25383 2.763957,-0.0221 0.60293,0.16127 0.611996,0.1879 0.132291,0.3886 -0.283981,0.11882 1.692305,0.1879 4.405662,0.15399 3.688529,-0.0461 5.02921,-0.15165 5.354168,-0.42159 0.271001,-0.22511 0.757223,-0.3042 1.29705,-0.21099 2.179418,0.37632 2.542426,0.50212 2.41408,0.83659 -0.07899,0.20585 0.0495,0.32731 0.321022,0.30345 0.249004,-0.0219 0.510761,0.12562 0.581682,0.32778 0.07868,0.22426 0.01241,0.29554 -0.169961,0.18282 -0.214544,-0.13259 -0.298908,0.56203 -0.298908,2.4611 0,2.39008 0.261671,3.49634 0.617972,2.61257 0.0737,-0.18281 0.141578,0.382 0.150838,1.25512 0.01184,1.11662 -0.05924,1.46978 -0.239644,1.19063 -0.203423,-0.31478 -0.25792,-0.26005 -0.263443,0.26458 -0.0038,0.3638 -0.08076,1.10794 -0.170962,1.65364 l -0.163999,0.99219 h 1.012329 c 0.738114,0 1.21334,-0.19258 1.75441,-0.71096 l 0.742082,-0.71096 v -8.60108 -8.60108 l -2.594207,-2.59421 c -1.706814,-1.70682 -2.792878,-2.59421 -3.175,-2.59421 -0.567304,0 -0.57987,0.0722 -0.541054,3.10886 0.02886,2.25813 0.09039,2.78304 0.224844,1.91822 0.181489,-1.16736 0.185883,-1.17179 0.224845,-0.22674 0.02671,0.64789 0.191532,1.02272 0.502759,1.14338 0.433509,0.16805 0.431025,0.20304 -0.03898,0.54899 -0.276099,0.20323 -0.603521,0.30676 -0.727604,0.23008 -0.200399,-0.12386 -0.328509,0.97555 -0.159458,1.36844 0.03638,0.0846 -0.231511,0.31846 -0.595313,0.51979 -0.501875,0.27775 -1.986579,0.36833 -6.153971,0.37544 l -5.492512,0.009 -0.787969,-0.75302 c -0.433383,-0.41417 -0.710112,-0.83088 -0.614953,-0.92604 0.09516,-0.0952 0.04685,-0.17302 -0.107357,-0.17302 -0.154206,0 -0.351279,-0.18478 -0.437942,-0.41062 -0.08666,-0.22583 -0.05363,-0.34638 0.0734,-0.26787 0.280765,0.17353 0.821302,-1.86164 0.821302,-3.09227 0,-1.35286 -0.453115,-1.75063 -2.116667,-1.85814 -1.431897,-0.0925 -1.426599,-0.0948 0.330729,-0.14299 1.71556,-0.047 1.785938,-0.075 1.785938,-0.7104 0,-0.64186 -0.05427,-0.66146 -1.831784,-0.66146 -1.584659,0 -1.941605,0.0924 -2.645833,0.68498 l -0.81405,0.68498 v 10.64554 10.64554 l 0.992187,0.55235 c 0.545703,0.3038 1.31961,0.56288 1.719792,0.57573 l 0.727604,0.0234 z m -1.403192,4.03489 c 0.07611,-0.29104 0.184025,-0.52916 0.239813,-0.52916 0.05579,0 0.101433,0.23812 0.101433,0.52916 0,0.29104 -0.107916,0.52917 -0.239813,0.52917 -0.131898,0 -0.177542,-0.23813 -0.101433,-0.52917 z m 21.392633,0.18703 c 0.09936,-0.26094 0.247304,-0.40778 0.328765,-0.32632 0.08146,0.0815 1.68e-4,0.29496 -0.180653,0.47443 -0.261307,0.25936 -0.291698,0.22897 -0.148112,-0.14811 z m -20.598883,-0.45161 c 0.07611,-0.29104 0.184025,-0.52917 0.239813,-0.52917 0.05579,0 0.101433,0.23813 0.101433,0.52917 0,0.29104 -0.107916,0.52917 -0.239813,0.52917 -0.131898,0 -0.177542,-0.23813 -0.101433,-0.52917 z m 21.579976,-6.08542 c 0,-0.65484 0.0516,-0.92273 0.114663,-0.59531 0.06306,0.32742 0.06306,0.8632 0,1.19062 -0.06307,0.32743 -0.114663,0.0595 -0.114663,-0.59531 z m -22.03248,-3.42397 c 0,-0.13693 0.117699,-0.32171 0.261553,-0.41061 0.149981,-0.0927 0.194338,0.0135 0.103984,0.24896 -0.175893,0.45837 -0.365537,0.54224 -0.365537,0.16165 z m 12.412852,-1.4218 c 0.119578,-0.11958 0.67959,-0.177 1.24447,-0.12762 l 1.027053,0.0898 -1.244469,0.12762 c -0.684459,0.0702 -1.146633,0.0298 -1.027054,-0.0898 z m 3.136158,-0.63765 c 0.475549,-0.0589 1.189924,-0.0577 1.5875,0.003 0.397576,0.0604 0.0085,0.10855 -0.864634,0.10707 -0.873125,-0.001 -1.198415,-0.0509 -0.722866,-0.10977 z m 6.490694,-1.39575 c 0,-0.80036 0.0496,-1.12778 0.110222,-0.7276 0.06062,0.40018 0.06062,1.05503 0,1.45521 -0.06062,0.40018 -0.110222,0.0728 -0.110222,-0.72761 z m -24.084308,-0.26458 c 0,-0.65484 0.0516,-0.92273 0.114662,-0.59531 0.06306,0.32742 0.06306,0.8632 0,1.19062 -0.06306,0.32743 -0.114662,0.0595 -0.114662,-0.59531 z m 10.268736,0.69653 c 0.06063,-0.0535 0.884149,-0.16304 1.830035,-0.24348 1.083613,-0.0922 1.426171,-0.0678 0.926042,0.0659 -0.808391,0.21609 -2.956697,0.35449 -2.756077,0.17756 z m 0.347759,-0.65273 c 0.07505,-0.12144 0.766686,-0.22272 1.536969,-0.22507 1.030153,-0.003 1.225595,0.0483 0.739057,0.19441 -0.921691,0.27687 -2.440837,0.29733 -2.276026,0.0307 z m -0.948584,-0.22454 c 0.190997,-0.0764 0.4192,-0.067 0.507119,0.0209 0.08792,0.0879 -0.06835,0.15045 -0.347266,0.13896 -0.308225,-0.0127 -0.370919,-0.0754 -0.159853,-0.15985 z m 13.828832,-0.50277 c 0.0127,-0.30822 0.07539,-0.37091 0.159852,-0.15985 0.07643,0.191 0.06703,0.4192 -0.02089,0.50712 -0.08792,0.0879 -0.150453,-0.0684 -0.138964,-0.34727 z m -1.610598,-4.54201 c -0.219543,-0.34684 -0.329134,-0.37651 -0.436745,-0.11827 -0.107852,0.25883 -0.230069,0.22658 -0.490348,-0.12937 -0.190679,-0.26077 -0.29069,-0.56474 -0.222245,-0.67548 0.255739,-0.4138 0.805633,-0.17677 1.374295,0.59239 0.322764,0.43656 0.470134,0.79375 0.327488,0.79375 -0.142647,0 -0.391247,-0.20836 -0.552445,-0.46302 z M 20.90208,174.22813 c 0,-0.3638 0.102552,-0.66146 0.227893,-0.66146 0.125341,0 0.170993,0.29766 0.101447,0.66146 -0.06955,0.3638 -0.172097,0.66146 -0.227893,0.66146 -0.0558,0 -0.101447,-0.29766 -0.101447,-0.66146 z m 20.112386,-0.59531 c 0.0025,-0.2856 0.07854,-0.3515 0.198437,-0.17197 0.106913,0.16008 0.37298,0.35904 0.591261,0.44214 0.265191,0.10094 0.199348,0.158 -0.198437,0.17196 -0.399956,0.014 -0.593983,-0.13106 -0.591261,-0.44213 z m -1.194677,9.72343 c -0.08994,-0.14552 -0.364854,-0.25621 -0.610927,-0.24598 -0.364727,0.0152 -0.349618,0.0606 0.08176,0.24598 0.708002,0.30424 0.717196,0.30424 0.529167,0 z M 26.52448,183.18103 c -0.181901,-0.0734 -0.479557,-0.0734 -0.661458,0 -0.181901,0.0734 -0.03307,0.13345 0.330729,0.13345 0.363802,0 0.51263,-0.06 0.330729,-0.13345 z m 11.516449,-8.093 0.07322,-3.90261 h -5.563324 -5.563323 v 3.79236 c 0,2.0858 0.08177,3.87413 0.18171,3.97407 0.09994,0.0999 2.570487,0.14955 5.490104,0.11025 l 5.308395,-0.0715 z m -4.429535,2.46479 c -0.150641,-0.28148 -0.273893,-1.40983 -0.273893,-2.50745 0,-1.78002 0.06433,-2.03694 0.595313,-2.37761 0.5876,-0.377 1.972632,-0.40231 2.54824,-0.0466 0.412871,0.25517 0.394212,4.71022 -0.02147,5.1259 -0.174625,0.17462 -0.82528,0.3175 -1.4459,0.3175 -0.844826,0 -1.19723,-0.12861 -1.402291,-0.51177 z"
         id="path188" /><path
         style="fill:#3c897d"
         d="m 21.828126,197.19518 c -0.842064,-0.21231 -1.69861,-1.15277 -1.983302,-2.17761 -0.288627,-1.039 -0.375126,-20.83741 -0.09711,-22.22748 0.0927,-0.46349 0.522728,-1.1969 0.955619,-1.62979 l 0.787074,-0.78708 9.75474,0.0754 9.75474,0.0754 2.405469,2.38125 c 1.323008,1.30969 2.575534,2.70276 2.783392,3.09572 0.570798,1.07909 0.554122,18.41341 -0.01888,19.62092 -0.787245,1.65899 -0.497778,1.62102 -12.700078,1.66589 -6.111875,0.0225 -11.350626,-0.0192 -11.641667,-0.0926 z m 19.121306,-6.62903 -0.07131,-5.75469 -7.508481,-0.0703 c -5.318801,-0.0498 -7.614305,0.0175 -7.871355,0.23083 -0.285539,0.23698 -0.362873,1.4408 -0.362873,5.64863 0,2.9411 0.07937,5.42684 0.176388,5.52385 0.09701,0.097 3.671212,0.17639 7.942661,0.17639 h 7.766271 z m -13.400516,2.8728 c -1.018028,-0.65318 0.15238,-0.82228 5.691309,-0.82228 5.278779,0 5.685862,0.0336 5.603331,0.46302 -0.08081,0.42044 -0.587527,0.46901 -5.509505,0.52812 -2.98128,0.0358 -5.58459,-0.0402 -5.785135,-0.16886 z m -0.161322,-2.93374 c -0.426805,-0.69058 0.367061,-0.79895 5.852631,-0.79895 5.278781,0 5.685861,0.0336 5.603324,0.46302 -0.0809,0.42085 -0.598973,0.46951 -5.689109,0.53437 -3.597181,0.0458 -5.659742,-0.0251 -5.766846,-0.19844 z m -0.01425,-2.93347 c -0.414062,-0.66997 0.520658,-0.78424 5.850605,-0.71527 4.713993,0.061 5.537509,0.13068 5.537509,0.46854 0,0.33803 -0.83072,0.40745 -5.603563,0.46822 -3.882045,0.0494 -5.659166,-0.0186 -5.784551,-0.22149 z M 24.834,184.12607 c 0.583076,-0.47162 1.141855,-0.50523 8.400521,-0.50523 7.42312,0 7.799905,0.024 8.305064,0.52916 0.493581,0.49359 0.529167,0.88195 0.529167,5.77501 v 5.24585 l 0.859896,-0.1087 c 0.472942,-0.0598 1.243628,-0.28135 1.712634,-0.49236 l 0.852739,-0.38366 0.0733,-8.49609 c 0.05065,-5.8699 -0.01886,-8.70912 -0.22485,-9.18526 -0.45767,-1.05788 -4.960726,-5.31937 -5.620902,-5.31937 -0.548498,0 -0.563237,0.0996 -0.563237,3.80715 0,5.41697 0.471698,5.05639 -6.614584,5.05639 -7.086281,0 -6.614583,0.36058 -6.614583,-5.05639 v -3.80715 h -1.732931 c -1.816097,0 -3.108659,0.4579 -3.394382,1.20248 -0.0904,0.23557 -0.164354,5.2364 -0.164354,11.11298 0,10.45031 0.01173,10.69095 0.534634,10.9708 0.29405,0.15737 0.651237,0.21407 0.793751,0.12599 0.142513,-0.0881 0.259115,-0.0416 0.259115,0.10329 0,0.14489 0.386953,0.30074 0.859896,0.34634 l 0.859896,0.0829 0.132291,-5.24945 c 0.129085,-5.12218 0.147436,-5.2617 0.756916,-5.75469 z m -1.815249,0.30413 c 0,-0.13693 0.117699,-0.32171 0.261553,-0.41061 0.149981,-0.0927 0.194338,0.0135 0.103984,0.24896 -0.175893,0.45837 -0.365537,0.54224 -0.365537,0.16165 z m 12.898438,-1.52525 c 0.327422,-0.0631 0.863203,-0.0631 1.190625,0 0.327422,0.0631 0.05953,0.11466 -0.595313,0.11466 -0.654843,0 -0.922734,-0.0516 -0.595312,-0.11466 z m 2.650572,-0.5342 c 0.475549,-0.0589 1.189924,-0.0577 1.5875,0.003 0.397576,0.0604 0.0085,0.10855 -0.864634,0.10707 -0.873125,-0.001 -1.198415,-0.0509 -0.722866,-0.10977 z m -7.324878,-0.9638 c 0.06063,-0.0535 0.884149,-0.16304 1.830035,-0.24348 1.083613,-0.0922 1.426171,-0.0678 0.926042,0.0659 -0.808391,0.21609 -2.956697,0.35449 -2.756077,0.17756 z m 0.5783,-0.6153 c 0.257431,-0.0671 0.614618,-0.0627 0.79375,0.01 0.179131,0.0725 -0.03149,0.12737 -0.468057,0.12197 -0.436562,-0.005 -0.583124,-0.0647 -0.325693,-0.13177 z m 12.649707,-0.76474 c 0.0127,-0.30822 0.07539,-0.37091 0.159852,-0.15985 0.07643,0.191 0.06703,0.4192 -0.02089,0.50712 -0.08792,0.0879 -0.150453,-0.0684 -0.138964,-0.34727 z m -19.450753,-2.14935 c -0.143586,-0.37708 -0.113195,-0.40747 0.148112,-0.14811 0.180821,0.17947 0.262115,0.39297 0.180653,0.47443 -0.08146,0.0815 -0.229406,-0.0654 -0.328765,-0.32632 z m 14.931948,-0.34214 c 0,-0.14552 0.126089,-0.26458 0.280198,-0.26458 0.154109,0 0.206614,0.11906 0.116677,0.26458 -0.08994,0.14552 -0.216026,0.26458 -0.280198,0.26458 -0.06417,0 -0.116677,-0.11906 -0.116677,-0.26458 z m 1.901812,-2.39994 c -0.379148,-0.60711 0.06756,-0.96015 0.57404,-0.45367 0.272462,0.27246 0.282304,0.42315 0.04228,0.64737 -0.231433,0.21619 -0.391819,0.16578 -0.61632,-0.1937 z m -0.843479,-1.29592 c 0,-0.14096 0.178594,-0.18775 0.396875,-0.10399 0.218282,0.0838 0.396875,0.19909 0.396875,0.25628 0,0.0572 -0.178593,0.10399 -0.396875,0.10399 -0.218281,0 -0.396875,-0.11533 -0.396875,-0.25628 z m -16.734896,-1.24187 c 0.181901,-0.0734 0.479557,-0.0734 0.661458,0 0.181901,0.0734 0.03307,0.13345 -0.330729,0.13345 -0.363802,0 -0.51263,-0.0601 -0.330729,-0.13345 z m 13.765407,2.49034 0.07322,-3.90261 h -5.563324 -5.563323 v 3.79236 c 0,2.0858 0.08177,3.87413 0.18171,3.97407 0.09994,0.0999 2.570487,0.14955 5.490104,0.11025 l 5.308395,-0.0715 z m -4.287654,2.56078 c -0.307852,-0.30785 -0.415774,-0.9587 -0.415774,-2.50744 0,-1.87958 0.06036,-2.1304 0.595313,-2.47361 0.5876,-0.377 1.972632,-0.40231 2.54824,-0.0466 0.412871,0.25517 0.394212,4.71022 -0.02147,5.1259 -0.45572,0.45572 -2.216246,0.39179 -2.70631,-0.0983 z m 1.965476,-2.5255 c 0,-1.38025 -0.05996,-1.55664 -0.529166,-1.55664 -0.291042,0 -0.542023,0.14883 -0.557736,0.33073 -0.126131,1.46012 -0.158674,2.7409 -0.07332,2.88558 0.05633,0.0955 0.340422,0.11136 0.631319,0.0353 0.453211,-0.11852 0.528903,-0.36109 0.528903,-1.69496 z"
         id="path187" /><path
         style="fill:#536d6f"
         d="m 21.828126,197.19518 c -0.842064,-0.21231 -1.69861,-1.15277 -1.983302,-2.17761 -0.288627,-1.039 -0.375126,-20.83741 -0.09711,-22.22748 0.0927,-0.46349 0.522728,-1.1969 0.955619,-1.62979 l 0.787074,-0.78708 9.75474,0.0754 9.75474,0.0754 2.405469,2.38125 c 1.323008,1.30969 2.575534,2.70276 2.783392,3.09572 0.570798,1.07909 0.554122,18.41341 -0.01888,19.62092 -0.787245,1.65899 -0.497778,1.62102 -12.700078,1.66589 -6.111875,0.0225 -11.350626,-0.0192 -11.641667,-0.0926 z m 19.121306,-6.62903 -0.07131,-5.75469 -7.508481,-0.0703 c -5.318801,-0.0498 -7.614305,0.0175 -7.871355,0.23083 -0.285539,0.23698 -0.362873,1.4408 -0.362873,5.64863 0,2.9411 0.07937,5.42684 0.176388,5.52385 0.09701,0.097 3.671212,0.17639 7.942661,0.17639 h 7.766271 z m -13.400516,2.8728 c -1.018028,-0.65318 0.15238,-0.82228 5.691309,-0.82228 5.278779,0 5.685862,0.0336 5.603331,0.46302 -0.08081,0.42044 -0.587527,0.46901 -5.509505,0.52812 -2.98128,0.0358 -5.58459,-0.0402 -5.785135,-0.16886 z m -0.161322,-2.93374 c -0.426805,-0.69058 0.367061,-0.79895 5.852631,-0.79895 5.278781,0 5.685861,0.0336 5.603324,0.46302 -0.0809,0.42085 -0.598973,0.46951 -5.689109,0.53437 -3.597181,0.0458 -5.659742,-0.0251 -5.766846,-0.19844 z m -0.01425,-2.93347 c -0.414062,-0.66997 0.520658,-0.78424 5.850605,-0.71527 4.713993,0.061 5.537509,0.13068 5.537509,0.46854 0,0.33803 -0.83072,0.40745 -5.603563,0.46822 -3.882045,0.0494 -5.659166,-0.0186 -5.784551,-0.22149 z M 24.834,184.12607 c 0.583076,-0.47162 1.141855,-0.50523 8.400521,-0.50523 7.42312,0 7.799905,0.024 8.305064,0.52916 0.4935,0.4935 0.529167,0.88195 0.529167,5.76313 v 5.23396 l 0.675526,0.0559 c 0.371539,0.0307 1.142216,-0.18218 1.712616,-0.47318 l 1.037089,-0.52908 0.07332,-8.50339 c 0.05066,-5.87534 -0.01882,-8.71639 -0.224831,-9.19256 -0.45767,-1.05788 -4.960726,-5.31937 -5.620902,-5.31937 -0.548498,0 -0.563237,0.0996 -0.563237,3.80715 0,5.41697 0.471698,5.05639 -6.614584,5.05639 -7.086281,0 -6.614583,0.36058 -6.614583,-5.05639 v -3.80715 h -1.732931 c -1.816097,0 -3.108659,0.4579 -3.394382,1.20248 -0.0904,0.23557 -0.164354,5.2364 -0.164354,11.11298 v 10.68467 l 0.595312,0.32555 c 0.327422,0.17905 1.071563,0.3916 1.653646,0.47233 l 1.058334,0.14678 0.132291,-5.24945 c 0.129085,-5.12218 0.147436,-5.2617 0.756916,-5.75469 z m 13.206929,-9.03804 0.07322,-3.90261 h -5.563324 -5.563323 v 3.79236 c 0,2.0858 0.08177,3.87413 0.18171,3.97407 0.09994,0.0999 2.570487,0.14955 5.490104,0.11025 l 5.308395,-0.0715 z m -4.287654,2.56078 c -0.307852,-0.30785 -0.415774,-0.9587 -0.415774,-2.50744 0,-1.87958 0.06036,-2.1304 0.595313,-2.47361 0.5876,-0.377 1.972632,-0.40231 2.54824,-0.0466 0.412871,0.25517 0.394212,4.71022 -0.02147,5.1259 -0.45572,0.45572 -2.216246,0.39179 -2.70631,-0.0983 z m 1.965476,-2.5255 c 0,-1.38025 -0.05996,-1.55664 -0.529166,-1.55664 -0.291042,0 -0.541462,0.14883 -0.55649,0.33073 -0.01503,0.1819 -0.07088,0.80698 -0.12411,1.38906 -0.127604,1.39532 0.0076,1.70787 0.664415,1.53611 0.472791,-0.12364 0.545351,-0.34973 0.545351,-1.69926 z"
         id="path186" /><path
         style="fill:#376967"
         d="m 20.617148,196.34119 -0.773397,-0.7734 v -11.68847 -11.68848 l 0.899583,-0.89959 0.899583,-0.89958 h 9.300015 c 7.467191,0 9.441606,0.0732 10.018469,0.37153 0.39515,0.20434 1.750795,1.44241 3.012544,2.75128 1.652091,1.71378 2.339696,2.62791 2.457055,3.26649 0.08963,0.48771 0.127057,4.89743 0.08317,9.79939 l -0.07979,8.91265 -0.777106,0.81079 -0.777105,0.81079 h -11.74481 -11.74481 z m 20.426343,-5.04743 c 0.01819,-2.7649 0.05584,-5.17592 0.08366,-5.35782 0.02782,-0.1819 -0.05174,-0.54088 -0.176803,-0.79773 -0.210774,-0.43286 -0.792212,-0.46187 -7.955019,-0.39687 l -7.727625,0.0701 -0.07131,5.75469 -0.0713,5.75469 h 7.94266 7.94266 z m -13.607825,1.94747 c -0.501821,-0.50182 0.63504,-0.62456 5.785159,-0.62456 4.866212,0 5.672927,0.0564 5.672927,0.39688 0,0.34037 -0.80355,0.39687 -5.644445,0.39687 -3.104445,0 -5.720583,-0.0761 -5.813641,-0.16919 z m 0.08796,-2.86513 c -0.527567,-0.63568 -0.03706,-0.68703 5.821017,-0.60937 4.606641,0.0611 5.416815,0.13118 5.416815,0.46869 0,0.59914 -10.745702,0.73366 -11.237832,0.14068 z m -0.150282,-2.80436 c -0.414062,-0.66997 0.520658,-0.78424 5.850605,-0.71527 4.713993,0.061 5.537509,0.13068 5.537509,0.46854 0,0.33803 -0.83072,0.40745 -5.603563,0.46822 -3.882045,0.0494 -5.659166,-0.0186 -5.784551,-0.22149 z m 15.224572,8.36784 c 0,-0.0642 -0.119062,-0.19026 -0.264583,-0.2802 -0.145521,-0.0899 -0.264583,-0.0374 -0.264583,0.11668 0,0.15411 0.119062,0.2802 0.264583,0.2802 0.145521,0 0.264583,-0.0525 0.264583,-0.11668 z M 24.834,184.12607 c 0.582733,-0.47135 1.140541,-0.50523 8.317323,-0.50523 7.534126,0 7.705321,0.0119 8.305063,0.57529 0.599718,0.5634 0.612366,0.68243 0.612366,5.76312 v 5.18784 l 0.675526,0.0559 c 0.371539,0.0307 1.145445,-0.18383 1.719792,-0.47684 l 1.044265,-0.53274 0.04192,-8.39515 c 0.02306,-4.61733 0.02187,-8.63327 -0.0026,-8.92431 -0.06395,-0.75955 -5.106262,-5.68854 -5.819329,-5.68854 -0.557156,0 -0.569964,0.0856 -0.569964,3.80715 0,5.41697 0.471698,5.05639 -6.614584,5.05639 -7.086281,0 -6.614583,0.36058 -6.614583,-5.05639 v -3.80715 h -1.996402 c -1.766858,0 -2.071072,0.0747 -2.645833,0.64943 l -0.649432,0.64943 v 10.85064 10.85063 l 0.595312,0.32555 c 0.327422,0.17905 1.071563,0.3916 1.653646,0.47233 l 1.058334,0.14678 0.132291,-5.24945 c 0.129085,-5.12218 0.147436,-5.2617 0.756916,-5.75469 z m 13.206929,-9.03804 0.07322,-3.90261 h -5.563324 -5.563323 v 3.79236 c 0,2.0858 0.08177,3.87413 0.18171,3.97407 0.09994,0.0999 2.570487,0.14955 5.490104,0.11025 l 5.308395,-0.0715 z m -4.152547,2.60585 c -0.196941,-0.2373 -0.280014,-1.21329 -0.230834,-2.71198 l 0.07683,-2.34127 h 1.455209 1.455208 l 0.07683,2.34127 c 0.08869,2.70288 -0.100061,3.08269 -1.532037,3.08269 -0.546447,0 -1.131988,-0.16682 -1.301203,-0.37071 z m 1.830369,-2.50358 c 0,-1.71573 -0.03286,-1.81431 -0.595312,-1.78594 -0.550066,0.0277 -0.599294,0.16576 -0.647699,1.81596 -0.05083,1.73276 -0.0331,1.78593 0.595313,1.78593 0.624296,0 0.647698,-0.0656 0.647698,-1.81595 z"
         id="path185" /><path
         style="fill:#2b4f4f"
         d="m 20.617148,196.34119 -0.773397,-0.7734 v -11.68847 -11.68848 l 0.899583,-0.89959 0.899583,-0.89958 h 9.30427 c 6.469925,0 9.48032,0.0922 9.882188,0.30266 0.978819,0.5126 4.899408,4.49389 5.340276,5.42295 0.359219,0.757 0.406132,2.15161 0.340657,10.12679 l -0.07593,9.2489 -0.777106,0.81081 -0.777105,0.81081 h -11.74481 -11.74481 z m 3.554697,-1.01254 c 0.0902,-0.5457 0.165309,-3.15657 0.166911,-5.80193 0.0024,-4.01704 0.07144,-4.87828 0.418685,-5.22552 0.359684,-0.35969 1.497506,-0.41578 8.434271,-0.41578 7.130747,0 8.058699,0.0484 8.381622,0.43686 0.277452,0.3338 0.382111,1.80076 0.443593,6.21771 l 0.08047,5.78085 h 1.130183 c 0.872585,0 1.276383,-0.15554 1.771617,-0.68239 l 0.641433,-0.6824 0.08212,-8.96985 c 0.04516,-4.93342 -0.01759,-9.14803 -0.139459,-9.36579 -0.121866,-0.21776 -1.33735,-1.52972 -2.701076,-2.91546 -1.871583,-1.9018 -2.648264,-2.51955 -3.167832,-2.5196 l -0.688333,-6e-5 v 3.98911 c 0,3.64306 -0.04455,4.02178 -0.51359,4.36569 -0.746851,0.54762 -11.187653,0.54901 -11.937403,0.002 -0.461882,-0.33723 -0.52217,-0.77677 -0.598799,-4.36562 l -0.08521,-3.99064 h -1.929632 c -1.551526,0 -2.066235,0.10745 -2.626772,0.54837 l -0.697139,0.54837 v 11.24298 c 0,7.44927 0.09511,11.42071 0.281879,11.76968 0.336824,0.62936 1.137394,0.98637 2.26319,1.00925 0.75226,0.0153 0.839787,-0.071 0.989275,-0.97542 z m 16.933334,0 c 0.0902,-0.5457 0.165309,-3.03144 0.166911,-5.52385 0.0023,-3.51894 -0.07816,-4.59896 -0.359884,-4.83276 -0.25719,-0.21345 -2.586967,-0.28064 -8.003646,-0.23084 l -7.640851,0.0703 -0.07131,5.75469 -0.0713,5.75469 h 7.908041 7.908042 z m -13.721958,-2.18468 c -0.296067,-0.47905 0.474015,-0.53957 5.939569,-0.46682 4.028568,0.0536 5.422832,0.15558 5.505009,0.40254 0.140632,0.42264 -11.183792,0.48624 -11.444578,0.0643 z m 0.0874,-2.8315 c -0.441683,-0.5326 0.634594,-0.62896 6.131466,-0.54899 4.031952,0.0587 5.159375,0.15061 5.159375,0.42076 0,0.48366 -10.893486,0.60737 -11.290841,0.12823 z m 0.227655,-2.62947 c -0.529063,-0.52906 0.301423,-0.62258 5.528984,-0.62258 4.450781,0 5.686311,0.073 5.600533,0.33073 -0.08221,0.24706 -1.480913,0.34878 -5.528983,0.40209 -2.98041,0.0393 -5.50065,-0.0104 -5.600534,-0.11024 z m 10.342655,-12.59497 0.07322,-3.90261 h -5.647685 -5.647685 l 0.05955,1.65365 c 0.03275,0.9095 0.07072,2.69786 0.08436,3.97411 l 0.02481,2.32048 5.490104,-0.0715 5.490105,-0.0715 z m -4.152547,2.60585 c -0.196941,-0.2373 -0.280014,-1.21329 -0.230834,-2.71198 l 0.07683,-2.34127 1.297319,-0.0823 c 0.858715,-0.0545 1.371692,0.035 1.517303,0.26458 0.347334,0.5477 0.274474,4.56029 -0.08941,4.92418 -0.436569,0.43657 -2.194922,0.40018 -2.571203,-0.0532 z m 2.094953,-2.53971 v -1.85208 h -0.79375 -0.79375 v 1.85208 1.85208 h 0.79375 0.79375 z"
         id="path184" /><path
         style="fill:#213b40"
         d="m 20.718401,196.47622 -0.742359,-0.63837 -0.07412,-11.82443 -0.07412,-11.82443 0.952858,-0.89866 0.952859,-0.89866 H 31.071 40.408489 l 1.028569,0.80732 c 1.937629,1.52084 4.796357,4.73631 4.966308,5.58606 0.289775,1.44888 0.185428,17.59086 -0.118905,18.39409 -0.155215,0.40965 -0.533156,1.01271 -0.839871,1.34014 l -0.557663,0.59531 H 33.173843 21.460759 Z m 3.623267,-5.82892 c 0,-5.83635 0.01008,-5.94518 0.588038,-6.35 0.49954,-0.34989 1.747662,-0.41188 8.293368,-0.41188 7.233694,0 7.733172,0.0308 8.160202,0.50263 0.395601,0.43713 0.464368,1.2531 0.527756,6.26211 0.06873,5.43128 0.101689,5.76459 0.578324,5.84894 1.16799,0.20671 2.249053,-0.20465 2.766027,-1.05251 0.483978,-0.79375 0.515511,-1.38846 0.514803,-9.70909 -8.7e-4,-10.2227 0.297552,-9.03259 -3.10807,-12.39502 -1.754715,-1.73247 -2.340619,-2.15706 -2.976563,-2.15706 h -0.791801 v 3.95375 c 0,3.78575 -0.02499,3.97125 -0.588039,4.36562 -0.876459,0.6139 -11.081796,0.6105 -11.696188,-0.004 -0.340842,-0.34084 -0.415774,-1.12763 -0.415774,-4.36563 v -3.94985 l -2.182813,0.008 c -2.371019,0.009 -2.91397,0.2383 -3.363035,1.41943 -0.394557,1.03776 -0.371859,21.23405 0.02514,22.37289 0.335261,0.96173 1.41424,1.57211 2.808726,1.58891 l 0.859896,0.0103 z m 16.872343,0.22011 c 0.06327,-4.95619 0.02136,-5.62713 -0.371801,-5.95313 -0.35402,-0.29354 -1.884327,-0.3674 -7.611926,-0.3674 -3.942854,0 -7.377184,0.0856 -7.631846,0.19013 -0.421221,0.17297 -0.46302,0.71672 -0.46302,6.02315 v 5.83302 l 8.003646,-0.07 8.003646,-0.07 z m -13.630738,2.21228 c 0.08383,-0.25045 1.448484,-0.33073 5.622457,-0.33073 4.17425,0 5.538491,0.0803 5.621936,0.33073 0.08589,0.2578 -1.15397,0.33073 -5.622456,0.33073 -4.468764,0 -5.708233,-0.0729 -5.621937,-0.33073 z m -0.0666,-2.84427 c 0,-0.16818 2.072569,-0.26458 5.688542,-0.26458 3.615972,0 5.688542,0.0964 5.688542,0.26458 0,0.16819 -2.07257,0.26459 -5.688542,0.26459 -3.615973,0 -5.688542,-0.0964 -5.688542,-0.26459 z m 0,-2.91041 c 0,-0.16819 2.072569,-0.26459 5.688542,-0.26459 3.615972,0 5.688542,0.0964 5.688542,0.26459 0,0.16818 -2.07257,0.26458 -5.688542,0.26458 -3.615973,0 -5.688542,-0.0964 -5.688542,-0.26458 z m 10.445976,-8.36711 c 0.273383,-0.27339 0.379121,-0.6823 0.290771,-1.12448 -0.07636,-0.38218 -0.04846,-1.67714 0.062,-2.87769 0.110457,-1.20054 0.115062,-2.18281 0.01023,-2.18281 -0.104829,0 -0.138004,-0.29004 -0.07372,-0.64454 0.06428,-0.3545 0.01538,-0.70727 -0.108672,-0.78394 -0.124052,-0.0767 -2.71461,-0.15329 -5.756795,-0.17027 l -5.531245,-0.0309 -0.07908,3.12992 c -0.04349,1.72146 -0.0088,3.51432 0.07707,3.98414 l 0.156149,0.85422 5.082305,0.0779 c 2.795268,0.0428 5.163097,0.10492 5.261843,0.13797 0.09875,0.0331 0.372862,-0.13324 0.609146,-0.36952 z m -3.897539,-1.17909 c -0.385736,-0.22467 -0.46302,-0.66023 -0.46302,-2.60948 0,-2.56375 0.0617,-2.66099 1.688514,-2.66099 1.287168,0 1.486486,0.37835 1.486486,2.82173 0,1.89117 -0.06917,2.22375 -0.511773,2.46063 -0.643216,0.34423 -1.597632,0.33908 -2.200207,-0.0119 z m 1.91823,-2.4615 c 0,-1.86872 -0.02845,-1.95897 -0.65524,-2.07879 -0.360382,-0.0689 -0.71757,-0.0629 -0.79375,0.0132 -0.07618,0.0762 -0.13851,1.01164 -0.13851,2.07879 v 1.94028 h 0.79375 0.79375 z"
         id="path183" /><path
         style="fill:#25353a"
         d="m 20.708808,196.46797 -0.732766,-0.63012 -0.07412,-11.82443 -0.07412,-11.82443 0.952858,-0.89866 0.952859,-0.89866 H 31.071 40.408489 l 1.028569,0.80732 c 1.937629,1.52084 4.796357,4.73631 4.966308,5.58606 0.289775,1.44888 0.185428,17.59086 -0.118905,18.39409 -0.434473,1.14669 -1.30869,1.93545 -2.145163,1.93545 -1.035247,0 -0.942719,-0.47683 0.112266,-0.57855 0.472943,-0.0456 0.819961,-0.18866 0.771152,-0.31791 -0.04881,-0.12925 0.07025,-0.33314 0.264584,-0.45309 0.504034,-0.3111 0.776257,-18.61271 0.291081,-19.56948 -0.179755,-0.35448 -0.328583,-0.57113 -0.330729,-0.48143 -0.0066,0.27611 -2.649734,-2.42403 -2.649734,-2.70689 0,-0.14605 -0.139295,-0.17946 -0.309546,-0.0742 -0.210015,0.1298 -0.253526,0.0453 -0.135322,-0.26271 0.09582,-0.24971 0.07244,-0.39111 -0.05197,-0.31423 -0.312721,0.19328 -1.138727,-0.76506 -0.892803,-1.03583 0.109458,-0.12052 -0.0055,-0.14582 -0.255533,-0.0562 -0.250001,0.0896 -0.524919,0.049 -0.610928,-0.0901 -0.08601,-0.13917 -0.447009,-0.25303 -0.802223,-0.25303 -0.512511,0 -0.645843,0.13655 -0.645843,0.66146 0,0.3638 -0.107916,0.66145 -0.239814,0.66145 -0.131897,0 -0.177542,-0.23812 -0.101433,-0.52916 0.101465,-0.388 0.0066,-0.53142 -0.355499,-0.53762 -0.271634,-0.005 -2.807005,-0.0655 -5.634159,-0.13519 -2.827154,-0.0697 -5.327466,-0.0673 -5.55625,0.005 -0.352919,0.11201 -0.415971,0.71068 -0.415971,3.9496 0,2.09966 0.04776,3.76981 0.10613,3.71144 0.05837,-0.0584 0.248794,0.089 0.423159,0.32743 0.247622,0.33865 0.687785,0.41761 2.010537,0.36067 4.205443,-0.181 6.35768,-0.1678 6.485977,0.0398 0.07639,0.12359 0.268119,0.14485 0.426068,0.0472 0.171405,-0.10593 0.211073,-0.0543 0.0984,0.12798 -0.130234,0.21072 -1.529174,0.30546 -4.51049,0.30546 -3.609242,0 -4.346965,-0.0658 -4.47494,-0.39933 -0.08428,-0.21963 -0.305378,-0.36846 -0.491328,-0.33073 -0.258378,0.0524 -0.369282,-0.89832 -0.470383,-4.03244 l -0.132292,-4.10104 -1.984375,-0.006 c -1.091406,-0.003 -2.200555,0.0945 -2.464776,0.21705 -0.26422,0.12253 -0.70585,0.74874 -0.981399,1.39157 -0.462404,1.07874 -0.502186,1.97233 -0.516406,11.59947 -0.01209,8.18528 0.05678,10.45974 0.319941,10.56567 0.260553,0.10489 0.257056,0.13965 -0.01568,0.15588 -0.193066,0.0115 0.03809,0.34831 0.513679,0.7485 0.893231,0.7516 0.937148,0.77153 1.821725,0.82682 0.901842,0.0564 0.581361,0.47454 -0.391713,0.51112 -0.62461,0.0235 -1.156628,-0.16811 -1.653646,-0.5955 z m 25.512048,-19.12595 c -0.06708,-0.25743 -0.126382,-0.11087 -0.131774,0.32569 -0.0054,0.43657 0.04949,0.64719 0.12197,0.46806 0.07247,-0.17913 0.07689,-0.53632 0.0098,-0.79375 z m -22.12018,19.44184 c 0.383592,-0.41052 17.470155,-0.37675 18.505726,0.0366 0.44757,0.17864 -2.408978,0.26589 -9.080895,0.27739 -7.776096,0.0134 -9.671712,-0.0498 -9.424831,-0.31396 z m 0.26188,-6.48229 c -0.02683,-6.88111 -0.383225,-6.41615 4.918001,-6.41615 2.134305,0 3.830946,0.047 3.770312,0.10436 -0.06063,0.0574 -1.598524,0.17006 -3.417535,0.25036 -4.300489,0.18986 -4.488854,0.25061 -4.532747,1.46208 l -0.03483,0.96133 -0.194923,-0.92605 c -0.112608,-0.53497 -0.187158,0.80581 -0.176536,3.17501 l 0.01839,4.10104 0.158148,-3.175 0.158149,-3.175 0.04917,4.49791 c 0.02849,2.60663 -0.04692,4.34627 -0.179338,4.13725 -0.192919,-0.3045 -0.25084,-0.3045 -0.371936,0 -0.07889,0.19837 -0.152831,-2.05035 -0.164319,-4.99714 z m 16.931042,1.32291 c -0.01115,-1.4676 0.08733,-2.44739 0.245987,-2.44739 0.322966,0 0.322966,3.61404 0,4.36562 -0.149918,0.34888 -0.233727,-0.30466 -0.245987,-1.91823 z m -13.77693,1.52136 c 0,-0.14552 0.119062,-0.26723 0.264583,-0.27046 4.765358,-0.1059 10.991475,0.0397 11.064484,0.2587 0.06213,0.18638 -1.767006,0.27634 -5.618477,0.27634 -3.630671,0 -5.71059,-0.0964 -5.71059,-0.26458 z m 0,-2.93575 c 0,-0.1352 2.474064,-0.23925 5.688542,-0.23925 3.128698,0 5.688542,0.102 5.688542,0.22668 0,0.12467 -2.559844,0.23234 -5.688542,0.23925 -3.223747,0.007 -5.688542,-0.0911 -5.688542,-0.22668 z m 13.819718,-3.14967 c 0,-0.50932 0.05445,-0.71768 0.121,-0.46302 0.06655,0.25466 0.06655,0.67138 0,0.92604 -0.06655,0.25466 -0.121,0.0463 -0.121,-0.46302 z m -13.819718,0.25545 c 0,-0.15629 2.208178,-0.25545 5.688542,-0.25545 3.421716,0 5.688542,0.1003 5.688542,0.25169 0,0.15128 -2.269459,0.25319 -5.688542,0.25545 -3.482959,0.002 -5.688542,-0.0953 -5.688542,-0.25169 z m 13.822656,-1.761 c 0.114377,-0.46529 -0.01607,-0.63476 -0.661875,-0.85989 -0.44238,-0.15422 -1.411639,-0.29082 -2.153909,-0.30357 -0.742269,-0.0128 -1.944893,-0.1159 -2.672497,-0.22923 -1.063801,-0.1657 -0.696116,-0.21298 1.877222,-0.24141 2.752954,-0.0304 3.259313,0.03 3.623599,0.43257 0.433869,0.47942 0.46538,1.20798 0.06812,1.57494 -0.122712,0.11336 -0.159009,-0.0547 -0.08066,-0.37341 z m -4.074783,-6.18465 c 0.340861,-0.13658 0.72645,-0.18238 0.856865,-0.10178 0.130415,0.0806 0.158717,-0.0578 0.06289,-0.30747 -0.11173,-0.29117 -0.07148,-0.39053 0.112201,-0.277 0.196295,0.12131 0.24717,-0.21918 0.161675,-1.08206 -0.06861,-0.6925 -0.0062,-1.5563 0.138642,-1.91956 0.211326,-0.52991 0.266707,-0.26559 0.280163,1.33713 0.01875,2.23285 -0.203754,2.64122 -1.425209,2.61584 -0.77052,-0.016 -0.778979,-0.028 -0.187231,-0.2651 z m -3.225277,-1.61644 c -0.351421,-0.19666 -0.437179,-0.67286 -0.437179,-2.42755 0,-2.47572 0.192765,-2.81789 1.5875,-2.81789 1.376439,0 1.5875,0.35335 1.5875,2.65774 0,1.5939 -0.09817,2.10964 -0.463021,2.4326 -0.514783,0.45567 -1.604902,0.53 -2.2748,0.1551 z m 1.944071,-1.02652 c 0,-0.26594 0.119062,-0.55711 0.264583,-0.64705 0.391913,-0.24221 0.325029,-2.66316 -0.08293,-3.00174 -0.302744,-0.25125 -1.710931,-0.18738 -1.988509,0.0902 -0.234667,0.23466 -0.272252,3.69633 -0.04313,3.9724 0.40066,0.48277 1.849986,0.15857 1.849986,-0.41381 z"
         id="path182" /><path
         style="fill:#153336"
         d="m 20.786534,196.44547 c -0.389392,-0.36087 -0.629192,-0.78363 -0.532888,-0.93945 0.111633,-0.18062 0.401768,-0.0704 0.800488,0.30421 0.343965,0.32314 0.546674,0.71905 0.450465,0.8798 -0.09621,0.16075 0.02652,0.12886 0.272738,-0.0709 0.315767,-0.25614 0.447664,-0.27102 0.447664,-0.0505 0,0.17519 0.145371,0.22894 0.330729,0.12227 0.181901,-0.10468 0.238364,-0.0888 0.125473,0.0353 -0.426513,0.46884 -1.211338,0.35255 -1.894669,-0.28074 z m 8.656346,0.20973 c 0.695615,-0.0547 1.767178,-0.054 2.38125,0.001 0.614073,0.0555 0.04493,0.10023 -1.264754,0.0994 -1.309687,-8.1e-4 -1.812111,-0.0462 -1.116496,-0.10089 z m 7.013844,-0.001 c 0.915208,-0.0518 2.343958,-0.0514 3.175,9.5e-4 0.831042,0.0523 0.08224,0.0947 -1.664014,0.0942 -1.74625,-5.3e-4 -2.426194,-0.0434 -1.510986,-0.0952 z m 8.592305,-0.29467 c 0.02199,-0.29196 0.119139,-0.48192 0.21588,-0.42213 0.37747,0.23329 0.503811,-2.19365 0.544741,-10.46412 0.02341,-4.72943 0.101683,-8.24177 0.17395,-7.80521 l 0.131396,0.79375 0.199463,-0.66146 c 0.109704,-0.3638 0.21133,3.24167 0.225836,8.01215 0.02736,8.99655 -0.06178,9.85922 -1.108329,10.72713 -0.364341,0.30214 -0.417385,0.2772 -0.382937,-0.18011 z m 1.184285,-7.10628 c -0.05266,-0.84205 -0.09624,-0.22132 -0.09684,1.37941 -5.97e-4,1.60073 0.04249,2.28968 0.09575,1.53101 0.05326,-0.75867 0.05375,-2.06836 0.0011,-2.91042 z m 6.43e-4,-7.55028 c -0.05022,-1.05503 -0.09131,-0.19182 -0.09131,1.91823 0,2.11005 0.04109,2.97325 0.09131,1.91823 0.05022,-1.05503 0.05022,-2.78143 0,-3.83646 z m -21.871401,8.59896 c -0.02683,-6.88111 -0.383225,-6.41615 4.918001,-6.41615 2.134305,0 3.830946,0.047 3.770312,0.10436 -0.06063,0.0574 -1.598524,0.17006 -3.417535,0.25036 -4.300489,0.18986 -4.488854,0.25061 -4.532747,1.46208 l -0.03483,0.96133 -0.194923,-0.92605 c -0.112608,-0.53497 -0.187158,0.80581 -0.176536,3.17501 l 0.01839,4.10104 0.158148,-3.175 0.158149,-3.175 0.04917,4.49791 c 0.02849,2.60663 -0.04692,4.34627 -0.179338,4.13725 -0.192919,-0.3045 -0.25084,-0.3045 -0.371936,0 -0.07889,0.19837 -0.152831,-2.05035 -0.164319,-4.99714 z m -4.514754,-6.4906 c 0.0028,-7.81001 0.08905,-11.30911 0.27218,-11.03805 0.205826,0.30466 0.250994,0.2167 0.194386,-0.37854 -0.05953,-0.62592 0.09959,-0.89373 0.825281,-1.38906 0.897939,-0.61291 0.910156,-0.61365 10.131648,-0.61365 h 9.232625 l 1.307297,1.22282 c 0.719013,0.67256 1.231297,1.3458 1.138409,1.49609 -0.09289,0.1503 -0.04205,0.19488 0.112982,0.0991 0.297962,-0.18415 3.242348,2.66191 3.235424,3.12738 -0.0022,0.1498 -0.106879,0.11006 -0.232556,-0.0883 -0.192919,-0.3045 -0.25084,-0.3045 -0.371935,0 -0.0794,0.19967 -0.16208,0.0654 -0.185208,-0.30079 -0.02298,-0.3638 -0.09637,-0.529 -0.163102,-0.36711 -0.06853,0.16626 -0.519795,-0.10412 -1.036989,-0.62131 -0.503615,-0.50362 -0.847488,-1.02598 -0.764162,-1.1608 0.08333,-0.13483 0.05336,-0.22809 -0.0666,-0.20725 -0.571777,0.0993 -0.879563,-0.0637 -0.879563,-0.46575 0,-0.24254 -0.07534,-0.36564 -0.167416,-0.27356 -0.184011,0.18401 -1.287792,-1.10672 -1.287792,-1.50591 0,-0.13695 -0.165401,-0.30414 -0.367558,-0.37152 -0.245014,-0.0817 -0.297544,-0.009 -0.157557,0.21727 0.138725,0.22446 0.10486,0.2748 -0.09978,0.14833 -0.170379,-0.1053 -0.252547,-0.28406 -0.182596,-0.39724 0.06995,-0.11318 -0.514698,-0.22676 -1.299218,-0.2524 -0.784521,-0.0256 -1.501324,0.0746 -1.592897,0.22279 -0.109903,0.17782 -1.532931,0.20238 -4.186571,0.0722 -4.24846,-0.20835 -9.307062,-0.22552 -10.634658,-0.0361 -1.14227,0.16299 -1.438725,0.41806 -1.995484,1.71693 -0.456637,1.06529 -0.497719,1.99536 -0.511889,11.58893 -0.01177,7.96939 0.06057,10.45601 0.306563,10.53801 0.206342,0.0688 0.160491,0.16928 -0.127672,0.27986 -0.418899,0.16075 -0.449366,-0.60931 -0.445592,-11.26238 z m 22.485533,-11.39392 c 0,-0.0502 -0.267891,-0.31809 -0.595312,-0.59531 l -0.595313,-0.50403 0.504028,0.59532 c 0.473662,0.55944 0.686597,0.71576 0.686597,0.50402 z M 20.910807,171.5823 c 0.359042,-0.48948 0.353427,-0.50194 -0.07487,-0.16604 -0.254661,0.19971 -0.463021,0.48745 -0.463021,0.63941 0,0.15195 0.03369,0.22667 0.07487,0.16604 0.04118,-0.0606 0.249537,-0.34837 0.463021,-0.63941 z m 20.382791,20.04218 c -0.01115,-1.4676 0.08733,-2.44739 0.245987,-2.44739 0.322966,0 0.322966,3.61404 0,4.36562 -0.149918,0.34888 -0.233727,-0.30466 -0.245987,-1.91823 z m -13.77693,1.52136 c 0,-0.14552 0.119062,-0.26723 0.264583,-0.27046 4.765358,-0.1059 10.991475,0.0397 11.064484,0.2587 0.06213,0.18638 -1.767006,0.27634 -5.618477,0.27634 -3.630671,0 -5.71059,-0.0964 -5.71059,-0.26458 z m 0,-2.93575 c 0,-0.1352 2.474064,-0.23925 5.688542,-0.23925 3.128698,0 5.688542,0.102 5.688542,0.22668 0,0.12467 -2.559844,0.23234 -5.688542,0.23925 -3.223747,0.007 -5.688542,-0.0911 -5.688542,-0.22668 z m 13.819718,-3.14967 c 0,-0.50932 0.05445,-0.71768 0.121,-0.46302 0.06655,0.25466 0.06655,0.67138 0,0.92604 -0.06655,0.25466 -0.121,0.0463 -0.121,-0.46302 z m -13.819718,0.25545 c 0,-0.15629 2.208178,-0.25545 5.688542,-0.25545 3.421716,0 5.688542,0.1003 5.688542,0.25169 0,0.15128 -2.269459,0.25319 -5.688542,0.25545 -3.482959,0.002 -5.688542,-0.0953 -5.688542,-0.25169 z m 13.822656,-1.761 c 0.114377,-0.46529 -0.01607,-0.63476 -0.661875,-0.85989 -0.44238,-0.15422 -1.411639,-0.29082 -2.153909,-0.30357 -0.742269,-0.0128 -1.944893,-0.1159 -2.672497,-0.22923 -1.063801,-0.1657 -0.696116,-0.21298 1.877222,-0.24141 2.752954,-0.0304 3.259313,0.03 3.623599,0.43257 0.433869,0.47942 0.46538,1.20798 0.06812,1.57494 -0.122712,0.11336 -0.159009,-0.0547 -0.08066,-0.37341 z m -14.183862,-6.03753 c -0.08428,-0.21963 -0.305378,-0.36846 -0.491328,-0.33073 -0.259638,0.0527 -0.355082,-0.83699 -0.41131,-3.834 -0.04995,-2.66205 0.01757,-3.90261 0.212384,-3.90261 0.194573,0 0.260075,1.17388 0.205511,3.68299 -0.04405,2.02563 -0.03233,3.63483 0.02604,3.57598 0.05837,-0.0588 0.248794,0.0881 0.423159,0.32657 0.247622,0.33865 0.687785,0.41761 2.010537,0.36067 4.205443,-0.181 6.35768,-0.1678 6.485977,0.0398 0.07639,0.12359 0.268119,0.14485 0.426068,0.0472 0.171405,-0.10593 0.211073,-0.0543 0.0984,0.12798 -0.130234,0.21072 -1.529174,0.30546 -4.51049,0.30546 -3.609242,0 -4.346965,-0.0658 -4.47494,-0.39933 z m 10.109079,-0.14712 c 0.340861,-0.13658 0.72645,-0.18238 0.856865,-0.10178 0.130415,0.0806 0.158717,-0.0578 0.06289,-0.30747 -0.11173,-0.29117 -0.07148,-0.39053 0.112201,-0.277 0.196295,0.12131 0.24717,-0.21918 0.161675,-1.08206 -0.06861,-0.6925 -0.0062,-1.5563 0.138642,-1.91956 0.211326,-0.52991 0.266707,-0.26559 0.280163,1.33713 0.01875,2.23285 -0.203754,2.64122 -1.425209,2.61584 -0.77052,-0.016 -0.778979,-0.028 -0.187231,-0.2651 z m -3.225277,-1.61644 c -0.351421,-0.19666 -0.437179,-0.67286 -0.437179,-2.42755 0,-2.47572 0.192765,-2.81789 1.5875,-2.81789 1.376439,0 1.5875,0.35335 1.5875,2.65774 0,1.5939 -0.09817,2.10964 -0.463021,2.4326 -0.514783,0.45567 -1.604902,0.53 -2.2748,0.1551 z m 1.944071,-1.02652 c 0,-0.26594 0.119062,-0.55711 0.264583,-0.64705 0.391913,-0.24221 0.325029,-2.66316 -0.08293,-3.00174 -0.302744,-0.25125 -1.710931,-0.18738 -1.988509,0.0902 -0.234667,0.23466 -0.272252,3.69633 -0.04313,3.9724 0.40066,0.48277 1.849986,0.15857 1.849986,-0.41381 z m 2.56917,-5.01267 c 0.07611,-0.29104 0.184025,-0.52917 0.239814,-0.52917 0.05579,0 0.101433,0.23813 0.101433,0.52917 0,0.29104 -0.107916,0.52916 -0.239814,0.52916 -0.131897,0 -0.177542,-0.23812 -0.101433,-0.52916 z"
         id="path181" /></g></g></svg>
