<?xml version="1.0" encoding="UTF-8"?>
<svg id="Capa_1" data-name="Capa 1" xmlns="http://www.w3.org/2000/svg" viewBox="0 0 157.12 156.88">
  <defs>
    <style>
      .cls-1 {
        fill: #468b83;
      }

      .cls-2 {
        fill: #6c4830;
      }

      .cls-3 {
        fill: #b8855e;
      }

      .cls-4 {
        fill: #468a82;
      }

      .cls-5 {
        fill: #121a13;
      }

      .cls-6 {
        fill: #6caca7;
      }

      .cls-7 {
        fill: #d09771;
      }
    </style>
  </defs>
  <path class="cls-5" d="M113.96,151.98c-26.84,7.38-52.58,6.32-78.91-2.5-7.38-2.47-14.41-5.53-21.15-9.33-.9-.51-1.46-1.56-1.21-2.58l5.95-24.54c.26-1.06.94-1.65,1.95-2.01l18.64-6.63,13.93-4.84c3.3-3.5,4.73-7.97,5.17-12.73-10.87-5.49-19.25-14.83-23.18-26.31-5.33-15.55-1.75-32.8,9.12-45.03C61.49-3.9,91.13-5.27,109.94,12.43c7.6,7.15,12.58,16.54,14.05,26.91,2.82,19.82-7.41,38.54-25.18,47.48.47,4.73,1.89,9.23,5.17,12.7l15.43,5.41,17.29,6.12c.94.33,1.57,1,1.8,1.97l5.93,24.54c.29,1.21-.42,2.21-1.42,2.76-9.18,5.04-18.9,8.88-29.06,11.67Z"/>
  <g>
    <g>
      <path class="cls-2" d="M91.04,33.79c-13.87,2.01-21.04-6.69-27.77-8.15-2.33-.51-4.82-.47-7.08.34-2.48.89-4.2,3-5.15,5.38-.28.7-.6,1.24-.91,1.9-2.26,4.82-6.99,10.31-12.67,11.25,0-4.8,1.08-9.38,2.83-13.83,2.23-5.68,5.67-10.55,9.95-14.67,15.72-15.1,40.62-15.18,56.48-.21,7.92,7.48,12.64,17.55,13.07,28.77-6.72-.68-10.55-5.79-13.52-11.51-.96-1.85-3.03-2.41-4.93-1.8-3.41,1.09-6.73,2.03-10.29,2.54Z"/>
      <g>
        <path class="cls-7" d="M119.66,49.23c-1.51,18.34-15.39,33.49-33.26,37.01-23.91,4.71-46.81-12.83-48.9-37.02,8.35-1.25,14.65-8.6,17.81-16.16,1.35-3.67,5.54-3.8,8.9-2.24,2.27,1.06,4.28,2.21,6.48,3.41,10.81,5.91,20.16,5.31,31.7,1.47,1.7,3.26,3.74,6.16,6.38,8.61,2.98,2.78,6.61,4.48,10.89,4.92Z"/>
        <path class="cls-3" d="M93,105.27c-8.66,3.66-18.19,3.91-26.96.76-3.06-1.15-5.82-2.68-8.26-4.86,2.85-3.7,4.32-7.93,4.85-12.42,10.48,3.8,21.64,3.84,31.84.02.57,4.61,2.1,8.84,4.91,12.41-1.88,1.74-3.97,2.9-6.39,4.09Z"/>
      </g>
    </g>
    <g>
      <path class="cls-6" d="M133.95,114.96c.36.21.23.57-.12.78l-16.2,11.46-3.56,18.62c.02.69-.14,1.18-.49,1.48l-9.18,2.23c-20.4,4.36-40.84,3.35-60.9-2.24l-.29-.38c-1.09-6.61-2.37-13.18-3.82-19.72l-.6-.56-15.77-11.03c-.14-.23-.12-.55.13-.66l30.91-10.91c3.51,3.27,7.64,5.51,12.25,6.96,8.03,2.41,16.46,2.41,24.5.03,4.59-1.45,8.73-3.71,12.29-6.98l24,8.45,6.84,2.5Z"/>
      <path class="cls-4" d="M43.51,147.28l-3.53-1.07c-7.77-2.35-15.22-5.36-22.45-9.2l5.27-21.84c.06-.25.26-.22.36-.25-.1.36.16.39.47.61l15.39,10.78c.67.47.89.84,1.04,1.63l3.43,17.93c.1.54.19.96.02,1.41Z"/>
      <path class="cls-1" d="M113.58,147.29c-.03-.52.01-.98.12-1.54l3.6-18.85,16.19-11.39c.28-.2.4-.29.45-.56.23-.03.36.07.42.34l5.24,21.71c-7.26,3.81-14.68,6.87-22.45,9.2l-3.59,1.08Z"/>
    </g>
  </g>
</svg>