<?xml version="1.0" encoding="UTF-8"?>
<svg id="Capa_1" data-name="Capa 1" xmlns="http://www.w3.org/2000/svg" viewBox="0 0 157.12 156.88">
  <defs>
    <style>
      .cls-1 {
        fill: #7a7b78;
      }

      .cls-2 {
        fill: #eba13c;
      }

      .cls-3 {
        fill: #222726;
      }

      .cls-4 {
        fill: #1e272a;
      }

      .cls-5 {
        fill: #7e7f7f;
      }

      .cls-6 {
        fill: #ee9b30;
      }

      .cls-7 {
        fill: #7c7c7a;
      }

      .cls-8 {
        fill: #1e2629;
      }

      .cls-9 {
        fill: #1f262b;
      }

      .cls-10 {
        fill: #7e7f7e;
      }

      .cls-11 {
        fill: #ee9b2f;
      }

      .cls-12 {
        fill: #7c7d7b;
      }

      .cls-13 {
        fill: #121a13;
      }

      .cls-14 {
        fill: #7f807f;
      }

      .cls-15 {
        fill: #eb9c35;
      }

      .cls-16 {
        fill: #d49d52;
      }

      .cls-17 {
        fill: #808181;
      }

      .cls-18 {
        fill: #f2f2ed;
      }
    </style>
  </defs>
  <path class="cls-13" d="M140.97,118.6c-1.03,6.1-5.13,10.84-10.72,13.21-10.38,3.74-21-2.34-23.23-13.18h-56.05c-1.29,7.42-7.29,13.17-14.62,14.15-9.4,1.25-17.77-4.93-19.37-14.18h-4.12c-3.04,0-5.66-2.35-5.67-5.44l-.04-8.29c-3.9-.59-6.51-3.57-7.14-7.51L0,32.54c0-4.92,3.75-8.6,8.64-8.6h89.61c3.97.41,7.35,3.59,7.37,7.6l.07,14.48h22.82c4.03,0,8.1,1.92,9.92,5.6l12.08,24.54c1.58,3.21,2.64,6.32,2.64,9.94v18.51c4.2,1.41,4.14,4.99,3.84,9.2-.45,2.86-2.73,4.83-5.63,4.82l-10.39-.03Z"/>
  <g>
    <g>
      <path class="cls-17" d="M115.23,76.06c-.74-.07-1.15-.53-1.24-1.23l.02-14.73c.02-.99.67-1.69,1.68-1.75l21.8-.05,8.61,17.73-30.86.03Z"/>
      <g>
        <path class="cls-18" d="M114.85,79.8l33.1.04c.82,1.61,1.17,3.23,1.28,5l-.03,19.72-12.05-.02c-5.52-6.33-14.75-7.83-21.92-3.55l-9.5-.02v-51.13s23.03.02,23.03.02c3.05,0,5.6,1.68,6.78,4.62l-20.58.13c-2.51.02-4.76,2.53-4.75,4.95v15.52c.01,2.42,2.01,4.7,4.66,4.71Z"/>
        <path class="cls-9" d="M120.08,88.43l-6.55.03c-1.21,0-2.02-.77-2.06-1.88s.79-1.97,2.07-1.97h6.65c1.02,0,1.72.95,1.74,1.77.02.96-.62,2.03-1.84,2.04Z"/>
      </g>
    </g>
    <g>
      <path class="cls-18" d="M101.84,72.78l-.16.48c-8.81,0-17.63.01-26.45.02l-.29-.48-.48-.16-.08-19.18c-2.07-3.09-4.25-6.11-6.53-9.07-.42-.5-1.06-.72-1.7-.71h-28.4c-.61.03-1.24.16-1.72.56l-5.86,7.82-.74,1.48c-.12,6.25-.15,12.51-.1,18.79l-.48.28-.16.48c-8.12,0-16.25,0-24.38-.01l-.29-.48v-40.54c0-1.99,1.61-4.21,3.7-4.21l90.64.03c2.07,0,3.26,2.46,3.45,4.19v40.72Z"/>
      <path class="cls-17" d="M28.87,72.6l.48.21.1,7.61c.24,2.08,1.54,2.61,3.46,2.77h38.01c2.17-.2,3.27-.91,3.52-3.16l.03-6.89.48-.35,26.9-.02v28.22s-58.95-.01-58.95-.01c-5.51-3.2-12.2-3.25-17.71-.01H7.69c-1.86-.28-3.61-1.73-3.61-3.78l-.04-24.61h24.83Z"/>
      <g>
        <path class="cls-3" d="M74.94,72.8l-.03,7.25c0,2.24-1.8,3.61-3.99,3.61h-38.02c-2,0-3.9-1.13-3.93-3.22l-.1-7.83v-18.2c0-1.14.37-1.89,1.02-2.77l5.46-7.36c.58-.78,1.56-1.07,2.54-1.07h28.28c.87,0,1.65.32,2.14.99l5.96,8.06c.29.39.64.96.64,1.48l.03,19.07Z"/>
        <path class="cls-11" d="M58.07,62.53l.04-7.67,14.02-.02-.03,24.73c0,.81-.34,1.25-1.18,1.25h-37.54c-1,0-1.69-.4-1.69-1.48v-24.51s14.02.01,14.02.01v7.15c.59,3.04,3.22.35,6.19-.23,1.33-.04,2.58,1.07,3.8,1.35.84.6,1.85.37,2.36-.59Z"/>
        <path class="cls-2" d="M55.36,59.95l-3.42-1.23c-1.17-.05-1.98.86-3.34,1.28l-.12-6.23.85-7.7h5.13s.85,7.37.85,7.37l.05,6.51Z"/>
        <polygon class="cls-15" points="70.48 52.01 58.09 52.04 57.26 46.1 66.16 46.05 70.48 52.01"/>
        <g>
          <path class="cls-16" d="M45.75,52.04l-12.53.02c1.43-2.11,2.72-4,4.33-5.95l8.99-.06-.79,6Z"/>
          <path class="cls-6" d="M44.81,51.56h-9.32c-.35-.01-.63-.2-.72-.41-.16-.38,1.82-3.32,3.17-4.62h7.93c.25.94-.13,1.68-.25,2.51-.12.88-.16,1.66-.82,2.51Z"/>
        </g>
      </g>
    </g>
    <g>
      <path class="cls-14" d="M106.77,114.78h-55.58c-.22-3.64-1.46-6.89-3.95-9.9h63.51c-2.29,2.97-3.68,6.08-3.98,9.9Z"/>
      <path class="cls-5" d="M153.25,113c-.08,1.16-.84,1.81-1.89,1.78h-10.16c-.16-2.27-.66-4.3-1.59-6.33l12.67-.02c.6.21,1.01.75,1,1.4l-.03,3.17Z"/>
      <path class="cls-10" d="M16.94,114.73l-4.37-.07c-.95-.02-1.58-1.04-1.59-1.97l.02-7.83,9.74.03c-2.26,2.92-3.69,6.07-3.8,9.84Z"/>
      <g>
        <circle class="cls-1" cx="33.97" cy="115.78" r="13.32"/>
        <g>
          <circle class="cls-8" cx="33.97" cy="115.81" r="7.75"/>
          <circle class="cls-7" cx="33.98" cy="115.79" r="3.92"/>
        </g>
      </g>
      <g>
        <circle class="cls-1" cx="124.04" cy="115.78" r="13.3"/>
        <g>
          <circle class="cls-4" cx="124.05" cy="115.81" r="7.74"/>
          <circle class="cls-12" cx="124.07" cy="115.77" r="3.92"/>
        </g>
      </g>
    </g>
  </g>
</svg>